M48
; DRILL file {KiCad (5.1.7)-1} date 05/03/21 22:05:32
; FORMAT={-:-/ absolute / inch / decimal}
; #@! TF.CreationDate,2021-05-03T22:05:32+02:00
; #@! TF.GenerationSoftware,Kicad,Pcbnew,(5.1.7)-1
FMAT,2
INCH
T1C0.0157
%
G90
G05
T1
X3.3268Y-4.1476
X3.3957Y-4.1437
X3.9862Y-3.7146
X4.2126Y-3.8091
X4.311Y-3.753
X4.5276Y-3.6811
X4.8031Y-3.6024
X4.8637Y-3.5865
X5.0295Y-3.7106
X5.3346Y-3.5699
X5.4134Y-3.8583
X5.4528Y-3.6348
X5.502Y-3.8583
X5.5118Y-3.6348
X5.561Y-3.8583
X5.6299Y-3.5728
X5.7579Y-3.7106
X5.9646Y-3.7008
X6.0335Y-3.6555
X6.1024Y-3.6614
X6.4272Y-3.6811
X6.8307Y-3.75
X6.8602Y-3.8287
X6.9685Y-3.7106
X7.4606Y-4.1142
T0
M30
