%TF.GenerationSoftware,KiCad,Pcbnew,(5.1.7)-1*%
%TF.CreationDate,2021-05-03T22:05:59+02:00*%
%TF.ProjectId,KaszmirSensors,4b61737a-6d69-4725-9365-6e736f72732e,rev?*%
%TF.SameCoordinates,Original*%
%TF.FileFunction,Legend,Bot*%
%TF.FilePolarity,Positive*%
%FSLAX46Y46*%
G04 Gerber Fmt 4.6, Leading zero omitted, Abs format (unit mm)*
G04 Created by KiCad (PCBNEW (5.1.7)-1) date 2021-05-03 22:05:59*
%MOMM*%
%LPD*%
G01*
G04 APERTURE LIST*
%ADD10C,0.120000*%
G04 APERTURE END LIST*
D10*
%TO.C,U10*%
X85600000Y-108650000D02*
X85600000Y-106350000D01*
X86900000Y-108650000D02*
X85600000Y-108650000D01*
X86900000Y-106550000D02*
X86900000Y-108650000D01*
X86700000Y-106350000D02*
X86900000Y-106550000D01*
X85600000Y-106350000D02*
X86700000Y-106350000D01*
X85100000Y-108650000D02*
X84000000Y-108650000D01*
X85100000Y-106350000D02*
X85100000Y-108650000D01*
X84000000Y-106350000D02*
X85100000Y-106350000D01*
X85400000Y-108850000D02*
X85400000Y-106150000D01*
X85300000Y-108850000D02*
X85400000Y-108850000D01*
X85300000Y-106150000D02*
X85300000Y-108850000D01*
X84000000Y-106350000D02*
X84000000Y-108650000D01*
X87100000Y-106450000D02*
X86800000Y-106150000D01*
X87100000Y-108850000D02*
X87100000Y-106450000D01*
X83800000Y-108850000D02*
X87100000Y-108850000D01*
X83800000Y-106150000D02*
X83800000Y-108850000D01*
X86800000Y-106150000D02*
X83800000Y-106150000D01*
%TO.C,U9*%
X102350000Y-97650000D02*
X102350000Y-95350000D01*
X103650000Y-97650000D02*
X102350000Y-97650000D01*
X103650000Y-95550000D02*
X103650000Y-97650000D01*
X103450000Y-95350000D02*
X103650000Y-95550000D01*
X102350000Y-95350000D02*
X103450000Y-95350000D01*
X101850000Y-97650000D02*
X100750000Y-97650000D01*
X101850000Y-95350000D02*
X101850000Y-97650000D01*
X100750000Y-95350000D02*
X101850000Y-95350000D01*
X102150000Y-97850000D02*
X102150000Y-95150000D01*
X102050000Y-97850000D02*
X102150000Y-97850000D01*
X102050000Y-95150000D02*
X102050000Y-97850000D01*
X100750000Y-95350000D02*
X100750000Y-97650000D01*
X103850000Y-95450000D02*
X103550000Y-95150000D01*
X103850000Y-97850000D02*
X103850000Y-95450000D01*
X100550000Y-97850000D02*
X103850000Y-97850000D01*
X100550000Y-95150000D02*
X100550000Y-97850000D01*
X103550000Y-95150000D02*
X100550000Y-95150000D01*
%TO.C,U8*%
X114350000Y-96900000D02*
X114350000Y-94600000D01*
X115650000Y-96900000D02*
X114350000Y-96900000D01*
X115650000Y-94800000D02*
X115650000Y-96900000D01*
X115450000Y-94600000D02*
X115650000Y-94800000D01*
X114350000Y-94600000D02*
X115450000Y-94600000D01*
X113850000Y-96900000D02*
X112750000Y-96900000D01*
X113850000Y-94600000D02*
X113850000Y-96900000D01*
X112750000Y-94600000D02*
X113850000Y-94600000D01*
X114150000Y-97100000D02*
X114150000Y-94400000D01*
X114050000Y-97100000D02*
X114150000Y-97100000D01*
X114050000Y-94400000D02*
X114050000Y-97100000D01*
X112750000Y-94600000D02*
X112750000Y-96900000D01*
X115850000Y-94700000D02*
X115550000Y-94400000D01*
X115850000Y-97100000D02*
X115850000Y-94700000D01*
X112550000Y-97100000D02*
X115850000Y-97100000D01*
X112550000Y-94400000D02*
X112550000Y-97100000D01*
X115550000Y-94400000D02*
X112550000Y-94400000D01*
%TO.C,U7*%
X124600000Y-96150000D02*
X124600000Y-93850000D01*
X125900000Y-96150000D02*
X124600000Y-96150000D01*
X125900000Y-94050000D02*
X125900000Y-96150000D01*
X125700000Y-93850000D02*
X125900000Y-94050000D01*
X124600000Y-93850000D02*
X125700000Y-93850000D01*
X124100000Y-96150000D02*
X123000000Y-96150000D01*
X124100000Y-93850000D02*
X124100000Y-96150000D01*
X123000000Y-93850000D02*
X124100000Y-93850000D01*
X124400000Y-96350000D02*
X124400000Y-93650000D01*
X124300000Y-96350000D02*
X124400000Y-96350000D01*
X124300000Y-93650000D02*
X124300000Y-96350000D01*
X123000000Y-93850000D02*
X123000000Y-96150000D01*
X126100000Y-93950000D02*
X125800000Y-93650000D01*
X126100000Y-96350000D02*
X126100000Y-93950000D01*
X122800000Y-96350000D02*
X126100000Y-96350000D01*
X122800000Y-93650000D02*
X122800000Y-96350000D01*
X125800000Y-93650000D02*
X122800000Y-93650000D01*
%TO.C,U6*%
X134350000Y-95650000D02*
X134350000Y-93350000D01*
X135650000Y-95650000D02*
X134350000Y-95650000D01*
X135650000Y-93550000D02*
X135650000Y-95650000D01*
X135450000Y-93350000D02*
X135650000Y-93550000D01*
X134350000Y-93350000D02*
X135450000Y-93350000D01*
X133850000Y-95650000D02*
X132750000Y-95650000D01*
X133850000Y-93350000D02*
X133850000Y-95650000D01*
X132750000Y-93350000D02*
X133850000Y-93350000D01*
X134150000Y-95850000D02*
X134150000Y-93150000D01*
X134050000Y-95850000D02*
X134150000Y-95850000D01*
X134050000Y-93150000D02*
X134050000Y-95850000D01*
X132750000Y-93350000D02*
X132750000Y-95650000D01*
X135850000Y-93450000D02*
X135550000Y-93150000D01*
X135850000Y-95850000D02*
X135850000Y-93450000D01*
X132550000Y-95850000D02*
X135850000Y-95850000D01*
X132550000Y-93150000D02*
X132550000Y-95850000D01*
X135550000Y-93150000D02*
X132550000Y-93150000D01*
%TO.C,U5*%
X144600000Y-95650000D02*
X144600000Y-93350000D01*
X145900000Y-95650000D02*
X144600000Y-95650000D01*
X145900000Y-93550000D02*
X145900000Y-95650000D01*
X145700000Y-93350000D02*
X145900000Y-93550000D01*
X144600000Y-93350000D02*
X145700000Y-93350000D01*
X144100000Y-95650000D02*
X143000000Y-95650000D01*
X144100000Y-93350000D02*
X144100000Y-95650000D01*
X143000000Y-93350000D02*
X144100000Y-93350000D01*
X144400000Y-95850000D02*
X144400000Y-93150000D01*
X144300000Y-95850000D02*
X144400000Y-95850000D01*
X144300000Y-93150000D02*
X144300000Y-95850000D01*
X143000000Y-93350000D02*
X143000000Y-95650000D01*
X146100000Y-93450000D02*
X145800000Y-93150000D01*
X146100000Y-95850000D02*
X146100000Y-93450000D01*
X142800000Y-95850000D02*
X146100000Y-95850000D01*
X142800000Y-93150000D02*
X142800000Y-95850000D01*
X145800000Y-93150000D02*
X142800000Y-93150000D01*
%TO.C,U4*%
X154350000Y-96150000D02*
X154350000Y-93850000D01*
X155650000Y-96150000D02*
X154350000Y-96150000D01*
X155650000Y-94050000D02*
X155650000Y-96150000D01*
X155450000Y-93850000D02*
X155650000Y-94050000D01*
X154350000Y-93850000D02*
X155450000Y-93850000D01*
X153850000Y-96150000D02*
X152750000Y-96150000D01*
X153850000Y-93850000D02*
X153850000Y-96150000D01*
X152750000Y-93850000D02*
X153850000Y-93850000D01*
X154150000Y-96350000D02*
X154150000Y-93650000D01*
X154050000Y-96350000D02*
X154150000Y-96350000D01*
X154050000Y-93650000D02*
X154050000Y-96350000D01*
X152750000Y-93850000D02*
X152750000Y-96150000D01*
X155850000Y-93950000D02*
X155550000Y-93650000D01*
X155850000Y-96350000D02*
X155850000Y-93950000D01*
X152550000Y-96350000D02*
X155850000Y-96350000D01*
X152550000Y-93650000D02*
X152550000Y-96350000D01*
X155550000Y-93650000D02*
X152550000Y-93650000D01*
%TO.C,U3*%
X164600000Y-96900000D02*
X164600000Y-94600000D01*
X165900000Y-96900000D02*
X164600000Y-96900000D01*
X165900000Y-94800000D02*
X165900000Y-96900000D01*
X165700000Y-94600000D02*
X165900000Y-94800000D01*
X164600000Y-94600000D02*
X165700000Y-94600000D01*
X164100000Y-96900000D02*
X163000000Y-96900000D01*
X164100000Y-94600000D02*
X164100000Y-96900000D01*
X163000000Y-94600000D02*
X164100000Y-94600000D01*
X164400000Y-97100000D02*
X164400000Y-94400000D01*
X164300000Y-97100000D02*
X164400000Y-97100000D01*
X164300000Y-94400000D02*
X164300000Y-97100000D01*
X163000000Y-94600000D02*
X163000000Y-96900000D01*
X166100000Y-94700000D02*
X165800000Y-94400000D01*
X166100000Y-97100000D02*
X166100000Y-94700000D01*
X162800000Y-97100000D02*
X166100000Y-97100000D01*
X162800000Y-94400000D02*
X162800000Y-97100000D01*
X165800000Y-94400000D02*
X162800000Y-94400000D01*
%TO.C,U2*%
X176350000Y-97650000D02*
X176350000Y-95350000D01*
X177650000Y-97650000D02*
X176350000Y-97650000D01*
X177650000Y-95550000D02*
X177650000Y-97650000D01*
X177450000Y-95350000D02*
X177650000Y-95550000D01*
X176350000Y-95350000D02*
X177450000Y-95350000D01*
X175850000Y-97650000D02*
X174750000Y-97650000D01*
X175850000Y-95350000D02*
X175850000Y-97650000D01*
X174750000Y-95350000D02*
X175850000Y-95350000D01*
X176150000Y-97850000D02*
X176150000Y-95150000D01*
X176050000Y-97850000D02*
X176150000Y-97850000D01*
X176050000Y-95150000D02*
X176050000Y-97850000D01*
X174750000Y-95350000D02*
X174750000Y-97650000D01*
X177850000Y-95450000D02*
X177550000Y-95150000D01*
X177850000Y-97850000D02*
X177850000Y-95450000D01*
X174550000Y-97850000D02*
X177850000Y-97850000D01*
X174550000Y-95150000D02*
X174550000Y-97850000D01*
X177550000Y-95150000D02*
X174550000Y-95150000D01*
%TO.C,U1*%
X192100000Y-107900000D02*
X192100000Y-105600000D01*
X193400000Y-107900000D02*
X192100000Y-107900000D01*
X193400000Y-105800000D02*
X193400000Y-107900000D01*
X193200000Y-105600000D02*
X193400000Y-105800000D01*
X192100000Y-105600000D02*
X193200000Y-105600000D01*
X191600000Y-107900000D02*
X190500000Y-107900000D01*
X191600000Y-105600000D02*
X191600000Y-107900000D01*
X190500000Y-105600000D02*
X191600000Y-105600000D01*
X191900000Y-108100000D02*
X191900000Y-105400000D01*
X191800000Y-108100000D02*
X191900000Y-108100000D01*
X191800000Y-105400000D02*
X191800000Y-108100000D01*
X190500000Y-105600000D02*
X190500000Y-107900000D01*
X193600000Y-105700000D02*
X193300000Y-105400000D01*
X193600000Y-108100000D02*
X193600000Y-105700000D01*
X190300000Y-108100000D02*
X193600000Y-108100000D01*
X190300000Y-105400000D02*
X190300000Y-108100000D01*
X193300000Y-105400000D02*
X190300000Y-105400000D01*
%TO.C,R3*%
X138012742Y-90227500D02*
X138487258Y-90227500D01*
X138012742Y-91272500D02*
X138487258Y-91272500D01*
%TD*%
M02*
