%TF.GenerationSoftware,KiCad,Pcbnew,(5.1.7)-1*%
%TF.CreationDate,2021-05-03T22:05:59+02:00*%
%TF.ProjectId,KaszmirSensors,4b61737a-6d69-4725-9365-6e736f72732e,rev?*%
%TF.SameCoordinates,Original*%
%TF.FileFunction,Soldermask,Top*%
%TF.FilePolarity,Negative*%
%FSLAX46Y46*%
G04 Gerber Fmt 4.6, Leading zero omitted, Abs format (unit mm)*
G04 Created by KiCad (PCBNEW (5.1.7)-1) date 2021-05-03 22:05:59*
%MOMM*%
%LPD*%
G01*
G04 APERTURE LIST*
%ADD10R,0.300000X1.100000*%
%ADD11R,2.300000X3.100000*%
G04 APERTURE END LIST*
%TO.C,R15*%
G36*
G01*
X109775000Y-94075000D02*
X109225000Y-94075000D01*
G75*
G02*
X109025000Y-93875000I0J200000D01*
G01*
X109025000Y-93475000D01*
G75*
G02*
X109225000Y-93275000I200000J0D01*
G01*
X109775000Y-93275000D01*
G75*
G02*
X109975000Y-93475000I0J-200000D01*
G01*
X109975000Y-93875000D01*
G75*
G02*
X109775000Y-94075000I-200000J0D01*
G01*
G37*
G36*
G01*
X109775000Y-95725000D02*
X109225000Y-95725000D01*
G75*
G02*
X109025000Y-95525000I0J200000D01*
G01*
X109025000Y-95125000D01*
G75*
G02*
X109225000Y-94925000I200000J0D01*
G01*
X109775000Y-94925000D01*
G75*
G02*
X109975000Y-95125000I0J-200000D01*
G01*
X109975000Y-95525000D01*
G75*
G02*
X109775000Y-95725000I-200000J0D01*
G01*
G37*
%TD*%
%TO.C,R14*%
G36*
G01*
X111275000Y-94075000D02*
X110725000Y-94075000D01*
G75*
G02*
X110525000Y-93875000I0J200000D01*
G01*
X110525000Y-93475000D01*
G75*
G02*
X110725000Y-93275000I200000J0D01*
G01*
X111275000Y-93275000D01*
G75*
G02*
X111475000Y-93475000I0J-200000D01*
G01*
X111475000Y-93875000D01*
G75*
G02*
X111275000Y-94075000I-200000J0D01*
G01*
G37*
G36*
G01*
X111275000Y-95725000D02*
X110725000Y-95725000D01*
G75*
G02*
X110525000Y-95525000I0J200000D01*
G01*
X110525000Y-95125000D01*
G75*
G02*
X110725000Y-94925000I200000J0D01*
G01*
X111275000Y-94925000D01*
G75*
G02*
X111475000Y-95125000I0J-200000D01*
G01*
X111475000Y-95525000D01*
G75*
G02*
X111275000Y-95725000I-200000J0D01*
G01*
G37*
%TD*%
%TO.C,R13*%
G36*
G01*
X135225000Y-91925000D02*
X135775000Y-91925000D01*
G75*
G02*
X135975000Y-92125000I0J-200000D01*
G01*
X135975000Y-92525000D01*
G75*
G02*
X135775000Y-92725000I-200000J0D01*
G01*
X135225000Y-92725000D01*
G75*
G02*
X135025000Y-92525000I0J200000D01*
G01*
X135025000Y-92125000D01*
G75*
G02*
X135225000Y-91925000I200000J0D01*
G01*
G37*
G36*
G01*
X135225000Y-90275000D02*
X135775000Y-90275000D01*
G75*
G02*
X135975000Y-90475000I0J-200000D01*
G01*
X135975000Y-90875000D01*
G75*
G02*
X135775000Y-91075000I-200000J0D01*
G01*
X135225000Y-91075000D01*
G75*
G02*
X135025000Y-90875000I0J200000D01*
G01*
X135025000Y-90475000D01*
G75*
G02*
X135225000Y-90275000I200000J0D01*
G01*
G37*
%TD*%
%TO.C,R12*%
G36*
G01*
X136725000Y-91925000D02*
X137275000Y-91925000D01*
G75*
G02*
X137475000Y-92125000I0J-200000D01*
G01*
X137475000Y-92525000D01*
G75*
G02*
X137275000Y-92725000I-200000J0D01*
G01*
X136725000Y-92725000D01*
G75*
G02*
X136525000Y-92525000I0J200000D01*
G01*
X136525000Y-92125000D01*
G75*
G02*
X136725000Y-91925000I200000J0D01*
G01*
G37*
G36*
G01*
X136725000Y-90275000D02*
X137275000Y-90275000D01*
G75*
G02*
X137475000Y-90475000I0J-200000D01*
G01*
X137475000Y-90875000D01*
G75*
G02*
X137275000Y-91075000I-200000J0D01*
G01*
X136725000Y-91075000D01*
G75*
G02*
X136525000Y-90875000I0J200000D01*
G01*
X136525000Y-90475000D01*
G75*
G02*
X136725000Y-90275000I200000J0D01*
G01*
G37*
%TD*%
%TO.C,R11*%
G36*
G01*
X138225000Y-91925000D02*
X138775000Y-91925000D01*
G75*
G02*
X138975000Y-92125000I0J-200000D01*
G01*
X138975000Y-92525000D01*
G75*
G02*
X138775000Y-92725000I-200000J0D01*
G01*
X138225000Y-92725000D01*
G75*
G02*
X138025000Y-92525000I0J200000D01*
G01*
X138025000Y-92125000D01*
G75*
G02*
X138225000Y-91925000I200000J0D01*
G01*
G37*
G36*
G01*
X138225000Y-90275000D02*
X138775000Y-90275000D01*
G75*
G02*
X138975000Y-90475000I0J-200000D01*
G01*
X138975000Y-90875000D01*
G75*
G02*
X138775000Y-91075000I-200000J0D01*
G01*
X138225000Y-91075000D01*
G75*
G02*
X138025000Y-90875000I0J200000D01*
G01*
X138025000Y-90475000D01*
G75*
G02*
X138225000Y-90275000I200000J0D01*
G01*
G37*
%TD*%
%TO.C,R10*%
G36*
G01*
X139725000Y-91925000D02*
X140275000Y-91925000D01*
G75*
G02*
X140475000Y-92125000I0J-200000D01*
G01*
X140475000Y-92525000D01*
G75*
G02*
X140275000Y-92725000I-200000J0D01*
G01*
X139725000Y-92725000D01*
G75*
G02*
X139525000Y-92525000I0J200000D01*
G01*
X139525000Y-92125000D01*
G75*
G02*
X139725000Y-91925000I200000J0D01*
G01*
G37*
G36*
G01*
X139725000Y-90275000D02*
X140275000Y-90275000D01*
G75*
G02*
X140475000Y-90475000I0J-200000D01*
G01*
X140475000Y-90875000D01*
G75*
G02*
X140275000Y-91075000I-200000J0D01*
G01*
X139725000Y-91075000D01*
G75*
G02*
X139525000Y-90875000I0J200000D01*
G01*
X139525000Y-90475000D01*
G75*
G02*
X139725000Y-90275000I200000J0D01*
G01*
G37*
%TD*%
%TO.C,R9*%
G36*
G01*
X141225000Y-91925000D02*
X141775000Y-91925000D01*
G75*
G02*
X141975000Y-92125000I0J-200000D01*
G01*
X141975000Y-92525000D01*
G75*
G02*
X141775000Y-92725000I-200000J0D01*
G01*
X141225000Y-92725000D01*
G75*
G02*
X141025000Y-92525000I0J200000D01*
G01*
X141025000Y-92125000D01*
G75*
G02*
X141225000Y-91925000I200000J0D01*
G01*
G37*
G36*
G01*
X141225000Y-90275000D02*
X141775000Y-90275000D01*
G75*
G02*
X141975000Y-90475000I0J-200000D01*
G01*
X141975000Y-90875000D01*
G75*
G02*
X141775000Y-91075000I-200000J0D01*
G01*
X141225000Y-91075000D01*
G75*
G02*
X141025000Y-90875000I0J200000D01*
G01*
X141025000Y-90475000D01*
G75*
G02*
X141225000Y-90275000I200000J0D01*
G01*
G37*
%TD*%
%TO.C,R8*%
G36*
G01*
X142725000Y-91925000D02*
X143275000Y-91925000D01*
G75*
G02*
X143475000Y-92125000I0J-200000D01*
G01*
X143475000Y-92525000D01*
G75*
G02*
X143275000Y-92725000I-200000J0D01*
G01*
X142725000Y-92725000D01*
G75*
G02*
X142525000Y-92525000I0J200000D01*
G01*
X142525000Y-92125000D01*
G75*
G02*
X142725000Y-91925000I200000J0D01*
G01*
G37*
G36*
G01*
X142725000Y-90275000D02*
X143275000Y-90275000D01*
G75*
G02*
X143475000Y-90475000I0J-200000D01*
G01*
X143475000Y-90875000D01*
G75*
G02*
X143275000Y-91075000I-200000J0D01*
G01*
X142725000Y-91075000D01*
G75*
G02*
X142525000Y-90875000I0J200000D01*
G01*
X142525000Y-90475000D01*
G75*
G02*
X142725000Y-90275000I200000J0D01*
G01*
G37*
%TD*%
%TO.C,R7*%
G36*
G01*
X175775000Y-94825000D02*
X175225000Y-94825000D01*
G75*
G02*
X175025000Y-94625000I0J200000D01*
G01*
X175025000Y-94225000D01*
G75*
G02*
X175225000Y-94025000I200000J0D01*
G01*
X175775000Y-94025000D01*
G75*
G02*
X175975000Y-94225000I0J-200000D01*
G01*
X175975000Y-94625000D01*
G75*
G02*
X175775000Y-94825000I-200000J0D01*
G01*
G37*
G36*
G01*
X175775000Y-96475000D02*
X175225000Y-96475000D01*
G75*
G02*
X175025000Y-96275000I0J200000D01*
G01*
X175025000Y-95875000D01*
G75*
G02*
X175225000Y-95675000I200000J0D01*
G01*
X175775000Y-95675000D01*
G75*
G02*
X175975000Y-95875000I0J-200000D01*
G01*
X175975000Y-96275000D01*
G75*
G02*
X175775000Y-96475000I-200000J0D01*
G01*
G37*
%TD*%
%TO.C,R6*%
G36*
G01*
X178775000Y-94825000D02*
X178225000Y-94825000D01*
G75*
G02*
X178025000Y-94625000I0J200000D01*
G01*
X178025000Y-94225000D01*
G75*
G02*
X178225000Y-94025000I200000J0D01*
G01*
X178775000Y-94025000D01*
G75*
G02*
X178975000Y-94225000I0J-200000D01*
G01*
X178975000Y-94625000D01*
G75*
G02*
X178775000Y-94825000I-200000J0D01*
G01*
G37*
G36*
G01*
X178775000Y-96475000D02*
X178225000Y-96475000D01*
G75*
G02*
X178025000Y-96275000I0J200000D01*
G01*
X178025000Y-95875000D01*
G75*
G02*
X178225000Y-95675000I200000J0D01*
G01*
X178775000Y-95675000D01*
G75*
G02*
X178975000Y-95875000I0J-200000D01*
G01*
X178975000Y-96275000D01*
G75*
G02*
X178775000Y-96475000I-200000J0D01*
G01*
G37*
%TD*%
%TO.C,R5*%
G36*
G01*
X85975000Y-106675000D02*
X86525000Y-106675000D01*
G75*
G02*
X86725000Y-106875000I0J-200000D01*
G01*
X86725000Y-107275000D01*
G75*
G02*
X86525000Y-107475000I-200000J0D01*
G01*
X85975000Y-107475000D01*
G75*
G02*
X85775000Y-107275000I0J200000D01*
G01*
X85775000Y-106875000D01*
G75*
G02*
X85975000Y-106675000I200000J0D01*
G01*
G37*
G36*
G01*
X85975000Y-105025000D02*
X86525000Y-105025000D01*
G75*
G02*
X86725000Y-105225000I0J-200000D01*
G01*
X86725000Y-105625000D01*
G75*
G02*
X86525000Y-105825000I-200000J0D01*
G01*
X85975000Y-105825000D01*
G75*
G02*
X85775000Y-105625000I0J200000D01*
G01*
X85775000Y-105225000D01*
G75*
G02*
X85975000Y-105025000I200000J0D01*
G01*
G37*
%TD*%
%TO.C,R4*%
G36*
G01*
X114725000Y-94925000D02*
X115275000Y-94925000D01*
G75*
G02*
X115475000Y-95125000I0J-200000D01*
G01*
X115475000Y-95525000D01*
G75*
G02*
X115275000Y-95725000I-200000J0D01*
G01*
X114725000Y-95725000D01*
G75*
G02*
X114525000Y-95525000I0J200000D01*
G01*
X114525000Y-95125000D01*
G75*
G02*
X114725000Y-94925000I200000J0D01*
G01*
G37*
G36*
G01*
X114725000Y-93275000D02*
X115275000Y-93275000D01*
G75*
G02*
X115475000Y-93475000I0J-200000D01*
G01*
X115475000Y-93875000D01*
G75*
G02*
X115275000Y-94075000I-200000J0D01*
G01*
X114725000Y-94075000D01*
G75*
G02*
X114525000Y-93875000I0J200000D01*
G01*
X114525000Y-93475000D01*
G75*
G02*
X114725000Y-93275000I200000J0D01*
G01*
G37*
%TD*%
%TO.C,R2*%
G36*
G01*
X154725000Y-94175000D02*
X155275000Y-94175000D01*
G75*
G02*
X155475000Y-94375000I0J-200000D01*
G01*
X155475000Y-94775000D01*
G75*
G02*
X155275000Y-94975000I-200000J0D01*
G01*
X154725000Y-94975000D01*
G75*
G02*
X154525000Y-94775000I0J200000D01*
G01*
X154525000Y-94375000D01*
G75*
G02*
X154725000Y-94175000I200000J0D01*
G01*
G37*
G36*
G01*
X154725000Y-92525000D02*
X155275000Y-92525000D01*
G75*
G02*
X155475000Y-92725000I0J-200000D01*
G01*
X155475000Y-93125000D01*
G75*
G02*
X155275000Y-93325000I-200000J0D01*
G01*
X154725000Y-93325000D01*
G75*
G02*
X154525000Y-93125000I0J200000D01*
G01*
X154525000Y-92725000D01*
G75*
G02*
X154725000Y-92525000I200000J0D01*
G01*
G37*
%TD*%
%TO.C,R1*%
G36*
G01*
X176725000Y-95675000D02*
X177275000Y-95675000D01*
G75*
G02*
X177475000Y-95875000I0J-200000D01*
G01*
X177475000Y-96275000D01*
G75*
G02*
X177275000Y-96475000I-200000J0D01*
G01*
X176725000Y-96475000D01*
G75*
G02*
X176525000Y-96275000I0J200000D01*
G01*
X176525000Y-95875000D01*
G75*
G02*
X176725000Y-95675000I200000J0D01*
G01*
G37*
G36*
G01*
X176725000Y-94025000D02*
X177275000Y-94025000D01*
G75*
G02*
X177475000Y-94225000I0J-200000D01*
G01*
X177475000Y-94625000D01*
G75*
G02*
X177275000Y-94825000I-200000J0D01*
G01*
X176725000Y-94825000D01*
G75*
G02*
X176525000Y-94625000I0J200000D01*
G01*
X176525000Y-94225000D01*
G75*
G02*
X176725000Y-94025000I200000J0D01*
G01*
G37*
%TD*%
D10*
%TO.C,J1*%
X146500000Y-95500000D03*
X146000000Y-95500000D03*
X145500000Y-95500000D03*
X145000000Y-95500000D03*
X144500000Y-95500000D03*
X144000000Y-95500000D03*
X143500000Y-95500000D03*
X143000000Y-95500000D03*
X142500000Y-95500000D03*
X142000000Y-95500000D03*
X141500000Y-95500000D03*
X141000000Y-95500000D03*
X140500000Y-95500000D03*
X140000000Y-95500000D03*
X139500000Y-95500000D03*
X139000000Y-95500000D03*
X138500000Y-95500000D03*
X138000000Y-95500000D03*
X137500000Y-95500000D03*
X137000000Y-95500000D03*
X136500000Y-95500000D03*
X136000000Y-95500000D03*
X135500000Y-95500000D03*
X135000000Y-95500000D03*
D11*
X130330000Y-97200000D03*
X148170000Y-97200000D03*
D10*
X134500000Y-95500000D03*
X134000000Y-95500000D03*
X133500000Y-95500000D03*
X133000000Y-95500000D03*
X132500000Y-95500000D03*
X132000000Y-95500000D03*
%TD*%
M02*
