%TF.GenerationSoftware,KiCad,Pcbnew,(5.1.7)-1*%
%TF.CreationDate,2021-05-03T22:05:59+02:00*%
%TF.ProjectId,KaszmirSensors,4b61737a-6d69-4725-9365-6e736f72732e,rev?*%
%TF.SameCoordinates,Original*%
%TF.FileFunction,Copper,L2,Bot*%
%TF.FilePolarity,Positive*%
%FSLAX46Y46*%
G04 Gerber Fmt 4.6, Leading zero omitted, Abs format (unit mm)*
G04 Created by KiCad (PCBNEW (5.1.7)-1) date 2021-05-03 22:05:59*
%MOMM*%
%LPD*%
G01*
G04 APERTURE LIST*
%TA.AperFunction,SMDPad,CuDef*%
%ADD10R,1.000000X1.000000*%
%TD*%
%TA.AperFunction,ViaPad*%
%ADD11C,0.800000*%
%TD*%
%TA.AperFunction,Conductor*%
%ADD12C,0.500000*%
%TD*%
%TA.AperFunction,Conductor*%
%ADD13C,0.250000*%
%TD*%
G04 APERTURE END LIST*
D10*
%TO.P,U10,4*%
%TO.N,Net-(U10-Pad4)*%
X86300000Y-109650000D03*
%TO.P,U10,3*%
%TO.N,GND*%
X84500000Y-109650000D03*
%TO.P,U10,2*%
%TO.N,KTIR10*%
X84500000Y-105350000D03*
%TO.P,U10,1*%
%TO.N,Net-(R5-Pad1)*%
X86300000Y-105350000D03*
%TD*%
%TO.P,U9,4*%
%TO.N,GND*%
X103050000Y-98650000D03*
%TO.P,U9,3*%
X101250000Y-98650000D03*
%TO.P,U9,2*%
%TO.N,KTIR9*%
X101250000Y-94350000D03*
%TO.P,U9,1*%
%TO.N,Net-(U10-Pad4)*%
X103050000Y-94350000D03*
%TD*%
%TO.P,U8,4*%
%TO.N,Net-(U7-Pad1)*%
X115050000Y-97900000D03*
%TO.P,U8,3*%
%TO.N,GND*%
X113250000Y-97900000D03*
%TO.P,U8,2*%
%TO.N,KTIR8*%
X113250000Y-93600000D03*
%TO.P,U8,1*%
%TO.N,Net-(R4-Pad1)*%
X115050000Y-93600000D03*
%TD*%
%TO.P,U7,4*%
%TO.N,GND*%
X125300000Y-97150000D03*
%TO.P,U7,3*%
X123500000Y-97150000D03*
%TO.P,U7,2*%
%TO.N,KTIR7*%
X123500000Y-92850000D03*
%TO.P,U7,1*%
%TO.N,Net-(U7-Pad1)*%
X125300000Y-92850000D03*
%TD*%
%TO.P,U6,4*%
%TO.N,Net-(U5-Pad1)*%
X135050000Y-96650000D03*
%TO.P,U6,3*%
%TO.N,GND*%
X133250000Y-96650000D03*
%TO.P,U6,2*%
%TO.N,KTIR6*%
X133250000Y-92350000D03*
%TO.P,U6,1*%
%TO.N,Net-(R3-Pad1)*%
X135050000Y-92350000D03*
%TD*%
%TO.P,U5,4*%
%TO.N,GND*%
X145300000Y-96650000D03*
%TO.P,U5,3*%
X143500000Y-96650000D03*
%TO.P,U5,2*%
%TO.N,KTIR5*%
X143500000Y-92350000D03*
%TO.P,U5,1*%
%TO.N,Net-(U5-Pad1)*%
X145300000Y-92350000D03*
%TD*%
%TO.P,U4,4*%
%TO.N,Net-(U3-Pad1)*%
X155050000Y-97150000D03*
%TO.P,U4,3*%
%TO.N,GND*%
X153250000Y-97150000D03*
%TO.P,U4,2*%
%TO.N,KTIR4*%
X153250000Y-92850000D03*
%TO.P,U4,1*%
%TO.N,Net-(R2-Pad1)*%
X155050000Y-92850000D03*
%TD*%
%TO.P,U3,4*%
%TO.N,GND*%
X165300000Y-97900000D03*
%TO.P,U3,3*%
X163500000Y-97900000D03*
%TO.P,U3,2*%
%TO.N,KTIR3*%
X163500000Y-93600000D03*
%TO.P,U3,1*%
%TO.N,Net-(U3-Pad1)*%
X165300000Y-93600000D03*
%TD*%
%TO.P,U2,4*%
%TO.N,Net-(U1-Pad1)*%
X177050000Y-98650000D03*
%TO.P,U2,3*%
%TO.N,GND*%
X175250000Y-98650000D03*
%TO.P,U2,2*%
%TO.N,KTIR2*%
X175250000Y-94350000D03*
%TO.P,U2,1*%
%TO.N,Net-(R1-Pad1)*%
X177050000Y-94350000D03*
%TD*%
%TO.P,U1,4*%
%TO.N,GND*%
X192800000Y-108900000D03*
%TO.P,U1,3*%
X191000000Y-108900000D03*
%TO.P,U1,2*%
%TO.N,KTIR1*%
X191000000Y-104600000D03*
%TO.P,U1,1*%
%TO.N,Net-(U1-Pad1)*%
X192800000Y-104600000D03*
%TD*%
%TO.P,R3,2*%
%TO.N,+3V3*%
%TA.AperFunction,SMDPad,CuDef*%
G36*
G01*
X138675000Y-91025000D02*
X138675000Y-90475000D01*
G75*
G02*
X138875000Y-90275000I200000J0D01*
G01*
X139275000Y-90275000D01*
G75*
G02*
X139475000Y-90475000I0J-200000D01*
G01*
X139475000Y-91025000D01*
G75*
G02*
X139275000Y-91225000I-200000J0D01*
G01*
X138875000Y-91225000D01*
G75*
G02*
X138675000Y-91025000I0J200000D01*
G01*
G37*
%TD.AperFunction*%
%TO.P,R3,1*%
%TO.N,Net-(R3-Pad1)*%
%TA.AperFunction,SMDPad,CuDef*%
G36*
G01*
X137025000Y-91025000D02*
X137025000Y-90475000D01*
G75*
G02*
X137225000Y-90275000I200000J0D01*
G01*
X137625000Y-90275000D01*
G75*
G02*
X137825000Y-90475000I0J-200000D01*
G01*
X137825000Y-91025000D01*
G75*
G02*
X137625000Y-91225000I-200000J0D01*
G01*
X137225000Y-91225000D01*
G75*
G02*
X137025000Y-91025000I0J200000D01*
G01*
G37*
%TD.AperFunction*%
%TD*%
D11*
%TO.N,+3V3*%
X174250000Y-97250000D03*
X151500000Y-94000000D03*
X146250000Y-94250000D03*
X143000000Y-90750000D03*
X107000000Y-96750000D03*
X109500000Y-95325000D03*
X127750000Y-94250000D03*
X135500000Y-90675000D03*
%TO.N,Net-(R2-Pad1)*%
X155000000Y-93000000D03*
%TO.N,Net-(R5-Pad1)*%
X86250000Y-105250000D03*
%TO.N,Net-(R4-Pad1)*%
X115000000Y-93500000D03*
%TO.N,Net-(R1-Pad1)*%
X177000000Y-94250000D03*
%TO.N,GND*%
X137500000Y-98000000D03*
X139750000Y-98000000D03*
X141250000Y-98000000D03*
%TO.N,KTIR1*%
X189500000Y-104500000D03*
%TO.N,KTIR2*%
X173500000Y-95250000D03*
%TO.N,KTIR3*%
X163250000Y-93500000D03*
%TO.N,KTIR4*%
X153250000Y-92850000D03*
%TO.N,KTIR5*%
X140000000Y-92325000D03*
%TO.N,KTIR6*%
X138500000Y-92325000D03*
%TO.N,KTIR7*%
X123538981Y-91097571D03*
%TO.N,KTIR8*%
X122000000Y-91500000D03*
%TO.N,KTIR9*%
X101250000Y-94350000D03*
%TO.N,KTIR10*%
X84500000Y-105350000D03*
%TD*%
D12*
%TO.N,+3V3*%
X151500000Y-92789998D02*
X151500000Y-94000000D01*
X152865008Y-91424990D02*
X151500000Y-92789998D01*
X163938176Y-91424990D02*
X152865008Y-91424990D01*
X166000000Y-92250000D02*
X164763186Y-92250000D01*
X171000000Y-97250000D02*
X166000000Y-92250000D01*
X164763186Y-92250000D02*
X163938176Y-91424990D01*
X174250000Y-97250000D02*
X171000000Y-97250000D01*
X148250000Y-90750000D02*
X143000000Y-90750000D01*
X151500000Y-94000000D02*
X148250000Y-90750000D01*
X151250000Y-94250000D02*
X151500000Y-94000000D01*
X146250000Y-94250000D02*
X151250000Y-94250000D01*
X143000000Y-90750000D02*
X139075000Y-90750000D01*
X108075000Y-96750000D02*
X109500000Y-95325000D01*
X107000000Y-96750000D02*
X108075000Y-96750000D01*
X131325000Y-90675000D02*
X135500000Y-90675000D01*
X127750000Y-94250000D02*
X131325000Y-90675000D01*
%TO.N,GND*%
X192800000Y-108900000D02*
X191000000Y-108900000D01*
X191000000Y-108900000D02*
X190650000Y-108900000D01*
X190650000Y-108900000D02*
X181750000Y-100000000D01*
X176600000Y-100000000D02*
X175250000Y-98650000D01*
X181750000Y-100000000D02*
X176600000Y-100000000D01*
X166050000Y-98650000D02*
X165300000Y-97900000D01*
X175250000Y-98650000D02*
X166050000Y-98650000D01*
X165300000Y-97900000D02*
X163500000Y-97900000D01*
X145800000Y-97150000D02*
X145300000Y-96650000D01*
X153250000Y-97150000D02*
X145800000Y-97150000D01*
X145300000Y-96650000D02*
X143500000Y-96650000D01*
X125800000Y-96650000D02*
X125300000Y-97150000D01*
X133250000Y-96650000D02*
X125800000Y-96650000D01*
X125300000Y-97150000D02*
X123500000Y-97150000D01*
X123500000Y-97150000D02*
X120900000Y-97150000D01*
X120900000Y-97150000D02*
X120500000Y-96750000D01*
X120500000Y-96750000D02*
X117500000Y-96750000D01*
X117500000Y-96750000D02*
X116250000Y-98000000D01*
X116250000Y-98510002D02*
X115260002Y-99500000D01*
X116250000Y-98000000D02*
X116250000Y-98510002D01*
X115260002Y-99500000D02*
X113750000Y-99500000D01*
X113250000Y-99000000D02*
X113250000Y-97900000D01*
X113750000Y-99500000D02*
X113250000Y-99000000D01*
X103400000Y-99000000D02*
X103050000Y-98650000D01*
X113250000Y-99000000D02*
X103400000Y-99000000D01*
X103050000Y-98650000D02*
X101250000Y-98650000D01*
X85450001Y-110600001D02*
X84500000Y-109650000D01*
X88149999Y-110600001D02*
X85450001Y-110600001D01*
X100100000Y-98650000D02*
X88149999Y-110600001D01*
X101250000Y-98650000D02*
X100100000Y-98650000D01*
X163500000Y-97900000D02*
X162350000Y-96750000D01*
X162350000Y-96750000D02*
X157250000Y-96750000D01*
X157250000Y-96750000D02*
X155500000Y-98500000D01*
X154600000Y-98500000D02*
X153250000Y-97150000D01*
X155500000Y-98500000D02*
X154600000Y-98500000D01*
X134600000Y-98000000D02*
X133250000Y-96650000D01*
X142150000Y-98000000D02*
X134600000Y-98000000D01*
X143500000Y-96650000D02*
X142150000Y-98000000D01*
D13*
%TO.N,KTIR1*%
X189600000Y-104600000D02*
X189500000Y-104500000D01*
X191000000Y-104600000D02*
X189600000Y-104600000D01*
%TO.N,KTIR2*%
X174350000Y-95250000D02*
X175250000Y-94350000D01*
X173500000Y-95250000D02*
X174350000Y-95250000D01*
%TO.N,KTIR3*%
X163350000Y-93600000D02*
X163250000Y-93500000D01*
X163500000Y-93600000D02*
X163350000Y-93600000D01*
%TO.N,KTIR5*%
X143475000Y-92325000D02*
X143500000Y-92350000D01*
X140000000Y-92325000D02*
X143475000Y-92325000D01*
%TO.N,KTIR6*%
X138500000Y-92325000D02*
X138500000Y-92750000D01*
X138500000Y-92750000D02*
X137250000Y-94000000D01*
X134900000Y-94000000D02*
X133250000Y-92350000D01*
X137250000Y-94000000D02*
X134900000Y-94000000D01*
%TO.N,KTIR7*%
X123500000Y-92850000D02*
X123500000Y-91136552D01*
X123500000Y-91136552D02*
X123538981Y-91097571D01*
%TO.N,KTIR8*%
X113464998Y-93600000D02*
X113250000Y-93600000D01*
X115564998Y-91500000D02*
X113464998Y-93600000D01*
X122000000Y-91500000D02*
X115564998Y-91500000D01*
%TO.N,Net-(R3-Pad1)*%
X136650000Y-90750000D02*
X135050000Y-92350000D01*
X137425000Y-90750000D02*
X136650000Y-90750000D01*
%TO.N,Net-(U1-Pad1)*%
X177050000Y-98650000D02*
X185900000Y-98650000D01*
X185900000Y-98650000D02*
X190500000Y-103250000D01*
X191450000Y-103250000D02*
X192800000Y-104600000D01*
X190500000Y-103250000D02*
X191450000Y-103250000D01*
%TO.N,Net-(U3-Pad1)*%
X163700000Y-92000000D02*
X165300000Y-93600000D01*
X156750000Y-92000000D02*
X163700000Y-92000000D01*
X156000000Y-92750000D02*
X156750000Y-92000000D01*
X156000000Y-96200000D02*
X156000000Y-92750000D01*
X155050000Y-97150000D02*
X156000000Y-96200000D01*
%TO.N,Net-(U5-Pad1)*%
X141000000Y-96650000D02*
X145300000Y-92350000D01*
X135050000Y-96650000D02*
X141000000Y-96650000D01*
%TO.N,Net-(U7-Pad1)*%
X124150000Y-94000000D02*
X125300000Y-92850000D01*
X122500000Y-94000000D02*
X124150000Y-94000000D01*
X120750000Y-92250000D02*
X122500000Y-94000000D01*
X118000000Y-92250000D02*
X120750000Y-92250000D01*
X115875001Y-94374999D02*
X118000000Y-92250000D01*
X115875001Y-97074999D02*
X115875001Y-94374999D01*
X115050000Y-97900000D02*
X115875001Y-97074999D01*
%TO.N,Net-(U10-Pad4)*%
X87750000Y-109650000D02*
X103050000Y-94350000D01*
X86300000Y-109650000D02*
X87750000Y-109650000D01*
%TD*%
M02*
