%TF.GenerationSoftware,KiCad,Pcbnew,(5.1.7)-1*%
%TF.CreationDate,2021-05-03T22:05:59+02:00*%
%TF.ProjectId,KaszmirSensors,4b61737a-6d69-4725-9365-6e736f72732e,rev?*%
%TF.SameCoordinates,Original*%
%TF.FileFunction,Paste,Bot*%
%TF.FilePolarity,Positive*%
%FSLAX46Y46*%
G04 Gerber Fmt 4.6, Leading zero omitted, Abs format (unit mm)*
G04 Created by KiCad (PCBNEW (5.1.7)-1) date 2021-05-03 22:05:59*
%MOMM*%
%LPD*%
G01*
G04 APERTURE LIST*
%ADD10R,1.000000X1.000000*%
G04 APERTURE END LIST*
D10*
%TO.C,U10*%
X86300000Y-109650000D03*
X84500000Y-109650000D03*
X84500000Y-105350000D03*
X86300000Y-105350000D03*
%TD*%
%TO.C,U9*%
X103050000Y-98650000D03*
X101250000Y-98650000D03*
X101250000Y-94350000D03*
X103050000Y-94350000D03*
%TD*%
%TO.C,U8*%
X115050000Y-97900000D03*
X113250000Y-97900000D03*
X113250000Y-93600000D03*
X115050000Y-93600000D03*
%TD*%
%TO.C,U7*%
X125300000Y-97150000D03*
X123500000Y-97150000D03*
X123500000Y-92850000D03*
X125300000Y-92850000D03*
%TD*%
%TO.C,U6*%
X135050000Y-96650000D03*
X133250000Y-96650000D03*
X133250000Y-92350000D03*
X135050000Y-92350000D03*
%TD*%
%TO.C,U5*%
X145300000Y-96650000D03*
X143500000Y-96650000D03*
X143500000Y-92350000D03*
X145300000Y-92350000D03*
%TD*%
%TO.C,U4*%
X155050000Y-97150000D03*
X153250000Y-97150000D03*
X153250000Y-92850000D03*
X155050000Y-92850000D03*
%TD*%
%TO.C,U3*%
X165300000Y-97900000D03*
X163500000Y-97900000D03*
X163500000Y-93600000D03*
X165300000Y-93600000D03*
%TD*%
%TO.C,U2*%
X177050000Y-98650000D03*
X175250000Y-98650000D03*
X175250000Y-94350000D03*
X177050000Y-94350000D03*
%TD*%
%TO.C,U1*%
X192800000Y-108900000D03*
X191000000Y-108900000D03*
X191000000Y-104600000D03*
X192800000Y-104600000D03*
%TD*%
%TO.C,R3*%
G36*
G01*
X138675000Y-91025000D02*
X138675000Y-90475000D01*
G75*
G02*
X138875000Y-90275000I200000J0D01*
G01*
X139275000Y-90275000D01*
G75*
G02*
X139475000Y-90475000I0J-200000D01*
G01*
X139475000Y-91025000D01*
G75*
G02*
X139275000Y-91225000I-200000J0D01*
G01*
X138875000Y-91225000D01*
G75*
G02*
X138675000Y-91025000I0J200000D01*
G01*
G37*
G36*
G01*
X137025000Y-91025000D02*
X137025000Y-90475000D01*
G75*
G02*
X137225000Y-90275000I200000J0D01*
G01*
X137625000Y-90275000D01*
G75*
G02*
X137825000Y-90475000I0J-200000D01*
G01*
X137825000Y-91025000D01*
G75*
G02*
X137625000Y-91225000I-200000J0D01*
G01*
X137225000Y-91225000D01*
G75*
G02*
X137025000Y-91025000I0J200000D01*
G01*
G37*
%TD*%
M02*
