%TF.GenerationSoftware,KiCad,Pcbnew,(5.1.7)-1*%
%TF.CreationDate,2021-05-03T22:06:55+02:00*%
%TF.ProjectId,Kaszmir,4b61737a-6d69-4722-9e6b-696361645f70,rev?*%
%TF.SameCoordinates,Original*%
%TF.FileFunction,Profile,NP*%
%FSLAX46Y46*%
G04 Gerber Fmt 4.6, Leading zero omitted, Abs format (unit mm)*
G04 Created by KiCad (PCBNEW (5.1.7)-1) date 2021-05-03 22:06:55*
%MOMM*%
%LPD*%
G01*
G04 APERTURE LIST*
%TA.AperFunction,Profile*%
%ADD10C,0.050000*%
%TD*%
G04 APERTURE END LIST*
D10*
X73250000Y-124750000D02*
G75*
G02*
X74250000Y-124250000I1000000J-750000D01*
G01*
X117749999Y-124250001D02*
G75*
G02*
X118749999Y-124750000I1J-1249999D01*
G01*
X153250000Y-142000000D02*
G75*
G03*
X153250000Y-142000000I-1500000J0D01*
G01*
X153250000Y-160000000D02*
G75*
G03*
X153250000Y-160000000I-1500000J0D01*
G01*
X41750000Y-160000000D02*
G75*
G03*
X41750000Y-160000000I-1500000J0D01*
G01*
X41770691Y-142000000D02*
G75*
G03*
X41770691Y-142000000I-1520691J0D01*
G01*
X117250000Y-130250000D02*
G75*
G03*
X117250000Y-130250000I-1000000J0D01*
G01*
X117250000Y-126250000D02*
G75*
G03*
X117250000Y-126250000I-1000000J0D01*
G01*
X76750000Y-130250000D02*
G75*
G03*
X76750000Y-130250000I-1000000J0D01*
G01*
X76750000Y-126250000D02*
G75*
G03*
X76750000Y-126250000I-1000000J0D01*
G01*
X156000000Y-160000000D02*
G75*
G02*
X151750000Y-164250000I-4250000J0D01*
G01*
X131750000Y-137750000D02*
X118749999Y-124750000D01*
X151750000Y-137750000D02*
X131750000Y-137750000D01*
X60250000Y-137750000D02*
X73250000Y-124750000D01*
X40250000Y-137750000D02*
X60250000Y-137750000D01*
X151750000Y-137750000D02*
G75*
G02*
X156000000Y-142000000I0J-4250000D01*
G01*
X36000000Y-142000000D02*
G75*
G02*
X40250000Y-137750000I4250000J0D01*
G01*
X40250000Y-164250000D02*
G75*
G02*
X36000000Y-160000000I0J4250000D01*
G01*
X151750000Y-164250000D02*
X40250000Y-164250000D01*
X156000000Y-142000000D02*
X156000000Y-160000000D01*
X74250000Y-124250000D02*
X117749999Y-124250001D01*
X36000000Y-160000000D02*
X36000000Y-142000000D01*
M02*
