%TF.GenerationSoftware,KiCad,Pcbnew,(5.1.7)-1*%
%TF.CreationDate,2021-05-03T22:06:55+02:00*%
%TF.ProjectId,Kaszmir,4b61737a-6d69-4722-9e6b-696361645f70,rev?*%
%TF.SameCoordinates,Original*%
%TF.FileFunction,Soldermask,Bot*%
%TF.FilePolarity,Negative*%
%FSLAX46Y46*%
G04 Gerber Fmt 4.6, Leading zero omitted, Abs format (unit mm)*
G04 Created by KiCad (PCBNEW (5.1.7)-1) date 2021-05-03 22:06:55*
%MOMM*%
%LPD*%
G01*
G04 APERTURE LIST*
%ADD10O,1.700000X1.850000*%
%ADD11O,1.700000X1.700000*%
%ADD12R,1.700000X1.700000*%
%ADD13C,0.800000*%
%ADD14R,1.000000X2.000000*%
%ADD15R,2.000000X1.000000*%
G04 APERTURE END LIST*
D10*
%TO.C,SW1*%
X138250000Y-161500000D03*
X135750000Y-161500000D03*
G36*
G01*
X132400000Y-162175000D02*
X132400000Y-160825000D01*
G75*
G02*
X132650000Y-160575000I250000J0D01*
G01*
X133850000Y-160575000D01*
G75*
G02*
X134100000Y-160825000I0J-250000D01*
G01*
X134100000Y-162175000D01*
G75*
G02*
X133850000Y-162425000I-250000J0D01*
G01*
X132650000Y-162425000D01*
G75*
G02*
X132400000Y-162175000I0J250000D01*
G01*
G37*
%TD*%
%TO.C,C10*%
G36*
G01*
X99675000Y-133250000D02*
X99675000Y-133750000D01*
G75*
G02*
X99450000Y-133975000I-225000J0D01*
G01*
X99000000Y-133975000D01*
G75*
G02*
X98775000Y-133750000I0J225000D01*
G01*
X98775000Y-133250000D01*
G75*
G02*
X99000000Y-133025000I225000J0D01*
G01*
X99450000Y-133025000D01*
G75*
G02*
X99675000Y-133250000I0J-225000D01*
G01*
G37*
G36*
G01*
X101225000Y-133250000D02*
X101225000Y-133750000D01*
G75*
G02*
X101000000Y-133975000I-225000J0D01*
G01*
X100550000Y-133975000D01*
G75*
G02*
X100325000Y-133750000I0J225000D01*
G01*
X100325000Y-133250000D01*
G75*
G02*
X100550000Y-133025000I225000J0D01*
G01*
X101000000Y-133025000D01*
G75*
G02*
X101225000Y-133250000I0J-225000D01*
G01*
G37*
%TD*%
D11*
%TO.C,STLINK*%
X81750000Y-136910000D03*
X81750000Y-134370000D03*
X81750000Y-131830000D03*
X81750000Y-129290000D03*
D12*
X81750000Y-126750000D03*
%TD*%
D13*
%TO.C,SW3*%
X123500000Y-133250000D03*
%TD*%
%TO.C,SW2*%
X127000000Y-136750000D03*
%TD*%
D14*
%TO.C,R12*%
X100830000Y-143540000D03*
X99330000Y-143540000D03*
X97830000Y-143540000D03*
X96330000Y-143540000D03*
X94830000Y-143540000D03*
X93330000Y-143540000D03*
X91830000Y-143540000D03*
X90330000Y-143540000D03*
D15*
X102030000Y-163540000D03*
X89030000Y-163540000D03*
X102030000Y-162040000D03*
X89030000Y-162040000D03*
X102030000Y-160540000D03*
X89030000Y-160540000D03*
X102030000Y-159040000D03*
X89030000Y-159040000D03*
X102030000Y-157540000D03*
X89030000Y-157540000D03*
X102030000Y-156040000D03*
X89030000Y-156040000D03*
X102030000Y-154540000D03*
X89030000Y-154540000D03*
X102030000Y-153040000D03*
X89030000Y-153040000D03*
X102030000Y-151540000D03*
X89030000Y-151540000D03*
X102030000Y-150040000D03*
X89030000Y-150040000D03*
X102030000Y-148540000D03*
X89030000Y-148540000D03*
X102030000Y-147040000D03*
X89030000Y-147040000D03*
X102030000Y-145540000D03*
X89030000Y-145540000D03*
%TD*%
D11*
%TO.C,J6*%
X68000000Y-156950000D03*
X68000000Y-154410000D03*
X68000000Y-151870000D03*
X68000000Y-149330000D03*
X68000000Y-146790000D03*
D12*
X68000000Y-144250000D03*
%TD*%
D11*
%TO.C,J5*%
X65280000Y-140000000D03*
X62740000Y-140000000D03*
X60200000Y-140000000D03*
X57660000Y-140000000D03*
X55120000Y-140000000D03*
X52580000Y-140000000D03*
X50040000Y-140000000D03*
D12*
X47500000Y-140000000D03*
%TD*%
D11*
%TO.C,J4*%
X124250000Y-157200000D03*
X124250000Y-154660000D03*
X124250000Y-152120000D03*
X124250000Y-149580000D03*
X124250000Y-147040000D03*
D12*
X124250000Y-144500000D03*
%TD*%
D11*
%TO.C,J3*%
X111040000Y-162250000D03*
D12*
X108500000Y-162250000D03*
%TD*%
%TO.C,C6*%
G36*
G01*
X115675000Y-158000000D02*
X115675000Y-158500000D01*
G75*
G02*
X115450000Y-158725000I-225000J0D01*
G01*
X115000000Y-158725000D01*
G75*
G02*
X114775000Y-158500000I0J225000D01*
G01*
X114775000Y-158000000D01*
G75*
G02*
X115000000Y-157775000I225000J0D01*
G01*
X115450000Y-157775000D01*
G75*
G02*
X115675000Y-158000000I0J-225000D01*
G01*
G37*
G36*
G01*
X117225000Y-158000000D02*
X117225000Y-158500000D01*
G75*
G02*
X117000000Y-158725000I-225000J0D01*
G01*
X116550000Y-158725000D01*
G75*
G02*
X116325000Y-158500000I0J225000D01*
G01*
X116325000Y-158000000D01*
G75*
G02*
X116550000Y-157775000I225000J0D01*
G01*
X117000000Y-157775000D01*
G75*
G02*
X117225000Y-158000000I0J-225000D01*
G01*
G37*
%TD*%
%TO.C,C3*%
G36*
G01*
X75250000Y-154675000D02*
X74750000Y-154675000D01*
G75*
G02*
X74525000Y-154450000I0J225000D01*
G01*
X74525000Y-154000000D01*
G75*
G02*
X74750000Y-153775000I225000J0D01*
G01*
X75250000Y-153775000D01*
G75*
G02*
X75475000Y-154000000I0J-225000D01*
G01*
X75475000Y-154450000D01*
G75*
G02*
X75250000Y-154675000I-225000J0D01*
G01*
G37*
G36*
G01*
X75250000Y-156225000D02*
X74750000Y-156225000D01*
G75*
G02*
X74525000Y-156000000I0J225000D01*
G01*
X74525000Y-155550000D01*
G75*
G02*
X74750000Y-155325000I225000J0D01*
G01*
X75250000Y-155325000D01*
G75*
G02*
X75475000Y-155550000I0J-225000D01*
G01*
X75475000Y-156000000D01*
G75*
G02*
X75250000Y-156225000I-225000J0D01*
G01*
G37*
%TD*%
M02*
