%TF.GenerationSoftware,KiCad,Pcbnew,(5.1.7)-1*%
%TF.CreationDate,2021-05-03T22:06:55+02:00*%
%TF.ProjectId,Kaszmir,4b61737a-6d69-4722-9e6b-696361645f70,rev?*%
%TF.SameCoordinates,Original*%
%TF.FileFunction,Legend,Top*%
%TF.FilePolarity,Positive*%
%FSLAX46Y46*%
G04 Gerber Fmt 4.6, Leading zero omitted, Abs format (unit mm)*
G04 Created by KiCad (PCBNEW (5.1.7)-1) date 2021-05-03 22:06:55*
%MOMM*%
%LPD*%
G01*
G04 APERTURE LIST*
%ADD10C,0.300000*%
%ADD11C,0.120000*%
%ADD12C,0.010000*%
%ADD13C,0.150000*%
G04 APERTURE END LIST*
D10*
X49464285Y-160153571D02*
X49464285Y-158653571D01*
X50321428Y-160153571D02*
X49678571Y-159296428D01*
X50321428Y-158653571D02*
X49464285Y-159510714D01*
X51607142Y-160153571D02*
X51607142Y-159367857D01*
X51535714Y-159225000D01*
X51392857Y-159153571D01*
X51107142Y-159153571D01*
X50964285Y-159225000D01*
X51607142Y-160082142D02*
X51464285Y-160153571D01*
X51107142Y-160153571D01*
X50964285Y-160082142D01*
X50892857Y-159939285D01*
X50892857Y-159796428D01*
X50964285Y-159653571D01*
X51107142Y-159582142D01*
X51464285Y-159582142D01*
X51607142Y-159510714D01*
X52250000Y-160082142D02*
X52392857Y-160153571D01*
X52678571Y-160153571D01*
X52821428Y-160082142D01*
X52892857Y-159939285D01*
X52892857Y-159867857D01*
X52821428Y-159725000D01*
X52678571Y-159653571D01*
X52464285Y-159653571D01*
X52321428Y-159582142D01*
X52250000Y-159439285D01*
X52250000Y-159367857D01*
X52321428Y-159225000D01*
X52464285Y-159153571D01*
X52678571Y-159153571D01*
X52821428Y-159225000D01*
X53392857Y-159153571D02*
X54178571Y-159153571D01*
X53392857Y-160153571D01*
X54178571Y-160153571D01*
X54750000Y-160153571D02*
X54750000Y-159153571D01*
X54750000Y-159296428D02*
X54821428Y-159225000D01*
X54964285Y-159153571D01*
X55178571Y-159153571D01*
X55321428Y-159225000D01*
X55392857Y-159367857D01*
X55392857Y-160153571D01*
X55392857Y-159367857D02*
X55464285Y-159225000D01*
X55607142Y-159153571D01*
X55821428Y-159153571D01*
X55964285Y-159225000D01*
X56035714Y-159367857D01*
X56035714Y-160153571D01*
X56750000Y-160153571D02*
X56750000Y-159153571D01*
X56750000Y-158653571D02*
X56678571Y-158725000D01*
X56750000Y-158796428D01*
X56821428Y-158725000D01*
X56750000Y-158653571D01*
X56750000Y-158796428D01*
X57464285Y-160153571D02*
X57464285Y-159153571D01*
X57464285Y-159439285D02*
X57535714Y-159296428D01*
X57607142Y-159225000D01*
X57750000Y-159153571D01*
X57892857Y-159153571D01*
X59392857Y-159153571D02*
X59750000Y-160153571D01*
X60107142Y-159153571D01*
X61464285Y-160153571D02*
X60607142Y-160153571D01*
X61035714Y-160153571D02*
X61035714Y-158653571D01*
X60892857Y-158867857D01*
X60750000Y-159010714D01*
X60607142Y-159082142D01*
X62107142Y-160010714D02*
X62178571Y-160082142D01*
X62107142Y-160153571D01*
X62035714Y-160082142D01*
X62107142Y-160010714D01*
X62107142Y-160153571D01*
X63107142Y-158653571D02*
X63250000Y-158653571D01*
X63392857Y-158725000D01*
X63464285Y-158796428D01*
X63535714Y-158939285D01*
X63607142Y-159225000D01*
X63607142Y-159582142D01*
X63535714Y-159867857D01*
X63464285Y-160010714D01*
X63392857Y-160082142D01*
X63250000Y-160153571D01*
X63107142Y-160153571D01*
X62964285Y-160082142D01*
X62892857Y-160010714D01*
X62821428Y-159867857D01*
X62750000Y-159582142D01*
X62750000Y-159225000D01*
X62821428Y-158939285D01*
X62892857Y-158796428D01*
X62964285Y-158725000D01*
X63107142Y-158653571D01*
X48821428Y-162703571D02*
X48821428Y-161203571D01*
X49678571Y-162703571D02*
X49035714Y-161846428D01*
X49678571Y-161203571D02*
X48821428Y-162060714D01*
X50321428Y-162703571D02*
X50321428Y-161703571D01*
X50321428Y-161989285D02*
X50392857Y-161846428D01*
X50464285Y-161775000D01*
X50607142Y-161703571D01*
X50750000Y-161703571D01*
X51107142Y-161703571D02*
X51464285Y-162703571D01*
X51821428Y-161703571D02*
X51464285Y-162703571D01*
X51321428Y-163060714D01*
X51250000Y-163132142D01*
X51107142Y-163203571D01*
X52321428Y-162632142D02*
X52464285Y-162703571D01*
X52750000Y-162703571D01*
X52892857Y-162632142D01*
X52964285Y-162489285D01*
X52964285Y-162417857D01*
X52892857Y-162275000D01*
X52750000Y-162203571D01*
X52535714Y-162203571D01*
X52392857Y-162132142D01*
X52321428Y-161989285D01*
X52321428Y-161917857D01*
X52392857Y-161775000D01*
X52535714Y-161703571D01*
X52750000Y-161703571D01*
X52892857Y-161775000D01*
X53392857Y-161703571D02*
X53964285Y-161703571D01*
X53607142Y-161203571D02*
X53607142Y-162489285D01*
X53678571Y-162632142D01*
X53821428Y-162703571D01*
X53964285Y-162703571D01*
X54464285Y-162703571D02*
X54464285Y-161703571D01*
X54464285Y-161203571D02*
X54392857Y-161275000D01*
X54464285Y-161346428D01*
X54535714Y-161275000D01*
X54464285Y-161203571D01*
X54464285Y-161346428D01*
X55821428Y-162703571D02*
X55821428Y-161917857D01*
X55750000Y-161775000D01*
X55607142Y-161703571D01*
X55321428Y-161703571D01*
X55178571Y-161775000D01*
X55821428Y-162632142D02*
X55678571Y-162703571D01*
X55321428Y-162703571D01*
X55178571Y-162632142D01*
X55107142Y-162489285D01*
X55107142Y-162346428D01*
X55178571Y-162203571D01*
X55321428Y-162132142D01*
X55678571Y-162132142D01*
X55821428Y-162060714D01*
X56535714Y-161703571D02*
X56535714Y-162703571D01*
X56535714Y-161846428D02*
X56607142Y-161775000D01*
X56750000Y-161703571D01*
X56964285Y-161703571D01*
X57107142Y-161775000D01*
X57178571Y-161917857D01*
X57178571Y-162703571D01*
X59035714Y-162703571D02*
X59035714Y-161203571D01*
X59535714Y-162275000D01*
X60035714Y-161203571D01*
X60035714Y-162703571D01*
X60750000Y-162703571D02*
X60750000Y-161703571D01*
X60750000Y-161203571D02*
X60678571Y-161275000D01*
X60750000Y-161346428D01*
X60821428Y-161275000D01*
X60750000Y-161203571D01*
X60750000Y-161346428D01*
X61464285Y-162703571D02*
X61464285Y-161703571D01*
X61464285Y-161989285D02*
X61535714Y-161846428D01*
X61607142Y-161775000D01*
X61750000Y-161703571D01*
X61892857Y-161703571D01*
X62964285Y-162632142D02*
X62821428Y-162703571D01*
X62535714Y-162703571D01*
X62392857Y-162632142D01*
X62321428Y-162489285D01*
X62321428Y-161917857D01*
X62392857Y-161775000D01*
X62535714Y-161703571D01*
X62821428Y-161703571D01*
X62964285Y-161775000D01*
X63035714Y-161917857D01*
X63035714Y-162060714D01*
X62321428Y-162203571D01*
X63678571Y-162703571D02*
X63678571Y-161203571D01*
X63821428Y-162132142D02*
X64250000Y-162703571D01*
X64250000Y-161703571D02*
X63678571Y-162275000D01*
D11*
X26000000Y-152500000D02*
X36000000Y-152500000D01*
X26000000Y-149500000D02*
X36000000Y-149500000D01*
X26000000Y-152500000D02*
X26000000Y-149500000D01*
X36000000Y-142000000D02*
G75*
G02*
X44500000Y-142000000I4250000J0D01*
G01*
X36000000Y-157000000D02*
X36000000Y-145000000D01*
X44500000Y-160000000D02*
G75*
G02*
X36000000Y-160000000I-4250000J0D01*
G01*
X36000000Y-145000000D02*
X36000000Y-142000000D01*
X44500000Y-142000000D02*
X44500000Y-143500000D01*
X41750000Y-142000000D02*
G75*
G03*
X41750000Y-142000000I-1500000J0D01*
G01*
X44500000Y-160000000D02*
X44500000Y-158500000D01*
X66000000Y-145000000D02*
X66000000Y-157000000D01*
X47500000Y-143500000D02*
X47500000Y-145000000D01*
X44500000Y-143500000D02*
X47500000Y-143500000D01*
X66000000Y-157000000D02*
X36000000Y-157000000D01*
X47500000Y-158500000D02*
X47500000Y-157000000D01*
X44500000Y-158500000D02*
X47500000Y-158500000D01*
X36000000Y-157000000D02*
X36000000Y-160000000D01*
X36000000Y-145000000D02*
X66000000Y-145000000D01*
X41750000Y-160000000D02*
G75*
G03*
X41750000Y-160000000I-1500000J0D01*
G01*
X166000000Y-152500000D02*
X156000000Y-152500000D01*
X166000000Y-149500000D02*
X156000000Y-149500000D01*
X166000000Y-149500000D02*
X166000000Y-152500000D01*
X153250000Y-142000000D02*
G75*
G03*
X153250000Y-142000000I-1500000J0D01*
G01*
X156000000Y-157000000D02*
X126000000Y-157000000D01*
X156000000Y-145000000D02*
X156000000Y-142000000D01*
X147500000Y-143500000D02*
X144500000Y-143500000D01*
X144500000Y-143500000D02*
X144500000Y-145000000D01*
X126000000Y-145000000D02*
X156000000Y-145000000D01*
X147500000Y-158500000D02*
X144500000Y-158500000D01*
X144500000Y-158500000D02*
X144500000Y-157000000D01*
X126000000Y-157000000D02*
X126000000Y-145000000D01*
X147500000Y-142000000D02*
X147500000Y-143500000D01*
X153250000Y-160000000D02*
G75*
G03*
X153250000Y-160000000I-1500000J0D01*
G01*
X147500000Y-160000000D02*
X147500000Y-158500000D01*
X156000000Y-157000000D02*
X156000000Y-160000000D01*
X147500000Y-142000000D02*
G75*
G02*
X156000000Y-142000000I4250000J0D01*
G01*
X156000000Y-145000000D02*
X156000000Y-157000000D01*
X156000000Y-160000000D02*
G75*
G02*
X147500000Y-160000000I-4250000J0D01*
G01*
D12*
%TO.C,G\u002A\u002A\u002A*%
G36*
X70739561Y-133275678D02*
G01*
X70994792Y-133342956D01*
X71093077Y-133373300D01*
X71625662Y-133593861D01*
X72124789Y-133902531D01*
X72574075Y-134287261D01*
X72957140Y-134736005D01*
X72969454Y-134753153D01*
X73137838Y-134962007D01*
X73300168Y-135114140D01*
X73387214Y-135169853D01*
X73538055Y-135247780D01*
X73668197Y-135321603D01*
X73683658Y-135331220D01*
X73778338Y-135375073D01*
X73853669Y-135348098D01*
X73886858Y-135320504D01*
X73995927Y-135246102D01*
X74141498Y-135171906D01*
X74160111Y-135164006D01*
X74287377Y-135079444D01*
X74562800Y-135079444D01*
X74604470Y-135122121D01*
X74710540Y-135187421D01*
X74784686Y-135225550D01*
X74938630Y-135311902D01*
X75065301Y-135403009D01*
X75098446Y-135434482D01*
X75164584Y-135494124D01*
X75215837Y-135493389D01*
X75264838Y-135420661D01*
X75324222Y-135264323D01*
X75342374Y-135210202D01*
X75529049Y-134781205D01*
X75802798Y-134347130D01*
X76151855Y-133926426D01*
X76180017Y-133896685D01*
X76564542Y-133494208D01*
X76300530Y-133594525D01*
X75799270Y-133837062D01*
X75337328Y-134163504D01*
X74936191Y-134557734D01*
X74812851Y-134710440D01*
X74696853Y-134868114D01*
X74609448Y-134995386D01*
X74565372Y-135070506D01*
X74562800Y-135079444D01*
X74287377Y-135079444D01*
X74323329Y-135055556D01*
X74505454Y-134855299D01*
X74577870Y-134758023D01*
X74928129Y-134339198D01*
X75338528Y-133971164D01*
X75790992Y-133665793D01*
X76267448Y-133434958D01*
X76749823Y-133290532D01*
X76836100Y-133274592D01*
X76988376Y-133264791D01*
X77051562Y-133297732D01*
X77026333Y-133368578D01*
X76913367Y-133472488D01*
X76797145Y-133552948D01*
X76473473Y-133806602D01*
X76160309Y-134136766D01*
X75876044Y-134518657D01*
X75639069Y-134927491D01*
X75467774Y-135338483D01*
X75464328Y-135349082D01*
X75351748Y-135697964D01*
X75630374Y-136231882D01*
X75815019Y-136558044D01*
X75989530Y-136797346D01*
X76169363Y-136961255D01*
X76369974Y-137061236D01*
X76606822Y-137108754D01*
X76823400Y-137116808D01*
X77034944Y-137097779D01*
X77306859Y-137048391D01*
X77604825Y-136975105D01*
X77661600Y-136958998D01*
X77976986Y-136873342D01*
X78215897Y-136824398D01*
X78396208Y-136811192D01*
X78535799Y-136832755D01*
X78652546Y-136888114D01*
X78675748Y-136903881D01*
X78840130Y-137074408D01*
X78914591Y-137279190D01*
X78899165Y-137505249D01*
X78793884Y-137739606D01*
X78673276Y-137894606D01*
X78512924Y-138049054D01*
X78342501Y-138166245D01*
X78143914Y-138252072D01*
X77899073Y-138312425D01*
X77589885Y-138353198D01*
X77198258Y-138380281D01*
X77179000Y-138381243D01*
X76808361Y-138403127D01*
X76522232Y-138430213D01*
X76303529Y-138466593D01*
X76135166Y-138516364D01*
X76000060Y-138583620D01*
X75881125Y-138672456D01*
X75850723Y-138699612D01*
X75689233Y-138911605D01*
X75571170Y-139203483D01*
X75498082Y-139562563D01*
X75471513Y-139976164D01*
X75493009Y-140431605D01*
X75564116Y-140916203D01*
X75574323Y-140967288D01*
X75629655Y-141263416D01*
X75683393Y-141595076D01*
X75726609Y-141905724D01*
X75738394Y-142006308D01*
X75763479Y-142655000D01*
X75699951Y-143293203D01*
X75551519Y-143906788D01*
X75321896Y-144481627D01*
X75014790Y-145003590D01*
X74916121Y-145137437D01*
X74789936Y-145290906D01*
X74629811Y-145471718D01*
X74450272Y-145665093D01*
X74265846Y-145856255D01*
X74091060Y-146030424D01*
X73940440Y-146172822D01*
X73828514Y-146268671D01*
X73770199Y-146303200D01*
X73715810Y-146268350D01*
X73606127Y-146172618D01*
X73455357Y-146029232D01*
X73277708Y-145851418D01*
X73210339Y-145781971D01*
X72894652Y-145440953D01*
X72643617Y-145136964D01*
X72440333Y-144846442D01*
X72267897Y-144545826D01*
X72151743Y-144306375D01*
X71958828Y-143787695D01*
X71839502Y-143234410D01*
X71793185Y-142637501D01*
X71803340Y-142384840D01*
X71942494Y-142384840D01*
X71953311Y-142790706D01*
X71993849Y-143202355D01*
X72060675Y-143581640D01*
X72127079Y-143825226D01*
X72280896Y-144207911D01*
X72486172Y-144606679D01*
X72718735Y-144977575D01*
X72875178Y-145185441D01*
X72992175Y-145323768D01*
X73082032Y-145422860D01*
X73127897Y-145464282D01*
X73130082Y-145464282D01*
X73114966Y-145417261D01*
X73061127Y-145304774D01*
X72979697Y-145149884D01*
X72967854Y-145128183D01*
X72841052Y-144879308D01*
X72744156Y-144641527D01*
X72673841Y-144395949D01*
X72626784Y-144123684D01*
X72599659Y-143805840D01*
X72595313Y-143647830D01*
X72741134Y-143647830D01*
X72745336Y-143854992D01*
X72759121Y-144022457D01*
X72783248Y-144170771D01*
X72803799Y-144262396D01*
X72941327Y-144679454D01*
X73151363Y-145118739D01*
X73419124Y-145550486D01*
X73497610Y-145659498D01*
X73612222Y-145812532D01*
X73699152Y-145909554D01*
X73773119Y-145945916D01*
X73848841Y-145916970D01*
X73941039Y-145818069D01*
X74064432Y-145644563D01*
X74195680Y-145448626D01*
X74445960Y-145448626D01*
X74495565Y-145404812D01*
X74597082Y-145280326D01*
X74752653Y-145073830D01*
X74844454Y-144948886D01*
X75095678Y-144549764D01*
X75314091Y-144095808D01*
X75478148Y-143633154D01*
X75504854Y-143534600D01*
X75562817Y-143203285D01*
X75591029Y-142800670D01*
X75589966Y-142352455D01*
X75560101Y-141884339D01*
X75501910Y-141422022D01*
X75461687Y-141197800D01*
X75339822Y-140588200D01*
X75277441Y-140816800D01*
X75234036Y-140971456D01*
X75172455Y-141185395D01*
X75103682Y-141420572D01*
X75079429Y-141502600D01*
X75033310Y-141662610D01*
X74999331Y-141800148D01*
X74975933Y-141934507D01*
X74961559Y-142084978D01*
X74954648Y-142270855D01*
X74953644Y-142511431D01*
X74956987Y-142825999D01*
X74959372Y-142988754D01*
X74963033Y-143414887D01*
X74957378Y-143759301D01*
X74938946Y-144041710D01*
X74904278Y-144281825D01*
X74849914Y-144499360D01*
X74772395Y-144714027D01*
X74668260Y-144945539D01*
X74587186Y-145109400D01*
X74493913Y-145299583D01*
X74446123Y-145413104D01*
X74445960Y-145448626D01*
X74195680Y-145448626D01*
X74203806Y-145436496D01*
X74414359Y-145101579D01*
X74573944Y-144793349D01*
X74687579Y-144490447D01*
X74760283Y-144171515D01*
X74797075Y-143815194D01*
X74802974Y-143400125D01*
X74786016Y-142958680D01*
X74740600Y-142128760D01*
X74520713Y-142441151D01*
X74319852Y-142691216D01*
X74126890Y-142852243D01*
X73927147Y-142934257D01*
X73775400Y-142950020D01*
X73560771Y-142916520D01*
X73360044Y-142809662D01*
X73158931Y-142619907D01*
X73019593Y-142445367D01*
X72827421Y-142184319D01*
X73045984Y-142184319D01*
X73099902Y-142279096D01*
X73200570Y-142412655D01*
X73321827Y-142554413D01*
X73437514Y-142673785D01*
X73521400Y-142740150D01*
X73724831Y-142791110D01*
X73940945Y-142764477D01*
X74046961Y-142717563D01*
X74138617Y-142643760D01*
X74253352Y-142526713D01*
X74368525Y-142393097D01*
X74461496Y-142269583D01*
X74509625Y-142182846D01*
X74512000Y-142169696D01*
X74472137Y-142170849D01*
X74370488Y-142211727D01*
X74296100Y-142248572D01*
X74017555Y-142342628D01*
X73707765Y-142363041D01*
X73405367Y-142309915D01*
X73249184Y-142245758D01*
X73127138Y-142189826D01*
X73055114Y-142172445D01*
X73045984Y-142184319D01*
X72827421Y-142184319D01*
X72795576Y-142141062D01*
X72758450Y-143032227D01*
X72745758Y-143380424D01*
X72741134Y-143647830D01*
X72595313Y-143647830D01*
X72589142Y-143423527D01*
X72591416Y-142989222D01*
X72607000Y-141959800D01*
X72432977Y-141350200D01*
X72363807Y-141114070D01*
X72301772Y-140913595D01*
X72253380Y-140769061D01*
X72225144Y-140700754D01*
X72224105Y-140699367D01*
X72200746Y-140726703D01*
X72167108Y-140838421D01*
X72126388Y-141018202D01*
X72081784Y-141249727D01*
X72036492Y-141516676D01*
X71993708Y-141802728D01*
X71964833Y-142022904D01*
X71942494Y-142384840D01*
X71803340Y-142384840D01*
X71819293Y-141987952D01*
X71917246Y-141276745D01*
X71946326Y-141121600D01*
X72041829Y-140513759D01*
X72076699Y-139980844D01*
X72051242Y-139524162D01*
X71965763Y-139145021D01*
X71820568Y-138844728D01*
X71615961Y-138624590D01*
X71352249Y-138485915D01*
X71329096Y-138478529D01*
X71208634Y-138454438D01*
X71010711Y-138428923D01*
X70759390Y-138404521D01*
X70478732Y-138383773D01*
X70371800Y-138377505D01*
X70085492Y-138358242D01*
X69818741Y-138333513D01*
X69595899Y-138306053D01*
X69441319Y-138278598D01*
X69406600Y-138269088D01*
X69220028Y-138175863D01*
X69025792Y-138027944D01*
X68848517Y-137850085D01*
X68712824Y-137667045D01*
X68645447Y-137508536D01*
X68847061Y-137508536D01*
X68877833Y-137647468D01*
X68982619Y-137795969D01*
X69151217Y-137940058D01*
X69373427Y-138065757D01*
X69399872Y-138077501D01*
X69524643Y-138124433D01*
X69664026Y-138159484D01*
X69838942Y-138185653D01*
X70070312Y-138205937D01*
X70379060Y-138223334D01*
X70436191Y-138226011D01*
X70707042Y-138240416D01*
X70941086Y-138256572D01*
X71119935Y-138272918D01*
X71225202Y-138287895D01*
X71244757Y-138294624D01*
X71319940Y-138324566D01*
X71355431Y-138327600D01*
X71376804Y-138297862D01*
X71316175Y-138208970D01*
X71258065Y-138145476D01*
X71060228Y-137968955D01*
X70821518Y-137814232D01*
X70526575Y-137673933D01*
X70160042Y-137540686D01*
X69737821Y-137415636D01*
X69401019Y-137338816D01*
X69146676Y-137315950D01*
X68971222Y-137346942D01*
X68900504Y-137393152D01*
X68847061Y-137508536D01*
X68645447Y-137508536D01*
X68643339Y-137503579D01*
X68642899Y-137501253D01*
X68643265Y-137260197D01*
X68666807Y-137204589D01*
X68845903Y-137204589D01*
X68926755Y-137185989D01*
X69002012Y-137158510D01*
X69138849Y-137143472D01*
X69355848Y-137166945D01*
X69640277Y-137226298D01*
X69979402Y-137318898D01*
X70341022Y-137435396D01*
X70691688Y-137572048D01*
X70972098Y-137722019D01*
X71213458Y-137903947D01*
X71360276Y-138044145D01*
X71479485Y-138163975D01*
X71567929Y-138247966D01*
X71604555Y-138276800D01*
X71591610Y-138235985D01*
X71540764Y-138128647D01*
X71462793Y-137977443D01*
X71457374Y-137967259D01*
X71369094Y-137822401D01*
X71643506Y-137822401D01*
X71643555Y-137883863D01*
X71652014Y-137920041D01*
X71689358Y-138033790D01*
X71754395Y-138200192D01*
X71819779Y-138353000D01*
X71912948Y-138576967D01*
X72008598Y-138830382D01*
X72062805Y-138988000D01*
X72101176Y-139111420D01*
X72136389Y-139238770D01*
X72171667Y-139385405D01*
X72210232Y-139566680D01*
X72255305Y-139797953D01*
X72310108Y-140094578D01*
X72377864Y-140471912D01*
X72398544Y-140588200D01*
X72499213Y-141036564D01*
X72629320Y-141396999D01*
X72795271Y-141680531D01*
X73003474Y-141898186D01*
X73251894Y-142056816D01*
X73454130Y-142151401D01*
X73584314Y-142188041D01*
X73658107Y-142160059D01*
X73691173Y-142060778D01*
X73699173Y-141883523D01*
X73699200Y-141866152D01*
X73699200Y-141543904D01*
X73851600Y-141543904D01*
X73851600Y-142201100D01*
X74016700Y-142168393D01*
X74159143Y-142121551D01*
X74331118Y-142040300D01*
X74408714Y-141995811D01*
X74626711Y-141824732D01*
X74807358Y-141598327D01*
X74955655Y-141306092D01*
X75076606Y-140937525D01*
X75175212Y-140482123D01*
X75200043Y-140334200D01*
X75277670Y-139874376D01*
X75353856Y-139491937D01*
X75435058Y-139162977D01*
X75527731Y-138863587D01*
X75638333Y-138569859D01*
X75741962Y-138327600D01*
X75752681Y-138302200D01*
X75918350Y-138302200D01*
X75919137Y-138301456D01*
X76179626Y-138301456D01*
X76226762Y-138308763D01*
X76239200Y-138305584D01*
X76333759Y-138290068D01*
X76508158Y-138271581D01*
X76740754Y-138252051D01*
X77009903Y-138233409D01*
X77128200Y-138226333D01*
X77413608Y-138206521D01*
X77678614Y-138181656D01*
X77899160Y-138154454D01*
X78051191Y-138127630D01*
X78085394Y-138118300D01*
X78251303Y-138037594D01*
X78425112Y-137913147D01*
X78577706Y-137770230D01*
X78679974Y-137634115D01*
X78701315Y-137583652D01*
X78693644Y-137455733D01*
X78601623Y-137361968D01*
X78440161Y-137314811D01*
X78375731Y-137311600D01*
X78212817Y-137329493D01*
X77982292Y-137378016D01*
X77710622Y-137449434D01*
X77424272Y-137536012D01*
X77149709Y-137630016D01*
X76913400Y-137723709D01*
X76823400Y-137765279D01*
X76674513Y-137849698D01*
X76523939Y-137953042D01*
X76385419Y-138062601D01*
X76272698Y-138165664D01*
X76199519Y-138249519D01*
X76179626Y-138301456D01*
X75919137Y-138301456D01*
X76220740Y-138016455D01*
X76392878Y-137865039D01*
X76567396Y-137729801D01*
X76709798Y-137637244D01*
X76724065Y-137629772D01*
X76921316Y-137543759D01*
X77186885Y-137446000D01*
X77489876Y-137346654D01*
X77799397Y-137255875D01*
X78071724Y-137186736D01*
X78316521Y-137143377D01*
X78497919Y-137143030D01*
X78574585Y-137158794D01*
X78743521Y-137207244D01*
X78621660Y-137077521D01*
X78517163Y-136990621D01*
X78399403Y-136963241D01*
X78296600Y-136968686D01*
X78128479Y-136996490D01*
X77900186Y-137048690D01*
X77632926Y-137118865D01*
X77347900Y-137200592D01*
X77066312Y-137287446D01*
X76809364Y-137373006D01*
X76598260Y-137450847D01*
X76454202Y-137514548D01*
X76414121Y-137538951D01*
X76310086Y-137645715D01*
X76190668Y-137808435D01*
X76088379Y-137979959D01*
X75918350Y-138302200D01*
X75752681Y-138302200D01*
X75815671Y-138152944D01*
X75874478Y-137997126D01*
X75898267Y-137921006D01*
X75911482Y-137841962D01*
X75882003Y-137808309D01*
X75786002Y-137805751D01*
X75714784Y-137810934D01*
X75557531Y-137809773D01*
X75444600Y-137762430D01*
X75357219Y-137685764D01*
X75214927Y-137543472D01*
X75117305Y-137668836D01*
X75042086Y-137791165D01*
X74978103Y-137956441D01*
X74922738Y-138176884D01*
X74873375Y-138464714D01*
X74827398Y-138832150D01*
X74791336Y-139191200D01*
X74742145Y-139676448D01*
X74690936Y-140073216D01*
X74633514Y-140394598D01*
X74565684Y-140653691D01*
X74483249Y-140863589D01*
X74382016Y-141037389D01*
X74257789Y-141188186D01*
X74106495Y-141328973D01*
X73851600Y-141543904D01*
X73699200Y-141543904D01*
X73444304Y-141328973D01*
X73294522Y-141189963D01*
X73171597Y-141041811D01*
X73093828Y-140909656D01*
X73266193Y-140909656D01*
X73344372Y-141034202D01*
X73491519Y-141174795D01*
X73555822Y-141223896D01*
X73681278Y-141310789D01*
X73761896Y-141343674D01*
X73834551Y-141328924D01*
X73913968Y-141285801D01*
X74054756Y-141182772D01*
X74185766Y-141055588D01*
X74189087Y-141051704D01*
X74265168Y-140942737D01*
X74295488Y-140859391D01*
X74294050Y-140848504D01*
X74238152Y-140821840D01*
X74107774Y-140800582D01*
X73929937Y-140785577D01*
X73731657Y-140777673D01*
X73539954Y-140777717D01*
X73381847Y-140786555D01*
X73284354Y-140805037D01*
X73267698Y-140816316D01*
X73266193Y-140909656D01*
X73093828Y-140909656D01*
X73071344Y-140871449D01*
X72989582Y-140665806D01*
X72922129Y-140411812D01*
X72864803Y-140096398D01*
X72813420Y-139706494D01*
X72763799Y-139229031D01*
X72760208Y-139191200D01*
X72714560Y-138752308D01*
X72667950Y-138402690D01*
X72640084Y-138251400D01*
X72866474Y-138251400D01*
X72874975Y-138529972D01*
X72894474Y-138856761D01*
X72922613Y-139208419D01*
X72957033Y-139561598D01*
X72995374Y-139892949D01*
X73035277Y-140179125D01*
X73074383Y-140396777D01*
X73089750Y-140461200D01*
X73137476Y-140639000D01*
X74413323Y-140639000D01*
X74461049Y-140461200D01*
X74512587Y-140221852D01*
X74558883Y-139917386D01*
X74598908Y-139566712D01*
X74631631Y-139188740D01*
X74656023Y-138802379D01*
X74671055Y-138426539D01*
X74675696Y-138080130D01*
X74668917Y-137782062D01*
X74653001Y-137591000D01*
X74961442Y-137591000D01*
X75105021Y-137457507D01*
X75127039Y-137439246D01*
X75444522Y-137439246D01*
X75449233Y-137545398D01*
X75531073Y-137629153D01*
X75665577Y-137666870D01*
X75680400Y-137667200D01*
X75807240Y-137641269D01*
X75883063Y-137591646D01*
X75929973Y-137486687D01*
X75885254Y-137408516D01*
X75757418Y-137366761D01*
X75680400Y-137362400D01*
X75515404Y-137382610D01*
X75444522Y-137439246D01*
X75127039Y-137439246D01*
X75233165Y-137351233D01*
X75354772Y-137269578D01*
X75365579Y-137263785D01*
X75494732Y-137222970D01*
X75658730Y-137201530D01*
X75683079Y-137200790D01*
X75809375Y-137188597D01*
X75815555Y-137186195D01*
X76096134Y-137186195D01*
X76109158Y-137303428D01*
X76116914Y-137355032D01*
X76150397Y-137564427D01*
X76313278Y-137425313D01*
X76476159Y-137286200D01*
X76294179Y-137204029D01*
X76175628Y-137154685D01*
X76104650Y-137133060D01*
X76097815Y-137133747D01*
X76096134Y-137186195D01*
X75815555Y-137186195D01*
X75878913Y-137161572D01*
X75883600Y-137151522D01*
X75861492Y-137075328D01*
X75806160Y-136952570D01*
X75734094Y-136814016D01*
X75661781Y-136690434D01*
X75605710Y-136612591D01*
X75588253Y-136600400D01*
X75524007Y-136637494D01*
X75422679Y-136732245D01*
X75306552Y-136859859D01*
X75197907Y-136995539D01*
X75119027Y-137114489D01*
X75108926Y-137133800D01*
X75042366Y-137294851D01*
X74997850Y-137438600D01*
X74961442Y-137591000D01*
X74653001Y-137591000D01*
X74649689Y-137551244D01*
X74625996Y-137432043D01*
X74571066Y-137302696D01*
X74472748Y-137117930D01*
X74346367Y-136905246D01*
X74243403Y-136745478D01*
X74106447Y-136534982D01*
X73984999Y-136338044D01*
X73894310Y-136179982D01*
X73855120Y-136100898D01*
X73785627Y-135933127D01*
X73625878Y-136228663D01*
X73513806Y-136423086D01*
X73372280Y-136651026D01*
X73231548Y-136863793D01*
X73228867Y-136867678D01*
X73083729Y-137091838D01*
X72981977Y-137292386D01*
X72916585Y-137496148D01*
X72880530Y-137729948D01*
X72866784Y-138020611D01*
X72866474Y-138251400D01*
X72640084Y-138251400D01*
X72617729Y-138130033D01*
X72561249Y-137922024D01*
X72495862Y-137766351D01*
X72432441Y-137667441D01*
X72333767Y-137540682D01*
X72182240Y-137685854D01*
X72059214Y-137783006D01*
X71936374Y-137815727D01*
X71825485Y-137811454D01*
X71696114Y-137803294D01*
X71643506Y-137822401D01*
X71369094Y-137822401D01*
X71348152Y-137788038D01*
X71228423Y-137630332D01*
X71136895Y-137539355D01*
X71034353Y-137485379D01*
X70854205Y-137414021D01*
X70617624Y-137331691D01*
X70437051Y-137273973D01*
X71051817Y-137273973D01*
X71219808Y-137414699D01*
X71387800Y-137555425D01*
X71395411Y-137520119D01*
X71612333Y-137520119D01*
X71650366Y-137575066D01*
X71770130Y-137647549D01*
X71916657Y-137662791D01*
X72043658Y-137618976D01*
X72073063Y-137591646D01*
X72119201Y-137486582D01*
X72074332Y-137407540D01*
X71948001Y-137365982D01*
X71882154Y-137362400D01*
X71707379Y-137381991D01*
X71615187Y-137436631D01*
X71612333Y-137520119D01*
X71395411Y-137520119D01*
X71427036Y-137373421D01*
X71449462Y-137244229D01*
X71453942Y-137161533D01*
X71453019Y-137157511D01*
X71667200Y-137157511D01*
X71712552Y-137189041D01*
X71827091Y-137207763D01*
X71891850Y-137210000D01*
X72062155Y-137227835D01*
X72213861Y-137293555D01*
X72336350Y-137379066D01*
X72459390Y-137464778D01*
X72546323Y-137508650D01*
X72572918Y-137506709D01*
X72562061Y-137441619D01*
X72516675Y-137316125D01*
X72465089Y-137197943D01*
X72372822Y-137031846D01*
X72256600Y-136866063D01*
X72135709Y-136723724D01*
X72029435Y-136627955D01*
X71966827Y-136600400D01*
X71923553Y-136641825D01*
X71856048Y-136745645D01*
X71780813Y-136881180D01*
X71714350Y-137017746D01*
X71673160Y-137124662D01*
X71667200Y-137157511D01*
X71453019Y-137157511D01*
X71452436Y-137154974D01*
X71401984Y-137149221D01*
X71292214Y-137178600D01*
X71245208Y-137196251D01*
X71051817Y-137273973D01*
X70437051Y-137273973D01*
X70345778Y-137244799D01*
X70059839Y-137159755D01*
X69780976Y-137082972D01*
X69530359Y-137020857D01*
X69329159Y-136979823D01*
X69254200Y-136969267D01*
X69102854Y-136967630D01*
X68996597Y-137014643D01*
X68927844Y-137078898D01*
X68848282Y-137171055D01*
X68845903Y-137204589D01*
X68666807Y-137204589D01*
X68731398Y-137052023D01*
X68894551Y-136899381D01*
X69028857Y-136835892D01*
X69176480Y-136810545D01*
X69359319Y-136824145D01*
X69599275Y-136877500D01*
X69791347Y-136932405D01*
X70211963Y-137045085D01*
X70558949Y-137106258D01*
X70845321Y-137117478D01*
X71067494Y-137084744D01*
X71268419Y-137017296D01*
X71435208Y-136919703D01*
X71583643Y-136776084D01*
X71729504Y-136570561D01*
X71821194Y-136407256D01*
X72016260Y-136407256D01*
X72219634Y-136581336D01*
X72388221Y-136768947D01*
X72549356Y-137026949D01*
X72684531Y-137324738D01*
X72707313Y-137387800D01*
X72733563Y-137432661D01*
X72766245Y-137406248D01*
X72815713Y-137297286D01*
X72834366Y-137249448D01*
X72912150Y-137084269D01*
X73027272Y-136882800D01*
X73153448Y-136690648D01*
X73350103Y-136394607D01*
X73503361Y-136122869D01*
X73605214Y-135891520D01*
X73647653Y-135716643D01*
X73648333Y-135698342D01*
X73908256Y-135698342D01*
X73940473Y-135876728D01*
X74034935Y-136100885D01*
X74194493Y-136380122D01*
X74404016Y-136697714D01*
X74528632Y-136888705D01*
X74635114Y-137070142D01*
X74705445Y-137210734D01*
X74717307Y-137241786D01*
X74763465Y-137355067D01*
X74803730Y-137411713D01*
X74808815Y-137413200D01*
X74843612Y-137369530D01*
X74896242Y-137257072D01*
X74936448Y-137152208D01*
X75076299Y-136884239D01*
X75278246Y-136642115D01*
X75527348Y-136393012D01*
X75373785Y-136088804D01*
X75189250Y-135788435D01*
X74977881Y-135553796D01*
X74751144Y-135390365D01*
X74520510Y-135303621D01*
X74297445Y-135299043D01*
X74093418Y-135382111D01*
X74019142Y-135441636D01*
X73935430Y-135556414D01*
X73908256Y-135698342D01*
X73648333Y-135698342D01*
X73648400Y-135696543D01*
X73601537Y-135535109D01*
X73476692Y-135398340D01*
X73297481Y-135310131D01*
X73256805Y-135300341D01*
X73022598Y-135303428D01*
X72782977Y-135397848D01*
X72549888Y-135574830D01*
X72335278Y-135825600D01*
X72173419Y-136095926D01*
X72016260Y-136407256D01*
X71821194Y-136407256D01*
X71888572Y-136287254D01*
X71919513Y-136227382D01*
X72194875Y-135689555D01*
X72104001Y-135395677D01*
X71918870Y-134940620D01*
X71654339Y-134491665D01*
X71330288Y-134076500D01*
X70966597Y-133722810D01*
X70821740Y-133609998D01*
X70672044Y-133492895D01*
X70982801Y-133492895D01*
X71308867Y-133825071D01*
X71610574Y-134160164D01*
X71855574Y-134500393D01*
X72061350Y-134874738D01*
X72245385Y-135312175D01*
X72304050Y-135474527D01*
X72343238Y-135499938D01*
X72428114Y-135454791D01*
X72492804Y-135403329D01*
X72643281Y-135294025D01*
X72799728Y-135205338D01*
X72822900Y-135195020D01*
X72932666Y-135138191D01*
X72986799Y-135088921D01*
X72988000Y-135083294D01*
X72959235Y-135025547D01*
X72882791Y-134909691D01*
X72773441Y-134757756D01*
X72737948Y-134710440D01*
X72362325Y-134294955D01*
X71918024Y-133942107D01*
X71426162Y-133667728D01*
X71248541Y-133593868D01*
X70982801Y-133492895D01*
X70672044Y-133492895D01*
X70623131Y-133454632D01*
X70515926Y-133343239D01*
X70499809Y-133276097D01*
X70574460Y-133253484D01*
X70739561Y-133275678D01*
G37*
X70739561Y-133275678D02*
X70994792Y-133342956D01*
X71093077Y-133373300D01*
X71625662Y-133593861D01*
X72124789Y-133902531D01*
X72574075Y-134287261D01*
X72957140Y-134736005D01*
X72969454Y-134753153D01*
X73137838Y-134962007D01*
X73300168Y-135114140D01*
X73387214Y-135169853D01*
X73538055Y-135247780D01*
X73668197Y-135321603D01*
X73683658Y-135331220D01*
X73778338Y-135375073D01*
X73853669Y-135348098D01*
X73886858Y-135320504D01*
X73995927Y-135246102D01*
X74141498Y-135171906D01*
X74160111Y-135164006D01*
X74287377Y-135079444D01*
X74562800Y-135079444D01*
X74604470Y-135122121D01*
X74710540Y-135187421D01*
X74784686Y-135225550D01*
X74938630Y-135311902D01*
X75065301Y-135403009D01*
X75098446Y-135434482D01*
X75164584Y-135494124D01*
X75215837Y-135493389D01*
X75264838Y-135420661D01*
X75324222Y-135264323D01*
X75342374Y-135210202D01*
X75529049Y-134781205D01*
X75802798Y-134347130D01*
X76151855Y-133926426D01*
X76180017Y-133896685D01*
X76564542Y-133494208D01*
X76300530Y-133594525D01*
X75799270Y-133837062D01*
X75337328Y-134163504D01*
X74936191Y-134557734D01*
X74812851Y-134710440D01*
X74696853Y-134868114D01*
X74609448Y-134995386D01*
X74565372Y-135070506D01*
X74562800Y-135079444D01*
X74287377Y-135079444D01*
X74323329Y-135055556D01*
X74505454Y-134855299D01*
X74577870Y-134758023D01*
X74928129Y-134339198D01*
X75338528Y-133971164D01*
X75790992Y-133665793D01*
X76267448Y-133434958D01*
X76749823Y-133290532D01*
X76836100Y-133274592D01*
X76988376Y-133264791D01*
X77051562Y-133297732D01*
X77026333Y-133368578D01*
X76913367Y-133472488D01*
X76797145Y-133552948D01*
X76473473Y-133806602D01*
X76160309Y-134136766D01*
X75876044Y-134518657D01*
X75639069Y-134927491D01*
X75467774Y-135338483D01*
X75464328Y-135349082D01*
X75351748Y-135697964D01*
X75630374Y-136231882D01*
X75815019Y-136558044D01*
X75989530Y-136797346D01*
X76169363Y-136961255D01*
X76369974Y-137061236D01*
X76606822Y-137108754D01*
X76823400Y-137116808D01*
X77034944Y-137097779D01*
X77306859Y-137048391D01*
X77604825Y-136975105D01*
X77661600Y-136958998D01*
X77976986Y-136873342D01*
X78215897Y-136824398D01*
X78396208Y-136811192D01*
X78535799Y-136832755D01*
X78652546Y-136888114D01*
X78675748Y-136903881D01*
X78840130Y-137074408D01*
X78914591Y-137279190D01*
X78899165Y-137505249D01*
X78793884Y-137739606D01*
X78673276Y-137894606D01*
X78512924Y-138049054D01*
X78342501Y-138166245D01*
X78143914Y-138252072D01*
X77899073Y-138312425D01*
X77589885Y-138353198D01*
X77198258Y-138380281D01*
X77179000Y-138381243D01*
X76808361Y-138403127D01*
X76522232Y-138430213D01*
X76303529Y-138466593D01*
X76135166Y-138516364D01*
X76000060Y-138583620D01*
X75881125Y-138672456D01*
X75850723Y-138699612D01*
X75689233Y-138911605D01*
X75571170Y-139203483D01*
X75498082Y-139562563D01*
X75471513Y-139976164D01*
X75493009Y-140431605D01*
X75564116Y-140916203D01*
X75574323Y-140967288D01*
X75629655Y-141263416D01*
X75683393Y-141595076D01*
X75726609Y-141905724D01*
X75738394Y-142006308D01*
X75763479Y-142655000D01*
X75699951Y-143293203D01*
X75551519Y-143906788D01*
X75321896Y-144481627D01*
X75014790Y-145003590D01*
X74916121Y-145137437D01*
X74789936Y-145290906D01*
X74629811Y-145471718D01*
X74450272Y-145665093D01*
X74265846Y-145856255D01*
X74091060Y-146030424D01*
X73940440Y-146172822D01*
X73828514Y-146268671D01*
X73770199Y-146303200D01*
X73715810Y-146268350D01*
X73606127Y-146172618D01*
X73455357Y-146029232D01*
X73277708Y-145851418D01*
X73210339Y-145781971D01*
X72894652Y-145440953D01*
X72643617Y-145136964D01*
X72440333Y-144846442D01*
X72267897Y-144545826D01*
X72151743Y-144306375D01*
X71958828Y-143787695D01*
X71839502Y-143234410D01*
X71793185Y-142637501D01*
X71803340Y-142384840D01*
X71942494Y-142384840D01*
X71953311Y-142790706D01*
X71993849Y-143202355D01*
X72060675Y-143581640D01*
X72127079Y-143825226D01*
X72280896Y-144207911D01*
X72486172Y-144606679D01*
X72718735Y-144977575D01*
X72875178Y-145185441D01*
X72992175Y-145323768D01*
X73082032Y-145422860D01*
X73127897Y-145464282D01*
X73130082Y-145464282D01*
X73114966Y-145417261D01*
X73061127Y-145304774D01*
X72979697Y-145149884D01*
X72967854Y-145128183D01*
X72841052Y-144879308D01*
X72744156Y-144641527D01*
X72673841Y-144395949D01*
X72626784Y-144123684D01*
X72599659Y-143805840D01*
X72595313Y-143647830D01*
X72741134Y-143647830D01*
X72745336Y-143854992D01*
X72759121Y-144022457D01*
X72783248Y-144170771D01*
X72803799Y-144262396D01*
X72941327Y-144679454D01*
X73151363Y-145118739D01*
X73419124Y-145550486D01*
X73497610Y-145659498D01*
X73612222Y-145812532D01*
X73699152Y-145909554D01*
X73773119Y-145945916D01*
X73848841Y-145916970D01*
X73941039Y-145818069D01*
X74064432Y-145644563D01*
X74195680Y-145448626D01*
X74445960Y-145448626D01*
X74495565Y-145404812D01*
X74597082Y-145280326D01*
X74752653Y-145073830D01*
X74844454Y-144948886D01*
X75095678Y-144549764D01*
X75314091Y-144095808D01*
X75478148Y-143633154D01*
X75504854Y-143534600D01*
X75562817Y-143203285D01*
X75591029Y-142800670D01*
X75589966Y-142352455D01*
X75560101Y-141884339D01*
X75501910Y-141422022D01*
X75461687Y-141197800D01*
X75339822Y-140588200D01*
X75277441Y-140816800D01*
X75234036Y-140971456D01*
X75172455Y-141185395D01*
X75103682Y-141420572D01*
X75079429Y-141502600D01*
X75033310Y-141662610D01*
X74999331Y-141800148D01*
X74975933Y-141934507D01*
X74961559Y-142084978D01*
X74954648Y-142270855D01*
X74953644Y-142511431D01*
X74956987Y-142825999D01*
X74959372Y-142988754D01*
X74963033Y-143414887D01*
X74957378Y-143759301D01*
X74938946Y-144041710D01*
X74904278Y-144281825D01*
X74849914Y-144499360D01*
X74772395Y-144714027D01*
X74668260Y-144945539D01*
X74587186Y-145109400D01*
X74493913Y-145299583D01*
X74446123Y-145413104D01*
X74445960Y-145448626D01*
X74195680Y-145448626D01*
X74203806Y-145436496D01*
X74414359Y-145101579D01*
X74573944Y-144793349D01*
X74687579Y-144490447D01*
X74760283Y-144171515D01*
X74797075Y-143815194D01*
X74802974Y-143400125D01*
X74786016Y-142958680D01*
X74740600Y-142128760D01*
X74520713Y-142441151D01*
X74319852Y-142691216D01*
X74126890Y-142852243D01*
X73927147Y-142934257D01*
X73775400Y-142950020D01*
X73560771Y-142916520D01*
X73360044Y-142809662D01*
X73158931Y-142619907D01*
X73019593Y-142445367D01*
X72827421Y-142184319D01*
X73045984Y-142184319D01*
X73099902Y-142279096D01*
X73200570Y-142412655D01*
X73321827Y-142554413D01*
X73437514Y-142673785D01*
X73521400Y-142740150D01*
X73724831Y-142791110D01*
X73940945Y-142764477D01*
X74046961Y-142717563D01*
X74138617Y-142643760D01*
X74253352Y-142526713D01*
X74368525Y-142393097D01*
X74461496Y-142269583D01*
X74509625Y-142182846D01*
X74512000Y-142169696D01*
X74472137Y-142170849D01*
X74370488Y-142211727D01*
X74296100Y-142248572D01*
X74017555Y-142342628D01*
X73707765Y-142363041D01*
X73405367Y-142309915D01*
X73249184Y-142245758D01*
X73127138Y-142189826D01*
X73055114Y-142172445D01*
X73045984Y-142184319D01*
X72827421Y-142184319D01*
X72795576Y-142141062D01*
X72758450Y-143032227D01*
X72745758Y-143380424D01*
X72741134Y-143647830D01*
X72595313Y-143647830D01*
X72589142Y-143423527D01*
X72591416Y-142989222D01*
X72607000Y-141959800D01*
X72432977Y-141350200D01*
X72363807Y-141114070D01*
X72301772Y-140913595D01*
X72253380Y-140769061D01*
X72225144Y-140700754D01*
X72224105Y-140699367D01*
X72200746Y-140726703D01*
X72167108Y-140838421D01*
X72126388Y-141018202D01*
X72081784Y-141249727D01*
X72036492Y-141516676D01*
X71993708Y-141802728D01*
X71964833Y-142022904D01*
X71942494Y-142384840D01*
X71803340Y-142384840D01*
X71819293Y-141987952D01*
X71917246Y-141276745D01*
X71946326Y-141121600D01*
X72041829Y-140513759D01*
X72076699Y-139980844D01*
X72051242Y-139524162D01*
X71965763Y-139145021D01*
X71820568Y-138844728D01*
X71615961Y-138624590D01*
X71352249Y-138485915D01*
X71329096Y-138478529D01*
X71208634Y-138454438D01*
X71010711Y-138428923D01*
X70759390Y-138404521D01*
X70478732Y-138383773D01*
X70371800Y-138377505D01*
X70085492Y-138358242D01*
X69818741Y-138333513D01*
X69595899Y-138306053D01*
X69441319Y-138278598D01*
X69406600Y-138269088D01*
X69220028Y-138175863D01*
X69025792Y-138027944D01*
X68848517Y-137850085D01*
X68712824Y-137667045D01*
X68645447Y-137508536D01*
X68847061Y-137508536D01*
X68877833Y-137647468D01*
X68982619Y-137795969D01*
X69151217Y-137940058D01*
X69373427Y-138065757D01*
X69399872Y-138077501D01*
X69524643Y-138124433D01*
X69664026Y-138159484D01*
X69838942Y-138185653D01*
X70070312Y-138205937D01*
X70379060Y-138223334D01*
X70436191Y-138226011D01*
X70707042Y-138240416D01*
X70941086Y-138256572D01*
X71119935Y-138272918D01*
X71225202Y-138287895D01*
X71244757Y-138294624D01*
X71319940Y-138324566D01*
X71355431Y-138327600D01*
X71376804Y-138297862D01*
X71316175Y-138208970D01*
X71258065Y-138145476D01*
X71060228Y-137968955D01*
X70821518Y-137814232D01*
X70526575Y-137673933D01*
X70160042Y-137540686D01*
X69737821Y-137415636D01*
X69401019Y-137338816D01*
X69146676Y-137315950D01*
X68971222Y-137346942D01*
X68900504Y-137393152D01*
X68847061Y-137508536D01*
X68645447Y-137508536D01*
X68643339Y-137503579D01*
X68642899Y-137501253D01*
X68643265Y-137260197D01*
X68666807Y-137204589D01*
X68845903Y-137204589D01*
X68926755Y-137185989D01*
X69002012Y-137158510D01*
X69138849Y-137143472D01*
X69355848Y-137166945D01*
X69640277Y-137226298D01*
X69979402Y-137318898D01*
X70341022Y-137435396D01*
X70691688Y-137572048D01*
X70972098Y-137722019D01*
X71213458Y-137903947D01*
X71360276Y-138044145D01*
X71479485Y-138163975D01*
X71567929Y-138247966D01*
X71604555Y-138276800D01*
X71591610Y-138235985D01*
X71540764Y-138128647D01*
X71462793Y-137977443D01*
X71457374Y-137967259D01*
X71369094Y-137822401D01*
X71643506Y-137822401D01*
X71643555Y-137883863D01*
X71652014Y-137920041D01*
X71689358Y-138033790D01*
X71754395Y-138200192D01*
X71819779Y-138353000D01*
X71912948Y-138576967D01*
X72008598Y-138830382D01*
X72062805Y-138988000D01*
X72101176Y-139111420D01*
X72136389Y-139238770D01*
X72171667Y-139385405D01*
X72210232Y-139566680D01*
X72255305Y-139797953D01*
X72310108Y-140094578D01*
X72377864Y-140471912D01*
X72398544Y-140588200D01*
X72499213Y-141036564D01*
X72629320Y-141396999D01*
X72795271Y-141680531D01*
X73003474Y-141898186D01*
X73251894Y-142056816D01*
X73454130Y-142151401D01*
X73584314Y-142188041D01*
X73658107Y-142160059D01*
X73691173Y-142060778D01*
X73699173Y-141883523D01*
X73699200Y-141866152D01*
X73699200Y-141543904D01*
X73851600Y-141543904D01*
X73851600Y-142201100D01*
X74016700Y-142168393D01*
X74159143Y-142121551D01*
X74331118Y-142040300D01*
X74408714Y-141995811D01*
X74626711Y-141824732D01*
X74807358Y-141598327D01*
X74955655Y-141306092D01*
X75076606Y-140937525D01*
X75175212Y-140482123D01*
X75200043Y-140334200D01*
X75277670Y-139874376D01*
X75353856Y-139491937D01*
X75435058Y-139162977D01*
X75527731Y-138863587D01*
X75638333Y-138569859D01*
X75741962Y-138327600D01*
X75752681Y-138302200D01*
X75918350Y-138302200D01*
X75919137Y-138301456D01*
X76179626Y-138301456D01*
X76226762Y-138308763D01*
X76239200Y-138305584D01*
X76333759Y-138290068D01*
X76508158Y-138271581D01*
X76740754Y-138252051D01*
X77009903Y-138233409D01*
X77128200Y-138226333D01*
X77413608Y-138206521D01*
X77678614Y-138181656D01*
X77899160Y-138154454D01*
X78051191Y-138127630D01*
X78085394Y-138118300D01*
X78251303Y-138037594D01*
X78425112Y-137913147D01*
X78577706Y-137770230D01*
X78679974Y-137634115D01*
X78701315Y-137583652D01*
X78693644Y-137455733D01*
X78601623Y-137361968D01*
X78440161Y-137314811D01*
X78375731Y-137311600D01*
X78212817Y-137329493D01*
X77982292Y-137378016D01*
X77710622Y-137449434D01*
X77424272Y-137536012D01*
X77149709Y-137630016D01*
X76913400Y-137723709D01*
X76823400Y-137765279D01*
X76674513Y-137849698D01*
X76523939Y-137953042D01*
X76385419Y-138062601D01*
X76272698Y-138165664D01*
X76199519Y-138249519D01*
X76179626Y-138301456D01*
X75919137Y-138301456D01*
X76220740Y-138016455D01*
X76392878Y-137865039D01*
X76567396Y-137729801D01*
X76709798Y-137637244D01*
X76724065Y-137629772D01*
X76921316Y-137543759D01*
X77186885Y-137446000D01*
X77489876Y-137346654D01*
X77799397Y-137255875D01*
X78071724Y-137186736D01*
X78316521Y-137143377D01*
X78497919Y-137143030D01*
X78574585Y-137158794D01*
X78743521Y-137207244D01*
X78621660Y-137077521D01*
X78517163Y-136990621D01*
X78399403Y-136963241D01*
X78296600Y-136968686D01*
X78128479Y-136996490D01*
X77900186Y-137048690D01*
X77632926Y-137118865D01*
X77347900Y-137200592D01*
X77066312Y-137287446D01*
X76809364Y-137373006D01*
X76598260Y-137450847D01*
X76454202Y-137514548D01*
X76414121Y-137538951D01*
X76310086Y-137645715D01*
X76190668Y-137808435D01*
X76088379Y-137979959D01*
X75918350Y-138302200D01*
X75752681Y-138302200D01*
X75815671Y-138152944D01*
X75874478Y-137997126D01*
X75898267Y-137921006D01*
X75911482Y-137841962D01*
X75882003Y-137808309D01*
X75786002Y-137805751D01*
X75714784Y-137810934D01*
X75557531Y-137809773D01*
X75444600Y-137762430D01*
X75357219Y-137685764D01*
X75214927Y-137543472D01*
X75117305Y-137668836D01*
X75042086Y-137791165D01*
X74978103Y-137956441D01*
X74922738Y-138176884D01*
X74873375Y-138464714D01*
X74827398Y-138832150D01*
X74791336Y-139191200D01*
X74742145Y-139676448D01*
X74690936Y-140073216D01*
X74633514Y-140394598D01*
X74565684Y-140653691D01*
X74483249Y-140863589D01*
X74382016Y-141037389D01*
X74257789Y-141188186D01*
X74106495Y-141328973D01*
X73851600Y-141543904D01*
X73699200Y-141543904D01*
X73444304Y-141328973D01*
X73294522Y-141189963D01*
X73171597Y-141041811D01*
X73093828Y-140909656D01*
X73266193Y-140909656D01*
X73344372Y-141034202D01*
X73491519Y-141174795D01*
X73555822Y-141223896D01*
X73681278Y-141310789D01*
X73761896Y-141343674D01*
X73834551Y-141328924D01*
X73913968Y-141285801D01*
X74054756Y-141182772D01*
X74185766Y-141055588D01*
X74189087Y-141051704D01*
X74265168Y-140942737D01*
X74295488Y-140859391D01*
X74294050Y-140848504D01*
X74238152Y-140821840D01*
X74107774Y-140800582D01*
X73929937Y-140785577D01*
X73731657Y-140777673D01*
X73539954Y-140777717D01*
X73381847Y-140786555D01*
X73284354Y-140805037D01*
X73267698Y-140816316D01*
X73266193Y-140909656D01*
X73093828Y-140909656D01*
X73071344Y-140871449D01*
X72989582Y-140665806D01*
X72922129Y-140411812D01*
X72864803Y-140096398D01*
X72813420Y-139706494D01*
X72763799Y-139229031D01*
X72760208Y-139191200D01*
X72714560Y-138752308D01*
X72667950Y-138402690D01*
X72640084Y-138251400D01*
X72866474Y-138251400D01*
X72874975Y-138529972D01*
X72894474Y-138856761D01*
X72922613Y-139208419D01*
X72957033Y-139561598D01*
X72995374Y-139892949D01*
X73035277Y-140179125D01*
X73074383Y-140396777D01*
X73089750Y-140461200D01*
X73137476Y-140639000D01*
X74413323Y-140639000D01*
X74461049Y-140461200D01*
X74512587Y-140221852D01*
X74558883Y-139917386D01*
X74598908Y-139566712D01*
X74631631Y-139188740D01*
X74656023Y-138802379D01*
X74671055Y-138426539D01*
X74675696Y-138080130D01*
X74668917Y-137782062D01*
X74653001Y-137591000D01*
X74961442Y-137591000D01*
X75105021Y-137457507D01*
X75127039Y-137439246D01*
X75444522Y-137439246D01*
X75449233Y-137545398D01*
X75531073Y-137629153D01*
X75665577Y-137666870D01*
X75680400Y-137667200D01*
X75807240Y-137641269D01*
X75883063Y-137591646D01*
X75929973Y-137486687D01*
X75885254Y-137408516D01*
X75757418Y-137366761D01*
X75680400Y-137362400D01*
X75515404Y-137382610D01*
X75444522Y-137439246D01*
X75127039Y-137439246D01*
X75233165Y-137351233D01*
X75354772Y-137269578D01*
X75365579Y-137263785D01*
X75494732Y-137222970D01*
X75658730Y-137201530D01*
X75683079Y-137200790D01*
X75809375Y-137188597D01*
X75815555Y-137186195D01*
X76096134Y-137186195D01*
X76109158Y-137303428D01*
X76116914Y-137355032D01*
X76150397Y-137564427D01*
X76313278Y-137425313D01*
X76476159Y-137286200D01*
X76294179Y-137204029D01*
X76175628Y-137154685D01*
X76104650Y-137133060D01*
X76097815Y-137133747D01*
X76096134Y-137186195D01*
X75815555Y-137186195D01*
X75878913Y-137161572D01*
X75883600Y-137151522D01*
X75861492Y-137075328D01*
X75806160Y-136952570D01*
X75734094Y-136814016D01*
X75661781Y-136690434D01*
X75605710Y-136612591D01*
X75588253Y-136600400D01*
X75524007Y-136637494D01*
X75422679Y-136732245D01*
X75306552Y-136859859D01*
X75197907Y-136995539D01*
X75119027Y-137114489D01*
X75108926Y-137133800D01*
X75042366Y-137294851D01*
X74997850Y-137438600D01*
X74961442Y-137591000D01*
X74653001Y-137591000D01*
X74649689Y-137551244D01*
X74625996Y-137432043D01*
X74571066Y-137302696D01*
X74472748Y-137117930D01*
X74346367Y-136905246D01*
X74243403Y-136745478D01*
X74106447Y-136534982D01*
X73984999Y-136338044D01*
X73894310Y-136179982D01*
X73855120Y-136100898D01*
X73785627Y-135933127D01*
X73625878Y-136228663D01*
X73513806Y-136423086D01*
X73372280Y-136651026D01*
X73231548Y-136863793D01*
X73228867Y-136867678D01*
X73083729Y-137091838D01*
X72981977Y-137292386D01*
X72916585Y-137496148D01*
X72880530Y-137729948D01*
X72866784Y-138020611D01*
X72866474Y-138251400D01*
X72640084Y-138251400D01*
X72617729Y-138130033D01*
X72561249Y-137922024D01*
X72495862Y-137766351D01*
X72432441Y-137667441D01*
X72333767Y-137540682D01*
X72182240Y-137685854D01*
X72059214Y-137783006D01*
X71936374Y-137815727D01*
X71825485Y-137811454D01*
X71696114Y-137803294D01*
X71643506Y-137822401D01*
X71369094Y-137822401D01*
X71348152Y-137788038D01*
X71228423Y-137630332D01*
X71136895Y-137539355D01*
X71034353Y-137485379D01*
X70854205Y-137414021D01*
X70617624Y-137331691D01*
X70437051Y-137273973D01*
X71051817Y-137273973D01*
X71219808Y-137414699D01*
X71387800Y-137555425D01*
X71395411Y-137520119D01*
X71612333Y-137520119D01*
X71650366Y-137575066D01*
X71770130Y-137647549D01*
X71916657Y-137662791D01*
X72043658Y-137618976D01*
X72073063Y-137591646D01*
X72119201Y-137486582D01*
X72074332Y-137407540D01*
X71948001Y-137365982D01*
X71882154Y-137362400D01*
X71707379Y-137381991D01*
X71615187Y-137436631D01*
X71612333Y-137520119D01*
X71395411Y-137520119D01*
X71427036Y-137373421D01*
X71449462Y-137244229D01*
X71453942Y-137161533D01*
X71453019Y-137157511D01*
X71667200Y-137157511D01*
X71712552Y-137189041D01*
X71827091Y-137207763D01*
X71891850Y-137210000D01*
X72062155Y-137227835D01*
X72213861Y-137293555D01*
X72336350Y-137379066D01*
X72459390Y-137464778D01*
X72546323Y-137508650D01*
X72572918Y-137506709D01*
X72562061Y-137441619D01*
X72516675Y-137316125D01*
X72465089Y-137197943D01*
X72372822Y-137031846D01*
X72256600Y-136866063D01*
X72135709Y-136723724D01*
X72029435Y-136627955D01*
X71966827Y-136600400D01*
X71923553Y-136641825D01*
X71856048Y-136745645D01*
X71780813Y-136881180D01*
X71714350Y-137017746D01*
X71673160Y-137124662D01*
X71667200Y-137157511D01*
X71453019Y-137157511D01*
X71452436Y-137154974D01*
X71401984Y-137149221D01*
X71292214Y-137178600D01*
X71245208Y-137196251D01*
X71051817Y-137273973D01*
X70437051Y-137273973D01*
X70345778Y-137244799D01*
X70059839Y-137159755D01*
X69780976Y-137082972D01*
X69530359Y-137020857D01*
X69329159Y-136979823D01*
X69254200Y-136969267D01*
X69102854Y-136967630D01*
X68996597Y-137014643D01*
X68927844Y-137078898D01*
X68848282Y-137171055D01*
X68845903Y-137204589D01*
X68666807Y-137204589D01*
X68731398Y-137052023D01*
X68894551Y-136899381D01*
X69028857Y-136835892D01*
X69176480Y-136810545D01*
X69359319Y-136824145D01*
X69599275Y-136877500D01*
X69791347Y-136932405D01*
X70211963Y-137045085D01*
X70558949Y-137106258D01*
X70845321Y-137117478D01*
X71067494Y-137084744D01*
X71268419Y-137017296D01*
X71435208Y-136919703D01*
X71583643Y-136776084D01*
X71729504Y-136570561D01*
X71821194Y-136407256D01*
X72016260Y-136407256D01*
X72219634Y-136581336D01*
X72388221Y-136768947D01*
X72549356Y-137026949D01*
X72684531Y-137324738D01*
X72707313Y-137387800D01*
X72733563Y-137432661D01*
X72766245Y-137406248D01*
X72815713Y-137297286D01*
X72834366Y-137249448D01*
X72912150Y-137084269D01*
X73027272Y-136882800D01*
X73153448Y-136690648D01*
X73350103Y-136394607D01*
X73503361Y-136122869D01*
X73605214Y-135891520D01*
X73647653Y-135716643D01*
X73648333Y-135698342D01*
X73908256Y-135698342D01*
X73940473Y-135876728D01*
X74034935Y-136100885D01*
X74194493Y-136380122D01*
X74404016Y-136697714D01*
X74528632Y-136888705D01*
X74635114Y-137070142D01*
X74705445Y-137210734D01*
X74717307Y-137241786D01*
X74763465Y-137355067D01*
X74803730Y-137411713D01*
X74808815Y-137413200D01*
X74843612Y-137369530D01*
X74896242Y-137257072D01*
X74936448Y-137152208D01*
X75076299Y-136884239D01*
X75278246Y-136642115D01*
X75527348Y-136393012D01*
X75373785Y-136088804D01*
X75189250Y-135788435D01*
X74977881Y-135553796D01*
X74751144Y-135390365D01*
X74520510Y-135303621D01*
X74297445Y-135299043D01*
X74093418Y-135382111D01*
X74019142Y-135441636D01*
X73935430Y-135556414D01*
X73908256Y-135698342D01*
X73648333Y-135698342D01*
X73648400Y-135696543D01*
X73601537Y-135535109D01*
X73476692Y-135398340D01*
X73297481Y-135310131D01*
X73256805Y-135300341D01*
X73022598Y-135303428D01*
X72782977Y-135397848D01*
X72549888Y-135574830D01*
X72335278Y-135825600D01*
X72173419Y-136095926D01*
X72016260Y-136407256D01*
X71821194Y-136407256D01*
X71888572Y-136287254D01*
X71919513Y-136227382D01*
X72194875Y-135689555D01*
X72104001Y-135395677D01*
X71918870Y-134940620D01*
X71654339Y-134491665D01*
X71330288Y-134076500D01*
X70966597Y-133722810D01*
X70821740Y-133609998D01*
X70672044Y-133492895D01*
X70982801Y-133492895D01*
X71308867Y-133825071D01*
X71610574Y-134160164D01*
X71855574Y-134500393D01*
X72061350Y-134874738D01*
X72245385Y-135312175D01*
X72304050Y-135474527D01*
X72343238Y-135499938D01*
X72428114Y-135454791D01*
X72492804Y-135403329D01*
X72643281Y-135294025D01*
X72799728Y-135205338D01*
X72822900Y-135195020D01*
X72932666Y-135138191D01*
X72986799Y-135088921D01*
X72988000Y-135083294D01*
X72959235Y-135025547D01*
X72882791Y-134909691D01*
X72773441Y-134757756D01*
X72737948Y-134710440D01*
X72362325Y-134294955D01*
X71918024Y-133942107D01*
X71426162Y-133667728D01*
X71248541Y-133593868D01*
X70982801Y-133492895D01*
X70672044Y-133492895D01*
X70623131Y-133454632D01*
X70515926Y-133343239D01*
X70499809Y-133276097D01*
X70574460Y-133253484D01*
X70739561Y-133275678D01*
D11*
%TO.C,SW1*%
X130690000Y-158290000D02*
X130690000Y-163410000D01*
X130690000Y-163410000D02*
X139810000Y-163410000D01*
X139810000Y-163410000D02*
X140810000Y-162410000D01*
X140810000Y-162410000D02*
X140810000Y-158290000D01*
X140810000Y-158290000D02*
X130690000Y-158290000D01*
X130390000Y-161300000D02*
X130390000Y-163710000D01*
X130390000Y-163710000D02*
X132800000Y-163710000D01*
%TO.C,C12*%
X107510000Y-136109420D02*
X107510000Y-136390580D01*
X106490000Y-136109420D02*
X106490000Y-136390580D01*
%TO.C,C11*%
X106010000Y-136109420D02*
X106010000Y-136390580D01*
X104990000Y-136109420D02*
X104990000Y-136390580D01*
%TO.C,C9*%
X102010000Y-146859420D02*
X102010000Y-147140580D01*
X100990000Y-146859420D02*
X100990000Y-147140580D01*
%TO.C,C8*%
X89990000Y-132890580D02*
X89990000Y-132609420D01*
X91010000Y-132890580D02*
X91010000Y-132609420D01*
%TO.C,C7*%
X86740000Y-143140580D02*
X86740000Y-142859420D01*
X87760000Y-143140580D02*
X87760000Y-142859420D01*
%TO.C,C13*%
X88490000Y-132890580D02*
X88490000Y-132609420D01*
X89510000Y-132890580D02*
X89510000Y-132609420D01*
%TO.C,U1*%
X120700000Y-157500000D02*
X120700000Y-159000000D01*
X120700000Y-159000000D02*
X119500000Y-159000000D01*
X118500000Y-155380000D02*
X119500000Y-155380000D01*
X120250000Y-158620000D02*
X117880000Y-158620000D01*
%TO.C,U3*%
X71300000Y-156500000D02*
X71300000Y-155000000D01*
X71300000Y-155000000D02*
X72500000Y-155000000D01*
X73500000Y-158620000D02*
X72500000Y-158620000D01*
X71750000Y-155380000D02*
X74120000Y-155380000D01*
%TO.C,R13*%
X106977500Y-152987258D02*
X106977500Y-152512742D01*
X108022500Y-152987258D02*
X108022500Y-152512742D01*
%TO.C,STLINK*%
X80420000Y-138240000D02*
X83080000Y-138240000D01*
X80420000Y-128020000D02*
X80420000Y-138240000D01*
X83080000Y-128020000D02*
X83080000Y-138240000D01*
X80420000Y-128020000D02*
X83080000Y-128020000D01*
X80420000Y-126750000D02*
X80420000Y-125420000D01*
X80420000Y-125420000D02*
X81750000Y-125420000D01*
%TO.C,Y1*%
X116300000Y-145950000D02*
X116300000Y-140200000D01*
X116300000Y-140200000D02*
X112700000Y-140200000D01*
X112700000Y-140200000D02*
X112700000Y-145950000D01*
%TO.C,U2*%
X91840000Y-134390000D02*
X90890000Y-134390000D01*
X90890000Y-134390000D02*
X90890000Y-135340000D01*
X100160000Y-134390000D02*
X101110000Y-134390000D01*
X101110000Y-134390000D02*
X101110000Y-135340000D01*
X91840000Y-144610000D02*
X90890000Y-144610000D01*
X90890000Y-144610000D02*
X90890000Y-143660000D01*
X100160000Y-144610000D02*
X101110000Y-144610000D01*
X101110000Y-144610000D02*
X101110000Y-143660000D01*
X101110000Y-143660000D02*
X102450000Y-143660000D01*
%TO.C,SW3*%
X123888909Y-131305456D02*
X123676777Y-131093324D01*
X123676777Y-131093324D02*
X121343324Y-133426777D01*
X121343324Y-133426777D02*
X121555456Y-133638909D01*
X125444544Y-132861091D02*
X125656676Y-133073223D01*
X125656676Y-133073223D02*
X123323223Y-135406676D01*
X123323223Y-135406676D02*
X123111091Y-135194544D01*
%TO.C,SW2*%
X127388909Y-134805456D02*
X127176777Y-134593324D01*
X127176777Y-134593324D02*
X124843324Y-136926777D01*
X124843324Y-136926777D02*
X125055456Y-137138909D01*
X128944544Y-136361091D02*
X129156676Y-136573223D01*
X129156676Y-136573223D02*
X126823223Y-138906676D01*
X126823223Y-138906676D02*
X126611091Y-138694544D01*
%TO.C,R11*%
X78772500Y-146837742D02*
X78772500Y-147312258D01*
X77727500Y-146837742D02*
X77727500Y-147312258D01*
%TO.C,R10*%
X81522500Y-146762742D02*
X81522500Y-147237258D01*
X80477500Y-146762742D02*
X80477500Y-147237258D01*
%TO.C,R9*%
X86737258Y-149272500D02*
X86262742Y-149272500D01*
X86737258Y-148227500D02*
X86262742Y-148227500D01*
%TO.C,R8*%
X86737258Y-147522500D02*
X86262742Y-147522500D01*
X86737258Y-146477500D02*
X86262742Y-146477500D01*
%TO.C,R7*%
X139977500Y-139987258D02*
X139977500Y-139512742D01*
X141022500Y-139987258D02*
X141022500Y-139512742D01*
%TO.C,R6*%
X136227500Y-139987258D02*
X136227500Y-139512742D01*
X137272500Y-139987258D02*
X137272500Y-139512742D01*
%TO.C,R5*%
X119951697Y-136462770D02*
X120287230Y-136798303D01*
X119212770Y-137201697D02*
X119548303Y-137537230D01*
%TO.C,R4*%
X123451697Y-139962770D02*
X123787230Y-140298303D01*
X122712770Y-140701697D02*
X123048303Y-141037230D01*
%TO.C,R3*%
X106272500Y-152512742D02*
X106272500Y-152987258D01*
X105227500Y-152512742D02*
X105227500Y-152987258D01*
%TO.C,R2*%
X112727500Y-156987258D02*
X112727500Y-156512742D01*
X113772500Y-156987258D02*
X113772500Y-156512742D01*
%TO.C,R1*%
X132477500Y-139987258D02*
X132477500Y-139512742D01*
X133522500Y-139987258D02*
X133522500Y-139512742D01*
%TO.C,Q2*%
X111010000Y-154330000D02*
X111010000Y-153400000D01*
X111010000Y-151170000D02*
X111010000Y-152100000D01*
X111010000Y-151170000D02*
X108850000Y-151170000D01*
X111010000Y-154330000D02*
X109550000Y-154330000D01*
%TO.C,Q1*%
X109490000Y-155170000D02*
X109490000Y-156100000D01*
X109490000Y-158330000D02*
X109490000Y-157400000D01*
X109490000Y-158330000D02*
X111650000Y-158330000D01*
X109490000Y-155170000D02*
X110950000Y-155170000D01*
%TO.C,J6*%
X66670000Y-145520000D02*
X69330000Y-145520000D01*
X66670000Y-145520000D02*
X66670000Y-158280000D01*
X66670000Y-158280000D02*
X69330000Y-158280000D01*
X69330000Y-145520000D02*
X69330000Y-158280000D01*
X69330000Y-142920000D02*
X69330000Y-144250000D01*
X68000000Y-142920000D02*
X69330000Y-142920000D01*
%TO.C,J5*%
X66610000Y-141330000D02*
X66610000Y-138670000D01*
X48770000Y-141330000D02*
X66610000Y-141330000D01*
X48770000Y-138670000D02*
X66610000Y-138670000D01*
X48770000Y-141330000D02*
X48770000Y-138670000D01*
X47500000Y-141330000D02*
X46170000Y-141330000D01*
X46170000Y-141330000D02*
X46170000Y-140000000D01*
%TO.C,J4*%
X122920000Y-145770000D02*
X125580000Y-145770000D01*
X122920000Y-145770000D02*
X122920000Y-158530000D01*
X122920000Y-158530000D02*
X125580000Y-158530000D01*
X125580000Y-145770000D02*
X125580000Y-158530000D01*
X125580000Y-143170000D02*
X125580000Y-144500000D01*
X124250000Y-143170000D02*
X125580000Y-143170000D01*
%TO.C,J3*%
X112370000Y-163580000D02*
X112370000Y-160920000D01*
X109770000Y-163580000D02*
X112370000Y-163580000D01*
X109770000Y-160920000D02*
X112370000Y-160920000D01*
X109770000Y-163580000D02*
X109770000Y-160920000D01*
X108500000Y-163580000D02*
X107170000Y-163580000D01*
X107170000Y-163580000D02*
X107170000Y-162250000D01*
%TO.C,J1*%
X106215000Y-126460000D02*
X106325000Y-126460000D01*
X106325000Y-126460000D02*
X106325000Y-125860000D01*
X85785000Y-126460000D02*
X85675000Y-126460000D01*
X85675000Y-126460000D02*
X85675000Y-125860000D01*
X103450000Y-129050000D02*
X103250000Y-128650000D01*
X103250000Y-128650000D02*
X103050000Y-129050000D01*
X103050000Y-129050000D02*
X103450000Y-129050000D01*
%TO.C,D3*%
X142985000Y-140550000D02*
X142985000Y-138265000D01*
X142985000Y-138265000D02*
X141515000Y-138265000D01*
X141515000Y-138265000D02*
X141515000Y-140550000D01*
%TO.C,D2*%
X139235000Y-140550000D02*
X139235000Y-138265000D01*
X139235000Y-138265000D02*
X137765000Y-138265000D01*
X137765000Y-138265000D02*
X137765000Y-140550000D01*
%TO.C,D1*%
X135485000Y-140550000D02*
X135485000Y-138265000D01*
X135485000Y-138265000D02*
X134015000Y-138265000D01*
X134015000Y-138265000D02*
X134015000Y-140550000D01*
%TO.C,C5*%
X118010000Y-141359420D02*
X118010000Y-141640580D01*
X116990000Y-141359420D02*
X116990000Y-141640580D01*
%TO.C,C4*%
X116990000Y-145140580D02*
X116990000Y-144859420D01*
X118010000Y-145140580D02*
X118010000Y-144859420D01*
%TO.C,C2*%
X121261219Y-135289970D02*
X121460030Y-135488781D01*
X120539970Y-136011219D02*
X120738781Y-136210030D01*
%TO.C,C1*%
X124286789Y-139758038D02*
X124087978Y-139559227D01*
X125008038Y-139036789D02*
X124809227Y-138837978D01*
D13*
%TO.C,A1*%
X100020000Y-162270000D02*
X100020000Y-150840000D01*
X100020000Y-150840000D02*
X82240000Y-150840000D01*
X82240000Y-150840000D02*
X82240000Y-162270000D01*
X82240000Y-162270000D02*
X100020000Y-162270000D01*
X96210000Y-155920000D02*
X86050000Y-155920000D01*
X87320000Y-157190000D02*
X86050000Y-155920000D01*
X86050000Y-155920000D02*
X87320000Y-154650000D01*
%TO.C,SW1*%
X134416666Y-157604761D02*
X134559523Y-157652380D01*
X134797619Y-157652380D01*
X134892857Y-157604761D01*
X134940476Y-157557142D01*
X134988095Y-157461904D01*
X134988095Y-157366666D01*
X134940476Y-157271428D01*
X134892857Y-157223809D01*
X134797619Y-157176190D01*
X134607142Y-157128571D01*
X134511904Y-157080952D01*
X134464285Y-157033333D01*
X134416666Y-156938095D01*
X134416666Y-156842857D01*
X134464285Y-156747619D01*
X134511904Y-156700000D01*
X134607142Y-156652380D01*
X134845238Y-156652380D01*
X134988095Y-156700000D01*
X135321428Y-156652380D02*
X135559523Y-157652380D01*
X135750000Y-156938095D01*
X135940476Y-157652380D01*
X136178571Y-156652380D01*
X137083333Y-157652380D02*
X136511904Y-157652380D01*
X136797619Y-157652380D02*
X136797619Y-156652380D01*
X136702380Y-156795238D01*
X136607142Y-156890476D01*
X136511904Y-156938095D01*
%TO.C,C12*%
X107357142Y-139892857D02*
X107404761Y-139940476D01*
X107452380Y-140083333D01*
X107452380Y-140178571D01*
X107404761Y-140321428D01*
X107309523Y-140416666D01*
X107214285Y-140464285D01*
X107023809Y-140511904D01*
X106880952Y-140511904D01*
X106690476Y-140464285D01*
X106595238Y-140416666D01*
X106500000Y-140321428D01*
X106452380Y-140178571D01*
X106452380Y-140083333D01*
X106500000Y-139940476D01*
X106547619Y-139892857D01*
X107452380Y-138940476D02*
X107452380Y-139511904D01*
X107452380Y-139226190D02*
X106452380Y-139226190D01*
X106595238Y-139321428D01*
X106690476Y-139416666D01*
X106738095Y-139511904D01*
X106547619Y-138559523D02*
X106500000Y-138511904D01*
X106452380Y-138416666D01*
X106452380Y-138178571D01*
X106500000Y-138083333D01*
X106547619Y-138035714D01*
X106642857Y-137988095D01*
X106738095Y-137988095D01*
X106880952Y-138035714D01*
X107452380Y-138607142D01*
X107452380Y-137988095D01*
%TO.C,C11*%
X105857142Y-139892857D02*
X105904761Y-139940476D01*
X105952380Y-140083333D01*
X105952380Y-140178571D01*
X105904761Y-140321428D01*
X105809523Y-140416666D01*
X105714285Y-140464285D01*
X105523809Y-140511904D01*
X105380952Y-140511904D01*
X105190476Y-140464285D01*
X105095238Y-140416666D01*
X105000000Y-140321428D01*
X104952380Y-140178571D01*
X104952380Y-140083333D01*
X105000000Y-139940476D01*
X105047619Y-139892857D01*
X105952380Y-138940476D02*
X105952380Y-139511904D01*
X105952380Y-139226190D02*
X104952380Y-139226190D01*
X105095238Y-139321428D01*
X105190476Y-139416666D01*
X105238095Y-139511904D01*
X105952380Y-137988095D02*
X105952380Y-138559523D01*
X105952380Y-138273809D02*
X104952380Y-138273809D01*
X105095238Y-138369047D01*
X105190476Y-138464285D01*
X105238095Y-138559523D01*
%TO.C,C9*%
X103287142Y-147166666D02*
X103334761Y-147214285D01*
X103382380Y-147357142D01*
X103382380Y-147452380D01*
X103334761Y-147595238D01*
X103239523Y-147690476D01*
X103144285Y-147738095D01*
X102953809Y-147785714D01*
X102810952Y-147785714D01*
X102620476Y-147738095D01*
X102525238Y-147690476D01*
X102430000Y-147595238D01*
X102382380Y-147452380D01*
X102382380Y-147357142D01*
X102430000Y-147214285D01*
X102477619Y-147166666D01*
X103382380Y-146690476D02*
X103382380Y-146500000D01*
X103334761Y-146404761D01*
X103287142Y-146357142D01*
X103144285Y-146261904D01*
X102953809Y-146214285D01*
X102572857Y-146214285D01*
X102477619Y-146261904D01*
X102430000Y-146309523D01*
X102382380Y-146404761D01*
X102382380Y-146595238D01*
X102430000Y-146690476D01*
X102477619Y-146738095D01*
X102572857Y-146785714D01*
X102810952Y-146785714D01*
X102906190Y-146738095D01*
X102953809Y-146690476D01*
X103001428Y-146595238D01*
X103001428Y-146404761D01*
X102953809Y-146309523D01*
X102906190Y-146261904D01*
X102810952Y-146214285D01*
%TO.C,C8*%
X87857142Y-133416666D02*
X87904761Y-133464285D01*
X87952380Y-133607142D01*
X87952380Y-133702380D01*
X87904761Y-133845238D01*
X87809523Y-133940476D01*
X87714285Y-133988095D01*
X87523809Y-134035714D01*
X87380952Y-134035714D01*
X87190476Y-133988095D01*
X87095238Y-133940476D01*
X87000000Y-133845238D01*
X86952380Y-133702380D01*
X86952380Y-133607142D01*
X87000000Y-133464285D01*
X87047619Y-133416666D01*
X87380952Y-132845238D02*
X87333333Y-132940476D01*
X87285714Y-132988095D01*
X87190476Y-133035714D01*
X87142857Y-133035714D01*
X87047619Y-132988095D01*
X87000000Y-132940476D01*
X86952380Y-132845238D01*
X86952380Y-132654761D01*
X87000000Y-132559523D01*
X87047619Y-132511904D01*
X87142857Y-132464285D01*
X87190476Y-132464285D01*
X87285714Y-132511904D01*
X87333333Y-132559523D01*
X87380952Y-132654761D01*
X87380952Y-132845238D01*
X87428571Y-132940476D01*
X87476190Y-132988095D01*
X87571428Y-133035714D01*
X87761904Y-133035714D01*
X87857142Y-132988095D01*
X87904761Y-132940476D01*
X87952380Y-132845238D01*
X87952380Y-132654761D01*
X87904761Y-132559523D01*
X87857142Y-132511904D01*
X87761904Y-132464285D01*
X87571428Y-132464285D01*
X87476190Y-132511904D01*
X87428571Y-132559523D01*
X87380952Y-132654761D01*
%TO.C,C7*%
X86177142Y-143166666D02*
X86224761Y-143214285D01*
X86272380Y-143357142D01*
X86272380Y-143452380D01*
X86224761Y-143595238D01*
X86129523Y-143690476D01*
X86034285Y-143738095D01*
X85843809Y-143785714D01*
X85700952Y-143785714D01*
X85510476Y-143738095D01*
X85415238Y-143690476D01*
X85320000Y-143595238D01*
X85272380Y-143452380D01*
X85272380Y-143357142D01*
X85320000Y-143214285D01*
X85367619Y-143166666D01*
X85272380Y-142833333D02*
X85272380Y-142166666D01*
X86272380Y-142595238D01*
%TO.C,C13*%
X86357142Y-133392857D02*
X86404761Y-133440476D01*
X86452380Y-133583333D01*
X86452380Y-133678571D01*
X86404761Y-133821428D01*
X86309523Y-133916666D01*
X86214285Y-133964285D01*
X86023809Y-134011904D01*
X85880952Y-134011904D01*
X85690476Y-133964285D01*
X85595238Y-133916666D01*
X85500000Y-133821428D01*
X85452380Y-133678571D01*
X85452380Y-133583333D01*
X85500000Y-133440476D01*
X85547619Y-133392857D01*
X86452380Y-132440476D02*
X86452380Y-133011904D01*
X86452380Y-132726190D02*
X85452380Y-132726190D01*
X85595238Y-132821428D01*
X85690476Y-132916666D01*
X85738095Y-133011904D01*
X85452380Y-132107142D02*
X85452380Y-131488095D01*
X85833333Y-131821428D01*
X85833333Y-131678571D01*
X85880952Y-131583333D01*
X85928571Y-131535714D01*
X86023809Y-131488095D01*
X86261904Y-131488095D01*
X86357142Y-131535714D01*
X86404761Y-131583333D01*
X86452380Y-131678571D01*
X86452380Y-131964285D01*
X86404761Y-132059523D01*
X86357142Y-132107142D01*
%TO.C,U1*%
X117603095Y-159119380D02*
X117603095Y-159928904D01*
X117650714Y-160024142D01*
X117698333Y-160071761D01*
X117793571Y-160119380D01*
X117984047Y-160119380D01*
X118079285Y-160071761D01*
X118126904Y-160024142D01*
X118174523Y-159928904D01*
X118174523Y-159119380D01*
X119174523Y-160119380D02*
X118603095Y-160119380D01*
X118888809Y-160119380D02*
X118888809Y-159119380D01*
X118793571Y-159262238D01*
X118698333Y-159357476D01*
X118603095Y-159405095D01*
%TO.C,U3*%
X72873095Y-153785380D02*
X72873095Y-154594904D01*
X72920714Y-154690142D01*
X72968333Y-154737761D01*
X73063571Y-154785380D01*
X73254047Y-154785380D01*
X73349285Y-154737761D01*
X73396904Y-154690142D01*
X73444523Y-154594904D01*
X73444523Y-153785380D01*
X73825476Y-153785380D02*
X74444523Y-153785380D01*
X74111190Y-154166333D01*
X74254047Y-154166333D01*
X74349285Y-154213952D01*
X74396904Y-154261571D01*
X74444523Y-154356809D01*
X74444523Y-154594904D01*
X74396904Y-154690142D01*
X74349285Y-154737761D01*
X74254047Y-154785380D01*
X73968333Y-154785380D01*
X73873095Y-154737761D01*
X73825476Y-154690142D01*
%TO.C,R13*%
X107952380Y-150392857D02*
X107476190Y-150726190D01*
X107952380Y-150964285D02*
X106952380Y-150964285D01*
X106952380Y-150583333D01*
X107000000Y-150488095D01*
X107047619Y-150440476D01*
X107142857Y-150392857D01*
X107285714Y-150392857D01*
X107380952Y-150440476D01*
X107428571Y-150488095D01*
X107476190Y-150583333D01*
X107476190Y-150964285D01*
X107952380Y-149440476D02*
X107952380Y-150011904D01*
X107952380Y-149726190D02*
X106952380Y-149726190D01*
X107095238Y-149821428D01*
X107190476Y-149916666D01*
X107238095Y-150011904D01*
X106952380Y-149107142D02*
X106952380Y-148488095D01*
X107333333Y-148821428D01*
X107333333Y-148678571D01*
X107380952Y-148583333D01*
X107428571Y-148535714D01*
X107523809Y-148488095D01*
X107761904Y-148488095D01*
X107857142Y-148535714D01*
X107904761Y-148583333D01*
X107952380Y-148678571D01*
X107952380Y-148964285D01*
X107904761Y-149059523D01*
X107857142Y-149107142D01*
%TO.C,STLINK*%
X79166666Y-140154761D02*
X79309523Y-140202380D01*
X79547619Y-140202380D01*
X79642857Y-140154761D01*
X79690476Y-140107142D01*
X79738095Y-140011904D01*
X79738095Y-139916666D01*
X79690476Y-139821428D01*
X79642857Y-139773809D01*
X79547619Y-139726190D01*
X79357142Y-139678571D01*
X79261904Y-139630952D01*
X79214285Y-139583333D01*
X79166666Y-139488095D01*
X79166666Y-139392857D01*
X79214285Y-139297619D01*
X79261904Y-139250000D01*
X79357142Y-139202380D01*
X79595238Y-139202380D01*
X79738095Y-139250000D01*
X80023809Y-139202380D02*
X80595238Y-139202380D01*
X80309523Y-140202380D02*
X80309523Y-139202380D01*
X81404761Y-140202380D02*
X80928571Y-140202380D01*
X80928571Y-139202380D01*
X81738095Y-140202380D02*
X81738095Y-139202380D01*
X82214285Y-140202380D02*
X82214285Y-139202380D01*
X82785714Y-140202380D01*
X82785714Y-139202380D01*
X83261904Y-140202380D02*
X83261904Y-139202380D01*
X83833333Y-140202380D02*
X83404761Y-139630952D01*
X83833333Y-139202380D02*
X83261904Y-139773809D01*
%TO.C,Y1*%
X111476190Y-143726190D02*
X111952380Y-143726190D01*
X110952380Y-144059523D02*
X111476190Y-143726190D01*
X110952380Y-143392857D01*
X111952380Y-142535714D02*
X111952380Y-143107142D01*
X111952380Y-142821428D02*
X110952380Y-142821428D01*
X111095238Y-142916666D01*
X111190476Y-143011904D01*
X111238095Y-143107142D01*
%TO.C,U2*%
X95238095Y-146352380D02*
X95238095Y-147161904D01*
X95285714Y-147257142D01*
X95333333Y-147304761D01*
X95428571Y-147352380D01*
X95619047Y-147352380D01*
X95714285Y-147304761D01*
X95761904Y-147257142D01*
X95809523Y-147161904D01*
X95809523Y-146352380D01*
X96238095Y-146447619D02*
X96285714Y-146400000D01*
X96380952Y-146352380D01*
X96619047Y-146352380D01*
X96714285Y-146400000D01*
X96761904Y-146447619D01*
X96809523Y-146542857D01*
X96809523Y-146638095D01*
X96761904Y-146780952D01*
X96190476Y-147352380D01*
X96809523Y-147352380D01*
%TO.C,SW3*%
X124611167Y-136246785D02*
X124745854Y-136179442D01*
X124914213Y-136011083D01*
X124947885Y-135910068D01*
X124947885Y-135842724D01*
X124914213Y-135741709D01*
X124846870Y-135674366D01*
X124745854Y-135640694D01*
X124678511Y-135640694D01*
X124577496Y-135674366D01*
X124409137Y-135775381D01*
X124308122Y-135809053D01*
X124240778Y-135809053D01*
X124139763Y-135775381D01*
X124072419Y-135708037D01*
X124038748Y-135607022D01*
X124038748Y-135539679D01*
X124072419Y-135438663D01*
X124240778Y-135270305D01*
X124375465Y-135202961D01*
X124577496Y-134933587D02*
X125452961Y-135472335D01*
X125082572Y-134832572D01*
X125722335Y-135202961D01*
X125183587Y-134327496D01*
X125385618Y-134125465D02*
X125823350Y-133687732D01*
X125857022Y-134192809D01*
X125958037Y-134091793D01*
X126059053Y-134058122D01*
X126126396Y-134058122D01*
X126227411Y-134091793D01*
X126395770Y-134260152D01*
X126429442Y-134361167D01*
X126429442Y-134428511D01*
X126395770Y-134529526D01*
X126193740Y-134731557D01*
X126092724Y-134765228D01*
X126025381Y-134765228D01*
%TO.C,SW2*%
X128111167Y-139746785D02*
X128245854Y-139679442D01*
X128414213Y-139511083D01*
X128447885Y-139410068D01*
X128447885Y-139342724D01*
X128414213Y-139241709D01*
X128346870Y-139174366D01*
X128245854Y-139140694D01*
X128178511Y-139140694D01*
X128077496Y-139174366D01*
X127909137Y-139275381D01*
X127808122Y-139309053D01*
X127740778Y-139309053D01*
X127639763Y-139275381D01*
X127572419Y-139208037D01*
X127538748Y-139107022D01*
X127538748Y-139039679D01*
X127572419Y-138938663D01*
X127740778Y-138770305D01*
X127875465Y-138702961D01*
X128077496Y-138433587D02*
X128952961Y-138972335D01*
X128582572Y-138332572D01*
X129222335Y-138702961D01*
X128683587Y-137827496D01*
X128986633Y-137659137D02*
X128986633Y-137591793D01*
X129020305Y-137490778D01*
X129188663Y-137322419D01*
X129289679Y-137288748D01*
X129357022Y-137288748D01*
X129458037Y-137322419D01*
X129525381Y-137389763D01*
X129592724Y-137524450D01*
X129592724Y-138332572D01*
X130030457Y-137894839D01*
%TO.C,R11*%
X78702380Y-144642857D02*
X78226190Y-144976190D01*
X78702380Y-145214285D02*
X77702380Y-145214285D01*
X77702380Y-144833333D01*
X77750000Y-144738095D01*
X77797619Y-144690476D01*
X77892857Y-144642857D01*
X78035714Y-144642857D01*
X78130952Y-144690476D01*
X78178571Y-144738095D01*
X78226190Y-144833333D01*
X78226190Y-145214285D01*
X78702380Y-143690476D02*
X78702380Y-144261904D01*
X78702380Y-143976190D02*
X77702380Y-143976190D01*
X77845238Y-144071428D01*
X77940476Y-144166666D01*
X77988095Y-144261904D01*
X78702380Y-142738095D02*
X78702380Y-143309523D01*
X78702380Y-143023809D02*
X77702380Y-143023809D01*
X77845238Y-143119047D01*
X77940476Y-143214285D01*
X77988095Y-143309523D01*
%TO.C,R10*%
X81452380Y-144642857D02*
X80976190Y-144976190D01*
X81452380Y-145214285D02*
X80452380Y-145214285D01*
X80452380Y-144833333D01*
X80500000Y-144738095D01*
X80547619Y-144690476D01*
X80642857Y-144642857D01*
X80785714Y-144642857D01*
X80880952Y-144690476D01*
X80928571Y-144738095D01*
X80976190Y-144833333D01*
X80976190Y-145214285D01*
X81452380Y-143690476D02*
X81452380Y-144261904D01*
X81452380Y-143976190D02*
X80452380Y-143976190D01*
X80595238Y-144071428D01*
X80690476Y-144166666D01*
X80738095Y-144261904D01*
X80452380Y-143071428D02*
X80452380Y-142976190D01*
X80500000Y-142880952D01*
X80547619Y-142833333D01*
X80642857Y-142785714D01*
X80833333Y-142738095D01*
X81071428Y-142738095D01*
X81261904Y-142785714D01*
X81357142Y-142833333D01*
X81404761Y-142880952D01*
X81452380Y-142976190D01*
X81452380Y-143071428D01*
X81404761Y-143166666D01*
X81357142Y-143214285D01*
X81261904Y-143261904D01*
X81071428Y-143309523D01*
X80833333Y-143309523D01*
X80642857Y-143261904D01*
X80547619Y-143214285D01*
X80500000Y-143166666D01*
X80452380Y-143071428D01*
%TO.C,R9*%
X83833333Y-149202380D02*
X83500000Y-148726190D01*
X83261904Y-149202380D02*
X83261904Y-148202380D01*
X83642857Y-148202380D01*
X83738095Y-148250000D01*
X83785714Y-148297619D01*
X83833333Y-148392857D01*
X83833333Y-148535714D01*
X83785714Y-148630952D01*
X83738095Y-148678571D01*
X83642857Y-148726190D01*
X83261904Y-148726190D01*
X84309523Y-149202380D02*
X84500000Y-149202380D01*
X84595238Y-149154761D01*
X84642857Y-149107142D01*
X84738095Y-148964285D01*
X84785714Y-148773809D01*
X84785714Y-148392857D01*
X84738095Y-148297619D01*
X84690476Y-148250000D01*
X84595238Y-148202380D01*
X84404761Y-148202380D01*
X84309523Y-148250000D01*
X84261904Y-148297619D01*
X84214285Y-148392857D01*
X84214285Y-148630952D01*
X84261904Y-148726190D01*
X84309523Y-148773809D01*
X84404761Y-148821428D01*
X84595238Y-148821428D01*
X84690476Y-148773809D01*
X84738095Y-148726190D01*
X84785714Y-148630952D01*
%TO.C,R8*%
X83833333Y-147452380D02*
X83500000Y-146976190D01*
X83261904Y-147452380D02*
X83261904Y-146452380D01*
X83642857Y-146452380D01*
X83738095Y-146500000D01*
X83785714Y-146547619D01*
X83833333Y-146642857D01*
X83833333Y-146785714D01*
X83785714Y-146880952D01*
X83738095Y-146928571D01*
X83642857Y-146976190D01*
X83261904Y-146976190D01*
X84404761Y-146880952D02*
X84309523Y-146833333D01*
X84261904Y-146785714D01*
X84214285Y-146690476D01*
X84214285Y-146642857D01*
X84261904Y-146547619D01*
X84309523Y-146500000D01*
X84404761Y-146452380D01*
X84595238Y-146452380D01*
X84690476Y-146500000D01*
X84738095Y-146547619D01*
X84785714Y-146642857D01*
X84785714Y-146690476D01*
X84738095Y-146785714D01*
X84690476Y-146833333D01*
X84595238Y-146880952D01*
X84404761Y-146880952D01*
X84309523Y-146928571D01*
X84261904Y-146976190D01*
X84214285Y-147071428D01*
X84214285Y-147261904D01*
X84261904Y-147357142D01*
X84309523Y-147404761D01*
X84404761Y-147452380D01*
X84595238Y-147452380D01*
X84690476Y-147404761D01*
X84738095Y-147357142D01*
X84785714Y-147261904D01*
X84785714Y-147071428D01*
X84738095Y-146976190D01*
X84690476Y-146928571D01*
X84595238Y-146880952D01*
%TO.C,R7*%
X140952380Y-142416666D02*
X140476190Y-142750000D01*
X140952380Y-142988095D02*
X139952380Y-142988095D01*
X139952380Y-142607142D01*
X140000000Y-142511904D01*
X140047619Y-142464285D01*
X140142857Y-142416666D01*
X140285714Y-142416666D01*
X140380952Y-142464285D01*
X140428571Y-142511904D01*
X140476190Y-142607142D01*
X140476190Y-142988095D01*
X139952380Y-142083333D02*
X139952380Y-141416666D01*
X140952380Y-141845238D01*
%TO.C,R6*%
X137202380Y-142416666D02*
X136726190Y-142750000D01*
X137202380Y-142988095D02*
X136202380Y-142988095D01*
X136202380Y-142607142D01*
X136250000Y-142511904D01*
X136297619Y-142464285D01*
X136392857Y-142416666D01*
X136535714Y-142416666D01*
X136630952Y-142464285D01*
X136678571Y-142511904D01*
X136726190Y-142607142D01*
X136726190Y-142988095D01*
X136202380Y-141559523D02*
X136202380Y-141750000D01*
X136250000Y-141845238D01*
X136297619Y-141892857D01*
X136440476Y-141988095D01*
X136630952Y-142035714D01*
X137011904Y-142035714D01*
X137107142Y-141988095D01*
X137154761Y-141940476D01*
X137202380Y-141845238D01*
X137202380Y-141654761D01*
X137154761Y-141559523D01*
X137107142Y-141511904D01*
X137011904Y-141464285D01*
X136773809Y-141464285D01*
X136678571Y-141511904D01*
X136630952Y-141559523D01*
X136583333Y-141654761D01*
X136583333Y-141845238D01*
X136630952Y-141940476D01*
X136678571Y-141988095D01*
X136773809Y-142035714D01*
%TO.C,R5*%
X117562267Y-135452030D02*
X117663282Y-134879610D01*
X117158206Y-135047969D02*
X117865312Y-134340862D01*
X118134687Y-134610236D01*
X118168358Y-134711251D01*
X118168358Y-134778595D01*
X118134687Y-134879610D01*
X118033671Y-134980625D01*
X117932656Y-135014297D01*
X117865312Y-135014297D01*
X117764297Y-134980625D01*
X117494923Y-134711251D01*
X118909137Y-135384687D02*
X118572419Y-135047969D01*
X118202030Y-135351015D01*
X118269374Y-135351015D01*
X118370389Y-135384687D01*
X118538748Y-135553045D01*
X118572419Y-135654061D01*
X118572419Y-135721404D01*
X118538748Y-135822419D01*
X118370389Y-135990778D01*
X118269374Y-136024450D01*
X118202030Y-136024450D01*
X118101015Y-135990778D01*
X117932656Y-135822419D01*
X117898984Y-135721404D01*
X117898984Y-135654061D01*
%TO.C,R4*%
X125812267Y-142202030D02*
X125913282Y-141629610D01*
X125408206Y-141797969D02*
X126115312Y-141090862D01*
X126384687Y-141360236D01*
X126418358Y-141461251D01*
X126418358Y-141528595D01*
X126384687Y-141629610D01*
X126283671Y-141730625D01*
X126182656Y-141764297D01*
X126115312Y-141764297D01*
X126014297Y-141730625D01*
X125744923Y-141461251D01*
X126889763Y-142336717D02*
X126418358Y-142808122D01*
X126990778Y-141898984D02*
X126317343Y-142235702D01*
X126755076Y-142673435D01*
%TO.C,R3*%
X106202380Y-150416666D02*
X105726190Y-150750000D01*
X106202380Y-150988095D02*
X105202380Y-150988095D01*
X105202380Y-150607142D01*
X105250000Y-150511904D01*
X105297619Y-150464285D01*
X105392857Y-150416666D01*
X105535714Y-150416666D01*
X105630952Y-150464285D01*
X105678571Y-150511904D01*
X105726190Y-150607142D01*
X105726190Y-150988095D01*
X105202380Y-150083333D02*
X105202380Y-149464285D01*
X105583333Y-149797619D01*
X105583333Y-149654761D01*
X105630952Y-149559523D01*
X105678571Y-149511904D01*
X105773809Y-149464285D01*
X106011904Y-149464285D01*
X106107142Y-149511904D01*
X106154761Y-149559523D01*
X106202380Y-149654761D01*
X106202380Y-149940476D01*
X106154761Y-150035714D01*
X106107142Y-150083333D01*
%TO.C,R2*%
X113702380Y-154416666D02*
X113226190Y-154750000D01*
X113702380Y-154988095D02*
X112702380Y-154988095D01*
X112702380Y-154607142D01*
X112750000Y-154511904D01*
X112797619Y-154464285D01*
X112892857Y-154416666D01*
X113035714Y-154416666D01*
X113130952Y-154464285D01*
X113178571Y-154511904D01*
X113226190Y-154607142D01*
X113226190Y-154988095D01*
X112797619Y-154035714D02*
X112750000Y-153988095D01*
X112702380Y-153892857D01*
X112702380Y-153654761D01*
X112750000Y-153559523D01*
X112797619Y-153511904D01*
X112892857Y-153464285D01*
X112988095Y-153464285D01*
X113130952Y-153511904D01*
X113702380Y-154083333D01*
X113702380Y-153464285D01*
%TO.C,R1*%
X133452380Y-142416666D02*
X132976190Y-142750000D01*
X133452380Y-142988095D02*
X132452380Y-142988095D01*
X132452380Y-142607142D01*
X132500000Y-142511904D01*
X132547619Y-142464285D01*
X132642857Y-142416666D01*
X132785714Y-142416666D01*
X132880952Y-142464285D01*
X132928571Y-142511904D01*
X132976190Y-142607142D01*
X132976190Y-142988095D01*
X133452380Y-141464285D02*
X133452380Y-142035714D01*
X133452380Y-141750000D02*
X132452380Y-141750000D01*
X132595238Y-141845238D01*
X132690476Y-141940476D01*
X132738095Y-142035714D01*
%TO.C,Q2*%
X113154761Y-152297619D02*
X113059523Y-152250000D01*
X112964285Y-152154761D01*
X112821428Y-152011904D01*
X112726190Y-151964285D01*
X112630952Y-151964285D01*
X112678571Y-152202380D02*
X112583333Y-152154761D01*
X112488095Y-152059523D01*
X112440476Y-151869047D01*
X112440476Y-151535714D01*
X112488095Y-151345238D01*
X112583333Y-151250000D01*
X112678571Y-151202380D01*
X112869047Y-151202380D01*
X112964285Y-151250000D01*
X113059523Y-151345238D01*
X113107142Y-151535714D01*
X113107142Y-151869047D01*
X113059523Y-152059523D01*
X112964285Y-152154761D01*
X112869047Y-152202380D01*
X112678571Y-152202380D01*
X113488095Y-151297619D02*
X113535714Y-151250000D01*
X113630952Y-151202380D01*
X113869047Y-151202380D01*
X113964285Y-151250000D01*
X114011904Y-151297619D01*
X114059523Y-151392857D01*
X114059523Y-151488095D01*
X114011904Y-151630952D01*
X113440476Y-152202380D01*
X114059523Y-152202380D01*
%TO.C,Q1*%
X107154761Y-158297619D02*
X107059523Y-158250000D01*
X106964285Y-158154761D01*
X106821428Y-158011904D01*
X106726190Y-157964285D01*
X106630952Y-157964285D01*
X106678571Y-158202380D02*
X106583333Y-158154761D01*
X106488095Y-158059523D01*
X106440476Y-157869047D01*
X106440476Y-157535714D01*
X106488095Y-157345238D01*
X106583333Y-157250000D01*
X106678571Y-157202380D01*
X106869047Y-157202380D01*
X106964285Y-157250000D01*
X107059523Y-157345238D01*
X107107142Y-157535714D01*
X107107142Y-157869047D01*
X107059523Y-158059523D01*
X106964285Y-158154761D01*
X106869047Y-158202380D01*
X106678571Y-158202380D01*
X108059523Y-158202380D02*
X107488095Y-158202380D01*
X107773809Y-158202380D02*
X107773809Y-157202380D01*
X107678571Y-157345238D01*
X107583333Y-157440476D01*
X107488095Y-157488095D01*
%TO.C,J6*%
X67666666Y-140932380D02*
X67666666Y-141646666D01*
X67619047Y-141789523D01*
X67523809Y-141884761D01*
X67380952Y-141932380D01*
X67285714Y-141932380D01*
X68571428Y-140932380D02*
X68380952Y-140932380D01*
X68285714Y-140980000D01*
X68238095Y-141027619D01*
X68142857Y-141170476D01*
X68095238Y-141360952D01*
X68095238Y-141741904D01*
X68142857Y-141837142D01*
X68190476Y-141884761D01*
X68285714Y-141932380D01*
X68476190Y-141932380D01*
X68571428Y-141884761D01*
X68619047Y-141837142D01*
X68666666Y-141741904D01*
X68666666Y-141503809D01*
X68619047Y-141408571D01*
X68571428Y-141360952D01*
X68476190Y-141313333D01*
X68285714Y-141313333D01*
X68190476Y-141360952D01*
X68142857Y-141408571D01*
X68095238Y-141503809D01*
%TO.C,J5*%
X44622380Y-140333333D02*
X45336666Y-140333333D01*
X45479523Y-140380952D01*
X45574761Y-140476190D01*
X45622380Y-140619047D01*
X45622380Y-140714285D01*
X44622380Y-139380952D02*
X44622380Y-139857142D01*
X45098571Y-139904761D01*
X45050952Y-139857142D01*
X45003333Y-139761904D01*
X45003333Y-139523809D01*
X45050952Y-139428571D01*
X45098571Y-139380952D01*
X45193809Y-139333333D01*
X45431904Y-139333333D01*
X45527142Y-139380952D01*
X45574761Y-139428571D01*
X45622380Y-139523809D01*
X45622380Y-139761904D01*
X45574761Y-139857142D01*
X45527142Y-139904761D01*
%TO.C,J4*%
X121166666Y-143702380D02*
X121166666Y-144416666D01*
X121119047Y-144559523D01*
X121023809Y-144654761D01*
X120880952Y-144702380D01*
X120785714Y-144702380D01*
X122071428Y-144035714D02*
X122071428Y-144702380D01*
X121833333Y-143654761D02*
X121595238Y-144369047D01*
X122214285Y-144369047D01*
%TO.C,J3*%
X105622380Y-162583333D02*
X106336666Y-162583333D01*
X106479523Y-162630952D01*
X106574761Y-162726190D01*
X106622380Y-162869047D01*
X106622380Y-162964285D01*
X105622380Y-162202380D02*
X105622380Y-161583333D01*
X106003333Y-161916666D01*
X106003333Y-161773809D01*
X106050952Y-161678571D01*
X106098571Y-161630952D01*
X106193809Y-161583333D01*
X106431904Y-161583333D01*
X106527142Y-161630952D01*
X106574761Y-161678571D01*
X106622380Y-161773809D01*
X106622380Y-162059523D01*
X106574761Y-162154761D01*
X106527142Y-162202380D01*
%TO.C,J1*%
X95666666Y-131052380D02*
X95666666Y-131766666D01*
X95619047Y-131909523D01*
X95523809Y-132004761D01*
X95380952Y-132052380D01*
X95285714Y-132052380D01*
X96666666Y-132052380D02*
X96095238Y-132052380D01*
X96380952Y-132052380D02*
X96380952Y-131052380D01*
X96285714Y-131195238D01*
X96190476Y-131290476D01*
X96095238Y-131338095D01*
%TO.C,D3*%
X142702380Y-142988095D02*
X141702380Y-142988095D01*
X141702380Y-142750000D01*
X141750000Y-142607142D01*
X141845238Y-142511904D01*
X141940476Y-142464285D01*
X142130952Y-142416666D01*
X142273809Y-142416666D01*
X142464285Y-142464285D01*
X142559523Y-142511904D01*
X142654761Y-142607142D01*
X142702380Y-142750000D01*
X142702380Y-142988095D01*
X141702380Y-142083333D02*
X141702380Y-141464285D01*
X142083333Y-141797619D01*
X142083333Y-141654761D01*
X142130952Y-141559523D01*
X142178571Y-141511904D01*
X142273809Y-141464285D01*
X142511904Y-141464285D01*
X142607142Y-141511904D01*
X142654761Y-141559523D01*
X142702380Y-141654761D01*
X142702380Y-141940476D01*
X142654761Y-142035714D01*
X142607142Y-142083333D01*
%TO.C,D2*%
X138952380Y-142988095D02*
X137952380Y-142988095D01*
X137952380Y-142750000D01*
X138000000Y-142607142D01*
X138095238Y-142511904D01*
X138190476Y-142464285D01*
X138380952Y-142416666D01*
X138523809Y-142416666D01*
X138714285Y-142464285D01*
X138809523Y-142511904D01*
X138904761Y-142607142D01*
X138952380Y-142750000D01*
X138952380Y-142988095D01*
X138047619Y-142035714D02*
X138000000Y-141988095D01*
X137952380Y-141892857D01*
X137952380Y-141654761D01*
X138000000Y-141559523D01*
X138047619Y-141511904D01*
X138142857Y-141464285D01*
X138238095Y-141464285D01*
X138380952Y-141511904D01*
X138952380Y-142083333D01*
X138952380Y-141464285D01*
%TO.C,D1*%
X135202380Y-144333333D02*
X134202380Y-144333333D01*
X134202380Y-143952380D01*
X134250000Y-143857142D01*
X134297619Y-143809523D01*
X134392857Y-143761904D01*
X134535714Y-143761904D01*
X134630952Y-143809523D01*
X134678571Y-143857142D01*
X134726190Y-143952380D01*
X134726190Y-144333333D01*
X134202380Y-143428571D02*
X135202380Y-143190476D01*
X134488095Y-143000000D01*
X135202380Y-142809523D01*
X134202380Y-142571428D01*
X135202380Y-141619047D02*
X134726190Y-141952380D01*
X135202380Y-142190476D02*
X134202380Y-142190476D01*
X134202380Y-141809523D01*
X134250000Y-141714285D01*
X134297619Y-141666666D01*
X134392857Y-141619047D01*
X134535714Y-141619047D01*
X134630952Y-141666666D01*
X134678571Y-141714285D01*
X134726190Y-141809523D01*
X134726190Y-142190476D01*
%TO.C,C5*%
X119287142Y-141666666D02*
X119334761Y-141714285D01*
X119382380Y-141857142D01*
X119382380Y-141952380D01*
X119334761Y-142095238D01*
X119239523Y-142190476D01*
X119144285Y-142238095D01*
X118953809Y-142285714D01*
X118810952Y-142285714D01*
X118620476Y-142238095D01*
X118525238Y-142190476D01*
X118430000Y-142095238D01*
X118382380Y-141952380D01*
X118382380Y-141857142D01*
X118430000Y-141714285D01*
X118477619Y-141666666D01*
X118382380Y-140761904D02*
X118382380Y-141238095D01*
X118858571Y-141285714D01*
X118810952Y-141238095D01*
X118763333Y-141142857D01*
X118763333Y-140904761D01*
X118810952Y-140809523D01*
X118858571Y-140761904D01*
X118953809Y-140714285D01*
X119191904Y-140714285D01*
X119287142Y-140761904D01*
X119334761Y-140809523D01*
X119382380Y-140904761D01*
X119382380Y-141142857D01*
X119334761Y-141238095D01*
X119287142Y-141285714D01*
%TO.C,C4*%
X119357142Y-145166666D02*
X119404761Y-145214285D01*
X119452380Y-145357142D01*
X119452380Y-145452380D01*
X119404761Y-145595238D01*
X119309523Y-145690476D01*
X119214285Y-145738095D01*
X119023809Y-145785714D01*
X118880952Y-145785714D01*
X118690476Y-145738095D01*
X118595238Y-145690476D01*
X118500000Y-145595238D01*
X118452380Y-145452380D01*
X118452380Y-145357142D01*
X118500000Y-145214285D01*
X118547619Y-145166666D01*
X118785714Y-144309523D02*
X119452380Y-144309523D01*
X118404761Y-144547619D02*
X119119047Y-144785714D01*
X119119047Y-144166666D01*
%TO.C,C2*%
X118879610Y-134134687D02*
X118812267Y-134134687D01*
X118677580Y-134067343D01*
X118610236Y-134000000D01*
X118542893Y-133865312D01*
X118542893Y-133730625D01*
X118576564Y-133629610D01*
X118677580Y-133461251D01*
X118778595Y-133360236D01*
X118946954Y-133259221D01*
X119047969Y-133225549D01*
X119182656Y-133225549D01*
X119317343Y-133292893D01*
X119384687Y-133360236D01*
X119452030Y-133494923D01*
X119452030Y-133562267D01*
X119721404Y-133831641D02*
X119788748Y-133831641D01*
X119889763Y-133865312D01*
X120058122Y-134033671D01*
X120091793Y-134134687D01*
X120091793Y-134202030D01*
X120058122Y-134303045D01*
X119990778Y-134370389D01*
X119856091Y-134437732D01*
X119047969Y-134437732D01*
X119485702Y-134875465D01*
%TO.C,C1*%
X126879610Y-141134687D02*
X126812267Y-141134687D01*
X126677580Y-141067343D01*
X126610236Y-141000000D01*
X126542893Y-140865312D01*
X126542893Y-140730625D01*
X126576564Y-140629610D01*
X126677580Y-140461251D01*
X126778595Y-140360236D01*
X126946954Y-140259221D01*
X127047969Y-140225549D01*
X127182656Y-140225549D01*
X127317343Y-140292893D01*
X127384687Y-140360236D01*
X127452030Y-140494923D01*
X127452030Y-140562267D01*
X127485702Y-141875465D02*
X127081641Y-141471404D01*
X127283671Y-141673435D02*
X127990778Y-140966328D01*
X127822419Y-141000000D01*
X127687732Y-141000000D01*
X127586717Y-140966328D01*
%TO.C,A1*%
X96765714Y-163706666D02*
X97241904Y-163706666D01*
X96670476Y-163992380D02*
X97003809Y-162992380D01*
X97337142Y-163992380D01*
X98194285Y-163992380D02*
X97622857Y-163992380D01*
X97908571Y-163992380D02*
X97908571Y-162992380D01*
X97813333Y-163135238D01*
X97718095Y-163230476D01*
X97622857Y-163278095D01*
X98369047Y-159801428D02*
X99130952Y-159801428D01*
X98369047Y-153451428D02*
X99130952Y-153451428D01*
X98750000Y-153832380D02*
X98750000Y-153070476D01*
X83129047Y-159801428D02*
X83890952Y-159801428D01*
X83129047Y-153451428D02*
X83890952Y-153451428D01*
X83510000Y-153832380D02*
X83510000Y-153070476D01*
%TD*%
M02*
