%TF.GenerationSoftware,KiCad,Pcbnew,(5.1.7)-1*%
%TF.CreationDate,2021-05-04T00:49:10+02:00*%
%TF.ProjectId,Kaszmir,4b61737a-6d69-4722-9e6b-696361645f70,rev?*%
%TF.SameCoordinates,Original*%
%TF.FileFunction,Legend,Bot*%
%TF.FilePolarity,Positive*%
%FSLAX46Y46*%
G04 Gerber Fmt 4.6, Leading zero omitted, Abs format (unit mm)*
G04 Created by KiCad (PCBNEW (5.1.7)-1) date 2021-05-04 00:49:10*
%MOMM*%
%LPD*%
G01*
G04 APERTURE LIST*
%ADD10C,0.120000*%
%ADD11C,0.010000*%
%ADD12C,0.150000*%
G04 APERTURE END LIST*
D10*
%TO.C,R3*%
X94762742Y-111522500D02*
X95237258Y-111522500D01*
X94762742Y-110477500D02*
X95237258Y-110477500D01*
%TO.C,U1*%
X150050000Y-125650000D02*
X147050000Y-125650000D01*
X147050000Y-125650000D02*
X147050000Y-128350000D01*
X147050000Y-128350000D02*
X150350000Y-128350000D01*
X150350000Y-128350000D02*
X150350000Y-125950000D01*
X150350000Y-125950000D02*
X150050000Y-125650000D01*
X147250000Y-125850000D02*
X147250000Y-128150000D01*
X148550000Y-125650000D02*
X148550000Y-128350000D01*
X148550000Y-128350000D02*
X148650000Y-128350000D01*
X148650000Y-128350000D02*
X148650000Y-125650000D01*
X147250000Y-125850000D02*
X148350000Y-125850000D01*
X148350000Y-125850000D02*
X148350000Y-128150000D01*
X148350000Y-128150000D02*
X147250000Y-128150000D01*
X148850000Y-125850000D02*
X149950000Y-125850000D01*
X149950000Y-125850000D02*
X150150000Y-126050000D01*
X150150000Y-126050000D02*
X150150000Y-128150000D01*
X150150000Y-128150000D02*
X148850000Y-128150000D01*
X148850000Y-128150000D02*
X148850000Y-125850000D01*
%TO.C,U2*%
X134300000Y-115400000D02*
X131300000Y-115400000D01*
X131300000Y-115400000D02*
X131300000Y-118100000D01*
X131300000Y-118100000D02*
X134600000Y-118100000D01*
X134600000Y-118100000D02*
X134600000Y-115700000D01*
X134600000Y-115700000D02*
X134300000Y-115400000D01*
X131500000Y-115600000D02*
X131500000Y-117900000D01*
X132800000Y-115400000D02*
X132800000Y-118100000D01*
X132800000Y-118100000D02*
X132900000Y-118100000D01*
X132900000Y-118100000D02*
X132900000Y-115400000D01*
X131500000Y-115600000D02*
X132600000Y-115600000D01*
X132600000Y-115600000D02*
X132600000Y-117900000D01*
X132600000Y-117900000D02*
X131500000Y-117900000D01*
X133100000Y-115600000D02*
X134200000Y-115600000D01*
X134200000Y-115600000D02*
X134400000Y-115800000D01*
X134400000Y-115800000D02*
X134400000Y-117900000D01*
X134400000Y-117900000D02*
X133100000Y-117900000D01*
X133100000Y-117900000D02*
X133100000Y-115600000D01*
%TO.C,U9*%
X60300000Y-115400000D02*
X57300000Y-115400000D01*
X57300000Y-115400000D02*
X57300000Y-118100000D01*
X57300000Y-118100000D02*
X60600000Y-118100000D01*
X60600000Y-118100000D02*
X60600000Y-115700000D01*
X60600000Y-115700000D02*
X60300000Y-115400000D01*
X57500000Y-115600000D02*
X57500000Y-117900000D01*
X58800000Y-115400000D02*
X58800000Y-118100000D01*
X58800000Y-118100000D02*
X58900000Y-118100000D01*
X58900000Y-118100000D02*
X58900000Y-115400000D01*
X57500000Y-115600000D02*
X58600000Y-115600000D01*
X58600000Y-115600000D02*
X58600000Y-117900000D01*
X58600000Y-117900000D02*
X57500000Y-117900000D01*
X59100000Y-115600000D02*
X60200000Y-115600000D01*
X60200000Y-115600000D02*
X60400000Y-115800000D01*
X60400000Y-115800000D02*
X60400000Y-117900000D01*
X60400000Y-117900000D02*
X59100000Y-117900000D01*
X59100000Y-117900000D02*
X59100000Y-115600000D01*
%TO.C,U3*%
X122550000Y-114650000D02*
X119550000Y-114650000D01*
X119550000Y-114650000D02*
X119550000Y-117350000D01*
X119550000Y-117350000D02*
X122850000Y-117350000D01*
X122850000Y-117350000D02*
X122850000Y-114950000D01*
X122850000Y-114950000D02*
X122550000Y-114650000D01*
X119750000Y-114850000D02*
X119750000Y-117150000D01*
X121050000Y-114650000D02*
X121050000Y-117350000D01*
X121050000Y-117350000D02*
X121150000Y-117350000D01*
X121150000Y-117350000D02*
X121150000Y-114650000D01*
X119750000Y-114850000D02*
X120850000Y-114850000D01*
X120850000Y-114850000D02*
X120850000Y-117150000D01*
X120850000Y-117150000D02*
X119750000Y-117150000D01*
X121350000Y-114850000D02*
X122450000Y-114850000D01*
X122450000Y-114850000D02*
X122650000Y-115050000D01*
X122650000Y-115050000D02*
X122650000Y-117150000D01*
X122650000Y-117150000D02*
X121350000Y-117150000D01*
X121350000Y-117150000D02*
X121350000Y-114850000D01*
%TO.C,U8*%
X72300000Y-114650000D02*
X69300000Y-114650000D01*
X69300000Y-114650000D02*
X69300000Y-117350000D01*
X69300000Y-117350000D02*
X72600000Y-117350000D01*
X72600000Y-117350000D02*
X72600000Y-114950000D01*
X72600000Y-114950000D02*
X72300000Y-114650000D01*
X69500000Y-114850000D02*
X69500000Y-117150000D01*
X70800000Y-114650000D02*
X70800000Y-117350000D01*
X70800000Y-117350000D02*
X70900000Y-117350000D01*
X70900000Y-117350000D02*
X70900000Y-114650000D01*
X69500000Y-114850000D02*
X70600000Y-114850000D01*
X70600000Y-114850000D02*
X70600000Y-117150000D01*
X70600000Y-117150000D02*
X69500000Y-117150000D01*
X71100000Y-114850000D02*
X72200000Y-114850000D01*
X72200000Y-114850000D02*
X72400000Y-115050000D01*
X72400000Y-115050000D02*
X72400000Y-117150000D01*
X72400000Y-117150000D02*
X71100000Y-117150000D01*
X71100000Y-117150000D02*
X71100000Y-114850000D01*
%TO.C,U4*%
X112300000Y-113900000D02*
X109300000Y-113900000D01*
X109300000Y-113900000D02*
X109300000Y-116600000D01*
X109300000Y-116600000D02*
X112600000Y-116600000D01*
X112600000Y-116600000D02*
X112600000Y-114200000D01*
X112600000Y-114200000D02*
X112300000Y-113900000D01*
X109500000Y-114100000D02*
X109500000Y-116400000D01*
X110800000Y-113900000D02*
X110800000Y-116600000D01*
X110800000Y-116600000D02*
X110900000Y-116600000D01*
X110900000Y-116600000D02*
X110900000Y-113900000D01*
X109500000Y-114100000D02*
X110600000Y-114100000D01*
X110600000Y-114100000D02*
X110600000Y-116400000D01*
X110600000Y-116400000D02*
X109500000Y-116400000D01*
X111100000Y-114100000D02*
X112200000Y-114100000D01*
X112200000Y-114100000D02*
X112400000Y-114300000D01*
X112400000Y-114300000D02*
X112400000Y-116400000D01*
X112400000Y-116400000D02*
X111100000Y-116400000D01*
X111100000Y-116400000D02*
X111100000Y-114100000D01*
%TO.C,U10*%
X43550000Y-126400000D02*
X40550000Y-126400000D01*
X40550000Y-126400000D02*
X40550000Y-129100000D01*
X40550000Y-129100000D02*
X43850000Y-129100000D01*
X43850000Y-129100000D02*
X43850000Y-126700000D01*
X43850000Y-126700000D02*
X43550000Y-126400000D01*
X40750000Y-126600000D02*
X40750000Y-128900000D01*
X42050000Y-126400000D02*
X42050000Y-129100000D01*
X42050000Y-129100000D02*
X42150000Y-129100000D01*
X42150000Y-129100000D02*
X42150000Y-126400000D01*
X40750000Y-126600000D02*
X41850000Y-126600000D01*
X41850000Y-126600000D02*
X41850000Y-128900000D01*
X41850000Y-128900000D02*
X40750000Y-128900000D01*
X42350000Y-126600000D02*
X43450000Y-126600000D01*
X43450000Y-126600000D02*
X43650000Y-126800000D01*
X43650000Y-126800000D02*
X43650000Y-128900000D01*
X43650000Y-128900000D02*
X42350000Y-128900000D01*
X42350000Y-128900000D02*
X42350000Y-126600000D01*
%TO.C,U6*%
X92300000Y-113400000D02*
X89300000Y-113400000D01*
X89300000Y-113400000D02*
X89300000Y-116100000D01*
X89300000Y-116100000D02*
X92600000Y-116100000D01*
X92600000Y-116100000D02*
X92600000Y-113700000D01*
X92600000Y-113700000D02*
X92300000Y-113400000D01*
X89500000Y-113600000D02*
X89500000Y-115900000D01*
X90800000Y-113400000D02*
X90800000Y-116100000D01*
X90800000Y-116100000D02*
X90900000Y-116100000D01*
X90900000Y-116100000D02*
X90900000Y-113400000D01*
X89500000Y-113600000D02*
X90600000Y-113600000D01*
X90600000Y-113600000D02*
X90600000Y-115900000D01*
X90600000Y-115900000D02*
X89500000Y-115900000D01*
X91100000Y-113600000D02*
X92200000Y-113600000D01*
X92200000Y-113600000D02*
X92400000Y-113800000D01*
X92400000Y-113800000D02*
X92400000Y-115900000D01*
X92400000Y-115900000D02*
X91100000Y-115900000D01*
X91100000Y-115900000D02*
X91100000Y-113600000D01*
%TO.C,U7*%
X82550000Y-113900000D02*
X79550000Y-113900000D01*
X79550000Y-113900000D02*
X79550000Y-116600000D01*
X79550000Y-116600000D02*
X82850000Y-116600000D01*
X82850000Y-116600000D02*
X82850000Y-114200000D01*
X82850000Y-114200000D02*
X82550000Y-113900000D01*
X79750000Y-114100000D02*
X79750000Y-116400000D01*
X81050000Y-113900000D02*
X81050000Y-116600000D01*
X81050000Y-116600000D02*
X81150000Y-116600000D01*
X81150000Y-116600000D02*
X81150000Y-113900000D01*
X79750000Y-114100000D02*
X80850000Y-114100000D01*
X80850000Y-114100000D02*
X80850000Y-116400000D01*
X80850000Y-116400000D02*
X79750000Y-116400000D01*
X81350000Y-114100000D02*
X82450000Y-114100000D01*
X82450000Y-114100000D02*
X82650000Y-114300000D01*
X82650000Y-114300000D02*
X82650000Y-116400000D01*
X82650000Y-116400000D02*
X81350000Y-116400000D01*
X81350000Y-116400000D02*
X81350000Y-114100000D01*
%TO.C,U5*%
X102550000Y-113400000D02*
X99550000Y-113400000D01*
X99550000Y-113400000D02*
X99550000Y-116100000D01*
X99550000Y-116100000D02*
X102850000Y-116100000D01*
X102850000Y-116100000D02*
X102850000Y-113700000D01*
X102850000Y-113700000D02*
X102550000Y-113400000D01*
X99750000Y-113600000D02*
X99750000Y-115900000D01*
X101050000Y-113400000D02*
X101050000Y-116100000D01*
X101050000Y-116100000D02*
X101150000Y-116100000D01*
X101150000Y-116100000D02*
X101150000Y-113400000D01*
X99750000Y-113600000D02*
X100850000Y-113600000D01*
X100850000Y-113600000D02*
X100850000Y-115900000D01*
X100850000Y-115900000D02*
X99750000Y-115900000D01*
X101350000Y-113600000D02*
X102450000Y-113600000D01*
X102450000Y-113600000D02*
X102650000Y-113800000D01*
X102650000Y-113800000D02*
X102650000Y-115900000D01*
X102650000Y-115900000D02*
X101350000Y-115900000D01*
X101350000Y-115900000D02*
X101350000Y-113600000D01*
D11*
%TO.C,G\u002A\u002A\u002A*%
G36*
X137775678Y-147989561D02*
G01*
X137842956Y-148244792D01*
X137873300Y-148343077D01*
X138093861Y-148875662D01*
X138402531Y-149374789D01*
X138787261Y-149824075D01*
X139236005Y-150207140D01*
X139253153Y-150219454D01*
X139462007Y-150387838D01*
X139614140Y-150550168D01*
X139669853Y-150637214D01*
X139747780Y-150788055D01*
X139821603Y-150918197D01*
X139831220Y-150933658D01*
X139875073Y-151028338D01*
X139848098Y-151103669D01*
X139820504Y-151136858D01*
X139746102Y-151245927D01*
X139671906Y-151391498D01*
X139664006Y-151410111D01*
X139579444Y-151537377D01*
X139579444Y-151812800D01*
X139622121Y-151854470D01*
X139687421Y-151960540D01*
X139725550Y-152034686D01*
X139811902Y-152188630D01*
X139903009Y-152315301D01*
X139934482Y-152348446D01*
X139994124Y-152414584D01*
X139993389Y-152465837D01*
X139920661Y-152514838D01*
X139764323Y-152574222D01*
X139710202Y-152592374D01*
X139281205Y-152779049D01*
X138847130Y-153052798D01*
X138426426Y-153401855D01*
X138396685Y-153430017D01*
X137994208Y-153814542D01*
X138094525Y-153550530D01*
X138337062Y-153049270D01*
X138663504Y-152587328D01*
X139057734Y-152186191D01*
X139210440Y-152062851D01*
X139368114Y-151946853D01*
X139495386Y-151859448D01*
X139570506Y-151815372D01*
X139579444Y-151812800D01*
X139579444Y-151537377D01*
X139555556Y-151573329D01*
X139355299Y-151755454D01*
X139258023Y-151827870D01*
X138839198Y-152178129D01*
X138471164Y-152588528D01*
X138165793Y-153040992D01*
X137934958Y-153517448D01*
X137790532Y-153999823D01*
X137774592Y-154086100D01*
X137764791Y-154238376D01*
X137797732Y-154301562D01*
X137868578Y-154276333D01*
X137972488Y-154163367D01*
X138052948Y-154047145D01*
X138306602Y-153723473D01*
X138636766Y-153410309D01*
X139018657Y-153126044D01*
X139427491Y-152889069D01*
X139838483Y-152717774D01*
X139849082Y-152714328D01*
X140197964Y-152601748D01*
X140731882Y-152880374D01*
X141058044Y-153065019D01*
X141297346Y-153239530D01*
X141461255Y-153419363D01*
X141561236Y-153619974D01*
X141608754Y-153856822D01*
X141616808Y-154073400D01*
X141597779Y-154284944D01*
X141548391Y-154556859D01*
X141475105Y-154854825D01*
X141458998Y-154911600D01*
X141373342Y-155226986D01*
X141324398Y-155465897D01*
X141311192Y-155646208D01*
X141332755Y-155785799D01*
X141388114Y-155902546D01*
X141403881Y-155925748D01*
X141574408Y-156090130D01*
X141779190Y-156164591D01*
X142005249Y-156149165D01*
X142239606Y-156043884D01*
X142394606Y-155923276D01*
X142549054Y-155762924D01*
X142666245Y-155592501D01*
X142752072Y-155393914D01*
X142812425Y-155149073D01*
X142853198Y-154839885D01*
X142880281Y-154448258D01*
X142881243Y-154429000D01*
X142903127Y-154058361D01*
X142930213Y-153772232D01*
X142966593Y-153553529D01*
X143016364Y-153385166D01*
X143083620Y-153250060D01*
X143172456Y-153131125D01*
X143199612Y-153100723D01*
X143411605Y-152939233D01*
X143703483Y-152821170D01*
X144062563Y-152748082D01*
X144476164Y-152721513D01*
X144931605Y-152743009D01*
X145416203Y-152814116D01*
X145467288Y-152824323D01*
X145763416Y-152879655D01*
X146095076Y-152933393D01*
X146405724Y-152976609D01*
X146506308Y-152988394D01*
X147155000Y-153013479D01*
X147793203Y-152949951D01*
X148406788Y-152801519D01*
X148981627Y-152571896D01*
X149503590Y-152264790D01*
X149637437Y-152166121D01*
X149790906Y-152039936D01*
X149971718Y-151879811D01*
X150165093Y-151700272D01*
X150356255Y-151515846D01*
X150530424Y-151341060D01*
X150672822Y-151190440D01*
X150768671Y-151078514D01*
X150803200Y-151020199D01*
X150768350Y-150965810D01*
X150672618Y-150856127D01*
X150529232Y-150705357D01*
X150351418Y-150527708D01*
X150281971Y-150460339D01*
X149940953Y-150144652D01*
X149636964Y-149893617D01*
X149346442Y-149690333D01*
X149045826Y-149517897D01*
X148806375Y-149401743D01*
X148287695Y-149208828D01*
X147734410Y-149089502D01*
X147137501Y-149043185D01*
X146884840Y-149053340D01*
X146884840Y-149192494D01*
X147290706Y-149203311D01*
X147702355Y-149243849D01*
X148081640Y-149310675D01*
X148325226Y-149377079D01*
X148707911Y-149530896D01*
X149106679Y-149736172D01*
X149477575Y-149968735D01*
X149685441Y-150125178D01*
X149823768Y-150242175D01*
X149922860Y-150332032D01*
X149964282Y-150377897D01*
X149964282Y-150380082D01*
X149917261Y-150364966D01*
X149804774Y-150311127D01*
X149649884Y-150229697D01*
X149628183Y-150217854D01*
X149379308Y-150091052D01*
X149141527Y-149994156D01*
X148895949Y-149923841D01*
X148623684Y-149876784D01*
X148305840Y-149849659D01*
X148147830Y-149845313D01*
X148147830Y-149991134D01*
X148354992Y-149995336D01*
X148522457Y-150009121D01*
X148670771Y-150033248D01*
X148762396Y-150053799D01*
X149179454Y-150191327D01*
X149618739Y-150401363D01*
X150050486Y-150669124D01*
X150159498Y-150747610D01*
X150312532Y-150862222D01*
X150409554Y-150949152D01*
X150445916Y-151023119D01*
X150416970Y-151098841D01*
X150318069Y-151191039D01*
X150144563Y-151314432D01*
X149948626Y-151445680D01*
X149948626Y-151695960D01*
X149904812Y-151745565D01*
X149780326Y-151847082D01*
X149573830Y-152002653D01*
X149448886Y-152094454D01*
X149049764Y-152345678D01*
X148595808Y-152564091D01*
X148133154Y-152728148D01*
X148034600Y-152754854D01*
X147703285Y-152812817D01*
X147300670Y-152841029D01*
X146852455Y-152839966D01*
X146384339Y-152810101D01*
X145922022Y-152751910D01*
X145697800Y-152711687D01*
X145088200Y-152589822D01*
X145316800Y-152527441D01*
X145471456Y-152484036D01*
X145685395Y-152422455D01*
X145920572Y-152353682D01*
X146002600Y-152329429D01*
X146162610Y-152283310D01*
X146300148Y-152249331D01*
X146434507Y-152225933D01*
X146584978Y-152211559D01*
X146770855Y-152204648D01*
X147011431Y-152203644D01*
X147325999Y-152206987D01*
X147488754Y-152209372D01*
X147914887Y-152213033D01*
X148259301Y-152207378D01*
X148541710Y-152188946D01*
X148781825Y-152154278D01*
X148999360Y-152099914D01*
X149214027Y-152022395D01*
X149445539Y-151918260D01*
X149609400Y-151837186D01*
X149799583Y-151743913D01*
X149913104Y-151696123D01*
X149948626Y-151695960D01*
X149948626Y-151445680D01*
X149936496Y-151453806D01*
X149601579Y-151664359D01*
X149293349Y-151823944D01*
X148990447Y-151937579D01*
X148671515Y-152010283D01*
X148315194Y-152047075D01*
X147900125Y-152052974D01*
X147458680Y-152036016D01*
X146628760Y-151990600D01*
X146941151Y-151770713D01*
X147191216Y-151569852D01*
X147352243Y-151376890D01*
X147434257Y-151177147D01*
X147450020Y-151025400D01*
X147416520Y-150810771D01*
X147309662Y-150610044D01*
X147119907Y-150408931D01*
X146945367Y-150269593D01*
X146684319Y-150077421D01*
X146684319Y-150295984D01*
X146779096Y-150349902D01*
X146912655Y-150450570D01*
X147054413Y-150571827D01*
X147173785Y-150687514D01*
X147240150Y-150771400D01*
X147291110Y-150974831D01*
X147264477Y-151190945D01*
X147217563Y-151296961D01*
X147143760Y-151388617D01*
X147026713Y-151503352D01*
X146893097Y-151618525D01*
X146769583Y-151711496D01*
X146682846Y-151759625D01*
X146669696Y-151762000D01*
X146670849Y-151722137D01*
X146711727Y-151620488D01*
X146748572Y-151546100D01*
X146842628Y-151267555D01*
X146863041Y-150957765D01*
X146809915Y-150655367D01*
X146745758Y-150499184D01*
X146689826Y-150377138D01*
X146672445Y-150305114D01*
X146684319Y-150295984D01*
X146684319Y-150077421D01*
X146641062Y-150045576D01*
X147532227Y-150008450D01*
X147880424Y-149995758D01*
X148147830Y-149991134D01*
X148147830Y-149845313D01*
X147923527Y-149839142D01*
X147489222Y-149841416D01*
X146459800Y-149857000D01*
X145850200Y-149682977D01*
X145614070Y-149613807D01*
X145413595Y-149551772D01*
X145269061Y-149503380D01*
X145200754Y-149475144D01*
X145199367Y-149474105D01*
X145226703Y-149450746D01*
X145338421Y-149417108D01*
X145518202Y-149376388D01*
X145749727Y-149331784D01*
X146016676Y-149286492D01*
X146302728Y-149243708D01*
X146522904Y-149214833D01*
X146884840Y-149192494D01*
X146884840Y-149053340D01*
X146487952Y-149069293D01*
X145776745Y-149167246D01*
X145621600Y-149196326D01*
X145013759Y-149291829D01*
X144480844Y-149326699D01*
X144024162Y-149301242D01*
X143645021Y-149215763D01*
X143344728Y-149070568D01*
X143124590Y-148865961D01*
X142985915Y-148602249D01*
X142978529Y-148579096D01*
X142954438Y-148458634D01*
X142928923Y-148260711D01*
X142904521Y-148009390D01*
X142883773Y-147728732D01*
X142877505Y-147621800D01*
X142858242Y-147335492D01*
X142833513Y-147068741D01*
X142806053Y-146845899D01*
X142778598Y-146691319D01*
X142769088Y-146656600D01*
X142675863Y-146470028D01*
X142527944Y-146275792D01*
X142350085Y-146098517D01*
X142167045Y-145962824D01*
X142008536Y-145895447D01*
X142008536Y-146097061D01*
X142147468Y-146127833D01*
X142295969Y-146232619D01*
X142440058Y-146401217D01*
X142565757Y-146623427D01*
X142577501Y-146649872D01*
X142624433Y-146774643D01*
X142659484Y-146914026D01*
X142685653Y-147088942D01*
X142705937Y-147320312D01*
X142723334Y-147629060D01*
X142726011Y-147686191D01*
X142740416Y-147957042D01*
X142756572Y-148191086D01*
X142772918Y-148369935D01*
X142787895Y-148475202D01*
X142794624Y-148494757D01*
X142824566Y-148569940D01*
X142827600Y-148605431D01*
X142797862Y-148626804D01*
X142708970Y-148566175D01*
X142645476Y-148508065D01*
X142468955Y-148310228D01*
X142314232Y-148071518D01*
X142173933Y-147776575D01*
X142040686Y-147410042D01*
X141915636Y-146987821D01*
X141838816Y-146651019D01*
X141815950Y-146396676D01*
X141846942Y-146221222D01*
X141893152Y-146150504D01*
X142008536Y-146097061D01*
X142008536Y-145895447D01*
X142003579Y-145893339D01*
X142001253Y-145892899D01*
X141760197Y-145893265D01*
X141704589Y-145916807D01*
X141704589Y-146095903D01*
X141685989Y-146176755D01*
X141658510Y-146252012D01*
X141643472Y-146388849D01*
X141666945Y-146605848D01*
X141726298Y-146890277D01*
X141818898Y-147229402D01*
X141935396Y-147591022D01*
X142072048Y-147941688D01*
X142222019Y-148222098D01*
X142403947Y-148463458D01*
X142544145Y-148610276D01*
X142663975Y-148729485D01*
X142747966Y-148817929D01*
X142776800Y-148854555D01*
X142735985Y-148841610D01*
X142628647Y-148790764D01*
X142477443Y-148712793D01*
X142467259Y-148707374D01*
X142322401Y-148619094D01*
X142322401Y-148893506D01*
X142383863Y-148893555D01*
X142420041Y-148902014D01*
X142533790Y-148939358D01*
X142700192Y-149004395D01*
X142853000Y-149069779D01*
X143076967Y-149162948D01*
X143330382Y-149258598D01*
X143488000Y-149312805D01*
X143611420Y-149351176D01*
X143738770Y-149386389D01*
X143885405Y-149421667D01*
X144066680Y-149460232D01*
X144297953Y-149505305D01*
X144594578Y-149560108D01*
X144971912Y-149627864D01*
X145088200Y-149648544D01*
X145536564Y-149749213D01*
X145896999Y-149879320D01*
X146180531Y-150045271D01*
X146398186Y-150253474D01*
X146556816Y-150501894D01*
X146651401Y-150704130D01*
X146688041Y-150834314D01*
X146660059Y-150908107D01*
X146560778Y-150941173D01*
X146383523Y-150949173D01*
X146366152Y-150949200D01*
X146043904Y-150949200D01*
X146043904Y-151101600D01*
X146701100Y-151101600D01*
X146668393Y-151266700D01*
X146621551Y-151409143D01*
X146540300Y-151581118D01*
X146495811Y-151658714D01*
X146324732Y-151876711D01*
X146098327Y-152057358D01*
X145806092Y-152205655D01*
X145437525Y-152326606D01*
X144982123Y-152425212D01*
X144834200Y-152450043D01*
X144374376Y-152527670D01*
X143991937Y-152603856D01*
X143662977Y-152685058D01*
X143363587Y-152777731D01*
X143069859Y-152888333D01*
X142827600Y-152991962D01*
X142802200Y-153002681D01*
X142802200Y-153168350D01*
X142801456Y-153169137D01*
X142801456Y-153429626D01*
X142808763Y-153476762D01*
X142805584Y-153489200D01*
X142790068Y-153583759D01*
X142771581Y-153758158D01*
X142752051Y-153990754D01*
X142733409Y-154259903D01*
X142726333Y-154378200D01*
X142706521Y-154663608D01*
X142681656Y-154928614D01*
X142654454Y-155149160D01*
X142627630Y-155301191D01*
X142618300Y-155335394D01*
X142537594Y-155501303D01*
X142413147Y-155675112D01*
X142270230Y-155827706D01*
X142134115Y-155929974D01*
X142083652Y-155951315D01*
X141955733Y-155943644D01*
X141861968Y-155851623D01*
X141814811Y-155690161D01*
X141811600Y-155625731D01*
X141829493Y-155462817D01*
X141878016Y-155232292D01*
X141949434Y-154960622D01*
X142036012Y-154674272D01*
X142130016Y-154399709D01*
X142223709Y-154163400D01*
X142265279Y-154073400D01*
X142349698Y-153924513D01*
X142453042Y-153773939D01*
X142562601Y-153635419D01*
X142665664Y-153522698D01*
X142749519Y-153449519D01*
X142801456Y-153429626D01*
X142801456Y-153169137D01*
X142516455Y-153470740D01*
X142365039Y-153642878D01*
X142229801Y-153817396D01*
X142137244Y-153959798D01*
X142129772Y-153974065D01*
X142043759Y-154171316D01*
X141946000Y-154436885D01*
X141846654Y-154739876D01*
X141755875Y-155049397D01*
X141686736Y-155321724D01*
X141643377Y-155566521D01*
X141643030Y-155747919D01*
X141658794Y-155824585D01*
X141707244Y-155993521D01*
X141577521Y-155871660D01*
X141490621Y-155767163D01*
X141463241Y-155649403D01*
X141468686Y-155546600D01*
X141496490Y-155378479D01*
X141548690Y-155150186D01*
X141618865Y-154882926D01*
X141700592Y-154597900D01*
X141787446Y-154316312D01*
X141873006Y-154059364D01*
X141950847Y-153848260D01*
X142014548Y-153704202D01*
X142038951Y-153664121D01*
X142145715Y-153560086D01*
X142308435Y-153440668D01*
X142479959Y-153338379D01*
X142802200Y-153168350D01*
X142802200Y-153002681D01*
X142652944Y-153065671D01*
X142497126Y-153124478D01*
X142421006Y-153148267D01*
X142341962Y-153161482D01*
X142308309Y-153132003D01*
X142305751Y-153036002D01*
X142310934Y-152964784D01*
X142309773Y-152807531D01*
X142262430Y-152694600D01*
X142185764Y-152607219D01*
X142043472Y-152464927D01*
X142168836Y-152367305D01*
X142291165Y-152292086D01*
X142456441Y-152228103D01*
X142676884Y-152172738D01*
X142964714Y-152123375D01*
X143332150Y-152077398D01*
X143691200Y-152041336D01*
X144176448Y-151992145D01*
X144573216Y-151940936D01*
X144894598Y-151883514D01*
X145153691Y-151815684D01*
X145363589Y-151733249D01*
X145537389Y-151632016D01*
X145688186Y-151507789D01*
X145828973Y-151356495D01*
X146043904Y-151101600D01*
X146043904Y-150949200D01*
X145828973Y-150694304D01*
X145689963Y-150544522D01*
X145541811Y-150421597D01*
X145409656Y-150343828D01*
X145409656Y-150516193D01*
X145534202Y-150594372D01*
X145674795Y-150741519D01*
X145723896Y-150805822D01*
X145810789Y-150931278D01*
X145843674Y-151011896D01*
X145828924Y-151084551D01*
X145785801Y-151163968D01*
X145682772Y-151304756D01*
X145555588Y-151435766D01*
X145551704Y-151439087D01*
X145442737Y-151515168D01*
X145359391Y-151545488D01*
X145348504Y-151544050D01*
X145321840Y-151488152D01*
X145300582Y-151357774D01*
X145285577Y-151179937D01*
X145277673Y-150981657D01*
X145277717Y-150789954D01*
X145286555Y-150631847D01*
X145305037Y-150534354D01*
X145316316Y-150517698D01*
X145409656Y-150516193D01*
X145409656Y-150343828D01*
X145371449Y-150321344D01*
X145165806Y-150239582D01*
X144911812Y-150172129D01*
X144596398Y-150114803D01*
X144206494Y-150063420D01*
X143729031Y-150013799D01*
X143691200Y-150010208D01*
X143252308Y-149964560D01*
X142902690Y-149917950D01*
X142751400Y-149890084D01*
X142751400Y-150116474D01*
X143029972Y-150124975D01*
X143356761Y-150144474D01*
X143708419Y-150172613D01*
X144061598Y-150207033D01*
X144392949Y-150245374D01*
X144679125Y-150285277D01*
X144896777Y-150324383D01*
X144961200Y-150339750D01*
X145139000Y-150387476D01*
X145139000Y-151663323D01*
X144961200Y-151711049D01*
X144721852Y-151762587D01*
X144417386Y-151808883D01*
X144066712Y-151848908D01*
X143688740Y-151881631D01*
X143302379Y-151906023D01*
X142926539Y-151921055D01*
X142580130Y-151925696D01*
X142282062Y-151918917D01*
X142091000Y-151903001D01*
X142091000Y-152211442D01*
X141957507Y-152355021D01*
X141939246Y-152377039D01*
X141939246Y-152694522D01*
X142045398Y-152699233D01*
X142129153Y-152781073D01*
X142166870Y-152915577D01*
X142167200Y-152930400D01*
X142141269Y-153057240D01*
X142091646Y-153133063D01*
X141986687Y-153179973D01*
X141908516Y-153135254D01*
X141866761Y-153007418D01*
X141862400Y-152930400D01*
X141882610Y-152765404D01*
X141939246Y-152694522D01*
X141939246Y-152377039D01*
X141851233Y-152483165D01*
X141769578Y-152604772D01*
X141763785Y-152615579D01*
X141722970Y-152744732D01*
X141701530Y-152908730D01*
X141700790Y-152933079D01*
X141688597Y-153059375D01*
X141686195Y-153065555D01*
X141686195Y-153346134D01*
X141803428Y-153359158D01*
X141855032Y-153366914D01*
X142064427Y-153400397D01*
X141925313Y-153563278D01*
X141786200Y-153726159D01*
X141704029Y-153544179D01*
X141654685Y-153425628D01*
X141633060Y-153354650D01*
X141633747Y-153347815D01*
X141686195Y-153346134D01*
X141686195Y-153065555D01*
X141661572Y-153128913D01*
X141651522Y-153133600D01*
X141575328Y-153111492D01*
X141452570Y-153056160D01*
X141314016Y-152984094D01*
X141190434Y-152911781D01*
X141112591Y-152855710D01*
X141100400Y-152838253D01*
X141137494Y-152774007D01*
X141232245Y-152672679D01*
X141359859Y-152556552D01*
X141495539Y-152447907D01*
X141614489Y-152369027D01*
X141633800Y-152358926D01*
X141794851Y-152292366D01*
X141938600Y-152247850D01*
X142091000Y-152211442D01*
X142091000Y-151903001D01*
X142051244Y-151899689D01*
X141932043Y-151875996D01*
X141802696Y-151821066D01*
X141617930Y-151722748D01*
X141405246Y-151596367D01*
X141245478Y-151493403D01*
X141034982Y-151356447D01*
X140838044Y-151234999D01*
X140679982Y-151144310D01*
X140600898Y-151105120D01*
X140433127Y-151035627D01*
X140728663Y-150875878D01*
X140923086Y-150763806D01*
X141151026Y-150622280D01*
X141363793Y-150481548D01*
X141367678Y-150478867D01*
X141591838Y-150333729D01*
X141792386Y-150231977D01*
X141996148Y-150166585D01*
X142229948Y-150130530D01*
X142520611Y-150116784D01*
X142751400Y-150116474D01*
X142751400Y-149890084D01*
X142630033Y-149867729D01*
X142422024Y-149811249D01*
X142266351Y-149745862D01*
X142167441Y-149682441D01*
X142040682Y-149583767D01*
X142185854Y-149432240D01*
X142283006Y-149309214D01*
X142315727Y-149186374D01*
X142311454Y-149075485D01*
X142303294Y-148946114D01*
X142322401Y-148893506D01*
X142322401Y-148619094D01*
X142288038Y-148598152D01*
X142130332Y-148478423D01*
X142039355Y-148386895D01*
X141985379Y-148284353D01*
X141914021Y-148104205D01*
X141831691Y-147867624D01*
X141773973Y-147687051D01*
X141773973Y-148301817D01*
X141914699Y-148469808D01*
X142055425Y-148637800D01*
X142020119Y-148645411D01*
X142020119Y-148862333D01*
X142075066Y-148900366D01*
X142147549Y-149020130D01*
X142162791Y-149166657D01*
X142118976Y-149293658D01*
X142091646Y-149323063D01*
X141986582Y-149369201D01*
X141907540Y-149324332D01*
X141865982Y-149198001D01*
X141862400Y-149132154D01*
X141881991Y-148957379D01*
X141936631Y-148865187D01*
X142020119Y-148862333D01*
X142020119Y-148645411D01*
X141873421Y-148677036D01*
X141744229Y-148699462D01*
X141661533Y-148703942D01*
X141657511Y-148703019D01*
X141657511Y-148917200D01*
X141689041Y-148962552D01*
X141707763Y-149077091D01*
X141710000Y-149141850D01*
X141727835Y-149312155D01*
X141793555Y-149463861D01*
X141879066Y-149586350D01*
X141964778Y-149709390D01*
X142008650Y-149796323D01*
X142006709Y-149822918D01*
X141941619Y-149812061D01*
X141816125Y-149766675D01*
X141697943Y-149715089D01*
X141531846Y-149622822D01*
X141366063Y-149506600D01*
X141223724Y-149385709D01*
X141127955Y-149279435D01*
X141100400Y-149216827D01*
X141141825Y-149173553D01*
X141245645Y-149106048D01*
X141381180Y-149030813D01*
X141517746Y-148964350D01*
X141624662Y-148923160D01*
X141657511Y-148917200D01*
X141657511Y-148703019D01*
X141654974Y-148702436D01*
X141649221Y-148651984D01*
X141678600Y-148542214D01*
X141696251Y-148495208D01*
X141773973Y-148301817D01*
X141773973Y-147687051D01*
X141744799Y-147595778D01*
X141659755Y-147309839D01*
X141582972Y-147030976D01*
X141520857Y-146780359D01*
X141479823Y-146579159D01*
X141469267Y-146504200D01*
X141467630Y-146352854D01*
X141514643Y-146246597D01*
X141578898Y-146177844D01*
X141671055Y-146098282D01*
X141704589Y-146095903D01*
X141704589Y-145916807D01*
X141552023Y-145981398D01*
X141399381Y-146144551D01*
X141335892Y-146278857D01*
X141310545Y-146426480D01*
X141324145Y-146609319D01*
X141377500Y-146849275D01*
X141432405Y-147041347D01*
X141545085Y-147461963D01*
X141606258Y-147808949D01*
X141617478Y-148095321D01*
X141584744Y-148317494D01*
X141517296Y-148518419D01*
X141419703Y-148685208D01*
X141276084Y-148833643D01*
X141070561Y-148979504D01*
X140907256Y-149071194D01*
X140907256Y-149266260D01*
X141081336Y-149469634D01*
X141268947Y-149638221D01*
X141526949Y-149799356D01*
X141824738Y-149934531D01*
X141887800Y-149957313D01*
X141932661Y-149983563D01*
X141906248Y-150016245D01*
X141797286Y-150065713D01*
X141749448Y-150084366D01*
X141584269Y-150162150D01*
X141382800Y-150277272D01*
X141190648Y-150403448D01*
X140894607Y-150600103D01*
X140622869Y-150753361D01*
X140391520Y-150855214D01*
X140216643Y-150897653D01*
X140198342Y-150898333D01*
X140198342Y-151158256D01*
X140376728Y-151190473D01*
X140600885Y-151284935D01*
X140880122Y-151444493D01*
X141197714Y-151654016D01*
X141388705Y-151778632D01*
X141570142Y-151885114D01*
X141710734Y-151955445D01*
X141741786Y-151967307D01*
X141855067Y-152013465D01*
X141911713Y-152053730D01*
X141913200Y-152058815D01*
X141869530Y-152093612D01*
X141757072Y-152146242D01*
X141652208Y-152186448D01*
X141384239Y-152326299D01*
X141142115Y-152528246D01*
X140893012Y-152777348D01*
X140588804Y-152623785D01*
X140288435Y-152439250D01*
X140053796Y-152227881D01*
X139890365Y-152001144D01*
X139803621Y-151770510D01*
X139799043Y-151547445D01*
X139882111Y-151343418D01*
X139941636Y-151269142D01*
X140056414Y-151185430D01*
X140198342Y-151158256D01*
X140198342Y-150898333D01*
X140196543Y-150898400D01*
X140035109Y-150851537D01*
X139898340Y-150726692D01*
X139810131Y-150547481D01*
X139800341Y-150506805D01*
X139803428Y-150272598D01*
X139897848Y-150032977D01*
X140074830Y-149799888D01*
X140325600Y-149585278D01*
X140595926Y-149423419D01*
X140907256Y-149266260D01*
X140907256Y-149071194D01*
X140787254Y-149138572D01*
X140727382Y-149169513D01*
X140189555Y-149444875D01*
X139895677Y-149354001D01*
X139440620Y-149168870D01*
X138991665Y-148904339D01*
X138576500Y-148580288D01*
X138222810Y-148216597D01*
X138109998Y-148071740D01*
X137992895Y-147922044D01*
X137992895Y-148232801D01*
X138325071Y-148558867D01*
X138660164Y-148860574D01*
X139000393Y-149105574D01*
X139374738Y-149311350D01*
X139812175Y-149495385D01*
X139974527Y-149554050D01*
X139999938Y-149593238D01*
X139954791Y-149678114D01*
X139903329Y-149742804D01*
X139794025Y-149893281D01*
X139705338Y-150049728D01*
X139695020Y-150072900D01*
X139638191Y-150182666D01*
X139588921Y-150236799D01*
X139583294Y-150238000D01*
X139525547Y-150209235D01*
X139409691Y-150132791D01*
X139257756Y-150023441D01*
X139210440Y-149987948D01*
X138794955Y-149612325D01*
X138442107Y-149168024D01*
X138167728Y-148676162D01*
X138093868Y-148498541D01*
X137992895Y-148232801D01*
X137992895Y-147922044D01*
X137954632Y-147873131D01*
X137843239Y-147765926D01*
X137776097Y-147749809D01*
X137753484Y-147824460D01*
X137775678Y-147989561D01*
G37*
X137775678Y-147989561D02*
X137842956Y-148244792D01*
X137873300Y-148343077D01*
X138093861Y-148875662D01*
X138402531Y-149374789D01*
X138787261Y-149824075D01*
X139236005Y-150207140D01*
X139253153Y-150219454D01*
X139462007Y-150387838D01*
X139614140Y-150550168D01*
X139669853Y-150637214D01*
X139747780Y-150788055D01*
X139821603Y-150918197D01*
X139831220Y-150933658D01*
X139875073Y-151028338D01*
X139848098Y-151103669D01*
X139820504Y-151136858D01*
X139746102Y-151245927D01*
X139671906Y-151391498D01*
X139664006Y-151410111D01*
X139579444Y-151537377D01*
X139579444Y-151812800D01*
X139622121Y-151854470D01*
X139687421Y-151960540D01*
X139725550Y-152034686D01*
X139811902Y-152188630D01*
X139903009Y-152315301D01*
X139934482Y-152348446D01*
X139994124Y-152414584D01*
X139993389Y-152465837D01*
X139920661Y-152514838D01*
X139764323Y-152574222D01*
X139710202Y-152592374D01*
X139281205Y-152779049D01*
X138847130Y-153052798D01*
X138426426Y-153401855D01*
X138396685Y-153430017D01*
X137994208Y-153814542D01*
X138094525Y-153550530D01*
X138337062Y-153049270D01*
X138663504Y-152587328D01*
X139057734Y-152186191D01*
X139210440Y-152062851D01*
X139368114Y-151946853D01*
X139495386Y-151859448D01*
X139570506Y-151815372D01*
X139579444Y-151812800D01*
X139579444Y-151537377D01*
X139555556Y-151573329D01*
X139355299Y-151755454D01*
X139258023Y-151827870D01*
X138839198Y-152178129D01*
X138471164Y-152588528D01*
X138165793Y-153040992D01*
X137934958Y-153517448D01*
X137790532Y-153999823D01*
X137774592Y-154086100D01*
X137764791Y-154238376D01*
X137797732Y-154301562D01*
X137868578Y-154276333D01*
X137972488Y-154163367D01*
X138052948Y-154047145D01*
X138306602Y-153723473D01*
X138636766Y-153410309D01*
X139018657Y-153126044D01*
X139427491Y-152889069D01*
X139838483Y-152717774D01*
X139849082Y-152714328D01*
X140197964Y-152601748D01*
X140731882Y-152880374D01*
X141058044Y-153065019D01*
X141297346Y-153239530D01*
X141461255Y-153419363D01*
X141561236Y-153619974D01*
X141608754Y-153856822D01*
X141616808Y-154073400D01*
X141597779Y-154284944D01*
X141548391Y-154556859D01*
X141475105Y-154854825D01*
X141458998Y-154911600D01*
X141373342Y-155226986D01*
X141324398Y-155465897D01*
X141311192Y-155646208D01*
X141332755Y-155785799D01*
X141388114Y-155902546D01*
X141403881Y-155925748D01*
X141574408Y-156090130D01*
X141779190Y-156164591D01*
X142005249Y-156149165D01*
X142239606Y-156043884D01*
X142394606Y-155923276D01*
X142549054Y-155762924D01*
X142666245Y-155592501D01*
X142752072Y-155393914D01*
X142812425Y-155149073D01*
X142853198Y-154839885D01*
X142880281Y-154448258D01*
X142881243Y-154429000D01*
X142903127Y-154058361D01*
X142930213Y-153772232D01*
X142966593Y-153553529D01*
X143016364Y-153385166D01*
X143083620Y-153250060D01*
X143172456Y-153131125D01*
X143199612Y-153100723D01*
X143411605Y-152939233D01*
X143703483Y-152821170D01*
X144062563Y-152748082D01*
X144476164Y-152721513D01*
X144931605Y-152743009D01*
X145416203Y-152814116D01*
X145467288Y-152824323D01*
X145763416Y-152879655D01*
X146095076Y-152933393D01*
X146405724Y-152976609D01*
X146506308Y-152988394D01*
X147155000Y-153013479D01*
X147793203Y-152949951D01*
X148406788Y-152801519D01*
X148981627Y-152571896D01*
X149503590Y-152264790D01*
X149637437Y-152166121D01*
X149790906Y-152039936D01*
X149971718Y-151879811D01*
X150165093Y-151700272D01*
X150356255Y-151515846D01*
X150530424Y-151341060D01*
X150672822Y-151190440D01*
X150768671Y-151078514D01*
X150803200Y-151020199D01*
X150768350Y-150965810D01*
X150672618Y-150856127D01*
X150529232Y-150705357D01*
X150351418Y-150527708D01*
X150281971Y-150460339D01*
X149940953Y-150144652D01*
X149636964Y-149893617D01*
X149346442Y-149690333D01*
X149045826Y-149517897D01*
X148806375Y-149401743D01*
X148287695Y-149208828D01*
X147734410Y-149089502D01*
X147137501Y-149043185D01*
X146884840Y-149053340D01*
X146884840Y-149192494D01*
X147290706Y-149203311D01*
X147702355Y-149243849D01*
X148081640Y-149310675D01*
X148325226Y-149377079D01*
X148707911Y-149530896D01*
X149106679Y-149736172D01*
X149477575Y-149968735D01*
X149685441Y-150125178D01*
X149823768Y-150242175D01*
X149922860Y-150332032D01*
X149964282Y-150377897D01*
X149964282Y-150380082D01*
X149917261Y-150364966D01*
X149804774Y-150311127D01*
X149649884Y-150229697D01*
X149628183Y-150217854D01*
X149379308Y-150091052D01*
X149141527Y-149994156D01*
X148895949Y-149923841D01*
X148623684Y-149876784D01*
X148305840Y-149849659D01*
X148147830Y-149845313D01*
X148147830Y-149991134D01*
X148354992Y-149995336D01*
X148522457Y-150009121D01*
X148670771Y-150033248D01*
X148762396Y-150053799D01*
X149179454Y-150191327D01*
X149618739Y-150401363D01*
X150050486Y-150669124D01*
X150159498Y-150747610D01*
X150312532Y-150862222D01*
X150409554Y-150949152D01*
X150445916Y-151023119D01*
X150416970Y-151098841D01*
X150318069Y-151191039D01*
X150144563Y-151314432D01*
X149948626Y-151445680D01*
X149948626Y-151695960D01*
X149904812Y-151745565D01*
X149780326Y-151847082D01*
X149573830Y-152002653D01*
X149448886Y-152094454D01*
X149049764Y-152345678D01*
X148595808Y-152564091D01*
X148133154Y-152728148D01*
X148034600Y-152754854D01*
X147703285Y-152812817D01*
X147300670Y-152841029D01*
X146852455Y-152839966D01*
X146384339Y-152810101D01*
X145922022Y-152751910D01*
X145697800Y-152711687D01*
X145088200Y-152589822D01*
X145316800Y-152527441D01*
X145471456Y-152484036D01*
X145685395Y-152422455D01*
X145920572Y-152353682D01*
X146002600Y-152329429D01*
X146162610Y-152283310D01*
X146300148Y-152249331D01*
X146434507Y-152225933D01*
X146584978Y-152211559D01*
X146770855Y-152204648D01*
X147011431Y-152203644D01*
X147325999Y-152206987D01*
X147488754Y-152209372D01*
X147914887Y-152213033D01*
X148259301Y-152207378D01*
X148541710Y-152188946D01*
X148781825Y-152154278D01*
X148999360Y-152099914D01*
X149214027Y-152022395D01*
X149445539Y-151918260D01*
X149609400Y-151837186D01*
X149799583Y-151743913D01*
X149913104Y-151696123D01*
X149948626Y-151695960D01*
X149948626Y-151445680D01*
X149936496Y-151453806D01*
X149601579Y-151664359D01*
X149293349Y-151823944D01*
X148990447Y-151937579D01*
X148671515Y-152010283D01*
X148315194Y-152047075D01*
X147900125Y-152052974D01*
X147458680Y-152036016D01*
X146628760Y-151990600D01*
X146941151Y-151770713D01*
X147191216Y-151569852D01*
X147352243Y-151376890D01*
X147434257Y-151177147D01*
X147450020Y-151025400D01*
X147416520Y-150810771D01*
X147309662Y-150610044D01*
X147119907Y-150408931D01*
X146945367Y-150269593D01*
X146684319Y-150077421D01*
X146684319Y-150295984D01*
X146779096Y-150349902D01*
X146912655Y-150450570D01*
X147054413Y-150571827D01*
X147173785Y-150687514D01*
X147240150Y-150771400D01*
X147291110Y-150974831D01*
X147264477Y-151190945D01*
X147217563Y-151296961D01*
X147143760Y-151388617D01*
X147026713Y-151503352D01*
X146893097Y-151618525D01*
X146769583Y-151711496D01*
X146682846Y-151759625D01*
X146669696Y-151762000D01*
X146670849Y-151722137D01*
X146711727Y-151620488D01*
X146748572Y-151546100D01*
X146842628Y-151267555D01*
X146863041Y-150957765D01*
X146809915Y-150655367D01*
X146745758Y-150499184D01*
X146689826Y-150377138D01*
X146672445Y-150305114D01*
X146684319Y-150295984D01*
X146684319Y-150077421D01*
X146641062Y-150045576D01*
X147532227Y-150008450D01*
X147880424Y-149995758D01*
X148147830Y-149991134D01*
X148147830Y-149845313D01*
X147923527Y-149839142D01*
X147489222Y-149841416D01*
X146459800Y-149857000D01*
X145850200Y-149682977D01*
X145614070Y-149613807D01*
X145413595Y-149551772D01*
X145269061Y-149503380D01*
X145200754Y-149475144D01*
X145199367Y-149474105D01*
X145226703Y-149450746D01*
X145338421Y-149417108D01*
X145518202Y-149376388D01*
X145749727Y-149331784D01*
X146016676Y-149286492D01*
X146302728Y-149243708D01*
X146522904Y-149214833D01*
X146884840Y-149192494D01*
X146884840Y-149053340D01*
X146487952Y-149069293D01*
X145776745Y-149167246D01*
X145621600Y-149196326D01*
X145013759Y-149291829D01*
X144480844Y-149326699D01*
X144024162Y-149301242D01*
X143645021Y-149215763D01*
X143344728Y-149070568D01*
X143124590Y-148865961D01*
X142985915Y-148602249D01*
X142978529Y-148579096D01*
X142954438Y-148458634D01*
X142928923Y-148260711D01*
X142904521Y-148009390D01*
X142883773Y-147728732D01*
X142877505Y-147621800D01*
X142858242Y-147335492D01*
X142833513Y-147068741D01*
X142806053Y-146845899D01*
X142778598Y-146691319D01*
X142769088Y-146656600D01*
X142675863Y-146470028D01*
X142527944Y-146275792D01*
X142350085Y-146098517D01*
X142167045Y-145962824D01*
X142008536Y-145895447D01*
X142008536Y-146097061D01*
X142147468Y-146127833D01*
X142295969Y-146232619D01*
X142440058Y-146401217D01*
X142565757Y-146623427D01*
X142577501Y-146649872D01*
X142624433Y-146774643D01*
X142659484Y-146914026D01*
X142685653Y-147088942D01*
X142705937Y-147320312D01*
X142723334Y-147629060D01*
X142726011Y-147686191D01*
X142740416Y-147957042D01*
X142756572Y-148191086D01*
X142772918Y-148369935D01*
X142787895Y-148475202D01*
X142794624Y-148494757D01*
X142824566Y-148569940D01*
X142827600Y-148605431D01*
X142797862Y-148626804D01*
X142708970Y-148566175D01*
X142645476Y-148508065D01*
X142468955Y-148310228D01*
X142314232Y-148071518D01*
X142173933Y-147776575D01*
X142040686Y-147410042D01*
X141915636Y-146987821D01*
X141838816Y-146651019D01*
X141815950Y-146396676D01*
X141846942Y-146221222D01*
X141893152Y-146150504D01*
X142008536Y-146097061D01*
X142008536Y-145895447D01*
X142003579Y-145893339D01*
X142001253Y-145892899D01*
X141760197Y-145893265D01*
X141704589Y-145916807D01*
X141704589Y-146095903D01*
X141685989Y-146176755D01*
X141658510Y-146252012D01*
X141643472Y-146388849D01*
X141666945Y-146605848D01*
X141726298Y-146890277D01*
X141818898Y-147229402D01*
X141935396Y-147591022D01*
X142072048Y-147941688D01*
X142222019Y-148222098D01*
X142403947Y-148463458D01*
X142544145Y-148610276D01*
X142663975Y-148729485D01*
X142747966Y-148817929D01*
X142776800Y-148854555D01*
X142735985Y-148841610D01*
X142628647Y-148790764D01*
X142477443Y-148712793D01*
X142467259Y-148707374D01*
X142322401Y-148619094D01*
X142322401Y-148893506D01*
X142383863Y-148893555D01*
X142420041Y-148902014D01*
X142533790Y-148939358D01*
X142700192Y-149004395D01*
X142853000Y-149069779D01*
X143076967Y-149162948D01*
X143330382Y-149258598D01*
X143488000Y-149312805D01*
X143611420Y-149351176D01*
X143738770Y-149386389D01*
X143885405Y-149421667D01*
X144066680Y-149460232D01*
X144297953Y-149505305D01*
X144594578Y-149560108D01*
X144971912Y-149627864D01*
X145088200Y-149648544D01*
X145536564Y-149749213D01*
X145896999Y-149879320D01*
X146180531Y-150045271D01*
X146398186Y-150253474D01*
X146556816Y-150501894D01*
X146651401Y-150704130D01*
X146688041Y-150834314D01*
X146660059Y-150908107D01*
X146560778Y-150941173D01*
X146383523Y-150949173D01*
X146366152Y-150949200D01*
X146043904Y-150949200D01*
X146043904Y-151101600D01*
X146701100Y-151101600D01*
X146668393Y-151266700D01*
X146621551Y-151409143D01*
X146540300Y-151581118D01*
X146495811Y-151658714D01*
X146324732Y-151876711D01*
X146098327Y-152057358D01*
X145806092Y-152205655D01*
X145437525Y-152326606D01*
X144982123Y-152425212D01*
X144834200Y-152450043D01*
X144374376Y-152527670D01*
X143991937Y-152603856D01*
X143662977Y-152685058D01*
X143363587Y-152777731D01*
X143069859Y-152888333D01*
X142827600Y-152991962D01*
X142802200Y-153002681D01*
X142802200Y-153168350D01*
X142801456Y-153169137D01*
X142801456Y-153429626D01*
X142808763Y-153476762D01*
X142805584Y-153489200D01*
X142790068Y-153583759D01*
X142771581Y-153758158D01*
X142752051Y-153990754D01*
X142733409Y-154259903D01*
X142726333Y-154378200D01*
X142706521Y-154663608D01*
X142681656Y-154928614D01*
X142654454Y-155149160D01*
X142627630Y-155301191D01*
X142618300Y-155335394D01*
X142537594Y-155501303D01*
X142413147Y-155675112D01*
X142270230Y-155827706D01*
X142134115Y-155929974D01*
X142083652Y-155951315D01*
X141955733Y-155943644D01*
X141861968Y-155851623D01*
X141814811Y-155690161D01*
X141811600Y-155625731D01*
X141829493Y-155462817D01*
X141878016Y-155232292D01*
X141949434Y-154960622D01*
X142036012Y-154674272D01*
X142130016Y-154399709D01*
X142223709Y-154163400D01*
X142265279Y-154073400D01*
X142349698Y-153924513D01*
X142453042Y-153773939D01*
X142562601Y-153635419D01*
X142665664Y-153522698D01*
X142749519Y-153449519D01*
X142801456Y-153429626D01*
X142801456Y-153169137D01*
X142516455Y-153470740D01*
X142365039Y-153642878D01*
X142229801Y-153817396D01*
X142137244Y-153959798D01*
X142129772Y-153974065D01*
X142043759Y-154171316D01*
X141946000Y-154436885D01*
X141846654Y-154739876D01*
X141755875Y-155049397D01*
X141686736Y-155321724D01*
X141643377Y-155566521D01*
X141643030Y-155747919D01*
X141658794Y-155824585D01*
X141707244Y-155993521D01*
X141577521Y-155871660D01*
X141490621Y-155767163D01*
X141463241Y-155649403D01*
X141468686Y-155546600D01*
X141496490Y-155378479D01*
X141548690Y-155150186D01*
X141618865Y-154882926D01*
X141700592Y-154597900D01*
X141787446Y-154316312D01*
X141873006Y-154059364D01*
X141950847Y-153848260D01*
X142014548Y-153704202D01*
X142038951Y-153664121D01*
X142145715Y-153560086D01*
X142308435Y-153440668D01*
X142479959Y-153338379D01*
X142802200Y-153168350D01*
X142802200Y-153002681D01*
X142652944Y-153065671D01*
X142497126Y-153124478D01*
X142421006Y-153148267D01*
X142341962Y-153161482D01*
X142308309Y-153132003D01*
X142305751Y-153036002D01*
X142310934Y-152964784D01*
X142309773Y-152807531D01*
X142262430Y-152694600D01*
X142185764Y-152607219D01*
X142043472Y-152464927D01*
X142168836Y-152367305D01*
X142291165Y-152292086D01*
X142456441Y-152228103D01*
X142676884Y-152172738D01*
X142964714Y-152123375D01*
X143332150Y-152077398D01*
X143691200Y-152041336D01*
X144176448Y-151992145D01*
X144573216Y-151940936D01*
X144894598Y-151883514D01*
X145153691Y-151815684D01*
X145363589Y-151733249D01*
X145537389Y-151632016D01*
X145688186Y-151507789D01*
X145828973Y-151356495D01*
X146043904Y-151101600D01*
X146043904Y-150949200D01*
X145828973Y-150694304D01*
X145689963Y-150544522D01*
X145541811Y-150421597D01*
X145409656Y-150343828D01*
X145409656Y-150516193D01*
X145534202Y-150594372D01*
X145674795Y-150741519D01*
X145723896Y-150805822D01*
X145810789Y-150931278D01*
X145843674Y-151011896D01*
X145828924Y-151084551D01*
X145785801Y-151163968D01*
X145682772Y-151304756D01*
X145555588Y-151435766D01*
X145551704Y-151439087D01*
X145442737Y-151515168D01*
X145359391Y-151545488D01*
X145348504Y-151544050D01*
X145321840Y-151488152D01*
X145300582Y-151357774D01*
X145285577Y-151179937D01*
X145277673Y-150981657D01*
X145277717Y-150789954D01*
X145286555Y-150631847D01*
X145305037Y-150534354D01*
X145316316Y-150517698D01*
X145409656Y-150516193D01*
X145409656Y-150343828D01*
X145371449Y-150321344D01*
X145165806Y-150239582D01*
X144911812Y-150172129D01*
X144596398Y-150114803D01*
X144206494Y-150063420D01*
X143729031Y-150013799D01*
X143691200Y-150010208D01*
X143252308Y-149964560D01*
X142902690Y-149917950D01*
X142751400Y-149890084D01*
X142751400Y-150116474D01*
X143029972Y-150124975D01*
X143356761Y-150144474D01*
X143708419Y-150172613D01*
X144061598Y-150207033D01*
X144392949Y-150245374D01*
X144679125Y-150285277D01*
X144896777Y-150324383D01*
X144961200Y-150339750D01*
X145139000Y-150387476D01*
X145139000Y-151663323D01*
X144961200Y-151711049D01*
X144721852Y-151762587D01*
X144417386Y-151808883D01*
X144066712Y-151848908D01*
X143688740Y-151881631D01*
X143302379Y-151906023D01*
X142926539Y-151921055D01*
X142580130Y-151925696D01*
X142282062Y-151918917D01*
X142091000Y-151903001D01*
X142091000Y-152211442D01*
X141957507Y-152355021D01*
X141939246Y-152377039D01*
X141939246Y-152694522D01*
X142045398Y-152699233D01*
X142129153Y-152781073D01*
X142166870Y-152915577D01*
X142167200Y-152930400D01*
X142141269Y-153057240D01*
X142091646Y-153133063D01*
X141986687Y-153179973D01*
X141908516Y-153135254D01*
X141866761Y-153007418D01*
X141862400Y-152930400D01*
X141882610Y-152765404D01*
X141939246Y-152694522D01*
X141939246Y-152377039D01*
X141851233Y-152483165D01*
X141769578Y-152604772D01*
X141763785Y-152615579D01*
X141722970Y-152744732D01*
X141701530Y-152908730D01*
X141700790Y-152933079D01*
X141688597Y-153059375D01*
X141686195Y-153065555D01*
X141686195Y-153346134D01*
X141803428Y-153359158D01*
X141855032Y-153366914D01*
X142064427Y-153400397D01*
X141925313Y-153563278D01*
X141786200Y-153726159D01*
X141704029Y-153544179D01*
X141654685Y-153425628D01*
X141633060Y-153354650D01*
X141633747Y-153347815D01*
X141686195Y-153346134D01*
X141686195Y-153065555D01*
X141661572Y-153128913D01*
X141651522Y-153133600D01*
X141575328Y-153111492D01*
X141452570Y-153056160D01*
X141314016Y-152984094D01*
X141190434Y-152911781D01*
X141112591Y-152855710D01*
X141100400Y-152838253D01*
X141137494Y-152774007D01*
X141232245Y-152672679D01*
X141359859Y-152556552D01*
X141495539Y-152447907D01*
X141614489Y-152369027D01*
X141633800Y-152358926D01*
X141794851Y-152292366D01*
X141938600Y-152247850D01*
X142091000Y-152211442D01*
X142091000Y-151903001D01*
X142051244Y-151899689D01*
X141932043Y-151875996D01*
X141802696Y-151821066D01*
X141617930Y-151722748D01*
X141405246Y-151596367D01*
X141245478Y-151493403D01*
X141034982Y-151356447D01*
X140838044Y-151234999D01*
X140679982Y-151144310D01*
X140600898Y-151105120D01*
X140433127Y-151035627D01*
X140728663Y-150875878D01*
X140923086Y-150763806D01*
X141151026Y-150622280D01*
X141363793Y-150481548D01*
X141367678Y-150478867D01*
X141591838Y-150333729D01*
X141792386Y-150231977D01*
X141996148Y-150166585D01*
X142229948Y-150130530D01*
X142520611Y-150116784D01*
X142751400Y-150116474D01*
X142751400Y-149890084D01*
X142630033Y-149867729D01*
X142422024Y-149811249D01*
X142266351Y-149745862D01*
X142167441Y-149682441D01*
X142040682Y-149583767D01*
X142185854Y-149432240D01*
X142283006Y-149309214D01*
X142315727Y-149186374D01*
X142311454Y-149075485D01*
X142303294Y-148946114D01*
X142322401Y-148893506D01*
X142322401Y-148619094D01*
X142288038Y-148598152D01*
X142130332Y-148478423D01*
X142039355Y-148386895D01*
X141985379Y-148284353D01*
X141914021Y-148104205D01*
X141831691Y-147867624D01*
X141773973Y-147687051D01*
X141773973Y-148301817D01*
X141914699Y-148469808D01*
X142055425Y-148637800D01*
X142020119Y-148645411D01*
X142020119Y-148862333D01*
X142075066Y-148900366D01*
X142147549Y-149020130D01*
X142162791Y-149166657D01*
X142118976Y-149293658D01*
X142091646Y-149323063D01*
X141986582Y-149369201D01*
X141907540Y-149324332D01*
X141865982Y-149198001D01*
X141862400Y-149132154D01*
X141881991Y-148957379D01*
X141936631Y-148865187D01*
X142020119Y-148862333D01*
X142020119Y-148645411D01*
X141873421Y-148677036D01*
X141744229Y-148699462D01*
X141661533Y-148703942D01*
X141657511Y-148703019D01*
X141657511Y-148917200D01*
X141689041Y-148962552D01*
X141707763Y-149077091D01*
X141710000Y-149141850D01*
X141727835Y-149312155D01*
X141793555Y-149463861D01*
X141879066Y-149586350D01*
X141964778Y-149709390D01*
X142008650Y-149796323D01*
X142006709Y-149822918D01*
X141941619Y-149812061D01*
X141816125Y-149766675D01*
X141697943Y-149715089D01*
X141531846Y-149622822D01*
X141366063Y-149506600D01*
X141223724Y-149385709D01*
X141127955Y-149279435D01*
X141100400Y-149216827D01*
X141141825Y-149173553D01*
X141245645Y-149106048D01*
X141381180Y-149030813D01*
X141517746Y-148964350D01*
X141624662Y-148923160D01*
X141657511Y-148917200D01*
X141657511Y-148703019D01*
X141654974Y-148702436D01*
X141649221Y-148651984D01*
X141678600Y-148542214D01*
X141696251Y-148495208D01*
X141773973Y-148301817D01*
X141773973Y-147687051D01*
X141744799Y-147595778D01*
X141659755Y-147309839D01*
X141582972Y-147030976D01*
X141520857Y-146780359D01*
X141479823Y-146579159D01*
X141469267Y-146504200D01*
X141467630Y-146352854D01*
X141514643Y-146246597D01*
X141578898Y-146177844D01*
X141671055Y-146098282D01*
X141704589Y-146095903D01*
X141704589Y-145916807D01*
X141552023Y-145981398D01*
X141399381Y-146144551D01*
X141335892Y-146278857D01*
X141310545Y-146426480D01*
X141324145Y-146609319D01*
X141377500Y-146849275D01*
X141432405Y-147041347D01*
X141545085Y-147461963D01*
X141606258Y-147808949D01*
X141617478Y-148095321D01*
X141584744Y-148317494D01*
X141517296Y-148518419D01*
X141419703Y-148685208D01*
X141276084Y-148833643D01*
X141070561Y-148979504D01*
X140907256Y-149071194D01*
X140907256Y-149266260D01*
X141081336Y-149469634D01*
X141268947Y-149638221D01*
X141526949Y-149799356D01*
X141824738Y-149934531D01*
X141887800Y-149957313D01*
X141932661Y-149983563D01*
X141906248Y-150016245D01*
X141797286Y-150065713D01*
X141749448Y-150084366D01*
X141584269Y-150162150D01*
X141382800Y-150277272D01*
X141190648Y-150403448D01*
X140894607Y-150600103D01*
X140622869Y-150753361D01*
X140391520Y-150855214D01*
X140216643Y-150897653D01*
X140198342Y-150898333D01*
X140198342Y-151158256D01*
X140376728Y-151190473D01*
X140600885Y-151284935D01*
X140880122Y-151444493D01*
X141197714Y-151654016D01*
X141388705Y-151778632D01*
X141570142Y-151885114D01*
X141710734Y-151955445D01*
X141741786Y-151967307D01*
X141855067Y-152013465D01*
X141911713Y-152053730D01*
X141913200Y-152058815D01*
X141869530Y-152093612D01*
X141757072Y-152146242D01*
X141652208Y-152186448D01*
X141384239Y-152326299D01*
X141142115Y-152528246D01*
X140893012Y-152777348D01*
X140588804Y-152623785D01*
X140288435Y-152439250D01*
X140053796Y-152227881D01*
X139890365Y-152001144D01*
X139803621Y-151770510D01*
X139799043Y-151547445D01*
X139882111Y-151343418D01*
X139941636Y-151269142D01*
X140056414Y-151185430D01*
X140198342Y-151158256D01*
X140198342Y-150898333D01*
X140196543Y-150898400D01*
X140035109Y-150851537D01*
X139898340Y-150726692D01*
X139810131Y-150547481D01*
X139800341Y-150506805D01*
X139803428Y-150272598D01*
X139897848Y-150032977D01*
X140074830Y-149799888D01*
X140325600Y-149585278D01*
X140595926Y-149423419D01*
X140907256Y-149266260D01*
X140907256Y-149071194D01*
X140787254Y-149138572D01*
X140727382Y-149169513D01*
X140189555Y-149444875D01*
X139895677Y-149354001D01*
X139440620Y-149168870D01*
X138991665Y-148904339D01*
X138576500Y-148580288D01*
X138222810Y-148216597D01*
X138109998Y-148071740D01*
X137992895Y-147922044D01*
X137992895Y-148232801D01*
X138325071Y-148558867D01*
X138660164Y-148860574D01*
X139000393Y-149105574D01*
X139374738Y-149311350D01*
X139812175Y-149495385D01*
X139974527Y-149554050D01*
X139999938Y-149593238D01*
X139954791Y-149678114D01*
X139903329Y-149742804D01*
X139794025Y-149893281D01*
X139705338Y-150049728D01*
X139695020Y-150072900D01*
X139638191Y-150182666D01*
X139588921Y-150236799D01*
X139583294Y-150238000D01*
X139525547Y-150209235D01*
X139409691Y-150132791D01*
X139257756Y-150023441D01*
X139210440Y-149987948D01*
X138794955Y-149612325D01*
X138442107Y-149168024D01*
X138167728Y-148676162D01*
X138093868Y-148498541D01*
X137992895Y-148232801D01*
X137992895Y-147922044D01*
X137954632Y-147873131D01*
X137843239Y-147765926D01*
X137776097Y-147749809D01*
X137753484Y-147824460D01*
X137775678Y-147989561D01*
G36*
X54474322Y-154260439D02*
G01*
X54407044Y-154005208D01*
X54376700Y-153906923D01*
X54156139Y-153374338D01*
X53847469Y-152875211D01*
X53462739Y-152425925D01*
X53013995Y-152042860D01*
X52996847Y-152030546D01*
X52787993Y-151862162D01*
X52635860Y-151699832D01*
X52580147Y-151612786D01*
X52502220Y-151461945D01*
X52428397Y-151331803D01*
X52418780Y-151316342D01*
X52374927Y-151221662D01*
X52401902Y-151146331D01*
X52429496Y-151113142D01*
X52503898Y-151004073D01*
X52578094Y-150858502D01*
X52585994Y-150839889D01*
X52670556Y-150712623D01*
X52670556Y-150437200D01*
X52627879Y-150395530D01*
X52562579Y-150289460D01*
X52524450Y-150215314D01*
X52438098Y-150061370D01*
X52346991Y-149934699D01*
X52315518Y-149901554D01*
X52255876Y-149835416D01*
X52256611Y-149784163D01*
X52329339Y-149735162D01*
X52485677Y-149675778D01*
X52539798Y-149657626D01*
X52968795Y-149470951D01*
X53402870Y-149197202D01*
X53823574Y-148848145D01*
X53853315Y-148819983D01*
X54255792Y-148435458D01*
X54155475Y-148699470D01*
X53912938Y-149200730D01*
X53586496Y-149662672D01*
X53192266Y-150063809D01*
X53039560Y-150187149D01*
X52881886Y-150303147D01*
X52754614Y-150390552D01*
X52679494Y-150434628D01*
X52670556Y-150437200D01*
X52670556Y-150712623D01*
X52694444Y-150676671D01*
X52894701Y-150494546D01*
X52991977Y-150422130D01*
X53410802Y-150071871D01*
X53778836Y-149661472D01*
X54084207Y-149209008D01*
X54315042Y-148732552D01*
X54459468Y-148250177D01*
X54475408Y-148163900D01*
X54485209Y-148011624D01*
X54452268Y-147948438D01*
X54381422Y-147973667D01*
X54277512Y-148086633D01*
X54197052Y-148202855D01*
X53943398Y-148526527D01*
X53613234Y-148839691D01*
X53231343Y-149123956D01*
X52822509Y-149360931D01*
X52411517Y-149532226D01*
X52400918Y-149535672D01*
X52052036Y-149648252D01*
X51518118Y-149369626D01*
X51191956Y-149184981D01*
X50952654Y-149010470D01*
X50788745Y-148830637D01*
X50688764Y-148630026D01*
X50641246Y-148393178D01*
X50633192Y-148176600D01*
X50652221Y-147965056D01*
X50701609Y-147693141D01*
X50774895Y-147395175D01*
X50791002Y-147338400D01*
X50876658Y-147023014D01*
X50925602Y-146784103D01*
X50938808Y-146603792D01*
X50917245Y-146464201D01*
X50861886Y-146347454D01*
X50846119Y-146324252D01*
X50675592Y-146159870D01*
X50470810Y-146085409D01*
X50244751Y-146100835D01*
X50010394Y-146206116D01*
X49855394Y-146326724D01*
X49700946Y-146487076D01*
X49583755Y-146657499D01*
X49497928Y-146856086D01*
X49437575Y-147100927D01*
X49396802Y-147410115D01*
X49369719Y-147801742D01*
X49368757Y-147821000D01*
X49346873Y-148191639D01*
X49319787Y-148477768D01*
X49283407Y-148696471D01*
X49233636Y-148864834D01*
X49166380Y-148999940D01*
X49077544Y-149118875D01*
X49050388Y-149149277D01*
X48838395Y-149310767D01*
X48546517Y-149428830D01*
X48187437Y-149501918D01*
X47773836Y-149528487D01*
X47318395Y-149506991D01*
X46833797Y-149435884D01*
X46782712Y-149425677D01*
X46486584Y-149370345D01*
X46154924Y-149316607D01*
X45844276Y-149273391D01*
X45743692Y-149261606D01*
X45095000Y-149236521D01*
X44456797Y-149300049D01*
X43843212Y-149448481D01*
X43268373Y-149678104D01*
X42746410Y-149985210D01*
X42612563Y-150083879D01*
X42459094Y-150210064D01*
X42278282Y-150370189D01*
X42084907Y-150549728D01*
X41893745Y-150734154D01*
X41719576Y-150908940D01*
X41577178Y-151059560D01*
X41481329Y-151171486D01*
X41446800Y-151229801D01*
X41481650Y-151284190D01*
X41577382Y-151393873D01*
X41720768Y-151544643D01*
X41898582Y-151722292D01*
X41968029Y-151789661D01*
X42309047Y-152105348D01*
X42613036Y-152356383D01*
X42903558Y-152559667D01*
X43204174Y-152732103D01*
X43443625Y-152848257D01*
X43962305Y-153041172D01*
X44515590Y-153160498D01*
X45112499Y-153206815D01*
X45365160Y-153196660D01*
X45365160Y-153057506D01*
X44959294Y-153046689D01*
X44547645Y-153006151D01*
X44168360Y-152939325D01*
X43924774Y-152872921D01*
X43542089Y-152719104D01*
X43143321Y-152513828D01*
X42772425Y-152281265D01*
X42564559Y-152124822D01*
X42426232Y-152007825D01*
X42327140Y-151917968D01*
X42285718Y-151872103D01*
X42285718Y-151869918D01*
X42332739Y-151885034D01*
X42445226Y-151938873D01*
X42600116Y-152020303D01*
X42621817Y-152032146D01*
X42870692Y-152158948D01*
X43108473Y-152255844D01*
X43354051Y-152326159D01*
X43626316Y-152373216D01*
X43944160Y-152400341D01*
X44102170Y-152404687D01*
X44102170Y-152258866D01*
X43895008Y-152254664D01*
X43727543Y-152240879D01*
X43579229Y-152216752D01*
X43487604Y-152196201D01*
X43070546Y-152058673D01*
X42631261Y-151848637D01*
X42199514Y-151580876D01*
X42090502Y-151502390D01*
X41937468Y-151387778D01*
X41840446Y-151300848D01*
X41804084Y-151226881D01*
X41833030Y-151151159D01*
X41931931Y-151058961D01*
X42105437Y-150935568D01*
X42301374Y-150804320D01*
X42301374Y-150554040D01*
X42345188Y-150504435D01*
X42469674Y-150402918D01*
X42676170Y-150247347D01*
X42801114Y-150155546D01*
X43200236Y-149904322D01*
X43654192Y-149685909D01*
X44116846Y-149521852D01*
X44215400Y-149495146D01*
X44546715Y-149437183D01*
X44949330Y-149408971D01*
X45397545Y-149410034D01*
X45865661Y-149439899D01*
X46327978Y-149498090D01*
X46552200Y-149538313D01*
X47161800Y-149660178D01*
X46933200Y-149722559D01*
X46778544Y-149765964D01*
X46564605Y-149827545D01*
X46329428Y-149896318D01*
X46247400Y-149920571D01*
X46087390Y-149966690D01*
X45949852Y-150000669D01*
X45815493Y-150024067D01*
X45665022Y-150038441D01*
X45479145Y-150045352D01*
X45238569Y-150046356D01*
X44924001Y-150043013D01*
X44761246Y-150040628D01*
X44335113Y-150036967D01*
X43990699Y-150042622D01*
X43708290Y-150061054D01*
X43468175Y-150095722D01*
X43250640Y-150150086D01*
X43035973Y-150227605D01*
X42804461Y-150331740D01*
X42640600Y-150412814D01*
X42450417Y-150506087D01*
X42336896Y-150553877D01*
X42301374Y-150554040D01*
X42301374Y-150804320D01*
X42313504Y-150796194D01*
X42648421Y-150585641D01*
X42956651Y-150426056D01*
X43259553Y-150312421D01*
X43578485Y-150239717D01*
X43934806Y-150202925D01*
X44349875Y-150197026D01*
X44791320Y-150213984D01*
X45621240Y-150259400D01*
X45308849Y-150479287D01*
X45058784Y-150680148D01*
X44897757Y-150873110D01*
X44815743Y-151072853D01*
X44799980Y-151224600D01*
X44833480Y-151439229D01*
X44940338Y-151639956D01*
X45130093Y-151841069D01*
X45304633Y-151980407D01*
X45565681Y-152172579D01*
X45565681Y-151954016D01*
X45470904Y-151900098D01*
X45337345Y-151799430D01*
X45195587Y-151678173D01*
X45076215Y-151562486D01*
X45009850Y-151478600D01*
X44958890Y-151275169D01*
X44985523Y-151059055D01*
X45032437Y-150953039D01*
X45106240Y-150861383D01*
X45223287Y-150746648D01*
X45356903Y-150631475D01*
X45480417Y-150538504D01*
X45567154Y-150490375D01*
X45580304Y-150488000D01*
X45579151Y-150527863D01*
X45538273Y-150629512D01*
X45501428Y-150703900D01*
X45407372Y-150982445D01*
X45386959Y-151292235D01*
X45440085Y-151594633D01*
X45504242Y-151750816D01*
X45560174Y-151872862D01*
X45577555Y-151944886D01*
X45565681Y-151954016D01*
X45565681Y-152172579D01*
X45608938Y-152204424D01*
X44717773Y-152241550D01*
X44369576Y-152254242D01*
X44102170Y-152258866D01*
X44102170Y-152404687D01*
X44326473Y-152410858D01*
X44760778Y-152408584D01*
X45790200Y-152393000D01*
X46399800Y-152567023D01*
X46635930Y-152636193D01*
X46836405Y-152698228D01*
X46980939Y-152746620D01*
X47049246Y-152774856D01*
X47050633Y-152775895D01*
X47023297Y-152799254D01*
X46911579Y-152832892D01*
X46731798Y-152873612D01*
X46500273Y-152918216D01*
X46233324Y-152963508D01*
X45947272Y-153006292D01*
X45727096Y-153035167D01*
X45365160Y-153057506D01*
X45365160Y-153196660D01*
X45762048Y-153180707D01*
X46473255Y-153082754D01*
X46628400Y-153053674D01*
X47236241Y-152958171D01*
X47769156Y-152923301D01*
X48225838Y-152948758D01*
X48604979Y-153034237D01*
X48905272Y-153179432D01*
X49125410Y-153384039D01*
X49264085Y-153647751D01*
X49271471Y-153670904D01*
X49295562Y-153791366D01*
X49321077Y-153989289D01*
X49345479Y-154240610D01*
X49366227Y-154521268D01*
X49372495Y-154628200D01*
X49391758Y-154914508D01*
X49416487Y-155181259D01*
X49443947Y-155404101D01*
X49471402Y-155558681D01*
X49480912Y-155593400D01*
X49574137Y-155779972D01*
X49722056Y-155974208D01*
X49899915Y-156151483D01*
X50082955Y-156287176D01*
X50241464Y-156354553D01*
X50241464Y-156152939D01*
X50102532Y-156122167D01*
X49954031Y-156017381D01*
X49809942Y-155848783D01*
X49684243Y-155626573D01*
X49672499Y-155600128D01*
X49625567Y-155475357D01*
X49590516Y-155335974D01*
X49564347Y-155161058D01*
X49544063Y-154929688D01*
X49526666Y-154620940D01*
X49523989Y-154563809D01*
X49509584Y-154292958D01*
X49493428Y-154058914D01*
X49477082Y-153880065D01*
X49462105Y-153774798D01*
X49455376Y-153755243D01*
X49425434Y-153680060D01*
X49422400Y-153644569D01*
X49452138Y-153623196D01*
X49541030Y-153683825D01*
X49604524Y-153741935D01*
X49781045Y-153939772D01*
X49935768Y-154178482D01*
X50076067Y-154473425D01*
X50209314Y-154839958D01*
X50334364Y-155262179D01*
X50411184Y-155598981D01*
X50434050Y-155853324D01*
X50403058Y-156028778D01*
X50356848Y-156099496D01*
X50241464Y-156152939D01*
X50241464Y-156354553D01*
X50246421Y-156356661D01*
X50248747Y-156357101D01*
X50489803Y-156356735D01*
X50545411Y-156333193D01*
X50545411Y-156154097D01*
X50564011Y-156073245D01*
X50591490Y-155997988D01*
X50606528Y-155861151D01*
X50583055Y-155644152D01*
X50523702Y-155359723D01*
X50431102Y-155020598D01*
X50314604Y-154658978D01*
X50177952Y-154308312D01*
X50027981Y-154027902D01*
X49846053Y-153786542D01*
X49705855Y-153639724D01*
X49586025Y-153520515D01*
X49502034Y-153432071D01*
X49473200Y-153395445D01*
X49514015Y-153408390D01*
X49621353Y-153459236D01*
X49772557Y-153537207D01*
X49782741Y-153542626D01*
X49927599Y-153630906D01*
X49927599Y-153356494D01*
X49866137Y-153356445D01*
X49829959Y-153347986D01*
X49716210Y-153310642D01*
X49549808Y-153245605D01*
X49397000Y-153180221D01*
X49173033Y-153087052D01*
X48919618Y-152991402D01*
X48762000Y-152937195D01*
X48638580Y-152898824D01*
X48511230Y-152863611D01*
X48364595Y-152828333D01*
X48183320Y-152789768D01*
X47952047Y-152744695D01*
X47655422Y-152689892D01*
X47278088Y-152622136D01*
X47161800Y-152601456D01*
X46713436Y-152500787D01*
X46353001Y-152370680D01*
X46069469Y-152204729D01*
X45851814Y-151996526D01*
X45693184Y-151748106D01*
X45598599Y-151545870D01*
X45561959Y-151415686D01*
X45589941Y-151341893D01*
X45689222Y-151308827D01*
X45866477Y-151300827D01*
X45883848Y-151300800D01*
X46206096Y-151300800D01*
X46206096Y-151148400D01*
X45548900Y-151148400D01*
X45581607Y-150983300D01*
X45628449Y-150840857D01*
X45709700Y-150668882D01*
X45754189Y-150591286D01*
X45925268Y-150373289D01*
X46151673Y-150192642D01*
X46443908Y-150044345D01*
X46812475Y-149923394D01*
X47267877Y-149824788D01*
X47415800Y-149799957D01*
X47875624Y-149722330D01*
X48258063Y-149646144D01*
X48587023Y-149564942D01*
X48886413Y-149472269D01*
X49180141Y-149361667D01*
X49422400Y-149258038D01*
X49447800Y-149247319D01*
X49447800Y-149081650D01*
X49448544Y-149080863D01*
X49448544Y-148820374D01*
X49441237Y-148773238D01*
X49444416Y-148760800D01*
X49459932Y-148666241D01*
X49478419Y-148491842D01*
X49497949Y-148259246D01*
X49516591Y-147990097D01*
X49523667Y-147871800D01*
X49543479Y-147586392D01*
X49568344Y-147321386D01*
X49595546Y-147100840D01*
X49622370Y-146948809D01*
X49631700Y-146914606D01*
X49712406Y-146748697D01*
X49836853Y-146574888D01*
X49979770Y-146422294D01*
X50115885Y-146320026D01*
X50166348Y-146298685D01*
X50294267Y-146306356D01*
X50388032Y-146398377D01*
X50435189Y-146559839D01*
X50438400Y-146624269D01*
X50420507Y-146787183D01*
X50371984Y-147017708D01*
X50300566Y-147289378D01*
X50213988Y-147575728D01*
X50119984Y-147850291D01*
X50026291Y-148086600D01*
X49984721Y-148176600D01*
X49900302Y-148325487D01*
X49796958Y-148476061D01*
X49687399Y-148614581D01*
X49584336Y-148727302D01*
X49500481Y-148800481D01*
X49448544Y-148820374D01*
X49448544Y-149080863D01*
X49733545Y-148779260D01*
X49884961Y-148607122D01*
X50020199Y-148432604D01*
X50112756Y-148290202D01*
X50120228Y-148275935D01*
X50206241Y-148078684D01*
X50304000Y-147813115D01*
X50403346Y-147510124D01*
X50494125Y-147200603D01*
X50563264Y-146928276D01*
X50606623Y-146683479D01*
X50606970Y-146502081D01*
X50591206Y-146425415D01*
X50542756Y-146256479D01*
X50672479Y-146378340D01*
X50759379Y-146482837D01*
X50786759Y-146600597D01*
X50781314Y-146703400D01*
X50753510Y-146871521D01*
X50701310Y-147099814D01*
X50631135Y-147367074D01*
X50549408Y-147652100D01*
X50462554Y-147933688D01*
X50376994Y-148190636D01*
X50299153Y-148401740D01*
X50235452Y-148545798D01*
X50211049Y-148585879D01*
X50104285Y-148689914D01*
X49941565Y-148809332D01*
X49770041Y-148911621D01*
X49447800Y-149081650D01*
X49447800Y-149247319D01*
X49597056Y-149184329D01*
X49752874Y-149125522D01*
X49828994Y-149101733D01*
X49908038Y-149088518D01*
X49941691Y-149117997D01*
X49944249Y-149213998D01*
X49939066Y-149285216D01*
X49940227Y-149442469D01*
X49987570Y-149555400D01*
X50064236Y-149642781D01*
X50206528Y-149785073D01*
X50081164Y-149882695D01*
X49958835Y-149957914D01*
X49793559Y-150021897D01*
X49573116Y-150077262D01*
X49285286Y-150126625D01*
X48917850Y-150172602D01*
X48558800Y-150208664D01*
X48073552Y-150257855D01*
X47676784Y-150309064D01*
X47355402Y-150366486D01*
X47096309Y-150434316D01*
X46886411Y-150516751D01*
X46712611Y-150617984D01*
X46561814Y-150742211D01*
X46421027Y-150893505D01*
X46206096Y-151148400D01*
X46206096Y-151300800D01*
X46421027Y-151555696D01*
X46560037Y-151705478D01*
X46708189Y-151828403D01*
X46840344Y-151906172D01*
X46840344Y-151733807D01*
X46715798Y-151655628D01*
X46575205Y-151508481D01*
X46526104Y-151444178D01*
X46439211Y-151318722D01*
X46406326Y-151238104D01*
X46421076Y-151165449D01*
X46464199Y-151086032D01*
X46567228Y-150945244D01*
X46694412Y-150814234D01*
X46698296Y-150810913D01*
X46807263Y-150734832D01*
X46890609Y-150704512D01*
X46901496Y-150705950D01*
X46928160Y-150761848D01*
X46949418Y-150892226D01*
X46964423Y-151070063D01*
X46972327Y-151268343D01*
X46972283Y-151460046D01*
X46963445Y-151618153D01*
X46944963Y-151715646D01*
X46933684Y-151732302D01*
X46840344Y-151733807D01*
X46840344Y-151906172D01*
X46878551Y-151928656D01*
X47084194Y-152010418D01*
X47338188Y-152077871D01*
X47653602Y-152135197D01*
X48043506Y-152186580D01*
X48520969Y-152236201D01*
X48558800Y-152239792D01*
X48997692Y-152285440D01*
X49347310Y-152332050D01*
X49498600Y-152359916D01*
X49498600Y-152133526D01*
X49220028Y-152125025D01*
X48893239Y-152105526D01*
X48541581Y-152077387D01*
X48188402Y-152042967D01*
X47857051Y-152004626D01*
X47570875Y-151964723D01*
X47353223Y-151925617D01*
X47288800Y-151910250D01*
X47111000Y-151862524D01*
X47111000Y-150586677D01*
X47288800Y-150538951D01*
X47528148Y-150487413D01*
X47832614Y-150441117D01*
X48183288Y-150401092D01*
X48561260Y-150368369D01*
X48947621Y-150343977D01*
X49323461Y-150328945D01*
X49669870Y-150324304D01*
X49967938Y-150331083D01*
X50159000Y-150346999D01*
X50159000Y-150038558D01*
X50292493Y-149894979D01*
X50310754Y-149872961D01*
X50310754Y-149555478D01*
X50204602Y-149550767D01*
X50120847Y-149468927D01*
X50083130Y-149334423D01*
X50082800Y-149319600D01*
X50108731Y-149192760D01*
X50158354Y-149116937D01*
X50263313Y-149070027D01*
X50341484Y-149114746D01*
X50383239Y-149242582D01*
X50387600Y-149319600D01*
X50367390Y-149484596D01*
X50310754Y-149555478D01*
X50310754Y-149872961D01*
X50398767Y-149766835D01*
X50480422Y-149645228D01*
X50486215Y-149634421D01*
X50527030Y-149505268D01*
X50548470Y-149341270D01*
X50549210Y-149316921D01*
X50561403Y-149190625D01*
X50563805Y-149184445D01*
X50563805Y-148903866D01*
X50446572Y-148890842D01*
X50394968Y-148883086D01*
X50185573Y-148849603D01*
X50324687Y-148686722D01*
X50463800Y-148523841D01*
X50545971Y-148705821D01*
X50595315Y-148824372D01*
X50616940Y-148895350D01*
X50616253Y-148902185D01*
X50563805Y-148903866D01*
X50563805Y-149184445D01*
X50588428Y-149121087D01*
X50598478Y-149116400D01*
X50674672Y-149138508D01*
X50797430Y-149193840D01*
X50935984Y-149265906D01*
X51059566Y-149338219D01*
X51137409Y-149394290D01*
X51149600Y-149411747D01*
X51112506Y-149475993D01*
X51017755Y-149577321D01*
X50890141Y-149693448D01*
X50754461Y-149802093D01*
X50635511Y-149880973D01*
X50616200Y-149891074D01*
X50455149Y-149957634D01*
X50311400Y-150002150D01*
X50159000Y-150038558D01*
X50159000Y-150346999D01*
X50198756Y-150350311D01*
X50317957Y-150374004D01*
X50447304Y-150428934D01*
X50632070Y-150527252D01*
X50844754Y-150653633D01*
X51004522Y-150756597D01*
X51215018Y-150893553D01*
X51411956Y-151015001D01*
X51570018Y-151105690D01*
X51649102Y-151144880D01*
X51816873Y-151214373D01*
X51521337Y-151374122D01*
X51326914Y-151486194D01*
X51098974Y-151627720D01*
X50886207Y-151768452D01*
X50882322Y-151771133D01*
X50658162Y-151916271D01*
X50457614Y-152018023D01*
X50253852Y-152083415D01*
X50020052Y-152119470D01*
X49729389Y-152133216D01*
X49498600Y-152133526D01*
X49498600Y-152359916D01*
X49619967Y-152382271D01*
X49827976Y-152438751D01*
X49983649Y-152504138D01*
X50082559Y-152567559D01*
X50209318Y-152666233D01*
X50064146Y-152817760D01*
X49966994Y-152940786D01*
X49934273Y-153063626D01*
X49938546Y-153174515D01*
X49946706Y-153303886D01*
X49927599Y-153356494D01*
X49927599Y-153630906D01*
X49961962Y-153651848D01*
X50119668Y-153771577D01*
X50210645Y-153863105D01*
X50264621Y-153965647D01*
X50335979Y-154145795D01*
X50418309Y-154382376D01*
X50476027Y-154562949D01*
X50476027Y-153948183D01*
X50335301Y-153780192D01*
X50194575Y-153612200D01*
X50229881Y-153604589D01*
X50229881Y-153387667D01*
X50174934Y-153349634D01*
X50102451Y-153229870D01*
X50087209Y-153083343D01*
X50131024Y-152956342D01*
X50158354Y-152926937D01*
X50263418Y-152880799D01*
X50342460Y-152925668D01*
X50384018Y-153051999D01*
X50387600Y-153117846D01*
X50368009Y-153292621D01*
X50313369Y-153384813D01*
X50229881Y-153387667D01*
X50229881Y-153604589D01*
X50376579Y-153572964D01*
X50505771Y-153550538D01*
X50588467Y-153546058D01*
X50592489Y-153546981D01*
X50592489Y-153332800D01*
X50560959Y-153287448D01*
X50542237Y-153172909D01*
X50540000Y-153108150D01*
X50522165Y-152937845D01*
X50456445Y-152786139D01*
X50370934Y-152663650D01*
X50285222Y-152540610D01*
X50241350Y-152453677D01*
X50243291Y-152427082D01*
X50308381Y-152437939D01*
X50433875Y-152483325D01*
X50552057Y-152534911D01*
X50718154Y-152627178D01*
X50883937Y-152743400D01*
X51026276Y-152864291D01*
X51122045Y-152970565D01*
X51149600Y-153033173D01*
X51108175Y-153076447D01*
X51004355Y-153143952D01*
X50868820Y-153219187D01*
X50732254Y-153285650D01*
X50625338Y-153326840D01*
X50592489Y-153332800D01*
X50592489Y-153546981D01*
X50595026Y-153547564D01*
X50600779Y-153598016D01*
X50571400Y-153707786D01*
X50553749Y-153754792D01*
X50476027Y-153948183D01*
X50476027Y-154562949D01*
X50505201Y-154654222D01*
X50590245Y-154940161D01*
X50667028Y-155219024D01*
X50729143Y-155469641D01*
X50770177Y-155670841D01*
X50780733Y-155745800D01*
X50782370Y-155897146D01*
X50735357Y-156003403D01*
X50671102Y-156072156D01*
X50578945Y-156151718D01*
X50545411Y-156154097D01*
X50545411Y-156333193D01*
X50697977Y-156268602D01*
X50850619Y-156105449D01*
X50914108Y-155971143D01*
X50939455Y-155823520D01*
X50925855Y-155640681D01*
X50872500Y-155400725D01*
X50817595Y-155208653D01*
X50704915Y-154788037D01*
X50643742Y-154441051D01*
X50632522Y-154154679D01*
X50665256Y-153932506D01*
X50732704Y-153731581D01*
X50830297Y-153564792D01*
X50973916Y-153416357D01*
X51179439Y-153270496D01*
X51342744Y-153178806D01*
X51342744Y-152983740D01*
X51168664Y-152780366D01*
X50981053Y-152611779D01*
X50723051Y-152450644D01*
X50425262Y-152315469D01*
X50362200Y-152292687D01*
X50317339Y-152266437D01*
X50343752Y-152233755D01*
X50452714Y-152184287D01*
X50500552Y-152165634D01*
X50665731Y-152087850D01*
X50867200Y-151972728D01*
X51059352Y-151846552D01*
X51355393Y-151649897D01*
X51627131Y-151496639D01*
X51858480Y-151394786D01*
X52033357Y-151352347D01*
X52051658Y-151351667D01*
X52051658Y-151091744D01*
X51873272Y-151059527D01*
X51649115Y-150965065D01*
X51369878Y-150805507D01*
X51052286Y-150595984D01*
X50861295Y-150471368D01*
X50679858Y-150364886D01*
X50539266Y-150294555D01*
X50508214Y-150282693D01*
X50394933Y-150236535D01*
X50338287Y-150196270D01*
X50336800Y-150191185D01*
X50380470Y-150156388D01*
X50492928Y-150103758D01*
X50597792Y-150063552D01*
X50865761Y-149923701D01*
X51107885Y-149721754D01*
X51356988Y-149472652D01*
X51661196Y-149626215D01*
X51961565Y-149810750D01*
X52196204Y-150022119D01*
X52359635Y-150248856D01*
X52446379Y-150479490D01*
X52450957Y-150702555D01*
X52367889Y-150906582D01*
X52308364Y-150980858D01*
X52193586Y-151064570D01*
X52051658Y-151091744D01*
X52051658Y-151351667D01*
X52053457Y-151351600D01*
X52214891Y-151398463D01*
X52351660Y-151523308D01*
X52439869Y-151702519D01*
X52449659Y-151743195D01*
X52446572Y-151977402D01*
X52352152Y-152217023D01*
X52175170Y-152450112D01*
X51924400Y-152664722D01*
X51654074Y-152826581D01*
X51342744Y-152983740D01*
X51342744Y-153178806D01*
X51462746Y-153111428D01*
X51522618Y-153080487D01*
X52060445Y-152805125D01*
X52354323Y-152895999D01*
X52809380Y-153081130D01*
X53258335Y-153345661D01*
X53673500Y-153669712D01*
X54027190Y-154033403D01*
X54140002Y-154178260D01*
X54257105Y-154327956D01*
X54257105Y-154017199D01*
X53924929Y-153691133D01*
X53589836Y-153389426D01*
X53249607Y-153144426D01*
X52875262Y-152938650D01*
X52437825Y-152754615D01*
X52275473Y-152695950D01*
X52250062Y-152656762D01*
X52295209Y-152571886D01*
X52346671Y-152507196D01*
X52455975Y-152356719D01*
X52544662Y-152200272D01*
X52554980Y-152177100D01*
X52611809Y-152067334D01*
X52661079Y-152013201D01*
X52666706Y-152012000D01*
X52724453Y-152040765D01*
X52840309Y-152117209D01*
X52992244Y-152226559D01*
X53039560Y-152262052D01*
X53455045Y-152637675D01*
X53807893Y-153081976D01*
X54082272Y-153573838D01*
X54156132Y-153751459D01*
X54257105Y-154017199D01*
X54257105Y-154327956D01*
X54295368Y-154376869D01*
X54406761Y-154484074D01*
X54473903Y-154500191D01*
X54496516Y-154425540D01*
X54474322Y-154260439D01*
G37*
X54474322Y-154260439D02*
X54407044Y-154005208D01*
X54376700Y-153906923D01*
X54156139Y-153374338D01*
X53847469Y-152875211D01*
X53462739Y-152425925D01*
X53013995Y-152042860D01*
X52996847Y-152030546D01*
X52787993Y-151862162D01*
X52635860Y-151699832D01*
X52580147Y-151612786D01*
X52502220Y-151461945D01*
X52428397Y-151331803D01*
X52418780Y-151316342D01*
X52374927Y-151221662D01*
X52401902Y-151146331D01*
X52429496Y-151113142D01*
X52503898Y-151004073D01*
X52578094Y-150858502D01*
X52585994Y-150839889D01*
X52670556Y-150712623D01*
X52670556Y-150437200D01*
X52627879Y-150395530D01*
X52562579Y-150289460D01*
X52524450Y-150215314D01*
X52438098Y-150061370D01*
X52346991Y-149934699D01*
X52315518Y-149901554D01*
X52255876Y-149835416D01*
X52256611Y-149784163D01*
X52329339Y-149735162D01*
X52485677Y-149675778D01*
X52539798Y-149657626D01*
X52968795Y-149470951D01*
X53402870Y-149197202D01*
X53823574Y-148848145D01*
X53853315Y-148819983D01*
X54255792Y-148435458D01*
X54155475Y-148699470D01*
X53912938Y-149200730D01*
X53586496Y-149662672D01*
X53192266Y-150063809D01*
X53039560Y-150187149D01*
X52881886Y-150303147D01*
X52754614Y-150390552D01*
X52679494Y-150434628D01*
X52670556Y-150437200D01*
X52670556Y-150712623D01*
X52694444Y-150676671D01*
X52894701Y-150494546D01*
X52991977Y-150422130D01*
X53410802Y-150071871D01*
X53778836Y-149661472D01*
X54084207Y-149209008D01*
X54315042Y-148732552D01*
X54459468Y-148250177D01*
X54475408Y-148163900D01*
X54485209Y-148011624D01*
X54452268Y-147948438D01*
X54381422Y-147973667D01*
X54277512Y-148086633D01*
X54197052Y-148202855D01*
X53943398Y-148526527D01*
X53613234Y-148839691D01*
X53231343Y-149123956D01*
X52822509Y-149360931D01*
X52411517Y-149532226D01*
X52400918Y-149535672D01*
X52052036Y-149648252D01*
X51518118Y-149369626D01*
X51191956Y-149184981D01*
X50952654Y-149010470D01*
X50788745Y-148830637D01*
X50688764Y-148630026D01*
X50641246Y-148393178D01*
X50633192Y-148176600D01*
X50652221Y-147965056D01*
X50701609Y-147693141D01*
X50774895Y-147395175D01*
X50791002Y-147338400D01*
X50876658Y-147023014D01*
X50925602Y-146784103D01*
X50938808Y-146603792D01*
X50917245Y-146464201D01*
X50861886Y-146347454D01*
X50846119Y-146324252D01*
X50675592Y-146159870D01*
X50470810Y-146085409D01*
X50244751Y-146100835D01*
X50010394Y-146206116D01*
X49855394Y-146326724D01*
X49700946Y-146487076D01*
X49583755Y-146657499D01*
X49497928Y-146856086D01*
X49437575Y-147100927D01*
X49396802Y-147410115D01*
X49369719Y-147801742D01*
X49368757Y-147821000D01*
X49346873Y-148191639D01*
X49319787Y-148477768D01*
X49283407Y-148696471D01*
X49233636Y-148864834D01*
X49166380Y-148999940D01*
X49077544Y-149118875D01*
X49050388Y-149149277D01*
X48838395Y-149310767D01*
X48546517Y-149428830D01*
X48187437Y-149501918D01*
X47773836Y-149528487D01*
X47318395Y-149506991D01*
X46833797Y-149435884D01*
X46782712Y-149425677D01*
X46486584Y-149370345D01*
X46154924Y-149316607D01*
X45844276Y-149273391D01*
X45743692Y-149261606D01*
X45095000Y-149236521D01*
X44456797Y-149300049D01*
X43843212Y-149448481D01*
X43268373Y-149678104D01*
X42746410Y-149985210D01*
X42612563Y-150083879D01*
X42459094Y-150210064D01*
X42278282Y-150370189D01*
X42084907Y-150549728D01*
X41893745Y-150734154D01*
X41719576Y-150908940D01*
X41577178Y-151059560D01*
X41481329Y-151171486D01*
X41446800Y-151229801D01*
X41481650Y-151284190D01*
X41577382Y-151393873D01*
X41720768Y-151544643D01*
X41898582Y-151722292D01*
X41968029Y-151789661D01*
X42309047Y-152105348D01*
X42613036Y-152356383D01*
X42903558Y-152559667D01*
X43204174Y-152732103D01*
X43443625Y-152848257D01*
X43962305Y-153041172D01*
X44515590Y-153160498D01*
X45112499Y-153206815D01*
X45365160Y-153196660D01*
X45365160Y-153057506D01*
X44959294Y-153046689D01*
X44547645Y-153006151D01*
X44168360Y-152939325D01*
X43924774Y-152872921D01*
X43542089Y-152719104D01*
X43143321Y-152513828D01*
X42772425Y-152281265D01*
X42564559Y-152124822D01*
X42426232Y-152007825D01*
X42327140Y-151917968D01*
X42285718Y-151872103D01*
X42285718Y-151869918D01*
X42332739Y-151885034D01*
X42445226Y-151938873D01*
X42600116Y-152020303D01*
X42621817Y-152032146D01*
X42870692Y-152158948D01*
X43108473Y-152255844D01*
X43354051Y-152326159D01*
X43626316Y-152373216D01*
X43944160Y-152400341D01*
X44102170Y-152404687D01*
X44102170Y-152258866D01*
X43895008Y-152254664D01*
X43727543Y-152240879D01*
X43579229Y-152216752D01*
X43487604Y-152196201D01*
X43070546Y-152058673D01*
X42631261Y-151848637D01*
X42199514Y-151580876D01*
X42090502Y-151502390D01*
X41937468Y-151387778D01*
X41840446Y-151300848D01*
X41804084Y-151226881D01*
X41833030Y-151151159D01*
X41931931Y-151058961D01*
X42105437Y-150935568D01*
X42301374Y-150804320D01*
X42301374Y-150554040D01*
X42345188Y-150504435D01*
X42469674Y-150402918D01*
X42676170Y-150247347D01*
X42801114Y-150155546D01*
X43200236Y-149904322D01*
X43654192Y-149685909D01*
X44116846Y-149521852D01*
X44215400Y-149495146D01*
X44546715Y-149437183D01*
X44949330Y-149408971D01*
X45397545Y-149410034D01*
X45865661Y-149439899D01*
X46327978Y-149498090D01*
X46552200Y-149538313D01*
X47161800Y-149660178D01*
X46933200Y-149722559D01*
X46778544Y-149765964D01*
X46564605Y-149827545D01*
X46329428Y-149896318D01*
X46247400Y-149920571D01*
X46087390Y-149966690D01*
X45949852Y-150000669D01*
X45815493Y-150024067D01*
X45665022Y-150038441D01*
X45479145Y-150045352D01*
X45238569Y-150046356D01*
X44924001Y-150043013D01*
X44761246Y-150040628D01*
X44335113Y-150036967D01*
X43990699Y-150042622D01*
X43708290Y-150061054D01*
X43468175Y-150095722D01*
X43250640Y-150150086D01*
X43035973Y-150227605D01*
X42804461Y-150331740D01*
X42640600Y-150412814D01*
X42450417Y-150506087D01*
X42336896Y-150553877D01*
X42301374Y-150554040D01*
X42301374Y-150804320D01*
X42313504Y-150796194D01*
X42648421Y-150585641D01*
X42956651Y-150426056D01*
X43259553Y-150312421D01*
X43578485Y-150239717D01*
X43934806Y-150202925D01*
X44349875Y-150197026D01*
X44791320Y-150213984D01*
X45621240Y-150259400D01*
X45308849Y-150479287D01*
X45058784Y-150680148D01*
X44897757Y-150873110D01*
X44815743Y-151072853D01*
X44799980Y-151224600D01*
X44833480Y-151439229D01*
X44940338Y-151639956D01*
X45130093Y-151841069D01*
X45304633Y-151980407D01*
X45565681Y-152172579D01*
X45565681Y-151954016D01*
X45470904Y-151900098D01*
X45337345Y-151799430D01*
X45195587Y-151678173D01*
X45076215Y-151562486D01*
X45009850Y-151478600D01*
X44958890Y-151275169D01*
X44985523Y-151059055D01*
X45032437Y-150953039D01*
X45106240Y-150861383D01*
X45223287Y-150746648D01*
X45356903Y-150631475D01*
X45480417Y-150538504D01*
X45567154Y-150490375D01*
X45580304Y-150488000D01*
X45579151Y-150527863D01*
X45538273Y-150629512D01*
X45501428Y-150703900D01*
X45407372Y-150982445D01*
X45386959Y-151292235D01*
X45440085Y-151594633D01*
X45504242Y-151750816D01*
X45560174Y-151872862D01*
X45577555Y-151944886D01*
X45565681Y-151954016D01*
X45565681Y-152172579D01*
X45608938Y-152204424D01*
X44717773Y-152241550D01*
X44369576Y-152254242D01*
X44102170Y-152258866D01*
X44102170Y-152404687D01*
X44326473Y-152410858D01*
X44760778Y-152408584D01*
X45790200Y-152393000D01*
X46399800Y-152567023D01*
X46635930Y-152636193D01*
X46836405Y-152698228D01*
X46980939Y-152746620D01*
X47049246Y-152774856D01*
X47050633Y-152775895D01*
X47023297Y-152799254D01*
X46911579Y-152832892D01*
X46731798Y-152873612D01*
X46500273Y-152918216D01*
X46233324Y-152963508D01*
X45947272Y-153006292D01*
X45727096Y-153035167D01*
X45365160Y-153057506D01*
X45365160Y-153196660D01*
X45762048Y-153180707D01*
X46473255Y-153082754D01*
X46628400Y-153053674D01*
X47236241Y-152958171D01*
X47769156Y-152923301D01*
X48225838Y-152948758D01*
X48604979Y-153034237D01*
X48905272Y-153179432D01*
X49125410Y-153384039D01*
X49264085Y-153647751D01*
X49271471Y-153670904D01*
X49295562Y-153791366D01*
X49321077Y-153989289D01*
X49345479Y-154240610D01*
X49366227Y-154521268D01*
X49372495Y-154628200D01*
X49391758Y-154914508D01*
X49416487Y-155181259D01*
X49443947Y-155404101D01*
X49471402Y-155558681D01*
X49480912Y-155593400D01*
X49574137Y-155779972D01*
X49722056Y-155974208D01*
X49899915Y-156151483D01*
X50082955Y-156287176D01*
X50241464Y-156354553D01*
X50241464Y-156152939D01*
X50102532Y-156122167D01*
X49954031Y-156017381D01*
X49809942Y-155848783D01*
X49684243Y-155626573D01*
X49672499Y-155600128D01*
X49625567Y-155475357D01*
X49590516Y-155335974D01*
X49564347Y-155161058D01*
X49544063Y-154929688D01*
X49526666Y-154620940D01*
X49523989Y-154563809D01*
X49509584Y-154292958D01*
X49493428Y-154058914D01*
X49477082Y-153880065D01*
X49462105Y-153774798D01*
X49455376Y-153755243D01*
X49425434Y-153680060D01*
X49422400Y-153644569D01*
X49452138Y-153623196D01*
X49541030Y-153683825D01*
X49604524Y-153741935D01*
X49781045Y-153939772D01*
X49935768Y-154178482D01*
X50076067Y-154473425D01*
X50209314Y-154839958D01*
X50334364Y-155262179D01*
X50411184Y-155598981D01*
X50434050Y-155853324D01*
X50403058Y-156028778D01*
X50356848Y-156099496D01*
X50241464Y-156152939D01*
X50241464Y-156354553D01*
X50246421Y-156356661D01*
X50248747Y-156357101D01*
X50489803Y-156356735D01*
X50545411Y-156333193D01*
X50545411Y-156154097D01*
X50564011Y-156073245D01*
X50591490Y-155997988D01*
X50606528Y-155861151D01*
X50583055Y-155644152D01*
X50523702Y-155359723D01*
X50431102Y-155020598D01*
X50314604Y-154658978D01*
X50177952Y-154308312D01*
X50027981Y-154027902D01*
X49846053Y-153786542D01*
X49705855Y-153639724D01*
X49586025Y-153520515D01*
X49502034Y-153432071D01*
X49473200Y-153395445D01*
X49514015Y-153408390D01*
X49621353Y-153459236D01*
X49772557Y-153537207D01*
X49782741Y-153542626D01*
X49927599Y-153630906D01*
X49927599Y-153356494D01*
X49866137Y-153356445D01*
X49829959Y-153347986D01*
X49716210Y-153310642D01*
X49549808Y-153245605D01*
X49397000Y-153180221D01*
X49173033Y-153087052D01*
X48919618Y-152991402D01*
X48762000Y-152937195D01*
X48638580Y-152898824D01*
X48511230Y-152863611D01*
X48364595Y-152828333D01*
X48183320Y-152789768D01*
X47952047Y-152744695D01*
X47655422Y-152689892D01*
X47278088Y-152622136D01*
X47161800Y-152601456D01*
X46713436Y-152500787D01*
X46353001Y-152370680D01*
X46069469Y-152204729D01*
X45851814Y-151996526D01*
X45693184Y-151748106D01*
X45598599Y-151545870D01*
X45561959Y-151415686D01*
X45589941Y-151341893D01*
X45689222Y-151308827D01*
X45866477Y-151300827D01*
X45883848Y-151300800D01*
X46206096Y-151300800D01*
X46206096Y-151148400D01*
X45548900Y-151148400D01*
X45581607Y-150983300D01*
X45628449Y-150840857D01*
X45709700Y-150668882D01*
X45754189Y-150591286D01*
X45925268Y-150373289D01*
X46151673Y-150192642D01*
X46443908Y-150044345D01*
X46812475Y-149923394D01*
X47267877Y-149824788D01*
X47415800Y-149799957D01*
X47875624Y-149722330D01*
X48258063Y-149646144D01*
X48587023Y-149564942D01*
X48886413Y-149472269D01*
X49180141Y-149361667D01*
X49422400Y-149258038D01*
X49447800Y-149247319D01*
X49447800Y-149081650D01*
X49448544Y-149080863D01*
X49448544Y-148820374D01*
X49441237Y-148773238D01*
X49444416Y-148760800D01*
X49459932Y-148666241D01*
X49478419Y-148491842D01*
X49497949Y-148259246D01*
X49516591Y-147990097D01*
X49523667Y-147871800D01*
X49543479Y-147586392D01*
X49568344Y-147321386D01*
X49595546Y-147100840D01*
X49622370Y-146948809D01*
X49631700Y-146914606D01*
X49712406Y-146748697D01*
X49836853Y-146574888D01*
X49979770Y-146422294D01*
X50115885Y-146320026D01*
X50166348Y-146298685D01*
X50294267Y-146306356D01*
X50388032Y-146398377D01*
X50435189Y-146559839D01*
X50438400Y-146624269D01*
X50420507Y-146787183D01*
X50371984Y-147017708D01*
X50300566Y-147289378D01*
X50213988Y-147575728D01*
X50119984Y-147850291D01*
X50026291Y-148086600D01*
X49984721Y-148176600D01*
X49900302Y-148325487D01*
X49796958Y-148476061D01*
X49687399Y-148614581D01*
X49584336Y-148727302D01*
X49500481Y-148800481D01*
X49448544Y-148820374D01*
X49448544Y-149080863D01*
X49733545Y-148779260D01*
X49884961Y-148607122D01*
X50020199Y-148432604D01*
X50112756Y-148290202D01*
X50120228Y-148275935D01*
X50206241Y-148078684D01*
X50304000Y-147813115D01*
X50403346Y-147510124D01*
X50494125Y-147200603D01*
X50563264Y-146928276D01*
X50606623Y-146683479D01*
X50606970Y-146502081D01*
X50591206Y-146425415D01*
X50542756Y-146256479D01*
X50672479Y-146378340D01*
X50759379Y-146482837D01*
X50786759Y-146600597D01*
X50781314Y-146703400D01*
X50753510Y-146871521D01*
X50701310Y-147099814D01*
X50631135Y-147367074D01*
X50549408Y-147652100D01*
X50462554Y-147933688D01*
X50376994Y-148190636D01*
X50299153Y-148401740D01*
X50235452Y-148545798D01*
X50211049Y-148585879D01*
X50104285Y-148689914D01*
X49941565Y-148809332D01*
X49770041Y-148911621D01*
X49447800Y-149081650D01*
X49447800Y-149247319D01*
X49597056Y-149184329D01*
X49752874Y-149125522D01*
X49828994Y-149101733D01*
X49908038Y-149088518D01*
X49941691Y-149117997D01*
X49944249Y-149213998D01*
X49939066Y-149285216D01*
X49940227Y-149442469D01*
X49987570Y-149555400D01*
X50064236Y-149642781D01*
X50206528Y-149785073D01*
X50081164Y-149882695D01*
X49958835Y-149957914D01*
X49793559Y-150021897D01*
X49573116Y-150077262D01*
X49285286Y-150126625D01*
X48917850Y-150172602D01*
X48558800Y-150208664D01*
X48073552Y-150257855D01*
X47676784Y-150309064D01*
X47355402Y-150366486D01*
X47096309Y-150434316D01*
X46886411Y-150516751D01*
X46712611Y-150617984D01*
X46561814Y-150742211D01*
X46421027Y-150893505D01*
X46206096Y-151148400D01*
X46206096Y-151300800D01*
X46421027Y-151555696D01*
X46560037Y-151705478D01*
X46708189Y-151828403D01*
X46840344Y-151906172D01*
X46840344Y-151733807D01*
X46715798Y-151655628D01*
X46575205Y-151508481D01*
X46526104Y-151444178D01*
X46439211Y-151318722D01*
X46406326Y-151238104D01*
X46421076Y-151165449D01*
X46464199Y-151086032D01*
X46567228Y-150945244D01*
X46694412Y-150814234D01*
X46698296Y-150810913D01*
X46807263Y-150734832D01*
X46890609Y-150704512D01*
X46901496Y-150705950D01*
X46928160Y-150761848D01*
X46949418Y-150892226D01*
X46964423Y-151070063D01*
X46972327Y-151268343D01*
X46972283Y-151460046D01*
X46963445Y-151618153D01*
X46944963Y-151715646D01*
X46933684Y-151732302D01*
X46840344Y-151733807D01*
X46840344Y-151906172D01*
X46878551Y-151928656D01*
X47084194Y-152010418D01*
X47338188Y-152077871D01*
X47653602Y-152135197D01*
X48043506Y-152186580D01*
X48520969Y-152236201D01*
X48558800Y-152239792D01*
X48997692Y-152285440D01*
X49347310Y-152332050D01*
X49498600Y-152359916D01*
X49498600Y-152133526D01*
X49220028Y-152125025D01*
X48893239Y-152105526D01*
X48541581Y-152077387D01*
X48188402Y-152042967D01*
X47857051Y-152004626D01*
X47570875Y-151964723D01*
X47353223Y-151925617D01*
X47288800Y-151910250D01*
X47111000Y-151862524D01*
X47111000Y-150586677D01*
X47288800Y-150538951D01*
X47528148Y-150487413D01*
X47832614Y-150441117D01*
X48183288Y-150401092D01*
X48561260Y-150368369D01*
X48947621Y-150343977D01*
X49323461Y-150328945D01*
X49669870Y-150324304D01*
X49967938Y-150331083D01*
X50159000Y-150346999D01*
X50159000Y-150038558D01*
X50292493Y-149894979D01*
X50310754Y-149872961D01*
X50310754Y-149555478D01*
X50204602Y-149550767D01*
X50120847Y-149468927D01*
X50083130Y-149334423D01*
X50082800Y-149319600D01*
X50108731Y-149192760D01*
X50158354Y-149116937D01*
X50263313Y-149070027D01*
X50341484Y-149114746D01*
X50383239Y-149242582D01*
X50387600Y-149319600D01*
X50367390Y-149484596D01*
X50310754Y-149555478D01*
X50310754Y-149872961D01*
X50398767Y-149766835D01*
X50480422Y-149645228D01*
X50486215Y-149634421D01*
X50527030Y-149505268D01*
X50548470Y-149341270D01*
X50549210Y-149316921D01*
X50561403Y-149190625D01*
X50563805Y-149184445D01*
X50563805Y-148903866D01*
X50446572Y-148890842D01*
X50394968Y-148883086D01*
X50185573Y-148849603D01*
X50324687Y-148686722D01*
X50463800Y-148523841D01*
X50545971Y-148705821D01*
X50595315Y-148824372D01*
X50616940Y-148895350D01*
X50616253Y-148902185D01*
X50563805Y-148903866D01*
X50563805Y-149184445D01*
X50588428Y-149121087D01*
X50598478Y-149116400D01*
X50674672Y-149138508D01*
X50797430Y-149193840D01*
X50935984Y-149265906D01*
X51059566Y-149338219D01*
X51137409Y-149394290D01*
X51149600Y-149411747D01*
X51112506Y-149475993D01*
X51017755Y-149577321D01*
X50890141Y-149693448D01*
X50754461Y-149802093D01*
X50635511Y-149880973D01*
X50616200Y-149891074D01*
X50455149Y-149957634D01*
X50311400Y-150002150D01*
X50159000Y-150038558D01*
X50159000Y-150346999D01*
X50198756Y-150350311D01*
X50317957Y-150374004D01*
X50447304Y-150428934D01*
X50632070Y-150527252D01*
X50844754Y-150653633D01*
X51004522Y-150756597D01*
X51215018Y-150893553D01*
X51411956Y-151015001D01*
X51570018Y-151105690D01*
X51649102Y-151144880D01*
X51816873Y-151214373D01*
X51521337Y-151374122D01*
X51326914Y-151486194D01*
X51098974Y-151627720D01*
X50886207Y-151768452D01*
X50882322Y-151771133D01*
X50658162Y-151916271D01*
X50457614Y-152018023D01*
X50253852Y-152083415D01*
X50020052Y-152119470D01*
X49729389Y-152133216D01*
X49498600Y-152133526D01*
X49498600Y-152359916D01*
X49619967Y-152382271D01*
X49827976Y-152438751D01*
X49983649Y-152504138D01*
X50082559Y-152567559D01*
X50209318Y-152666233D01*
X50064146Y-152817760D01*
X49966994Y-152940786D01*
X49934273Y-153063626D01*
X49938546Y-153174515D01*
X49946706Y-153303886D01*
X49927599Y-153356494D01*
X49927599Y-153630906D01*
X49961962Y-153651848D01*
X50119668Y-153771577D01*
X50210645Y-153863105D01*
X50264621Y-153965647D01*
X50335979Y-154145795D01*
X50418309Y-154382376D01*
X50476027Y-154562949D01*
X50476027Y-153948183D01*
X50335301Y-153780192D01*
X50194575Y-153612200D01*
X50229881Y-153604589D01*
X50229881Y-153387667D01*
X50174934Y-153349634D01*
X50102451Y-153229870D01*
X50087209Y-153083343D01*
X50131024Y-152956342D01*
X50158354Y-152926937D01*
X50263418Y-152880799D01*
X50342460Y-152925668D01*
X50384018Y-153051999D01*
X50387600Y-153117846D01*
X50368009Y-153292621D01*
X50313369Y-153384813D01*
X50229881Y-153387667D01*
X50229881Y-153604589D01*
X50376579Y-153572964D01*
X50505771Y-153550538D01*
X50588467Y-153546058D01*
X50592489Y-153546981D01*
X50592489Y-153332800D01*
X50560959Y-153287448D01*
X50542237Y-153172909D01*
X50540000Y-153108150D01*
X50522165Y-152937845D01*
X50456445Y-152786139D01*
X50370934Y-152663650D01*
X50285222Y-152540610D01*
X50241350Y-152453677D01*
X50243291Y-152427082D01*
X50308381Y-152437939D01*
X50433875Y-152483325D01*
X50552057Y-152534911D01*
X50718154Y-152627178D01*
X50883937Y-152743400D01*
X51026276Y-152864291D01*
X51122045Y-152970565D01*
X51149600Y-153033173D01*
X51108175Y-153076447D01*
X51004355Y-153143952D01*
X50868820Y-153219187D01*
X50732254Y-153285650D01*
X50625338Y-153326840D01*
X50592489Y-153332800D01*
X50592489Y-153546981D01*
X50595026Y-153547564D01*
X50600779Y-153598016D01*
X50571400Y-153707786D01*
X50553749Y-153754792D01*
X50476027Y-153948183D01*
X50476027Y-154562949D01*
X50505201Y-154654222D01*
X50590245Y-154940161D01*
X50667028Y-155219024D01*
X50729143Y-155469641D01*
X50770177Y-155670841D01*
X50780733Y-155745800D01*
X50782370Y-155897146D01*
X50735357Y-156003403D01*
X50671102Y-156072156D01*
X50578945Y-156151718D01*
X50545411Y-156154097D01*
X50545411Y-156333193D01*
X50697977Y-156268602D01*
X50850619Y-156105449D01*
X50914108Y-155971143D01*
X50939455Y-155823520D01*
X50925855Y-155640681D01*
X50872500Y-155400725D01*
X50817595Y-155208653D01*
X50704915Y-154788037D01*
X50643742Y-154441051D01*
X50632522Y-154154679D01*
X50665256Y-153932506D01*
X50732704Y-153731581D01*
X50830297Y-153564792D01*
X50973916Y-153416357D01*
X51179439Y-153270496D01*
X51342744Y-153178806D01*
X51342744Y-152983740D01*
X51168664Y-152780366D01*
X50981053Y-152611779D01*
X50723051Y-152450644D01*
X50425262Y-152315469D01*
X50362200Y-152292687D01*
X50317339Y-152266437D01*
X50343752Y-152233755D01*
X50452714Y-152184287D01*
X50500552Y-152165634D01*
X50665731Y-152087850D01*
X50867200Y-151972728D01*
X51059352Y-151846552D01*
X51355393Y-151649897D01*
X51627131Y-151496639D01*
X51858480Y-151394786D01*
X52033357Y-151352347D01*
X52051658Y-151351667D01*
X52051658Y-151091744D01*
X51873272Y-151059527D01*
X51649115Y-150965065D01*
X51369878Y-150805507D01*
X51052286Y-150595984D01*
X50861295Y-150471368D01*
X50679858Y-150364886D01*
X50539266Y-150294555D01*
X50508214Y-150282693D01*
X50394933Y-150236535D01*
X50338287Y-150196270D01*
X50336800Y-150191185D01*
X50380470Y-150156388D01*
X50492928Y-150103758D01*
X50597792Y-150063552D01*
X50865761Y-149923701D01*
X51107885Y-149721754D01*
X51356988Y-149472652D01*
X51661196Y-149626215D01*
X51961565Y-149810750D01*
X52196204Y-150022119D01*
X52359635Y-150248856D01*
X52446379Y-150479490D01*
X52450957Y-150702555D01*
X52367889Y-150906582D01*
X52308364Y-150980858D01*
X52193586Y-151064570D01*
X52051658Y-151091744D01*
X52051658Y-151351667D01*
X52053457Y-151351600D01*
X52214891Y-151398463D01*
X52351660Y-151523308D01*
X52439869Y-151702519D01*
X52449659Y-151743195D01*
X52446572Y-151977402D01*
X52352152Y-152217023D01*
X52175170Y-152450112D01*
X51924400Y-152664722D01*
X51654074Y-152826581D01*
X51342744Y-152983740D01*
X51342744Y-153178806D01*
X51462746Y-153111428D01*
X51522618Y-153080487D01*
X52060445Y-152805125D01*
X52354323Y-152895999D01*
X52809380Y-153081130D01*
X53258335Y-153345661D01*
X53673500Y-153669712D01*
X54027190Y-154033403D01*
X54140002Y-154178260D01*
X54257105Y-154327956D01*
X54257105Y-154017199D01*
X53924929Y-153691133D01*
X53589836Y-153389426D01*
X53249607Y-153144426D01*
X52875262Y-152938650D01*
X52437825Y-152754615D01*
X52275473Y-152695950D01*
X52250062Y-152656762D01*
X52295209Y-152571886D01*
X52346671Y-152507196D01*
X52455975Y-152356719D01*
X52544662Y-152200272D01*
X52554980Y-152177100D01*
X52611809Y-152067334D01*
X52661079Y-152013201D01*
X52666706Y-152012000D01*
X52724453Y-152040765D01*
X52840309Y-152117209D01*
X52992244Y-152226559D01*
X53039560Y-152262052D01*
X53455045Y-152637675D01*
X53807893Y-153081976D01*
X54082272Y-153573838D01*
X54156132Y-153751459D01*
X54257105Y-154017199D01*
X54257105Y-154327956D01*
X54295368Y-154376869D01*
X54406761Y-154484074D01*
X54473903Y-154500191D01*
X54496516Y-154425540D01*
X54474322Y-154260439D01*
D10*
%TO.C,C10*%
X100140580Y-132990000D02*
X99859420Y-132990000D01*
X100140580Y-134010000D02*
X99859420Y-134010000D01*
D12*
%TO.C,R12*%
X87230000Y-169540000D02*
X104230000Y-169540000D01*
X87230000Y-141540000D02*
X104230000Y-141540000D01*
X104230000Y-141540000D02*
X104230000Y-169540000D01*
X87230000Y-141540000D02*
X87230000Y-169540000D01*
D10*
%TO.C,C6*%
X116140580Y-157740000D02*
X115859420Y-157740000D01*
X116140580Y-158760000D02*
X115859420Y-158760000D01*
%TO.C,C3*%
X75510000Y-155140580D02*
X75510000Y-154859420D01*
X74490000Y-155140580D02*
X74490000Y-154859420D01*
%TO.C,R3*%
D12*
X95166666Y-112882380D02*
X95500000Y-112406190D01*
X95738095Y-112882380D02*
X95738095Y-111882380D01*
X95357142Y-111882380D01*
X95261904Y-111930000D01*
X95214285Y-111977619D01*
X95166666Y-112072857D01*
X95166666Y-112215714D01*
X95214285Y-112310952D01*
X95261904Y-112358571D01*
X95357142Y-112406190D01*
X95738095Y-112406190D01*
X94833333Y-111882380D02*
X94214285Y-111882380D01*
X94547619Y-112263333D01*
X94404761Y-112263333D01*
X94309523Y-112310952D01*
X94261904Y-112358571D01*
X94214285Y-112453809D01*
X94214285Y-112691904D01*
X94261904Y-112787142D01*
X94309523Y-112834761D01*
X94404761Y-112882380D01*
X94690476Y-112882380D01*
X94785714Y-112834761D01*
X94833333Y-112787142D01*
%TO.C,U1*%
X145602380Y-126088095D02*
X146411904Y-126088095D01*
X146507142Y-126135714D01*
X146554761Y-126183333D01*
X146602380Y-126278571D01*
X146602380Y-126469047D01*
X146554761Y-126564285D01*
X146507142Y-126611904D01*
X146411904Y-126659523D01*
X145602380Y-126659523D01*
X146602380Y-127659523D02*
X146602380Y-127088095D01*
X146602380Y-127373809D02*
X145602380Y-127373809D01*
X145745238Y-127278571D01*
X145840476Y-127183333D01*
X145888095Y-127088095D01*
%TO.C,U2*%
X129852380Y-115838095D02*
X130661904Y-115838095D01*
X130757142Y-115885714D01*
X130804761Y-115933333D01*
X130852380Y-116028571D01*
X130852380Y-116219047D01*
X130804761Y-116314285D01*
X130757142Y-116361904D01*
X130661904Y-116409523D01*
X129852380Y-116409523D01*
X129947619Y-116838095D02*
X129900000Y-116885714D01*
X129852380Y-116980952D01*
X129852380Y-117219047D01*
X129900000Y-117314285D01*
X129947619Y-117361904D01*
X130042857Y-117409523D01*
X130138095Y-117409523D01*
X130280952Y-117361904D01*
X130852380Y-116790476D01*
X130852380Y-117409523D01*
%TO.C,U9*%
X55852380Y-115838095D02*
X56661904Y-115838095D01*
X56757142Y-115885714D01*
X56804761Y-115933333D01*
X56852380Y-116028571D01*
X56852380Y-116219047D01*
X56804761Y-116314285D01*
X56757142Y-116361904D01*
X56661904Y-116409523D01*
X55852380Y-116409523D01*
X56852380Y-116933333D02*
X56852380Y-117123809D01*
X56804761Y-117219047D01*
X56757142Y-117266666D01*
X56614285Y-117361904D01*
X56423809Y-117409523D01*
X56042857Y-117409523D01*
X55947619Y-117361904D01*
X55900000Y-117314285D01*
X55852380Y-117219047D01*
X55852380Y-117028571D01*
X55900000Y-116933333D01*
X55947619Y-116885714D01*
X56042857Y-116838095D01*
X56280952Y-116838095D01*
X56376190Y-116885714D01*
X56423809Y-116933333D01*
X56471428Y-117028571D01*
X56471428Y-117219047D01*
X56423809Y-117314285D01*
X56376190Y-117361904D01*
X56280952Y-117409523D01*
%TO.C,U3*%
X118102380Y-115088095D02*
X118911904Y-115088095D01*
X119007142Y-115135714D01*
X119054761Y-115183333D01*
X119102380Y-115278571D01*
X119102380Y-115469047D01*
X119054761Y-115564285D01*
X119007142Y-115611904D01*
X118911904Y-115659523D01*
X118102380Y-115659523D01*
X118102380Y-116040476D02*
X118102380Y-116659523D01*
X118483333Y-116326190D01*
X118483333Y-116469047D01*
X118530952Y-116564285D01*
X118578571Y-116611904D01*
X118673809Y-116659523D01*
X118911904Y-116659523D01*
X119007142Y-116611904D01*
X119054761Y-116564285D01*
X119102380Y-116469047D01*
X119102380Y-116183333D01*
X119054761Y-116088095D01*
X119007142Y-116040476D01*
%TO.C,U8*%
X67852380Y-115088095D02*
X68661904Y-115088095D01*
X68757142Y-115135714D01*
X68804761Y-115183333D01*
X68852380Y-115278571D01*
X68852380Y-115469047D01*
X68804761Y-115564285D01*
X68757142Y-115611904D01*
X68661904Y-115659523D01*
X67852380Y-115659523D01*
X68280952Y-116278571D02*
X68233333Y-116183333D01*
X68185714Y-116135714D01*
X68090476Y-116088095D01*
X68042857Y-116088095D01*
X67947619Y-116135714D01*
X67900000Y-116183333D01*
X67852380Y-116278571D01*
X67852380Y-116469047D01*
X67900000Y-116564285D01*
X67947619Y-116611904D01*
X68042857Y-116659523D01*
X68090476Y-116659523D01*
X68185714Y-116611904D01*
X68233333Y-116564285D01*
X68280952Y-116469047D01*
X68280952Y-116278571D01*
X68328571Y-116183333D01*
X68376190Y-116135714D01*
X68471428Y-116088095D01*
X68661904Y-116088095D01*
X68757142Y-116135714D01*
X68804761Y-116183333D01*
X68852380Y-116278571D01*
X68852380Y-116469047D01*
X68804761Y-116564285D01*
X68757142Y-116611904D01*
X68661904Y-116659523D01*
X68471428Y-116659523D01*
X68376190Y-116611904D01*
X68328571Y-116564285D01*
X68280952Y-116469047D01*
%TO.C,U4*%
X107852380Y-114338095D02*
X108661904Y-114338095D01*
X108757142Y-114385714D01*
X108804761Y-114433333D01*
X108852380Y-114528571D01*
X108852380Y-114719047D01*
X108804761Y-114814285D01*
X108757142Y-114861904D01*
X108661904Y-114909523D01*
X107852380Y-114909523D01*
X108185714Y-115814285D02*
X108852380Y-115814285D01*
X107804761Y-115576190D02*
X108519047Y-115338095D01*
X108519047Y-115957142D01*
%TO.C,U10*%
X39102380Y-126361904D02*
X39911904Y-126361904D01*
X40007142Y-126409523D01*
X40054761Y-126457142D01*
X40102380Y-126552380D01*
X40102380Y-126742857D01*
X40054761Y-126838095D01*
X40007142Y-126885714D01*
X39911904Y-126933333D01*
X39102380Y-126933333D01*
X40102380Y-127933333D02*
X40102380Y-127361904D01*
X40102380Y-127647619D02*
X39102380Y-127647619D01*
X39245238Y-127552380D01*
X39340476Y-127457142D01*
X39388095Y-127361904D01*
X39102380Y-128552380D02*
X39102380Y-128647619D01*
X39150000Y-128742857D01*
X39197619Y-128790476D01*
X39292857Y-128838095D01*
X39483333Y-128885714D01*
X39721428Y-128885714D01*
X39911904Y-128838095D01*
X40007142Y-128790476D01*
X40054761Y-128742857D01*
X40102380Y-128647619D01*
X40102380Y-128552380D01*
X40054761Y-128457142D01*
X40007142Y-128409523D01*
X39911904Y-128361904D01*
X39721428Y-128314285D01*
X39483333Y-128314285D01*
X39292857Y-128361904D01*
X39197619Y-128409523D01*
X39150000Y-128457142D01*
X39102380Y-128552380D01*
%TO.C,U6*%
X87852380Y-113838095D02*
X88661904Y-113838095D01*
X88757142Y-113885714D01*
X88804761Y-113933333D01*
X88852380Y-114028571D01*
X88852380Y-114219047D01*
X88804761Y-114314285D01*
X88757142Y-114361904D01*
X88661904Y-114409523D01*
X87852380Y-114409523D01*
X87852380Y-115314285D02*
X87852380Y-115123809D01*
X87900000Y-115028571D01*
X87947619Y-114980952D01*
X88090476Y-114885714D01*
X88280952Y-114838095D01*
X88661904Y-114838095D01*
X88757142Y-114885714D01*
X88804761Y-114933333D01*
X88852380Y-115028571D01*
X88852380Y-115219047D01*
X88804761Y-115314285D01*
X88757142Y-115361904D01*
X88661904Y-115409523D01*
X88423809Y-115409523D01*
X88328571Y-115361904D01*
X88280952Y-115314285D01*
X88233333Y-115219047D01*
X88233333Y-115028571D01*
X88280952Y-114933333D01*
X88328571Y-114885714D01*
X88423809Y-114838095D01*
%TO.C,U7*%
X78102380Y-114338095D02*
X78911904Y-114338095D01*
X79007142Y-114385714D01*
X79054761Y-114433333D01*
X79102380Y-114528571D01*
X79102380Y-114719047D01*
X79054761Y-114814285D01*
X79007142Y-114861904D01*
X78911904Y-114909523D01*
X78102380Y-114909523D01*
X78102380Y-115290476D02*
X78102380Y-115957142D01*
X79102380Y-115528571D01*
%TO.C,U5*%
X98102380Y-113838095D02*
X98911904Y-113838095D01*
X99007142Y-113885714D01*
X99054761Y-113933333D01*
X99102380Y-114028571D01*
X99102380Y-114219047D01*
X99054761Y-114314285D01*
X99007142Y-114361904D01*
X98911904Y-114409523D01*
X98102380Y-114409523D01*
X98102380Y-115361904D02*
X98102380Y-114885714D01*
X98578571Y-114838095D01*
X98530952Y-114885714D01*
X98483333Y-114980952D01*
X98483333Y-115219047D01*
X98530952Y-115314285D01*
X98578571Y-115361904D01*
X98673809Y-115409523D01*
X98911904Y-115409523D01*
X99007142Y-115361904D01*
X99054761Y-115314285D01*
X99102380Y-115219047D01*
X99102380Y-114980952D01*
X99054761Y-114885714D01*
X99007142Y-114838095D01*
%TO.C,C10*%
X100642857Y-132427142D02*
X100690476Y-132474761D01*
X100833333Y-132522380D01*
X100928571Y-132522380D01*
X101071428Y-132474761D01*
X101166666Y-132379523D01*
X101214285Y-132284285D01*
X101261904Y-132093809D01*
X101261904Y-131950952D01*
X101214285Y-131760476D01*
X101166666Y-131665238D01*
X101071428Y-131570000D01*
X100928571Y-131522380D01*
X100833333Y-131522380D01*
X100690476Y-131570000D01*
X100642857Y-131617619D01*
X99690476Y-132522380D02*
X100261904Y-132522380D01*
X99976190Y-132522380D02*
X99976190Y-131522380D01*
X100071428Y-131665238D01*
X100166666Y-131760476D01*
X100261904Y-131808095D01*
X99071428Y-131522380D02*
X98976190Y-131522380D01*
X98880952Y-131570000D01*
X98833333Y-131617619D01*
X98785714Y-131712857D01*
X98738095Y-131903333D01*
X98738095Y-132141428D01*
X98785714Y-132331904D01*
X98833333Y-132427142D01*
X98880952Y-132474761D01*
X98976190Y-132522380D01*
X99071428Y-132522380D01*
X99166666Y-132474761D01*
X99214285Y-132427142D01*
X99261904Y-132331904D01*
X99309523Y-132141428D01*
X99309523Y-131903333D01*
X99261904Y-131712857D01*
X99214285Y-131617619D01*
X99166666Y-131570000D01*
X99071428Y-131522380D01*
%TO.C,R12*%
X96201428Y-140582857D02*
X96601428Y-140011428D01*
X96887142Y-140582857D02*
X96887142Y-139382857D01*
X96430000Y-139382857D01*
X96315714Y-139440000D01*
X96258571Y-139497142D01*
X96201428Y-139611428D01*
X96201428Y-139782857D01*
X96258571Y-139897142D01*
X96315714Y-139954285D01*
X96430000Y-140011428D01*
X96887142Y-140011428D01*
X95058571Y-140582857D02*
X95744285Y-140582857D01*
X95401428Y-140582857D02*
X95401428Y-139382857D01*
X95515714Y-139554285D01*
X95630000Y-139668571D01*
X95744285Y-139725714D01*
X94601428Y-139497142D02*
X94544285Y-139440000D01*
X94430000Y-139382857D01*
X94144285Y-139382857D01*
X94030000Y-139440000D01*
X93972857Y-139497142D01*
X93915714Y-139611428D01*
X93915714Y-139725714D01*
X93972857Y-139897142D01*
X94658571Y-140582857D01*
X93915714Y-140582857D01*
%TO.C,C6*%
X116166666Y-157177142D02*
X116214285Y-157224761D01*
X116357142Y-157272380D01*
X116452380Y-157272380D01*
X116595238Y-157224761D01*
X116690476Y-157129523D01*
X116738095Y-157034285D01*
X116785714Y-156843809D01*
X116785714Y-156700952D01*
X116738095Y-156510476D01*
X116690476Y-156415238D01*
X116595238Y-156320000D01*
X116452380Y-156272380D01*
X116357142Y-156272380D01*
X116214285Y-156320000D01*
X116166666Y-156367619D01*
X115309523Y-156272380D02*
X115500000Y-156272380D01*
X115595238Y-156320000D01*
X115642857Y-156367619D01*
X115738095Y-156510476D01*
X115785714Y-156700952D01*
X115785714Y-157081904D01*
X115738095Y-157177142D01*
X115690476Y-157224761D01*
X115595238Y-157272380D01*
X115404761Y-157272380D01*
X115309523Y-157224761D01*
X115261904Y-157177142D01*
X115214285Y-157081904D01*
X115214285Y-156843809D01*
X115261904Y-156748571D01*
X115309523Y-156700952D01*
X115404761Y-156653333D01*
X115595238Y-156653333D01*
X115690476Y-156700952D01*
X115738095Y-156748571D01*
X115785714Y-156843809D01*
%TO.C,C3*%
X76787142Y-154833333D02*
X76834761Y-154785714D01*
X76882380Y-154642857D01*
X76882380Y-154547619D01*
X76834761Y-154404761D01*
X76739523Y-154309523D01*
X76644285Y-154261904D01*
X76453809Y-154214285D01*
X76310952Y-154214285D01*
X76120476Y-154261904D01*
X76025238Y-154309523D01*
X75930000Y-154404761D01*
X75882380Y-154547619D01*
X75882380Y-154642857D01*
X75930000Y-154785714D01*
X75977619Y-154833333D01*
X75882380Y-155166666D02*
X75882380Y-155785714D01*
X76263333Y-155452380D01*
X76263333Y-155595238D01*
X76310952Y-155690476D01*
X76358571Y-155738095D01*
X76453809Y-155785714D01*
X76691904Y-155785714D01*
X76787142Y-155738095D01*
X76834761Y-155690476D01*
X76882380Y-155595238D01*
X76882380Y-155309523D01*
X76834761Y-155214285D01*
X76787142Y-155166666D01*
%TD*%
M02*
