%TF.GenerationSoftware,KiCad,Pcbnew,(5.1.7)-1*%
%TF.CreationDate,2021-05-04T00:49:10+02:00*%
%TF.ProjectId,Kaszmir,4b61737a-6d69-4722-9e6b-696361645f70,rev?*%
%TF.SameCoordinates,Original*%
%TF.FileFunction,Soldermask,Top*%
%TF.FilePolarity,Negative*%
%FSLAX46Y46*%
G04 Gerber Fmt 4.6, Leading zero omitted, Abs format (unit mm)*
G04 Created by KiCad (PCBNEW (5.1.7)-1) date 2021-05-04 00:49:10*
%MOMM*%
%LPD*%
G01*
G04 APERTURE LIST*
%ADD10C,0.500000*%
%ADD11R,0.300000X1.100000*%
%ADD12R,2.300000X3.100000*%
%ADD13O,1.700000X1.850000*%
%ADD14R,1.000000X2.650000*%
%ADD15R,0.500000X0.250000*%
%ADD16O,1.700000X1.700000*%
%ADD17R,1.700000X1.700000*%
%ADD18R,2.400000X2.000000*%
%ADD19C,0.800000*%
%ADD20C,0.150000*%
%ADD21R,0.900000X0.800000*%
%ADD22R,2.540000X2.540000*%
G04 APERTURE END LIST*
D10*
%TO.C,mouse-bite-3mm-slot*%
X102504000Y-120500000D03*
X102504000Y-122000000D03*
X103254000Y-120500000D03*
X101754000Y-120500000D03*
X101754000Y-122000000D03*
X103254000Y-122000000D03*
X104028000Y-122000000D03*
X104028000Y-120500000D03*
X104790000Y-120500000D03*
X104790000Y-122000000D03*
%TD*%
%TO.C,mouse-bite-3mm-slot*%
X102504000Y-122500000D03*
X102504000Y-124000000D03*
X103254000Y-122500000D03*
X101754000Y-122500000D03*
X101754000Y-124000000D03*
X103254000Y-124000000D03*
X104028000Y-124000000D03*
X104028000Y-122500000D03*
X104790000Y-122500000D03*
X104790000Y-124000000D03*
%TD*%
%TO.C,R2*%
G36*
G01*
X111475000Y-112775000D02*
X112025000Y-112775000D01*
G75*
G02*
X112225000Y-112975000I0J-200000D01*
G01*
X112225000Y-113375000D01*
G75*
G02*
X112025000Y-113575000I-200000J0D01*
G01*
X111475000Y-113575000D01*
G75*
G02*
X111275000Y-113375000I0J200000D01*
G01*
X111275000Y-112975000D01*
G75*
G02*
X111475000Y-112775000I200000J0D01*
G01*
G37*
G36*
G01*
X111475000Y-114425000D02*
X112025000Y-114425000D01*
G75*
G02*
X112225000Y-114625000I0J-200000D01*
G01*
X112225000Y-115025000D01*
G75*
G02*
X112025000Y-115225000I-200000J0D01*
G01*
X111475000Y-115225000D01*
G75*
G02*
X111275000Y-115025000I0J200000D01*
G01*
X111275000Y-114625000D01*
G75*
G02*
X111475000Y-114425000I200000J0D01*
G01*
G37*
%TD*%
D11*
%TO.C,J1*%
X88750000Y-115750000D03*
X89250000Y-115750000D03*
X89750000Y-115750000D03*
X90250000Y-115750000D03*
X90750000Y-115750000D03*
X91250000Y-115750000D03*
D12*
X104920000Y-117450000D03*
X87080000Y-117450000D03*
D11*
X91750000Y-115750000D03*
X92250000Y-115750000D03*
X92750000Y-115750000D03*
X93250000Y-115750000D03*
X93750000Y-115750000D03*
X94250000Y-115750000D03*
X94750000Y-115750000D03*
X95250000Y-115750000D03*
X95750000Y-115750000D03*
X96250000Y-115750000D03*
X96750000Y-115750000D03*
X97250000Y-115750000D03*
X97750000Y-115750000D03*
X98250000Y-115750000D03*
X98750000Y-115750000D03*
X99250000Y-115750000D03*
X99750000Y-115750000D03*
X100250000Y-115750000D03*
X100750000Y-115750000D03*
X101250000Y-115750000D03*
X101750000Y-115750000D03*
X102250000Y-115750000D03*
X102750000Y-115750000D03*
X103250000Y-115750000D03*
%TD*%
%TO.C,R4*%
G36*
G01*
X71475000Y-113525000D02*
X72025000Y-113525000D01*
G75*
G02*
X72225000Y-113725000I0J-200000D01*
G01*
X72225000Y-114125000D01*
G75*
G02*
X72025000Y-114325000I-200000J0D01*
G01*
X71475000Y-114325000D01*
G75*
G02*
X71275000Y-114125000I0J200000D01*
G01*
X71275000Y-113725000D01*
G75*
G02*
X71475000Y-113525000I200000J0D01*
G01*
G37*
G36*
G01*
X71475000Y-115175000D02*
X72025000Y-115175000D01*
G75*
G02*
X72225000Y-115375000I0J-200000D01*
G01*
X72225000Y-115775000D01*
G75*
G02*
X72025000Y-115975000I-200000J0D01*
G01*
X71475000Y-115975000D01*
G75*
G02*
X71275000Y-115775000I0J200000D01*
G01*
X71275000Y-115375000D01*
G75*
G02*
X71475000Y-115175000I200000J0D01*
G01*
G37*
%TD*%
%TO.C,R5*%
G36*
G01*
X42725000Y-125275000D02*
X43275000Y-125275000D01*
G75*
G02*
X43475000Y-125475000I0J-200000D01*
G01*
X43475000Y-125875000D01*
G75*
G02*
X43275000Y-126075000I-200000J0D01*
G01*
X42725000Y-126075000D01*
G75*
G02*
X42525000Y-125875000I0J200000D01*
G01*
X42525000Y-125475000D01*
G75*
G02*
X42725000Y-125275000I200000J0D01*
G01*
G37*
G36*
G01*
X42725000Y-126925000D02*
X43275000Y-126925000D01*
G75*
G02*
X43475000Y-127125000I0J-200000D01*
G01*
X43475000Y-127525000D01*
G75*
G02*
X43275000Y-127725000I-200000J0D01*
G01*
X42725000Y-127725000D01*
G75*
G02*
X42525000Y-127525000I0J200000D01*
G01*
X42525000Y-127125000D01*
G75*
G02*
X42725000Y-126925000I200000J0D01*
G01*
G37*
%TD*%
%TO.C,R6*%
G36*
G01*
X135525000Y-116725000D02*
X134975000Y-116725000D01*
G75*
G02*
X134775000Y-116525000I0J200000D01*
G01*
X134775000Y-116125000D01*
G75*
G02*
X134975000Y-115925000I200000J0D01*
G01*
X135525000Y-115925000D01*
G75*
G02*
X135725000Y-116125000I0J-200000D01*
G01*
X135725000Y-116525000D01*
G75*
G02*
X135525000Y-116725000I-200000J0D01*
G01*
G37*
G36*
G01*
X135525000Y-115075000D02*
X134975000Y-115075000D01*
G75*
G02*
X134775000Y-114875000I0J200000D01*
G01*
X134775000Y-114475000D01*
G75*
G02*
X134975000Y-114275000I200000J0D01*
G01*
X135525000Y-114275000D01*
G75*
G02*
X135725000Y-114475000I0J-200000D01*
G01*
X135725000Y-114875000D01*
G75*
G02*
X135525000Y-115075000I-200000J0D01*
G01*
G37*
%TD*%
%TO.C,R8*%
G36*
G01*
X99475000Y-110525000D02*
X100025000Y-110525000D01*
G75*
G02*
X100225000Y-110725000I0J-200000D01*
G01*
X100225000Y-111125000D01*
G75*
G02*
X100025000Y-111325000I-200000J0D01*
G01*
X99475000Y-111325000D01*
G75*
G02*
X99275000Y-111125000I0J200000D01*
G01*
X99275000Y-110725000D01*
G75*
G02*
X99475000Y-110525000I200000J0D01*
G01*
G37*
G36*
G01*
X99475000Y-112175000D02*
X100025000Y-112175000D01*
G75*
G02*
X100225000Y-112375000I0J-200000D01*
G01*
X100225000Y-112775000D01*
G75*
G02*
X100025000Y-112975000I-200000J0D01*
G01*
X99475000Y-112975000D01*
G75*
G02*
X99275000Y-112775000I0J200000D01*
G01*
X99275000Y-112375000D01*
G75*
G02*
X99475000Y-112175000I200000J0D01*
G01*
G37*
%TD*%
%TO.C,R7*%
G36*
G01*
X132525000Y-116725000D02*
X131975000Y-116725000D01*
G75*
G02*
X131775000Y-116525000I0J200000D01*
G01*
X131775000Y-116125000D01*
G75*
G02*
X131975000Y-115925000I200000J0D01*
G01*
X132525000Y-115925000D01*
G75*
G02*
X132725000Y-116125000I0J-200000D01*
G01*
X132725000Y-116525000D01*
G75*
G02*
X132525000Y-116725000I-200000J0D01*
G01*
G37*
G36*
G01*
X132525000Y-115075000D02*
X131975000Y-115075000D01*
G75*
G02*
X131775000Y-114875000I0J200000D01*
G01*
X131775000Y-114475000D01*
G75*
G02*
X131975000Y-114275000I200000J0D01*
G01*
X132525000Y-114275000D01*
G75*
G02*
X132725000Y-114475000I0J-200000D01*
G01*
X132725000Y-114875000D01*
G75*
G02*
X132525000Y-115075000I-200000J0D01*
G01*
G37*
%TD*%
%TO.C,R10*%
G36*
G01*
X96475000Y-110525000D02*
X97025000Y-110525000D01*
G75*
G02*
X97225000Y-110725000I0J-200000D01*
G01*
X97225000Y-111125000D01*
G75*
G02*
X97025000Y-111325000I-200000J0D01*
G01*
X96475000Y-111325000D01*
G75*
G02*
X96275000Y-111125000I0J200000D01*
G01*
X96275000Y-110725000D01*
G75*
G02*
X96475000Y-110525000I200000J0D01*
G01*
G37*
G36*
G01*
X96475000Y-112175000D02*
X97025000Y-112175000D01*
G75*
G02*
X97225000Y-112375000I0J-200000D01*
G01*
X97225000Y-112775000D01*
G75*
G02*
X97025000Y-112975000I-200000J0D01*
G01*
X96475000Y-112975000D01*
G75*
G02*
X96275000Y-112775000I0J200000D01*
G01*
X96275000Y-112375000D01*
G75*
G02*
X96475000Y-112175000I200000J0D01*
G01*
G37*
%TD*%
%TO.C,R12*%
G36*
G01*
X93475000Y-110525000D02*
X94025000Y-110525000D01*
G75*
G02*
X94225000Y-110725000I0J-200000D01*
G01*
X94225000Y-111125000D01*
G75*
G02*
X94025000Y-111325000I-200000J0D01*
G01*
X93475000Y-111325000D01*
G75*
G02*
X93275000Y-111125000I0J200000D01*
G01*
X93275000Y-110725000D01*
G75*
G02*
X93475000Y-110525000I200000J0D01*
G01*
G37*
G36*
G01*
X93475000Y-112175000D02*
X94025000Y-112175000D01*
G75*
G02*
X94225000Y-112375000I0J-200000D01*
G01*
X94225000Y-112775000D01*
G75*
G02*
X94025000Y-112975000I-200000J0D01*
G01*
X93475000Y-112975000D01*
G75*
G02*
X93275000Y-112775000I0J200000D01*
G01*
X93275000Y-112375000D01*
G75*
G02*
X93475000Y-112175000I200000J0D01*
G01*
G37*
%TD*%
%TO.C,R13*%
G36*
G01*
X91975000Y-110525000D02*
X92525000Y-110525000D01*
G75*
G02*
X92725000Y-110725000I0J-200000D01*
G01*
X92725000Y-111125000D01*
G75*
G02*
X92525000Y-111325000I-200000J0D01*
G01*
X91975000Y-111325000D01*
G75*
G02*
X91775000Y-111125000I0J200000D01*
G01*
X91775000Y-110725000D01*
G75*
G02*
X91975000Y-110525000I200000J0D01*
G01*
G37*
G36*
G01*
X91975000Y-112175000D02*
X92525000Y-112175000D01*
G75*
G02*
X92725000Y-112375000I0J-200000D01*
G01*
X92725000Y-112775000D01*
G75*
G02*
X92525000Y-112975000I-200000J0D01*
G01*
X91975000Y-112975000D01*
G75*
G02*
X91775000Y-112775000I0J200000D01*
G01*
X91775000Y-112375000D01*
G75*
G02*
X91975000Y-112175000I200000J0D01*
G01*
G37*
%TD*%
%TO.C,R1*%
G36*
G01*
X133475000Y-114275000D02*
X134025000Y-114275000D01*
G75*
G02*
X134225000Y-114475000I0J-200000D01*
G01*
X134225000Y-114875000D01*
G75*
G02*
X134025000Y-115075000I-200000J0D01*
G01*
X133475000Y-115075000D01*
G75*
G02*
X133275000Y-114875000I0J200000D01*
G01*
X133275000Y-114475000D01*
G75*
G02*
X133475000Y-114275000I200000J0D01*
G01*
G37*
G36*
G01*
X133475000Y-115925000D02*
X134025000Y-115925000D01*
G75*
G02*
X134225000Y-116125000I0J-200000D01*
G01*
X134225000Y-116525000D01*
G75*
G02*
X134025000Y-116725000I-200000J0D01*
G01*
X133475000Y-116725000D01*
G75*
G02*
X133275000Y-116525000I0J200000D01*
G01*
X133275000Y-116125000D01*
G75*
G02*
X133475000Y-115925000I200000J0D01*
G01*
G37*
%TD*%
%TO.C,R9*%
G36*
G01*
X97975000Y-110525000D02*
X98525000Y-110525000D01*
G75*
G02*
X98725000Y-110725000I0J-200000D01*
G01*
X98725000Y-111125000D01*
G75*
G02*
X98525000Y-111325000I-200000J0D01*
G01*
X97975000Y-111325000D01*
G75*
G02*
X97775000Y-111125000I0J200000D01*
G01*
X97775000Y-110725000D01*
G75*
G02*
X97975000Y-110525000I200000J0D01*
G01*
G37*
G36*
G01*
X97975000Y-112175000D02*
X98525000Y-112175000D01*
G75*
G02*
X98725000Y-112375000I0J-200000D01*
G01*
X98725000Y-112775000D01*
G75*
G02*
X98525000Y-112975000I-200000J0D01*
G01*
X97975000Y-112975000D01*
G75*
G02*
X97775000Y-112775000I0J200000D01*
G01*
X97775000Y-112375000D01*
G75*
G02*
X97975000Y-112175000I200000J0D01*
G01*
G37*
%TD*%
%TO.C,R11*%
G36*
G01*
X94975000Y-110525000D02*
X95525000Y-110525000D01*
G75*
G02*
X95725000Y-110725000I0J-200000D01*
G01*
X95725000Y-111125000D01*
G75*
G02*
X95525000Y-111325000I-200000J0D01*
G01*
X94975000Y-111325000D01*
G75*
G02*
X94775000Y-111125000I0J200000D01*
G01*
X94775000Y-110725000D01*
G75*
G02*
X94975000Y-110525000I200000J0D01*
G01*
G37*
G36*
G01*
X94975000Y-112175000D02*
X95525000Y-112175000D01*
G75*
G02*
X95725000Y-112375000I0J-200000D01*
G01*
X95725000Y-112775000D01*
G75*
G02*
X95525000Y-112975000I-200000J0D01*
G01*
X94975000Y-112975000D01*
G75*
G02*
X94775000Y-112775000I0J200000D01*
G01*
X94775000Y-112375000D01*
G75*
G02*
X94975000Y-112175000I200000J0D01*
G01*
G37*
%TD*%
%TO.C,R15*%
G36*
G01*
X66525000Y-115975000D02*
X65975000Y-115975000D01*
G75*
G02*
X65775000Y-115775000I0J200000D01*
G01*
X65775000Y-115375000D01*
G75*
G02*
X65975000Y-115175000I200000J0D01*
G01*
X66525000Y-115175000D01*
G75*
G02*
X66725000Y-115375000I0J-200000D01*
G01*
X66725000Y-115775000D01*
G75*
G02*
X66525000Y-115975000I-200000J0D01*
G01*
G37*
G36*
G01*
X66525000Y-114325000D02*
X65975000Y-114325000D01*
G75*
G02*
X65775000Y-114125000I0J200000D01*
G01*
X65775000Y-113725000D01*
G75*
G02*
X65975000Y-113525000I200000J0D01*
G01*
X66525000Y-113525000D01*
G75*
G02*
X66725000Y-113725000I0J-200000D01*
G01*
X66725000Y-114125000D01*
G75*
G02*
X66525000Y-114325000I-200000J0D01*
G01*
G37*
%TD*%
%TO.C,R14*%
G36*
G01*
X68025000Y-115975000D02*
X67475000Y-115975000D01*
G75*
G02*
X67275000Y-115775000I0J200000D01*
G01*
X67275000Y-115375000D01*
G75*
G02*
X67475000Y-115175000I200000J0D01*
G01*
X68025000Y-115175000D01*
G75*
G02*
X68225000Y-115375000I0J-200000D01*
G01*
X68225000Y-115775000D01*
G75*
G02*
X68025000Y-115975000I-200000J0D01*
G01*
G37*
G36*
G01*
X68025000Y-114325000D02*
X67475000Y-114325000D01*
G75*
G02*
X67275000Y-114125000I0J200000D01*
G01*
X67275000Y-113725000D01*
G75*
G02*
X67475000Y-113525000I200000J0D01*
G01*
X68025000Y-113525000D01*
G75*
G02*
X68225000Y-113725000I0J-200000D01*
G01*
X68225000Y-114125000D01*
G75*
G02*
X68025000Y-114325000I-200000J0D01*
G01*
G37*
%TD*%
D10*
%TO.C,mouse-bite-3mm-slot*%
X89774000Y-122000000D03*
X89774000Y-120500000D03*
X89012000Y-120500000D03*
X89012000Y-122000000D03*
X88238000Y-122000000D03*
X86738000Y-122000000D03*
X86738000Y-120500000D03*
X88238000Y-120500000D03*
X87488000Y-122000000D03*
X87488000Y-120500000D03*
%TD*%
%TO.C,mouse-bite-3mm-slot*%
X89774000Y-124000000D03*
X89774000Y-122500000D03*
X89012000Y-122500000D03*
X89012000Y-124000000D03*
X88238000Y-124000000D03*
X86738000Y-124000000D03*
X86738000Y-122500000D03*
X88238000Y-122500000D03*
X87488000Y-124000000D03*
X87488000Y-122500000D03*
%TD*%
D13*
%TO.C,SW1*%
X138250000Y-161500000D03*
X135750000Y-161500000D03*
G36*
G01*
X132400000Y-162175000D02*
X132400000Y-160825000D01*
G75*
G02*
X132650000Y-160575000I250000J0D01*
G01*
X133850000Y-160575000D01*
G75*
G02*
X134100000Y-160825000I0J-250000D01*
G01*
X134100000Y-162175000D01*
G75*
G02*
X133850000Y-162425000I-250000J0D01*
G01*
X132650000Y-162425000D01*
G75*
G02*
X132400000Y-162175000I0J250000D01*
G01*
G37*
%TD*%
%TO.C,C12*%
G36*
G01*
X106750000Y-136575000D02*
X107250000Y-136575000D01*
G75*
G02*
X107475000Y-136800000I0J-225000D01*
G01*
X107475000Y-137250000D01*
G75*
G02*
X107250000Y-137475000I-225000J0D01*
G01*
X106750000Y-137475000D01*
G75*
G02*
X106525000Y-137250000I0J225000D01*
G01*
X106525000Y-136800000D01*
G75*
G02*
X106750000Y-136575000I225000J0D01*
G01*
G37*
G36*
G01*
X106750000Y-135025000D02*
X107250000Y-135025000D01*
G75*
G02*
X107475000Y-135250000I0J-225000D01*
G01*
X107475000Y-135700000D01*
G75*
G02*
X107250000Y-135925000I-225000J0D01*
G01*
X106750000Y-135925000D01*
G75*
G02*
X106525000Y-135700000I0J225000D01*
G01*
X106525000Y-135250000D01*
G75*
G02*
X106750000Y-135025000I225000J0D01*
G01*
G37*
%TD*%
%TO.C,C11*%
G36*
G01*
X105250000Y-136575000D02*
X105750000Y-136575000D01*
G75*
G02*
X105975000Y-136800000I0J-225000D01*
G01*
X105975000Y-137250000D01*
G75*
G02*
X105750000Y-137475000I-225000J0D01*
G01*
X105250000Y-137475000D01*
G75*
G02*
X105025000Y-137250000I0J225000D01*
G01*
X105025000Y-136800000D01*
G75*
G02*
X105250000Y-136575000I225000J0D01*
G01*
G37*
G36*
G01*
X105250000Y-135025000D02*
X105750000Y-135025000D01*
G75*
G02*
X105975000Y-135250000I0J-225000D01*
G01*
X105975000Y-135700000D01*
G75*
G02*
X105750000Y-135925000I-225000J0D01*
G01*
X105250000Y-135925000D01*
G75*
G02*
X105025000Y-135700000I0J225000D01*
G01*
X105025000Y-135250000D01*
G75*
G02*
X105250000Y-135025000I225000J0D01*
G01*
G37*
%TD*%
%TO.C,C9*%
G36*
G01*
X101250000Y-147325000D02*
X101750000Y-147325000D01*
G75*
G02*
X101975000Y-147550000I0J-225000D01*
G01*
X101975000Y-148000000D01*
G75*
G02*
X101750000Y-148225000I-225000J0D01*
G01*
X101250000Y-148225000D01*
G75*
G02*
X101025000Y-148000000I0J225000D01*
G01*
X101025000Y-147550000D01*
G75*
G02*
X101250000Y-147325000I225000J0D01*
G01*
G37*
G36*
G01*
X101250000Y-145775000D02*
X101750000Y-145775000D01*
G75*
G02*
X101975000Y-146000000I0J-225000D01*
G01*
X101975000Y-146450000D01*
G75*
G02*
X101750000Y-146675000I-225000J0D01*
G01*
X101250000Y-146675000D01*
G75*
G02*
X101025000Y-146450000I0J225000D01*
G01*
X101025000Y-146000000D01*
G75*
G02*
X101250000Y-145775000I225000J0D01*
G01*
G37*
%TD*%
%TO.C,C8*%
G36*
G01*
X90750000Y-132425000D02*
X90250000Y-132425000D01*
G75*
G02*
X90025000Y-132200000I0J225000D01*
G01*
X90025000Y-131750000D01*
G75*
G02*
X90250000Y-131525000I225000J0D01*
G01*
X90750000Y-131525000D01*
G75*
G02*
X90975000Y-131750000I0J-225000D01*
G01*
X90975000Y-132200000D01*
G75*
G02*
X90750000Y-132425000I-225000J0D01*
G01*
G37*
G36*
G01*
X90750000Y-133975000D02*
X90250000Y-133975000D01*
G75*
G02*
X90025000Y-133750000I0J225000D01*
G01*
X90025000Y-133300000D01*
G75*
G02*
X90250000Y-133075000I225000J0D01*
G01*
X90750000Y-133075000D01*
G75*
G02*
X90975000Y-133300000I0J-225000D01*
G01*
X90975000Y-133750000D01*
G75*
G02*
X90750000Y-133975000I-225000J0D01*
G01*
G37*
%TD*%
%TO.C,C7*%
G36*
G01*
X87500000Y-142675000D02*
X87000000Y-142675000D01*
G75*
G02*
X86775000Y-142450000I0J225000D01*
G01*
X86775000Y-142000000D01*
G75*
G02*
X87000000Y-141775000I225000J0D01*
G01*
X87500000Y-141775000D01*
G75*
G02*
X87725000Y-142000000I0J-225000D01*
G01*
X87725000Y-142450000D01*
G75*
G02*
X87500000Y-142675000I-225000J0D01*
G01*
G37*
G36*
G01*
X87500000Y-144225000D02*
X87000000Y-144225000D01*
G75*
G02*
X86775000Y-144000000I0J225000D01*
G01*
X86775000Y-143550000D01*
G75*
G02*
X87000000Y-143325000I225000J0D01*
G01*
X87500000Y-143325000D01*
G75*
G02*
X87725000Y-143550000I0J-225000D01*
G01*
X87725000Y-144000000D01*
G75*
G02*
X87500000Y-144225000I-225000J0D01*
G01*
G37*
%TD*%
%TO.C,C13*%
G36*
G01*
X89250000Y-132425000D02*
X88750000Y-132425000D01*
G75*
G02*
X88525000Y-132200000I0J225000D01*
G01*
X88525000Y-131750000D01*
G75*
G02*
X88750000Y-131525000I225000J0D01*
G01*
X89250000Y-131525000D01*
G75*
G02*
X89475000Y-131750000I0J-225000D01*
G01*
X89475000Y-132200000D01*
G75*
G02*
X89250000Y-132425000I-225000J0D01*
G01*
G37*
G36*
G01*
X89250000Y-133975000D02*
X88750000Y-133975000D01*
G75*
G02*
X88525000Y-133750000I0J225000D01*
G01*
X88525000Y-133300000D01*
G75*
G02*
X88750000Y-133075000I225000J0D01*
G01*
X89250000Y-133075000D01*
G75*
G02*
X89475000Y-133300000I0J-225000D01*
G01*
X89475000Y-133750000D01*
G75*
G02*
X89250000Y-133975000I-225000J0D01*
G01*
G37*
%TD*%
D14*
%TO.C,U1*%
X119000000Y-157000000D03*
D15*
X118050000Y-158250000D03*
X118050000Y-157750000D03*
X118050000Y-157250000D03*
X118050000Y-156750000D03*
X118050000Y-156250000D03*
X118050000Y-155750000D03*
X119950000Y-155750000D03*
X119950000Y-156250000D03*
X119950000Y-156750000D03*
X119950000Y-157250000D03*
X119950000Y-157750000D03*
X119950000Y-158250000D03*
%TD*%
D14*
%TO.C,U3*%
X73000000Y-157000000D03*
D15*
X73950000Y-155750000D03*
X73950000Y-156250000D03*
X73950000Y-156750000D03*
X73950000Y-157250000D03*
X73950000Y-157750000D03*
X73950000Y-158250000D03*
X72050000Y-158250000D03*
X72050000Y-157750000D03*
X72050000Y-157250000D03*
X72050000Y-156750000D03*
X72050000Y-156250000D03*
X72050000Y-155750000D03*
%TD*%
%TO.C,R13*%
G36*
G01*
X107775000Y-152325000D02*
X107225000Y-152325000D01*
G75*
G02*
X107025000Y-152125000I0J200000D01*
G01*
X107025000Y-151725000D01*
G75*
G02*
X107225000Y-151525000I200000J0D01*
G01*
X107775000Y-151525000D01*
G75*
G02*
X107975000Y-151725000I0J-200000D01*
G01*
X107975000Y-152125000D01*
G75*
G02*
X107775000Y-152325000I-200000J0D01*
G01*
G37*
G36*
G01*
X107775000Y-153975000D02*
X107225000Y-153975000D01*
G75*
G02*
X107025000Y-153775000I0J200000D01*
G01*
X107025000Y-153375000D01*
G75*
G02*
X107225000Y-153175000I200000J0D01*
G01*
X107775000Y-153175000D01*
G75*
G02*
X107975000Y-153375000I0J-200000D01*
G01*
X107975000Y-153775000D01*
G75*
G02*
X107775000Y-153975000I-200000J0D01*
G01*
G37*
%TD*%
D16*
%TO.C,STLINK*%
X81750000Y-136910000D03*
X81750000Y-134370000D03*
X81750000Y-131830000D03*
X81750000Y-129290000D03*
D17*
X81750000Y-126750000D03*
%TD*%
D18*
%TO.C,Y1*%
X114500000Y-145100000D03*
X114500000Y-141400000D03*
%TD*%
%TO.C,U2*%
G36*
G01*
X99900000Y-144475000D02*
X99900000Y-145875000D01*
G75*
G02*
X99825000Y-145950000I-75000J0D01*
G01*
X99675000Y-145950000D01*
G75*
G02*
X99600000Y-145875000I0J75000D01*
G01*
X99600000Y-144475000D01*
G75*
G02*
X99675000Y-144400000I75000J0D01*
G01*
X99825000Y-144400000D01*
G75*
G02*
X99900000Y-144475000I0J-75000D01*
G01*
G37*
G36*
G01*
X99400000Y-144475000D02*
X99400000Y-145875000D01*
G75*
G02*
X99325000Y-145950000I-75000J0D01*
G01*
X99175000Y-145950000D01*
G75*
G02*
X99100000Y-145875000I0J75000D01*
G01*
X99100000Y-144475000D01*
G75*
G02*
X99175000Y-144400000I75000J0D01*
G01*
X99325000Y-144400000D01*
G75*
G02*
X99400000Y-144475000I0J-75000D01*
G01*
G37*
G36*
G01*
X98900000Y-144475000D02*
X98900000Y-145875000D01*
G75*
G02*
X98825000Y-145950000I-75000J0D01*
G01*
X98675000Y-145950000D01*
G75*
G02*
X98600000Y-145875000I0J75000D01*
G01*
X98600000Y-144475000D01*
G75*
G02*
X98675000Y-144400000I75000J0D01*
G01*
X98825000Y-144400000D01*
G75*
G02*
X98900000Y-144475000I0J-75000D01*
G01*
G37*
G36*
G01*
X98400000Y-144475000D02*
X98400000Y-145875000D01*
G75*
G02*
X98325000Y-145950000I-75000J0D01*
G01*
X98175000Y-145950000D01*
G75*
G02*
X98100000Y-145875000I0J75000D01*
G01*
X98100000Y-144475000D01*
G75*
G02*
X98175000Y-144400000I75000J0D01*
G01*
X98325000Y-144400000D01*
G75*
G02*
X98400000Y-144475000I0J-75000D01*
G01*
G37*
G36*
G01*
X97900000Y-144475000D02*
X97900000Y-145875000D01*
G75*
G02*
X97825000Y-145950000I-75000J0D01*
G01*
X97675000Y-145950000D01*
G75*
G02*
X97600000Y-145875000I0J75000D01*
G01*
X97600000Y-144475000D01*
G75*
G02*
X97675000Y-144400000I75000J0D01*
G01*
X97825000Y-144400000D01*
G75*
G02*
X97900000Y-144475000I0J-75000D01*
G01*
G37*
G36*
G01*
X97400000Y-144475000D02*
X97400000Y-145875000D01*
G75*
G02*
X97325000Y-145950000I-75000J0D01*
G01*
X97175000Y-145950000D01*
G75*
G02*
X97100000Y-145875000I0J75000D01*
G01*
X97100000Y-144475000D01*
G75*
G02*
X97175000Y-144400000I75000J0D01*
G01*
X97325000Y-144400000D01*
G75*
G02*
X97400000Y-144475000I0J-75000D01*
G01*
G37*
G36*
G01*
X96900000Y-144475000D02*
X96900000Y-145875000D01*
G75*
G02*
X96825000Y-145950000I-75000J0D01*
G01*
X96675000Y-145950000D01*
G75*
G02*
X96600000Y-145875000I0J75000D01*
G01*
X96600000Y-144475000D01*
G75*
G02*
X96675000Y-144400000I75000J0D01*
G01*
X96825000Y-144400000D01*
G75*
G02*
X96900000Y-144475000I0J-75000D01*
G01*
G37*
G36*
G01*
X96400000Y-144475000D02*
X96400000Y-145875000D01*
G75*
G02*
X96325000Y-145950000I-75000J0D01*
G01*
X96175000Y-145950000D01*
G75*
G02*
X96100000Y-145875000I0J75000D01*
G01*
X96100000Y-144475000D01*
G75*
G02*
X96175000Y-144400000I75000J0D01*
G01*
X96325000Y-144400000D01*
G75*
G02*
X96400000Y-144475000I0J-75000D01*
G01*
G37*
G36*
G01*
X95900000Y-144475000D02*
X95900000Y-145875000D01*
G75*
G02*
X95825000Y-145950000I-75000J0D01*
G01*
X95675000Y-145950000D01*
G75*
G02*
X95600000Y-145875000I0J75000D01*
G01*
X95600000Y-144475000D01*
G75*
G02*
X95675000Y-144400000I75000J0D01*
G01*
X95825000Y-144400000D01*
G75*
G02*
X95900000Y-144475000I0J-75000D01*
G01*
G37*
G36*
G01*
X95400000Y-144475000D02*
X95400000Y-145875000D01*
G75*
G02*
X95325000Y-145950000I-75000J0D01*
G01*
X95175000Y-145950000D01*
G75*
G02*
X95100000Y-145875000I0J75000D01*
G01*
X95100000Y-144475000D01*
G75*
G02*
X95175000Y-144400000I75000J0D01*
G01*
X95325000Y-144400000D01*
G75*
G02*
X95400000Y-144475000I0J-75000D01*
G01*
G37*
G36*
G01*
X94900000Y-144475000D02*
X94900000Y-145875000D01*
G75*
G02*
X94825000Y-145950000I-75000J0D01*
G01*
X94675000Y-145950000D01*
G75*
G02*
X94600000Y-145875000I0J75000D01*
G01*
X94600000Y-144475000D01*
G75*
G02*
X94675000Y-144400000I75000J0D01*
G01*
X94825000Y-144400000D01*
G75*
G02*
X94900000Y-144475000I0J-75000D01*
G01*
G37*
G36*
G01*
X94400000Y-144475000D02*
X94400000Y-145875000D01*
G75*
G02*
X94325000Y-145950000I-75000J0D01*
G01*
X94175000Y-145950000D01*
G75*
G02*
X94100000Y-145875000I0J75000D01*
G01*
X94100000Y-144475000D01*
G75*
G02*
X94175000Y-144400000I75000J0D01*
G01*
X94325000Y-144400000D01*
G75*
G02*
X94400000Y-144475000I0J-75000D01*
G01*
G37*
G36*
G01*
X93900000Y-144475000D02*
X93900000Y-145875000D01*
G75*
G02*
X93825000Y-145950000I-75000J0D01*
G01*
X93675000Y-145950000D01*
G75*
G02*
X93600000Y-145875000I0J75000D01*
G01*
X93600000Y-144475000D01*
G75*
G02*
X93675000Y-144400000I75000J0D01*
G01*
X93825000Y-144400000D01*
G75*
G02*
X93900000Y-144475000I0J-75000D01*
G01*
G37*
G36*
G01*
X93400000Y-144475000D02*
X93400000Y-145875000D01*
G75*
G02*
X93325000Y-145950000I-75000J0D01*
G01*
X93175000Y-145950000D01*
G75*
G02*
X93100000Y-145875000I0J75000D01*
G01*
X93100000Y-144475000D01*
G75*
G02*
X93175000Y-144400000I75000J0D01*
G01*
X93325000Y-144400000D01*
G75*
G02*
X93400000Y-144475000I0J-75000D01*
G01*
G37*
G36*
G01*
X92900000Y-144475000D02*
X92900000Y-145875000D01*
G75*
G02*
X92825000Y-145950000I-75000J0D01*
G01*
X92675000Y-145950000D01*
G75*
G02*
X92600000Y-145875000I0J75000D01*
G01*
X92600000Y-144475000D01*
G75*
G02*
X92675000Y-144400000I75000J0D01*
G01*
X92825000Y-144400000D01*
G75*
G02*
X92900000Y-144475000I0J-75000D01*
G01*
G37*
G36*
G01*
X92400000Y-144475000D02*
X92400000Y-145875000D01*
G75*
G02*
X92325000Y-145950000I-75000J0D01*
G01*
X92175000Y-145950000D01*
G75*
G02*
X92100000Y-145875000I0J75000D01*
G01*
X92100000Y-144475000D01*
G75*
G02*
X92175000Y-144400000I75000J0D01*
G01*
X92325000Y-144400000D01*
G75*
G02*
X92400000Y-144475000I0J-75000D01*
G01*
G37*
G36*
G01*
X91100000Y-143175000D02*
X91100000Y-143325000D01*
G75*
G02*
X91025000Y-143400000I-75000J0D01*
G01*
X89625000Y-143400000D01*
G75*
G02*
X89550000Y-143325000I0J75000D01*
G01*
X89550000Y-143175000D01*
G75*
G02*
X89625000Y-143100000I75000J0D01*
G01*
X91025000Y-143100000D01*
G75*
G02*
X91100000Y-143175000I0J-75000D01*
G01*
G37*
G36*
G01*
X91100000Y-142675000D02*
X91100000Y-142825000D01*
G75*
G02*
X91025000Y-142900000I-75000J0D01*
G01*
X89625000Y-142900000D01*
G75*
G02*
X89550000Y-142825000I0J75000D01*
G01*
X89550000Y-142675000D01*
G75*
G02*
X89625000Y-142600000I75000J0D01*
G01*
X91025000Y-142600000D01*
G75*
G02*
X91100000Y-142675000I0J-75000D01*
G01*
G37*
G36*
G01*
X91100000Y-142175000D02*
X91100000Y-142325000D01*
G75*
G02*
X91025000Y-142400000I-75000J0D01*
G01*
X89625000Y-142400000D01*
G75*
G02*
X89550000Y-142325000I0J75000D01*
G01*
X89550000Y-142175000D01*
G75*
G02*
X89625000Y-142100000I75000J0D01*
G01*
X91025000Y-142100000D01*
G75*
G02*
X91100000Y-142175000I0J-75000D01*
G01*
G37*
G36*
G01*
X91100000Y-141675000D02*
X91100000Y-141825000D01*
G75*
G02*
X91025000Y-141900000I-75000J0D01*
G01*
X89625000Y-141900000D01*
G75*
G02*
X89550000Y-141825000I0J75000D01*
G01*
X89550000Y-141675000D01*
G75*
G02*
X89625000Y-141600000I75000J0D01*
G01*
X91025000Y-141600000D01*
G75*
G02*
X91100000Y-141675000I0J-75000D01*
G01*
G37*
G36*
G01*
X91100000Y-141175000D02*
X91100000Y-141325000D01*
G75*
G02*
X91025000Y-141400000I-75000J0D01*
G01*
X89625000Y-141400000D01*
G75*
G02*
X89550000Y-141325000I0J75000D01*
G01*
X89550000Y-141175000D01*
G75*
G02*
X89625000Y-141100000I75000J0D01*
G01*
X91025000Y-141100000D01*
G75*
G02*
X91100000Y-141175000I0J-75000D01*
G01*
G37*
G36*
G01*
X91100000Y-140675000D02*
X91100000Y-140825000D01*
G75*
G02*
X91025000Y-140900000I-75000J0D01*
G01*
X89625000Y-140900000D01*
G75*
G02*
X89550000Y-140825000I0J75000D01*
G01*
X89550000Y-140675000D01*
G75*
G02*
X89625000Y-140600000I75000J0D01*
G01*
X91025000Y-140600000D01*
G75*
G02*
X91100000Y-140675000I0J-75000D01*
G01*
G37*
G36*
G01*
X91100000Y-140175000D02*
X91100000Y-140325000D01*
G75*
G02*
X91025000Y-140400000I-75000J0D01*
G01*
X89625000Y-140400000D01*
G75*
G02*
X89550000Y-140325000I0J75000D01*
G01*
X89550000Y-140175000D01*
G75*
G02*
X89625000Y-140100000I75000J0D01*
G01*
X91025000Y-140100000D01*
G75*
G02*
X91100000Y-140175000I0J-75000D01*
G01*
G37*
G36*
G01*
X91100000Y-139675000D02*
X91100000Y-139825000D01*
G75*
G02*
X91025000Y-139900000I-75000J0D01*
G01*
X89625000Y-139900000D01*
G75*
G02*
X89550000Y-139825000I0J75000D01*
G01*
X89550000Y-139675000D01*
G75*
G02*
X89625000Y-139600000I75000J0D01*
G01*
X91025000Y-139600000D01*
G75*
G02*
X91100000Y-139675000I0J-75000D01*
G01*
G37*
G36*
G01*
X91100000Y-139175000D02*
X91100000Y-139325000D01*
G75*
G02*
X91025000Y-139400000I-75000J0D01*
G01*
X89625000Y-139400000D01*
G75*
G02*
X89550000Y-139325000I0J75000D01*
G01*
X89550000Y-139175000D01*
G75*
G02*
X89625000Y-139100000I75000J0D01*
G01*
X91025000Y-139100000D01*
G75*
G02*
X91100000Y-139175000I0J-75000D01*
G01*
G37*
G36*
G01*
X91100000Y-138675000D02*
X91100000Y-138825000D01*
G75*
G02*
X91025000Y-138900000I-75000J0D01*
G01*
X89625000Y-138900000D01*
G75*
G02*
X89550000Y-138825000I0J75000D01*
G01*
X89550000Y-138675000D01*
G75*
G02*
X89625000Y-138600000I75000J0D01*
G01*
X91025000Y-138600000D01*
G75*
G02*
X91100000Y-138675000I0J-75000D01*
G01*
G37*
G36*
G01*
X91100000Y-138175000D02*
X91100000Y-138325000D01*
G75*
G02*
X91025000Y-138400000I-75000J0D01*
G01*
X89625000Y-138400000D01*
G75*
G02*
X89550000Y-138325000I0J75000D01*
G01*
X89550000Y-138175000D01*
G75*
G02*
X89625000Y-138100000I75000J0D01*
G01*
X91025000Y-138100000D01*
G75*
G02*
X91100000Y-138175000I0J-75000D01*
G01*
G37*
G36*
G01*
X91100000Y-137675000D02*
X91100000Y-137825000D01*
G75*
G02*
X91025000Y-137900000I-75000J0D01*
G01*
X89625000Y-137900000D01*
G75*
G02*
X89550000Y-137825000I0J75000D01*
G01*
X89550000Y-137675000D01*
G75*
G02*
X89625000Y-137600000I75000J0D01*
G01*
X91025000Y-137600000D01*
G75*
G02*
X91100000Y-137675000I0J-75000D01*
G01*
G37*
G36*
G01*
X91100000Y-137175000D02*
X91100000Y-137325000D01*
G75*
G02*
X91025000Y-137400000I-75000J0D01*
G01*
X89625000Y-137400000D01*
G75*
G02*
X89550000Y-137325000I0J75000D01*
G01*
X89550000Y-137175000D01*
G75*
G02*
X89625000Y-137100000I75000J0D01*
G01*
X91025000Y-137100000D01*
G75*
G02*
X91100000Y-137175000I0J-75000D01*
G01*
G37*
G36*
G01*
X91100000Y-136675000D02*
X91100000Y-136825000D01*
G75*
G02*
X91025000Y-136900000I-75000J0D01*
G01*
X89625000Y-136900000D01*
G75*
G02*
X89550000Y-136825000I0J75000D01*
G01*
X89550000Y-136675000D01*
G75*
G02*
X89625000Y-136600000I75000J0D01*
G01*
X91025000Y-136600000D01*
G75*
G02*
X91100000Y-136675000I0J-75000D01*
G01*
G37*
G36*
G01*
X91100000Y-136175000D02*
X91100000Y-136325000D01*
G75*
G02*
X91025000Y-136400000I-75000J0D01*
G01*
X89625000Y-136400000D01*
G75*
G02*
X89550000Y-136325000I0J75000D01*
G01*
X89550000Y-136175000D01*
G75*
G02*
X89625000Y-136100000I75000J0D01*
G01*
X91025000Y-136100000D01*
G75*
G02*
X91100000Y-136175000I0J-75000D01*
G01*
G37*
G36*
G01*
X91100000Y-135675000D02*
X91100000Y-135825000D01*
G75*
G02*
X91025000Y-135900000I-75000J0D01*
G01*
X89625000Y-135900000D01*
G75*
G02*
X89550000Y-135825000I0J75000D01*
G01*
X89550000Y-135675000D01*
G75*
G02*
X89625000Y-135600000I75000J0D01*
G01*
X91025000Y-135600000D01*
G75*
G02*
X91100000Y-135675000I0J-75000D01*
G01*
G37*
G36*
G01*
X92400000Y-133125000D02*
X92400000Y-134525000D01*
G75*
G02*
X92325000Y-134600000I-75000J0D01*
G01*
X92175000Y-134600000D01*
G75*
G02*
X92100000Y-134525000I0J75000D01*
G01*
X92100000Y-133125000D01*
G75*
G02*
X92175000Y-133050000I75000J0D01*
G01*
X92325000Y-133050000D01*
G75*
G02*
X92400000Y-133125000I0J-75000D01*
G01*
G37*
G36*
G01*
X92900000Y-133125000D02*
X92900000Y-134525000D01*
G75*
G02*
X92825000Y-134600000I-75000J0D01*
G01*
X92675000Y-134600000D01*
G75*
G02*
X92600000Y-134525000I0J75000D01*
G01*
X92600000Y-133125000D01*
G75*
G02*
X92675000Y-133050000I75000J0D01*
G01*
X92825000Y-133050000D01*
G75*
G02*
X92900000Y-133125000I0J-75000D01*
G01*
G37*
G36*
G01*
X93400000Y-133125000D02*
X93400000Y-134525000D01*
G75*
G02*
X93325000Y-134600000I-75000J0D01*
G01*
X93175000Y-134600000D01*
G75*
G02*
X93100000Y-134525000I0J75000D01*
G01*
X93100000Y-133125000D01*
G75*
G02*
X93175000Y-133050000I75000J0D01*
G01*
X93325000Y-133050000D01*
G75*
G02*
X93400000Y-133125000I0J-75000D01*
G01*
G37*
G36*
G01*
X93900000Y-133125000D02*
X93900000Y-134525000D01*
G75*
G02*
X93825000Y-134600000I-75000J0D01*
G01*
X93675000Y-134600000D01*
G75*
G02*
X93600000Y-134525000I0J75000D01*
G01*
X93600000Y-133125000D01*
G75*
G02*
X93675000Y-133050000I75000J0D01*
G01*
X93825000Y-133050000D01*
G75*
G02*
X93900000Y-133125000I0J-75000D01*
G01*
G37*
G36*
G01*
X94400000Y-133125000D02*
X94400000Y-134525000D01*
G75*
G02*
X94325000Y-134600000I-75000J0D01*
G01*
X94175000Y-134600000D01*
G75*
G02*
X94100000Y-134525000I0J75000D01*
G01*
X94100000Y-133125000D01*
G75*
G02*
X94175000Y-133050000I75000J0D01*
G01*
X94325000Y-133050000D01*
G75*
G02*
X94400000Y-133125000I0J-75000D01*
G01*
G37*
G36*
G01*
X94900000Y-133125000D02*
X94900000Y-134525000D01*
G75*
G02*
X94825000Y-134600000I-75000J0D01*
G01*
X94675000Y-134600000D01*
G75*
G02*
X94600000Y-134525000I0J75000D01*
G01*
X94600000Y-133125000D01*
G75*
G02*
X94675000Y-133050000I75000J0D01*
G01*
X94825000Y-133050000D01*
G75*
G02*
X94900000Y-133125000I0J-75000D01*
G01*
G37*
G36*
G01*
X95400000Y-133125000D02*
X95400000Y-134525000D01*
G75*
G02*
X95325000Y-134600000I-75000J0D01*
G01*
X95175000Y-134600000D01*
G75*
G02*
X95100000Y-134525000I0J75000D01*
G01*
X95100000Y-133125000D01*
G75*
G02*
X95175000Y-133050000I75000J0D01*
G01*
X95325000Y-133050000D01*
G75*
G02*
X95400000Y-133125000I0J-75000D01*
G01*
G37*
G36*
G01*
X95900000Y-133125000D02*
X95900000Y-134525000D01*
G75*
G02*
X95825000Y-134600000I-75000J0D01*
G01*
X95675000Y-134600000D01*
G75*
G02*
X95600000Y-134525000I0J75000D01*
G01*
X95600000Y-133125000D01*
G75*
G02*
X95675000Y-133050000I75000J0D01*
G01*
X95825000Y-133050000D01*
G75*
G02*
X95900000Y-133125000I0J-75000D01*
G01*
G37*
G36*
G01*
X96400000Y-133125000D02*
X96400000Y-134525000D01*
G75*
G02*
X96325000Y-134600000I-75000J0D01*
G01*
X96175000Y-134600000D01*
G75*
G02*
X96100000Y-134525000I0J75000D01*
G01*
X96100000Y-133125000D01*
G75*
G02*
X96175000Y-133050000I75000J0D01*
G01*
X96325000Y-133050000D01*
G75*
G02*
X96400000Y-133125000I0J-75000D01*
G01*
G37*
G36*
G01*
X96900000Y-133125000D02*
X96900000Y-134525000D01*
G75*
G02*
X96825000Y-134600000I-75000J0D01*
G01*
X96675000Y-134600000D01*
G75*
G02*
X96600000Y-134525000I0J75000D01*
G01*
X96600000Y-133125000D01*
G75*
G02*
X96675000Y-133050000I75000J0D01*
G01*
X96825000Y-133050000D01*
G75*
G02*
X96900000Y-133125000I0J-75000D01*
G01*
G37*
G36*
G01*
X97400000Y-133125000D02*
X97400000Y-134525000D01*
G75*
G02*
X97325000Y-134600000I-75000J0D01*
G01*
X97175000Y-134600000D01*
G75*
G02*
X97100000Y-134525000I0J75000D01*
G01*
X97100000Y-133125000D01*
G75*
G02*
X97175000Y-133050000I75000J0D01*
G01*
X97325000Y-133050000D01*
G75*
G02*
X97400000Y-133125000I0J-75000D01*
G01*
G37*
G36*
G01*
X97900000Y-133125000D02*
X97900000Y-134525000D01*
G75*
G02*
X97825000Y-134600000I-75000J0D01*
G01*
X97675000Y-134600000D01*
G75*
G02*
X97600000Y-134525000I0J75000D01*
G01*
X97600000Y-133125000D01*
G75*
G02*
X97675000Y-133050000I75000J0D01*
G01*
X97825000Y-133050000D01*
G75*
G02*
X97900000Y-133125000I0J-75000D01*
G01*
G37*
G36*
G01*
X98400000Y-133125000D02*
X98400000Y-134525000D01*
G75*
G02*
X98325000Y-134600000I-75000J0D01*
G01*
X98175000Y-134600000D01*
G75*
G02*
X98100000Y-134525000I0J75000D01*
G01*
X98100000Y-133125000D01*
G75*
G02*
X98175000Y-133050000I75000J0D01*
G01*
X98325000Y-133050000D01*
G75*
G02*
X98400000Y-133125000I0J-75000D01*
G01*
G37*
G36*
G01*
X98900000Y-133125000D02*
X98900000Y-134525000D01*
G75*
G02*
X98825000Y-134600000I-75000J0D01*
G01*
X98675000Y-134600000D01*
G75*
G02*
X98600000Y-134525000I0J75000D01*
G01*
X98600000Y-133125000D01*
G75*
G02*
X98675000Y-133050000I75000J0D01*
G01*
X98825000Y-133050000D01*
G75*
G02*
X98900000Y-133125000I0J-75000D01*
G01*
G37*
G36*
G01*
X99400000Y-133125000D02*
X99400000Y-134525000D01*
G75*
G02*
X99325000Y-134600000I-75000J0D01*
G01*
X99175000Y-134600000D01*
G75*
G02*
X99100000Y-134525000I0J75000D01*
G01*
X99100000Y-133125000D01*
G75*
G02*
X99175000Y-133050000I75000J0D01*
G01*
X99325000Y-133050000D01*
G75*
G02*
X99400000Y-133125000I0J-75000D01*
G01*
G37*
G36*
G01*
X99900000Y-133125000D02*
X99900000Y-134525000D01*
G75*
G02*
X99825000Y-134600000I-75000J0D01*
G01*
X99675000Y-134600000D01*
G75*
G02*
X99600000Y-134525000I0J75000D01*
G01*
X99600000Y-133125000D01*
G75*
G02*
X99675000Y-133050000I75000J0D01*
G01*
X99825000Y-133050000D01*
G75*
G02*
X99900000Y-133125000I0J-75000D01*
G01*
G37*
G36*
G01*
X102450000Y-135675000D02*
X102450000Y-135825000D01*
G75*
G02*
X102375000Y-135900000I-75000J0D01*
G01*
X100975000Y-135900000D01*
G75*
G02*
X100900000Y-135825000I0J75000D01*
G01*
X100900000Y-135675000D01*
G75*
G02*
X100975000Y-135600000I75000J0D01*
G01*
X102375000Y-135600000D01*
G75*
G02*
X102450000Y-135675000I0J-75000D01*
G01*
G37*
G36*
G01*
X102450000Y-136175000D02*
X102450000Y-136325000D01*
G75*
G02*
X102375000Y-136400000I-75000J0D01*
G01*
X100975000Y-136400000D01*
G75*
G02*
X100900000Y-136325000I0J75000D01*
G01*
X100900000Y-136175000D01*
G75*
G02*
X100975000Y-136100000I75000J0D01*
G01*
X102375000Y-136100000D01*
G75*
G02*
X102450000Y-136175000I0J-75000D01*
G01*
G37*
G36*
G01*
X102450000Y-136675000D02*
X102450000Y-136825000D01*
G75*
G02*
X102375000Y-136900000I-75000J0D01*
G01*
X100975000Y-136900000D01*
G75*
G02*
X100900000Y-136825000I0J75000D01*
G01*
X100900000Y-136675000D01*
G75*
G02*
X100975000Y-136600000I75000J0D01*
G01*
X102375000Y-136600000D01*
G75*
G02*
X102450000Y-136675000I0J-75000D01*
G01*
G37*
G36*
G01*
X102450000Y-137175000D02*
X102450000Y-137325000D01*
G75*
G02*
X102375000Y-137400000I-75000J0D01*
G01*
X100975000Y-137400000D01*
G75*
G02*
X100900000Y-137325000I0J75000D01*
G01*
X100900000Y-137175000D01*
G75*
G02*
X100975000Y-137100000I75000J0D01*
G01*
X102375000Y-137100000D01*
G75*
G02*
X102450000Y-137175000I0J-75000D01*
G01*
G37*
G36*
G01*
X102450000Y-137675000D02*
X102450000Y-137825000D01*
G75*
G02*
X102375000Y-137900000I-75000J0D01*
G01*
X100975000Y-137900000D01*
G75*
G02*
X100900000Y-137825000I0J75000D01*
G01*
X100900000Y-137675000D01*
G75*
G02*
X100975000Y-137600000I75000J0D01*
G01*
X102375000Y-137600000D01*
G75*
G02*
X102450000Y-137675000I0J-75000D01*
G01*
G37*
G36*
G01*
X102450000Y-138175000D02*
X102450000Y-138325000D01*
G75*
G02*
X102375000Y-138400000I-75000J0D01*
G01*
X100975000Y-138400000D01*
G75*
G02*
X100900000Y-138325000I0J75000D01*
G01*
X100900000Y-138175000D01*
G75*
G02*
X100975000Y-138100000I75000J0D01*
G01*
X102375000Y-138100000D01*
G75*
G02*
X102450000Y-138175000I0J-75000D01*
G01*
G37*
G36*
G01*
X102450000Y-138675000D02*
X102450000Y-138825000D01*
G75*
G02*
X102375000Y-138900000I-75000J0D01*
G01*
X100975000Y-138900000D01*
G75*
G02*
X100900000Y-138825000I0J75000D01*
G01*
X100900000Y-138675000D01*
G75*
G02*
X100975000Y-138600000I75000J0D01*
G01*
X102375000Y-138600000D01*
G75*
G02*
X102450000Y-138675000I0J-75000D01*
G01*
G37*
G36*
G01*
X102450000Y-139175000D02*
X102450000Y-139325000D01*
G75*
G02*
X102375000Y-139400000I-75000J0D01*
G01*
X100975000Y-139400000D01*
G75*
G02*
X100900000Y-139325000I0J75000D01*
G01*
X100900000Y-139175000D01*
G75*
G02*
X100975000Y-139100000I75000J0D01*
G01*
X102375000Y-139100000D01*
G75*
G02*
X102450000Y-139175000I0J-75000D01*
G01*
G37*
G36*
G01*
X102450000Y-139675000D02*
X102450000Y-139825000D01*
G75*
G02*
X102375000Y-139900000I-75000J0D01*
G01*
X100975000Y-139900000D01*
G75*
G02*
X100900000Y-139825000I0J75000D01*
G01*
X100900000Y-139675000D01*
G75*
G02*
X100975000Y-139600000I75000J0D01*
G01*
X102375000Y-139600000D01*
G75*
G02*
X102450000Y-139675000I0J-75000D01*
G01*
G37*
G36*
G01*
X102450000Y-140175000D02*
X102450000Y-140325000D01*
G75*
G02*
X102375000Y-140400000I-75000J0D01*
G01*
X100975000Y-140400000D01*
G75*
G02*
X100900000Y-140325000I0J75000D01*
G01*
X100900000Y-140175000D01*
G75*
G02*
X100975000Y-140100000I75000J0D01*
G01*
X102375000Y-140100000D01*
G75*
G02*
X102450000Y-140175000I0J-75000D01*
G01*
G37*
G36*
G01*
X102450000Y-140675000D02*
X102450000Y-140825000D01*
G75*
G02*
X102375000Y-140900000I-75000J0D01*
G01*
X100975000Y-140900000D01*
G75*
G02*
X100900000Y-140825000I0J75000D01*
G01*
X100900000Y-140675000D01*
G75*
G02*
X100975000Y-140600000I75000J0D01*
G01*
X102375000Y-140600000D01*
G75*
G02*
X102450000Y-140675000I0J-75000D01*
G01*
G37*
G36*
G01*
X102450000Y-141175000D02*
X102450000Y-141325000D01*
G75*
G02*
X102375000Y-141400000I-75000J0D01*
G01*
X100975000Y-141400000D01*
G75*
G02*
X100900000Y-141325000I0J75000D01*
G01*
X100900000Y-141175000D01*
G75*
G02*
X100975000Y-141100000I75000J0D01*
G01*
X102375000Y-141100000D01*
G75*
G02*
X102450000Y-141175000I0J-75000D01*
G01*
G37*
G36*
G01*
X102450000Y-141675000D02*
X102450000Y-141825000D01*
G75*
G02*
X102375000Y-141900000I-75000J0D01*
G01*
X100975000Y-141900000D01*
G75*
G02*
X100900000Y-141825000I0J75000D01*
G01*
X100900000Y-141675000D01*
G75*
G02*
X100975000Y-141600000I75000J0D01*
G01*
X102375000Y-141600000D01*
G75*
G02*
X102450000Y-141675000I0J-75000D01*
G01*
G37*
G36*
G01*
X102450000Y-142175000D02*
X102450000Y-142325000D01*
G75*
G02*
X102375000Y-142400000I-75000J0D01*
G01*
X100975000Y-142400000D01*
G75*
G02*
X100900000Y-142325000I0J75000D01*
G01*
X100900000Y-142175000D01*
G75*
G02*
X100975000Y-142100000I75000J0D01*
G01*
X102375000Y-142100000D01*
G75*
G02*
X102450000Y-142175000I0J-75000D01*
G01*
G37*
G36*
G01*
X102450000Y-142675000D02*
X102450000Y-142825000D01*
G75*
G02*
X102375000Y-142900000I-75000J0D01*
G01*
X100975000Y-142900000D01*
G75*
G02*
X100900000Y-142825000I0J75000D01*
G01*
X100900000Y-142675000D01*
G75*
G02*
X100975000Y-142600000I75000J0D01*
G01*
X102375000Y-142600000D01*
G75*
G02*
X102450000Y-142675000I0J-75000D01*
G01*
G37*
G36*
G01*
X102450000Y-143175000D02*
X102450000Y-143325000D01*
G75*
G02*
X102375000Y-143400000I-75000J0D01*
G01*
X100975000Y-143400000D01*
G75*
G02*
X100900000Y-143325000I0J75000D01*
G01*
X100900000Y-143175000D01*
G75*
G02*
X100975000Y-143100000I75000J0D01*
G01*
X102375000Y-143100000D01*
G75*
G02*
X102450000Y-143175000I0J-75000D01*
G01*
G37*
%TD*%
D19*
%TO.C,SW3*%
X123500000Y-133250000D03*
D20*
G36*
X122015075Y-133532843D02*
G01*
X123217157Y-134734925D01*
X122580761Y-135371321D01*
X121378679Y-134169239D01*
X122015075Y-133532843D01*
G37*
G36*
X124419239Y-131128679D02*
G01*
X125621321Y-132330761D01*
X124984925Y-132967157D01*
X123782843Y-131765075D01*
X124419239Y-131128679D01*
G37*
%TD*%
D19*
%TO.C,SW2*%
X127000000Y-136750000D03*
D20*
G36*
X125515075Y-137032843D02*
G01*
X126717157Y-138234925D01*
X126080761Y-138871321D01*
X124878679Y-137669239D01*
X125515075Y-137032843D01*
G37*
G36*
X127919239Y-134628679D02*
G01*
X129121321Y-135830761D01*
X128484925Y-136467157D01*
X127282843Y-135265075D01*
X127919239Y-134628679D01*
G37*
%TD*%
%TO.C,R11*%
G36*
G01*
X77975000Y-147500000D02*
X78525000Y-147500000D01*
G75*
G02*
X78725000Y-147700000I0J-200000D01*
G01*
X78725000Y-148100000D01*
G75*
G02*
X78525000Y-148300000I-200000J0D01*
G01*
X77975000Y-148300000D01*
G75*
G02*
X77775000Y-148100000I0J200000D01*
G01*
X77775000Y-147700000D01*
G75*
G02*
X77975000Y-147500000I200000J0D01*
G01*
G37*
G36*
G01*
X77975000Y-145850000D02*
X78525000Y-145850000D01*
G75*
G02*
X78725000Y-146050000I0J-200000D01*
G01*
X78725000Y-146450000D01*
G75*
G02*
X78525000Y-146650000I-200000J0D01*
G01*
X77975000Y-146650000D01*
G75*
G02*
X77775000Y-146450000I0J200000D01*
G01*
X77775000Y-146050000D01*
G75*
G02*
X77975000Y-145850000I200000J0D01*
G01*
G37*
%TD*%
%TO.C,R10*%
G36*
G01*
X80725000Y-147425000D02*
X81275000Y-147425000D01*
G75*
G02*
X81475000Y-147625000I0J-200000D01*
G01*
X81475000Y-148025000D01*
G75*
G02*
X81275000Y-148225000I-200000J0D01*
G01*
X80725000Y-148225000D01*
G75*
G02*
X80525000Y-148025000I0J200000D01*
G01*
X80525000Y-147625000D01*
G75*
G02*
X80725000Y-147425000I200000J0D01*
G01*
G37*
G36*
G01*
X80725000Y-145775000D02*
X81275000Y-145775000D01*
G75*
G02*
X81475000Y-145975000I0J-200000D01*
G01*
X81475000Y-146375000D01*
G75*
G02*
X81275000Y-146575000I-200000J0D01*
G01*
X80725000Y-146575000D01*
G75*
G02*
X80525000Y-146375000I0J200000D01*
G01*
X80525000Y-145975000D01*
G75*
G02*
X80725000Y-145775000I200000J0D01*
G01*
G37*
%TD*%
%TO.C,R9*%
G36*
G01*
X86075000Y-148475000D02*
X86075000Y-149025000D01*
G75*
G02*
X85875000Y-149225000I-200000J0D01*
G01*
X85475000Y-149225000D01*
G75*
G02*
X85275000Y-149025000I0J200000D01*
G01*
X85275000Y-148475000D01*
G75*
G02*
X85475000Y-148275000I200000J0D01*
G01*
X85875000Y-148275000D01*
G75*
G02*
X86075000Y-148475000I0J-200000D01*
G01*
G37*
G36*
G01*
X87725000Y-148475000D02*
X87725000Y-149025000D01*
G75*
G02*
X87525000Y-149225000I-200000J0D01*
G01*
X87125000Y-149225000D01*
G75*
G02*
X86925000Y-149025000I0J200000D01*
G01*
X86925000Y-148475000D01*
G75*
G02*
X87125000Y-148275000I200000J0D01*
G01*
X87525000Y-148275000D01*
G75*
G02*
X87725000Y-148475000I0J-200000D01*
G01*
G37*
%TD*%
%TO.C,R8*%
G36*
G01*
X86075000Y-146725000D02*
X86075000Y-147275000D01*
G75*
G02*
X85875000Y-147475000I-200000J0D01*
G01*
X85475000Y-147475000D01*
G75*
G02*
X85275000Y-147275000I0J200000D01*
G01*
X85275000Y-146725000D01*
G75*
G02*
X85475000Y-146525000I200000J0D01*
G01*
X85875000Y-146525000D01*
G75*
G02*
X86075000Y-146725000I0J-200000D01*
G01*
G37*
G36*
G01*
X87725000Y-146725000D02*
X87725000Y-147275000D01*
G75*
G02*
X87525000Y-147475000I-200000J0D01*
G01*
X87125000Y-147475000D01*
G75*
G02*
X86925000Y-147275000I0J200000D01*
G01*
X86925000Y-146725000D01*
G75*
G02*
X87125000Y-146525000I200000J0D01*
G01*
X87525000Y-146525000D01*
G75*
G02*
X87725000Y-146725000I0J-200000D01*
G01*
G37*
%TD*%
%TO.C,R7*%
G36*
G01*
X140775000Y-139325000D02*
X140225000Y-139325000D01*
G75*
G02*
X140025000Y-139125000I0J200000D01*
G01*
X140025000Y-138725000D01*
G75*
G02*
X140225000Y-138525000I200000J0D01*
G01*
X140775000Y-138525000D01*
G75*
G02*
X140975000Y-138725000I0J-200000D01*
G01*
X140975000Y-139125000D01*
G75*
G02*
X140775000Y-139325000I-200000J0D01*
G01*
G37*
G36*
G01*
X140775000Y-140975000D02*
X140225000Y-140975000D01*
G75*
G02*
X140025000Y-140775000I0J200000D01*
G01*
X140025000Y-140375000D01*
G75*
G02*
X140225000Y-140175000I200000J0D01*
G01*
X140775000Y-140175000D01*
G75*
G02*
X140975000Y-140375000I0J-200000D01*
G01*
X140975000Y-140775000D01*
G75*
G02*
X140775000Y-140975000I-200000J0D01*
G01*
G37*
%TD*%
%TO.C,R6*%
G36*
G01*
X137025000Y-139325000D02*
X136475000Y-139325000D01*
G75*
G02*
X136275000Y-139125000I0J200000D01*
G01*
X136275000Y-138725000D01*
G75*
G02*
X136475000Y-138525000I200000J0D01*
G01*
X137025000Y-138525000D01*
G75*
G02*
X137225000Y-138725000I0J-200000D01*
G01*
X137225000Y-139125000D01*
G75*
G02*
X137025000Y-139325000I-200000J0D01*
G01*
G37*
G36*
G01*
X137025000Y-140975000D02*
X136475000Y-140975000D01*
G75*
G02*
X136275000Y-140775000I0J200000D01*
G01*
X136275000Y-140375000D01*
G75*
G02*
X136475000Y-140175000I200000J0D01*
G01*
X137025000Y-140175000D01*
G75*
G02*
X137225000Y-140375000I0J-200000D01*
G01*
X137225000Y-140775000D01*
G75*
G02*
X137025000Y-140975000I-200000J0D01*
G01*
G37*
%TD*%
%TO.C,R5*%
G36*
G01*
X119856066Y-137494975D02*
X120244975Y-137106066D01*
G75*
G02*
X120527817Y-137106066I141421J-141421D01*
G01*
X120810660Y-137388909D01*
G75*
G02*
X120810660Y-137671751I-141421J-141421D01*
G01*
X120421751Y-138060660D01*
G75*
G02*
X120138909Y-138060660I-141421J141421D01*
G01*
X119856066Y-137777817D01*
G75*
G02*
X119856066Y-137494975I141421J141421D01*
G01*
G37*
G36*
G01*
X118689340Y-136328249D02*
X119078249Y-135939340D01*
G75*
G02*
X119361091Y-135939340I141421J-141421D01*
G01*
X119643934Y-136222183D01*
G75*
G02*
X119643934Y-136505025I-141421J-141421D01*
G01*
X119255025Y-136893934D01*
G75*
G02*
X118972183Y-136893934I-141421J141421D01*
G01*
X118689340Y-136611091D01*
G75*
G02*
X118689340Y-136328249I141421J141421D01*
G01*
G37*
%TD*%
%TO.C,R4*%
G36*
G01*
X123356066Y-140994975D02*
X123744975Y-140606066D01*
G75*
G02*
X124027817Y-140606066I141421J-141421D01*
G01*
X124310660Y-140888909D01*
G75*
G02*
X124310660Y-141171751I-141421J-141421D01*
G01*
X123921751Y-141560660D01*
G75*
G02*
X123638909Y-141560660I-141421J141421D01*
G01*
X123356066Y-141277817D01*
G75*
G02*
X123356066Y-140994975I141421J141421D01*
G01*
G37*
G36*
G01*
X122189340Y-139828249D02*
X122578249Y-139439340D01*
G75*
G02*
X122861091Y-139439340I141421J-141421D01*
G01*
X123143934Y-139722183D01*
G75*
G02*
X123143934Y-140005025I-141421J-141421D01*
G01*
X122755025Y-140393934D01*
G75*
G02*
X122472183Y-140393934I-141421J141421D01*
G01*
X122189340Y-140111091D01*
G75*
G02*
X122189340Y-139828249I141421J141421D01*
G01*
G37*
%TD*%
%TO.C,R3*%
G36*
G01*
X105475000Y-153175000D02*
X106025000Y-153175000D01*
G75*
G02*
X106225000Y-153375000I0J-200000D01*
G01*
X106225000Y-153775000D01*
G75*
G02*
X106025000Y-153975000I-200000J0D01*
G01*
X105475000Y-153975000D01*
G75*
G02*
X105275000Y-153775000I0J200000D01*
G01*
X105275000Y-153375000D01*
G75*
G02*
X105475000Y-153175000I200000J0D01*
G01*
G37*
G36*
G01*
X105475000Y-151525000D02*
X106025000Y-151525000D01*
G75*
G02*
X106225000Y-151725000I0J-200000D01*
G01*
X106225000Y-152125000D01*
G75*
G02*
X106025000Y-152325000I-200000J0D01*
G01*
X105475000Y-152325000D01*
G75*
G02*
X105275000Y-152125000I0J200000D01*
G01*
X105275000Y-151725000D01*
G75*
G02*
X105475000Y-151525000I200000J0D01*
G01*
G37*
%TD*%
%TO.C,R2*%
G36*
G01*
X113525000Y-156325000D02*
X112975000Y-156325000D01*
G75*
G02*
X112775000Y-156125000I0J200000D01*
G01*
X112775000Y-155725000D01*
G75*
G02*
X112975000Y-155525000I200000J0D01*
G01*
X113525000Y-155525000D01*
G75*
G02*
X113725000Y-155725000I0J-200000D01*
G01*
X113725000Y-156125000D01*
G75*
G02*
X113525000Y-156325000I-200000J0D01*
G01*
G37*
G36*
G01*
X113525000Y-157975000D02*
X112975000Y-157975000D01*
G75*
G02*
X112775000Y-157775000I0J200000D01*
G01*
X112775000Y-157375000D01*
G75*
G02*
X112975000Y-157175000I200000J0D01*
G01*
X113525000Y-157175000D01*
G75*
G02*
X113725000Y-157375000I0J-200000D01*
G01*
X113725000Y-157775000D01*
G75*
G02*
X113525000Y-157975000I-200000J0D01*
G01*
G37*
%TD*%
%TO.C,R1*%
G36*
G01*
X133275000Y-139325000D02*
X132725000Y-139325000D01*
G75*
G02*
X132525000Y-139125000I0J200000D01*
G01*
X132525000Y-138725000D01*
G75*
G02*
X132725000Y-138525000I200000J0D01*
G01*
X133275000Y-138525000D01*
G75*
G02*
X133475000Y-138725000I0J-200000D01*
G01*
X133475000Y-139125000D01*
G75*
G02*
X133275000Y-139325000I-200000J0D01*
G01*
G37*
G36*
G01*
X133275000Y-140975000D02*
X132725000Y-140975000D01*
G75*
G02*
X132525000Y-140775000I0J200000D01*
G01*
X132525000Y-140375000D01*
G75*
G02*
X132725000Y-140175000I200000J0D01*
G01*
X133275000Y-140175000D01*
G75*
G02*
X133475000Y-140375000I0J-200000D01*
G01*
X133475000Y-140775000D01*
G75*
G02*
X133275000Y-140975000I-200000J0D01*
G01*
G37*
%TD*%
D21*
%TO.C,Q2*%
X111250000Y-152750000D03*
X109250000Y-153700000D03*
X109250000Y-151800000D03*
%TD*%
%TO.C,Q1*%
X109250000Y-156750000D03*
X111250000Y-155800000D03*
X111250000Y-157700000D03*
%TD*%
D16*
%TO.C,J6*%
X68000000Y-156950000D03*
X68000000Y-154410000D03*
X68000000Y-151870000D03*
X68000000Y-149330000D03*
X68000000Y-146790000D03*
D17*
X68000000Y-144250000D03*
%TD*%
D16*
%TO.C,J5*%
X65280000Y-140000000D03*
X62740000Y-140000000D03*
X60200000Y-140000000D03*
X57660000Y-140000000D03*
X55120000Y-140000000D03*
X52580000Y-140000000D03*
X50040000Y-140000000D03*
D17*
X47500000Y-140000000D03*
%TD*%
D16*
%TO.C,J4*%
X124250000Y-157200000D03*
X124250000Y-154660000D03*
X124250000Y-152120000D03*
X124250000Y-149580000D03*
X124250000Y-147040000D03*
D17*
X124250000Y-144500000D03*
%TD*%
D16*
%TO.C,J3*%
X111040000Y-162250000D03*
D17*
X108500000Y-162250000D03*
%TD*%
D12*
%TO.C,J1*%
X87080000Y-128150000D03*
X104920000Y-128150000D03*
D11*
X88750000Y-129850000D03*
X89250000Y-129850000D03*
X89750000Y-129850000D03*
X90250000Y-129850000D03*
X90750000Y-129850000D03*
X91250000Y-129850000D03*
X91750000Y-129850000D03*
X92250000Y-129850000D03*
X92750000Y-129850000D03*
X93250000Y-129850000D03*
X93750000Y-129850000D03*
X94250000Y-129850000D03*
X94750000Y-129850000D03*
X95250000Y-129850000D03*
X95750000Y-129850000D03*
X96250000Y-129850000D03*
X96750000Y-129850000D03*
X97250000Y-129850000D03*
X97750000Y-129850000D03*
X98250000Y-129850000D03*
X98750000Y-129850000D03*
X99250000Y-129850000D03*
X99750000Y-129850000D03*
X100250000Y-129850000D03*
X100750000Y-129850000D03*
X101250000Y-129850000D03*
X101750000Y-129850000D03*
X102250000Y-129850000D03*
X102750000Y-129850000D03*
X103250000Y-129850000D03*
%TD*%
%TO.C,D3*%
G36*
G01*
X141993750Y-140100000D02*
X142506250Y-140100000D01*
G75*
G02*
X142725000Y-140318750I0J-218750D01*
G01*
X142725000Y-140756250D01*
G75*
G02*
X142506250Y-140975000I-218750J0D01*
G01*
X141993750Y-140975000D01*
G75*
G02*
X141775000Y-140756250I0J218750D01*
G01*
X141775000Y-140318750D01*
G75*
G02*
X141993750Y-140100000I218750J0D01*
G01*
G37*
G36*
G01*
X141993750Y-138525000D02*
X142506250Y-138525000D01*
G75*
G02*
X142725000Y-138743750I0J-218750D01*
G01*
X142725000Y-139181250D01*
G75*
G02*
X142506250Y-139400000I-218750J0D01*
G01*
X141993750Y-139400000D01*
G75*
G02*
X141775000Y-139181250I0J218750D01*
G01*
X141775000Y-138743750D01*
G75*
G02*
X141993750Y-138525000I218750J0D01*
G01*
G37*
%TD*%
%TO.C,D2*%
G36*
G01*
X138243750Y-140100000D02*
X138756250Y-140100000D01*
G75*
G02*
X138975000Y-140318750I0J-218750D01*
G01*
X138975000Y-140756250D01*
G75*
G02*
X138756250Y-140975000I-218750J0D01*
G01*
X138243750Y-140975000D01*
G75*
G02*
X138025000Y-140756250I0J218750D01*
G01*
X138025000Y-140318750D01*
G75*
G02*
X138243750Y-140100000I218750J0D01*
G01*
G37*
G36*
G01*
X138243750Y-138525000D02*
X138756250Y-138525000D01*
G75*
G02*
X138975000Y-138743750I0J-218750D01*
G01*
X138975000Y-139181250D01*
G75*
G02*
X138756250Y-139400000I-218750J0D01*
G01*
X138243750Y-139400000D01*
G75*
G02*
X138025000Y-139181250I0J218750D01*
G01*
X138025000Y-138743750D01*
G75*
G02*
X138243750Y-138525000I218750J0D01*
G01*
G37*
%TD*%
%TO.C,D1*%
G36*
G01*
X134493750Y-140100000D02*
X135006250Y-140100000D01*
G75*
G02*
X135225000Y-140318750I0J-218750D01*
G01*
X135225000Y-140756250D01*
G75*
G02*
X135006250Y-140975000I-218750J0D01*
G01*
X134493750Y-140975000D01*
G75*
G02*
X134275000Y-140756250I0J218750D01*
G01*
X134275000Y-140318750D01*
G75*
G02*
X134493750Y-140100000I218750J0D01*
G01*
G37*
G36*
G01*
X134493750Y-138525000D02*
X135006250Y-138525000D01*
G75*
G02*
X135225000Y-138743750I0J-218750D01*
G01*
X135225000Y-139181250D01*
G75*
G02*
X135006250Y-139400000I-218750J0D01*
G01*
X134493750Y-139400000D01*
G75*
G02*
X134275000Y-139181250I0J218750D01*
G01*
X134275000Y-138743750D01*
G75*
G02*
X134493750Y-138525000I218750J0D01*
G01*
G37*
%TD*%
%TO.C,C5*%
G36*
G01*
X117250000Y-141825000D02*
X117750000Y-141825000D01*
G75*
G02*
X117975000Y-142050000I0J-225000D01*
G01*
X117975000Y-142500000D01*
G75*
G02*
X117750000Y-142725000I-225000J0D01*
G01*
X117250000Y-142725000D01*
G75*
G02*
X117025000Y-142500000I0J225000D01*
G01*
X117025000Y-142050000D01*
G75*
G02*
X117250000Y-141825000I225000J0D01*
G01*
G37*
G36*
G01*
X117250000Y-140275000D02*
X117750000Y-140275000D01*
G75*
G02*
X117975000Y-140500000I0J-225000D01*
G01*
X117975000Y-140950000D01*
G75*
G02*
X117750000Y-141175000I-225000J0D01*
G01*
X117250000Y-141175000D01*
G75*
G02*
X117025000Y-140950000I0J225000D01*
G01*
X117025000Y-140500000D01*
G75*
G02*
X117250000Y-140275000I225000J0D01*
G01*
G37*
%TD*%
%TO.C,C4*%
G36*
G01*
X117750000Y-144675000D02*
X117250000Y-144675000D01*
G75*
G02*
X117025000Y-144450000I0J225000D01*
G01*
X117025000Y-144000000D01*
G75*
G02*
X117250000Y-143775000I225000J0D01*
G01*
X117750000Y-143775000D01*
G75*
G02*
X117975000Y-144000000I0J-225000D01*
G01*
X117975000Y-144450000D01*
G75*
G02*
X117750000Y-144675000I-225000J0D01*
G01*
G37*
G36*
G01*
X117750000Y-146225000D02*
X117250000Y-146225000D01*
G75*
G02*
X117025000Y-146000000I0J225000D01*
G01*
X117025000Y-145550000D01*
G75*
G02*
X117250000Y-145325000I225000J0D01*
G01*
X117750000Y-145325000D01*
G75*
G02*
X117975000Y-145550000I0J-225000D01*
G01*
X117975000Y-146000000D01*
G75*
G02*
X117750000Y-146225000I-225000J0D01*
G01*
G37*
%TD*%
%TO.C,C2*%
G36*
G01*
X121053033Y-136156587D02*
X121406587Y-135803033D01*
G75*
G02*
X121724785Y-135803033I159099J-159099D01*
G01*
X122042983Y-136121231D01*
G75*
G02*
X122042983Y-136439429I-159099J-159099D01*
G01*
X121689429Y-136792983D01*
G75*
G02*
X121371231Y-136792983I-159099J159099D01*
G01*
X121053033Y-136474785D01*
G75*
G02*
X121053033Y-136156587I159099J159099D01*
G01*
G37*
G36*
G01*
X119957017Y-135060571D02*
X120310571Y-134707017D01*
G75*
G02*
X120628769Y-134707017I159099J-159099D01*
G01*
X120946967Y-135025215D01*
G75*
G02*
X120946967Y-135343413I-159099J-159099D01*
G01*
X120593413Y-135696967D01*
G75*
G02*
X120275215Y-135696967I-159099J159099D01*
G01*
X119957017Y-135378769D01*
G75*
G02*
X119957017Y-135060571I159099J159099D01*
G01*
G37*
%TD*%
%TO.C,C1*%
G36*
G01*
X124494975Y-138891421D02*
X124141421Y-139244975D01*
G75*
G02*
X123823223Y-139244975I-159099J159099D01*
G01*
X123505025Y-138926777D01*
G75*
G02*
X123505025Y-138608579I159099J159099D01*
G01*
X123858579Y-138255025D01*
G75*
G02*
X124176777Y-138255025I159099J-159099D01*
G01*
X124494975Y-138573223D01*
G75*
G02*
X124494975Y-138891421I-159099J-159099D01*
G01*
G37*
G36*
G01*
X125590991Y-139987437D02*
X125237437Y-140340991D01*
G75*
G02*
X124919239Y-140340991I-159099J159099D01*
G01*
X124601041Y-140022793D01*
G75*
G02*
X124601041Y-139704595I159099J159099D01*
G01*
X124954595Y-139351041D01*
G75*
G02*
X125272793Y-139351041I159099J-159099D01*
G01*
X125590991Y-139669239D01*
G75*
G02*
X125590991Y-139987437I-159099J-159099D01*
G01*
G37*
%TD*%
D22*
%TO.C,A1*%
X99000000Y-161250000D03*
X99000000Y-151856000D03*
X83250000Y-161250000D03*
X83250000Y-151856000D03*
%TD*%
M02*
