M48
; DRILL file {KiCad (5.1.7)-1} date 05/04/21 00:49:12
; FORMAT={-:-/ absolute / inch / decimal}
; #@! TF.CreationDate,2021-05-04T00:49:12+02:00
; #@! TF.GenerationSoftware,Kicad,Pcbnew,(5.1.7)-1
FMAT,2
INCH
T1C0.0118
T2C0.0157
T3C0.0197
T4C0.0335
T5C0.0394
T6C0.0197
T7C0.0315
%
G90
G05
T1
X2.7642Y-5.7791
X2.7756Y-6.1762
X2.785Y-6.2254
X2.7854Y-5.8661
X2.9528Y-6.1329
X2.9713Y-6.2156
X3.002Y-6.1516
X3.0318Y-6.1416
X3.0709Y-5.5315
X3.0807Y-5.8228
X3.1102Y-5.5069
X3.189Y-5.8199
X3.3465Y-5.3248
X3.3661Y-5.3543
X3.4154Y-6.3386
X3.4154Y-6.4173
X3.435Y-5.4626
X3.4547Y-5.4331
X3.622Y-5.1673
X3.622Y-5.4429
X3.6319Y-5.5807
X3.6614Y-5.4823
X3.6713Y-5.3248
X3.6713Y-5.4429
X3.6811Y-5.5807
X3.6909Y-5.1673
X3.7106Y-5.4921
X3.7205Y-5.3248
X3.7303Y-5.5413
X3.7697Y-5.3248
X3.7697Y-5.561
X3.7795Y-5.4331
X3.8189Y-5.3248
X3.8287Y-5.4331
X3.8287Y-5.561
X3.8386Y-5.4724
X3.8484Y-5.8071
X3.878Y-5.4232
X3.8878Y-5.561
X3.9075Y-5.8071
X3.9272Y-5.374
X3.9272Y-5.4232
X3.9715Y-5.251
X4.0748Y-5.4675
X4.0945Y-5.2461
X4.1142Y-5.4429
X4.1226Y-5.6239
X4.124Y-5.5906
X4.2717Y-5.502
X4.3209Y-5.5118
X4.4193Y-5.315
X4.4488Y-5.3346
X4.5401Y-5.3267
X4.5571Y-6.1417
X4.5768Y-5.2707
X4.5974Y-6.2303
X4.5975Y-6.1109
X4.7933Y-6.1811
X5.3051Y-5.4724
X5.374Y-5.6004
X5.4528Y-5.4724
X5.5315Y-5.5807
X2.874Y-6.1417
X2.874Y-6.1811
X2.874Y-6.2205
X4.685Y-6.1417
X4.685Y-6.1811
X4.685Y-6.2205
T2
X1.624Y-4.9449
X1.6929Y-4.9409
X2.2835Y-4.5118
X2.5098Y-4.6063
X2.6083Y-4.5502
X2.628Y-6.378
X2.7461Y-5.4921
X2.7559Y-5.3445
X2.7657Y-5.5512
X2.7854Y-5.6004
X2.8051Y-6.3681
X2.8248Y-4.4783
X2.8543Y-5.1083
X2.8839Y-5.9055
X2.9035Y-5.2756
X2.9528Y-6.378
X2.9626Y-5.7677
X3.0315Y-5.4823
X3.0413Y-6.2795
X3.061Y-5.3445
X3.0906Y-5.2362
X3.1004Y-4.3996
X3.1102Y-5.0197
X3.1102Y-5.6594
X3.1299Y-6.3484
X3.1496Y-5.935
X3.1496Y-6.2303
X3.161Y-4.3838
X3.189Y-5.5807
X3.3268Y-4.5079
X3.3563Y-6.1614
X3.3858Y-6.0039
X3.5827Y-5.0
X3.5925Y-5.9154
X3.5925Y-6.0236
X3.5925Y-6.1516
X3.5925Y-6.25
X3.6319Y-4.3671
X3.7106Y-4.6555
X3.75Y-4.4321
X3.7598Y-5.0098
X3.7795Y-5.9154
X3.7795Y-6.0236
X3.7795Y-6.1516
X3.7795Y-6.25
X3.7992Y-4.6555
X3.8091Y-4.4321
X3.8583Y-4.6555
X3.8976Y-6.1614
X3.9272Y-4.3701
X3.9764Y-5.0098
X4.0551Y-4.5079
X4.1339Y-5.8465
X4.1535Y-6.2402
X4.1634Y-5.7677
X4.2224Y-5.2461
X4.252Y-5.1181
X4.252Y-5.8366
X4.2618Y-4.498
X4.2618Y-5.6496
X4.3307Y-4.4528
X4.3307Y-5.2461
X4.3406Y-5.0098
X4.3406Y-5.7185
X4.3504Y-5.4232
X4.3642Y-5.9232
X4.3996Y-4.4587
X4.4094Y-5.1476
X4.4587Y-5.8169
X4.4587Y-6.1417
X4.498Y-5.2264
X4.5079Y-5.4429
X4.5079Y-5.9449
X4.5571Y-6.0039
X4.5571Y-6.4075
X4.6161Y-5.3445
X4.6161Y-5.9252
X4.6752Y-5.0591
X4.6752Y-6.4075
X4.685Y-5.6201
X4.685Y-6.0335
X4.6949Y-5.4626
X4.7244Y-4.4783
X4.7539Y-5.9547
X4.7835Y-5.5807
X4.8524Y-5.4035
X4.8819Y-6.4173
X5.0197Y-5.6102
X5.0295Y-6.3976
X5.0689Y-6.2795
X5.0984Y-5.6693
X5.128Y-4.5472
X5.1575Y-4.626
X5.2657Y-4.5079
X5.3445Y-5.6693
X5.561Y-5.6594
X5.6398Y-6.3484
X5.7087Y-5.561
X5.7579Y-4.9114
T3
X2.8642Y-6.0433
X3.2972Y-5.876
X3.376Y-5.6496
X3.5039Y-5.2569
X3.5827Y-5.7382
X3.9272Y-5.8465
X4.0354Y-5.187
X4.1437Y-5.689
X4.1634Y-5.4232
X4.1732Y-6.1024
X4.2126Y-5.3337
X4.3012Y-5.3642
X4.7343Y-5.748
X4.7933Y-5.4626
T4
X5.2461Y-6.3583
X5.3445Y-6.3583
X5.4429Y-6.3583
T5
X4.8917Y-5.689
X4.8917Y-5.789
X4.8917Y-5.889
X4.8917Y-5.989
X4.8917Y-6.089
X4.8917Y-6.189
X2.6772Y-5.6791
X2.6772Y-5.7791
X2.6772Y-5.8791
X2.6772Y-5.9791
X2.6772Y-6.0791
X2.6772Y-6.1791
X1.8701Y-5.5118
X1.9701Y-5.5118
X2.0701Y-5.5118
X2.1701Y-5.5118
X2.2701Y-5.5118
X2.3701Y-5.5118
X2.4701Y-5.5118
X2.5701Y-5.5118
X4.2717Y-6.3878
X4.3717Y-6.3878
X3.2185Y-4.9902
X3.2185Y-5.0902
X3.2185Y-5.1902
X3.2185Y-5.2902
X3.2185Y-5.3902
T6
X3.4149Y-4.8228
X3.4149Y-4.8819
X3.4444Y-4.8228
X3.4444Y-4.8819
X3.4739Y-4.8228
X3.4739Y-4.8819
X3.5044Y-4.8228
X3.5044Y-4.8819
X3.5344Y-4.8228
X3.5344Y-4.8819
X4.0061Y-4.7441
X4.0061Y-4.8031
X4.0356Y-4.7441
X4.0356Y-4.8031
X4.0651Y-4.7441
X4.0651Y-4.8031
X4.0956Y-4.7441
X4.0956Y-4.8031
X4.1256Y-4.7441
X4.1256Y-4.8031
X3.4149Y-4.7441
X3.4149Y-4.8031
X3.4444Y-4.7441
X3.4444Y-4.8031
X3.4739Y-4.7441
X3.4739Y-4.8031
X3.5044Y-4.7441
X3.5044Y-4.8031
X3.5344Y-4.7441
X3.5344Y-4.8031
X4.0061Y-4.8228
X4.0061Y-4.8819
X4.0356Y-4.8228
X4.0356Y-4.8819
X4.0651Y-4.8228
X4.0651Y-4.8819
X4.0956Y-4.8228
X4.0956Y-4.8819
X4.1256Y-4.8228
X4.1256Y-4.8819
T7
X4.8622Y-5.2461
X5.0Y-5.3839
T0
M30
